<svg width="25" height="123" viewBox="0 0 25 123" fill="none" xmlns="http://www.w3.org/2000/svg">
<path d="M12.9446 101.227C18.3846 101.219 22.86 105.615 22.8685 111.055C22.8771 116.495 18.4156 120.971 12.9756 120.979C7.53563 120.988 3.12482 116.526 3.11628 111.086C3.10774 105.646 7.50462 101.236 12.9446 101.227Z" stroke="#A8A8A8" stroke-width="4" stroke-linecap="round" stroke-linejoin="round"/>
<path d="M12.8928 68.1339C18.3328 68.1253 22.8082 72.5221 22.8168 77.9621C22.8254 83.4668 18.3638 87.8776 12.9238 87.8862C7.48387 87.8947 3.07316 83.4978 3.06452 77.9931C3.05598 72.5531 7.45286 68.1424 12.8928 68.1339Z" fill="#A8A8A8" stroke="#A8A8A8" stroke-width="4" stroke-linecap="round" stroke-linejoin="round"/>
<path d="M12.8411 35.0406C18.281 35.0321 22.7566 39.4936 22.7651 44.9336C22.7737 50.3736 18.312 54.7844 12.8721 54.7929C7.43211 54.8014 3.02141 50.4046 3.01286 44.9646C3.00432 39.5246 7.4011 35.0492 12.8411 35.0406Z" stroke="#00E676" stroke-width="4" stroke-miterlimit="10"/>
<path d="M12.7884 2.01236C18.2284 2.00382 22.7039 6.4006 22.7124 11.8406C22.7209 17.2805 18.2593 21.6913 12.8193 21.6999C7.37938 21.7084 2.96867 17.3115 2.96013 11.8716C2.95159 6.43161 7.34847 2.02091 12.7884 2.01236Z" fill="#00E676" stroke="#00E676" stroke-width="4" stroke-miterlimit="10"/>
</svg>
