<svg width="24" height="123" viewBox="0 0 24 123" fill="none" xmlns="http://www.w3.org/2000/svg">
<path d="M11.9993 101.23C17.4392 101.222 21.9147 105.619 21.9232 111.059C21.9318 116.498 17.4703 120.974 12.0303 120.983C6.59032 120.991 2.17951 116.53 2.17097 111.09C2.16242 105.65 6.5593 101.239 11.9993 101.23Z" stroke="#A8A8A8" stroke-width="4" stroke-linecap="round" stroke-linejoin="round"/>
<path d="M11.9475 68.1371C17.3875 68.1285 21.8629 72.5253 21.8715 77.9653C21.8801 83.47 17.4185 87.8808 11.9785 87.8893C6.53856 87.8979 2.12785 83.501 2.11921 77.9963C2.11067 72.5563 6.50754 68.1456 11.9475 68.1371Z" stroke="#A8A8A8" stroke-width="4" stroke-linecap="round" stroke-linejoin="round"/>
<path d="M11.8958 35.0438C17.3357 35.0353 21.8113 39.4968 21.8198 44.9368C21.8284 50.3767 17.3667 54.7875 11.9268 54.7961C6.4868 54.8046 2.07609 50.4077 2.06755 44.9678C2.05901 39.5278 6.45579 35.0523 11.8958 35.0438Z" stroke="#00E676" stroke-width="4" stroke-miterlimit="10"/>
<path d="M11.8431 2.01554C17.2831 2.007 21.7585 6.40377 21.7671 11.8437C21.7756 17.2837 17.314 21.6945 11.874 21.7031C6.43407 21.7116 2.02336 17.3147 2.01482 11.8748C2.00628 6.43479 6.40315 2.02408 11.8431 2.01554Z" stroke="#00E676" stroke-width="4" stroke-miterlimit="10"/>
</svg>
