<svg width="230" height="230" viewBox="0 0 230 230" fill="none" xmlns="http://www.w3.org/2000/svg">
<path d="M114.958 47.9319C114.958 56.5864 107.952 63.5924 99.2972 63.5924C90.6542 63.5924 83.6367 56.5864 83.6367 47.9319C83.6367 39.2889 90.6542 32.2715 99.2972 32.2715C107.952 32.2715 114.958 39.2889 114.958 47.9319Z" fill="#D2D2D2"/>
<path d="M100.945 53.7017L99.1247 48.0809L90.1611 42.3685L90.3901 42.0022L99.4796 47.7947L101.357 53.5644L100.945 53.7017Z" fill="black"/>
<path fill-rule="evenodd" clip-rule="evenodd" d="M179.774 118.942C176.363 118.942 173.1 117.5 170.788 114.981L164.675 117.683L168.67 111.788C167.949 110.196 167.583 108.491 167.583 106.739C167.583 100.008 173.055 94.5359 179.774 94.5359C186.506 94.5359 191.978 100.008 191.978 106.739C191.978 113.47 186.506 118.942 179.774 118.942ZM170.902 114.466L171.005 114.581C173.238 117.076 176.432 118.507 179.774 118.507C186.277 118.507 191.554 113.23 191.554 106.739C191.554 100.248 186.277 94.9595 179.774 94.9595C173.283 94.9595 168.006 100.248 168.006 106.739C168.006 108.468 168.384 110.151 169.105 111.719L169.162 111.822L165.865 116.687L170.902 114.466Z" fill="black"/>
<path fill-rule="evenodd" clip-rule="evenodd" d="M173.993 108.696C173.008 108.696 172.207 107.895 172.207 106.911C172.207 105.938 173.008 105.136 173.993 105.136C174.966 105.136 175.767 105.938 175.767 106.911C175.767 107.895 174.966 108.696 173.993 108.696ZM173.993 105.56C173.249 105.56 172.642 106.167 172.642 106.911C172.642 107.655 173.249 108.261 173.993 108.261C174.737 108.261 175.344 107.655 175.344 106.911C175.344 106.167 174.737 105.56 173.993 105.56Z" fill="black"/>
<path fill-rule="evenodd" clip-rule="evenodd" d="M179.626 108.696C178.641 108.696 177.84 107.895 177.84 106.911C177.84 105.938 178.641 105.136 179.626 105.136C180.599 105.136 181.4 105.938 181.4 106.911C181.4 107.895 180.599 108.696 179.626 108.696ZM179.626 105.56C178.882 105.56 178.275 106.167 178.275 106.911C178.275 107.655 178.882 108.261 179.626 108.261C180.37 108.261 180.977 107.655 180.977 106.911C180.977 106.167 180.37 105.56 179.626 105.56Z" fill="black"/>
<path fill-rule="evenodd" clip-rule="evenodd" d="M185.258 108.696C184.273 108.696 183.472 107.895 183.472 106.911C183.472 105.938 184.273 105.136 185.258 105.136C186.242 105.136 187.032 105.938 187.032 106.911C187.032 107.895 186.242 108.696 185.258 108.696ZM185.258 105.56C184.513 105.56 183.907 106.167 183.907 106.911C183.907 107.655 184.513 108.261 185.258 108.261C186.002 108.261 186.608 107.655 186.608 106.911C186.608 106.167 186.002 105.56 185.258 105.56Z" fill="black"/>
<path d="M25.0127 82.4812V108.868C25.0127 111.73 27.3366 114.043 30.1871 114.043H68.9833C71.8452 114.043 74.1577 111.73 74.1577 108.868V82.4812H25.0127Z" fill="white"/>
<path fill-rule="evenodd" clip-rule="evenodd" d="M68.983 114.26H30.1868C27.2218 114.26 24.7949 111.833 24.7949 108.868V82.2634H74.3749V108.868C74.3749 111.833 71.9594 114.26 68.983 114.26ZM25.2299 82.6984V108.868C25.2299 111.604 27.4508 113.825 30.1868 113.825H68.983C71.719 113.825 73.9399 111.604 73.9399 108.868V82.6984H25.2299Z" fill="#D2D2D2"/>
<path d="M74.1577 78.188C74.1577 75.3261 71.8452 73.0022 68.9833 73.0022H30.1871C27.3366 73.0022 25.0127 75.3261 25.0127 78.188V82.4809H74.1577V78.188Z" fill="#D2D2D2"/>
<path fill-rule="evenodd" clip-rule="evenodd" d="M74.3749 82.6981H24.7949V78.1877C24.7949 75.2113 27.2218 72.7844 30.1868 72.7844H68.983C71.9594 72.7844 74.3749 75.2113 74.3749 78.1877V82.6981ZM25.2299 82.2631H73.9399V78.1877C73.9399 75.4403 71.719 73.2194 68.983 73.2194H30.1868C27.4508 73.2194 25.2299 75.4403 25.2299 78.1877V82.2631Z" fill="#D2D2D2"/>
<path d="M34.0799 109.235H30.5654V94.9592H34.0799V109.235Z" fill="#599BFF"/>
<path d="M39.8262 109.235H36.3232V98.7141H39.8262V109.235Z" fill="#599BFF"/>
<path d="M45.585 109.235H42.082V101.221H45.585V109.235Z" fill="#599BFF"/>
<path d="M51.3426 109.234H47.8281V96.6877H51.3426V109.234Z" fill="#599BFF"/>
<path d="M57.0899 109.235H53.5869V100.065H57.0899V109.235Z" fill="#599BFF"/>
<path d="M62.8477 109.234H59.3447V97.5349H62.8477V109.234Z" fill="#599BFF"/>
<path d="M68.6053 109.234H65.0908V92.7039H68.6053V109.234Z" fill="#599BFF"/>
<path fill-rule="evenodd" clip-rule="evenodd" d="M31.5378 79.6075C30.5076 79.6075 29.6719 78.7718 29.6719 77.7415C29.6833 76.7112 30.5076 75.887 31.5378 75.887C32.5681 75.887 33.4038 76.7112 33.4038 77.7415C33.3924 78.7718 32.5681 79.6075 31.5378 79.6075ZM31.5378 76.3105C30.748 76.3105 30.1069 76.9516 30.1069 77.7415C30.1069 78.5314 30.748 79.1724 31.5378 79.1724C32.3277 79.1724 32.9688 78.5314 32.9688 77.7415C32.9688 76.9516 32.3277 76.3105 31.5378 76.3105Z" fill="black"/>
<path d="M57.6161 89.2927H40.8682V88.8577H57.6161V89.2927Z" fill="black"/>
<path d="M74.1577 82.6984H25.0127V82.2634H74.1577V82.6984Z" fill="black"/>
<path d="M197.403 79.6189V79.3557H199.189L199.201 79.5388V79.6189H197.403ZM195.606 79.6189H193.809V79.3557H195.606V79.6189ZM192.011 79.6189H190.226V79.3671H192.011V79.6189ZM188.428 79.6189H186.631V79.3671H188.428V79.6189ZM184.834 79.6189H183.048V79.3557H184.834V79.6189ZM181.251 79.6189H179.453V79.3671H181.251V79.6189ZM177.667 79.6189H175.87V79.3671H177.667V79.6189ZM174.073 79.6189H172.276V79.3557H174.073V79.6189ZM170.49 79.6189H168.692V79.3671H170.49V79.6189ZM166.895 79.6189H165.098V79.3671H166.895V79.6189ZM163.312 79.6189H161.515V79.3557H163.312V79.6189ZM159.717 79.6189H157.92V79.3671H159.717V79.6189ZM156.134 79.6189C155.505 79.6075 154.898 79.4701 154.337 79.1954L154.451 78.9664C154.978 79.2297 155.539 79.3557 156.134 79.3671V79.6189ZM200.998 79.2068L200.895 78.9779C201.41 78.726 201.879 78.3597 202.246 77.9018L202.44 78.0621C202.051 78.5429 201.559 78.9435 200.998 79.2068ZM152.906 78.0506C152.528 77.5698 152.242 76.9974 152.105 76.4021L152.357 76.3449C152.482 76.9058 152.746 77.4439 153.112 77.8904L152.906 78.0506ZM203.242 76.425L203.001 76.3564C203.07 76.0587 203.104 75.7496 203.104 75.4405V74.6049H203.368V75.4405C203.368 75.7725 203.322 76.1045 203.242 76.425ZM152.242 74.582H151.99V72.7961H152.242V74.582ZM203.368 72.8076H203.104V71.0103H203.368V72.8076ZM152.242 70.9874H151.99V69.2015H152.242V70.9874ZM203.368 69.213H203.104V67.4157H203.368V69.213ZM152.242 67.3928H151.99V65.607H152.242V67.3928ZM203.368 65.6184H203.104V63.8211H203.368V65.6184ZM152.242 63.8097H151.99V62.0124H152.242V63.8097ZM203.368 62.0353H203.104V60.238H203.368V62.0353ZM152.242 60.2265H151.99V59.3909C151.99 59.0589 152.025 58.7269 152.105 58.4064L152.357 58.4636C152.276 58.7727 152.242 59.0818 152.242 59.3909V60.2265ZM203.001 58.4979C202.864 57.937 202.601 57.399 202.246 56.9411L202.44 56.7808C202.829 57.2616 203.104 57.834 203.253 58.4293L203.001 58.4979ZM153.112 56.9411L152.918 56.7808C153.307 56.3 153.81 55.9108 154.36 55.6475L154.474 55.8764C153.948 56.1283 153.478 56.4946 153.112 56.9411ZM200.895 55.8879C200.368 55.6246 199.796 55.4986 199.212 55.4986V55.2354C199.842 55.2468 200.437 55.3842 200.998 55.6475L200.895 55.8879ZM197.426 55.4986H195.629V55.2468H197.426V55.4986ZM193.843 55.4986H192.046V55.2468H193.843V55.4986ZM190.248 55.4986H188.451V55.2354H190.248V55.4986ZM186.665 55.4986H184.868V55.2468H186.665V55.4986ZM183.071 55.4986H181.273V55.2468H183.071V55.4986ZM179.488 55.4986H177.69V55.2354H179.488V55.4986ZM175.893 55.4986H174.096V55.2468H175.893V55.4986ZM172.31 55.4986H170.513V55.2468H172.31V55.4986ZM168.715 55.4986H166.929V55.2354H168.715V55.4986ZM165.132 55.4986H163.335V55.2468H165.132V55.4986ZM161.538 55.4986H159.752V55.2468H161.538V55.4986ZM157.954 55.4986H156.169L156.157 55.2354H157.954V55.4986Z" fill="black"/>
<path d="M195.126 75.612H152.105C149.861 75.612 148.053 73.8032 148.053 71.5595V55.5213C148.053 53.289 149.861 51.4802 152.105 51.4802H195.126C197.358 51.4802 199.178 53.289 199.178 55.5213V71.5595C199.178 73.8032 197.358 75.612 195.126 75.612Z" fill="#FF5970"/>
<path d="M162.179 60.559C162.179 60.9482 162.076 61.3031 161.904 61.6121C161.538 62.2647 160.851 62.6997 160.05 62.6997C159.249 62.6997 158.562 62.2647 158.184 61.6121C158.012 61.3031 157.909 60.9482 157.909 60.559C157.909 59.3913 158.871 58.4297 160.05 58.4297C161.229 58.4297 162.179 59.3913 162.179 60.559Z" fill="white"/>
<path d="M164.171 66.2602V68.6642H155.929V66.2602C155.929 64.875 156.753 63.6616 157.989 63.0205C158.401 63.673 159.168 64.108 160.05 64.108C160.931 64.108 161.698 63.673 162.099 63.0205C162.42 63.1808 162.706 63.3868 162.969 63.6158C163.713 64.2912 164.171 65.2299 164.171 66.2602Z" fill="white"/>
<path d="M176.501 60.9252H172.15V56.6094H176.501V60.9252Z" fill="white"/>
<path d="M192.023 57.1592H179.785V56.644H192.023V57.1592Z" fill="white"/>
<path d="M186.31 60.8789H179.785V60.3638H186.31V60.8789Z" fill="white"/>
<path d="M176.501 70.4842H172.15V66.157H176.501V70.4842Z" fill="white"/>
<path d="M192.023 66.7063H179.785V66.2026H192.023V66.7063Z" fill="white"/>
<path d="M188.52 70.4266H179.785V69.9229H188.52V70.4266Z" fill="white"/>
<path d="M96.7789 171.888L94.9473 197.645H146.76L146.519 171.888L123.692 167.801L96.7789 171.888Z" fill="#599BFF"/>
<path d="M122.593 197.749L122.17 197.726L122.536 188.121L115.771 186.53L115.874 186.118L122.971 187.789L122.593 197.749Z" fill="black"/>
<path d="M133.342 118.347C137.567 110.116 134.052 103.534 128.958 101.668C130.767 84.6563 108.386 85.0455 110.435 97.6838L119.788 117.351C119.788 117.351 133.503 118.347 133.342 118.347Z" fill="black"/>
<path d="M128.9 89.2695C128.9 91.7536 126.885 93.7684 124.401 93.7684C121.917 93.7684 119.902 91.7536 119.902 89.2695C119.902 86.7853 121.917 84.7705 124.401 84.7705C126.885 84.7705 128.9 86.7853 128.9 89.2695Z" fill="black"/>
<path d="M146.519 171.899H96.7783V153.88H146.519V171.899Z" fill="#FFD966"/>
<path d="M150.216 122.434C148.213 118.221 144.206 115.29 139.582 114.661L118.827 111.822L100.533 115.863C95.8628 117.099 92.2796 120.854 91.2837 125.593L83.7969 161.092H149.724L155.814 161.07C160.153 161.058 163.129 156.731 161.607 152.678L150.216 122.434Z" fill="#FFD966"/>
<g opacity="0.8">
<path d="M102.388 115.451L102.079 115.519C101.312 118.862 99.526 121.964 96.9503 124.265C95.1874 125.845 93.081 127.001 90.8372 127.7L90.7686 128.02C93.1153 127.311 95.3133 126.12 97.1564 124.471C99.8008 122.102 101.621 118.896 102.388 115.451Z" fill="white"/>
<path d="M151.327 125.387C148.282 125.272 145.283 124.173 142.936 122.193C140.601 120.213 139.021 117.465 138.38 114.5L138.082 114.466C138.735 117.591 140.417 120.499 142.902 122.536C145.317 124.505 148.351 125.582 151.43 125.673L151.327 125.387Z" fill="white"/>
<path d="M109.313 135.621C106.737 136.079 104.322 137.339 102.868 139.582C102.765 139.743 103.017 139.88 103.12 139.731C106.314 134.786 113.137 135.232 118.025 136.778C123.405 138.495 128.705 141.403 134.509 140.201C137.039 139.674 139.375 138.346 140.726 136.091C140.829 135.931 140.577 135.793 140.485 135.953C137.509 140.91 130.778 140.727 125.935 139.262C120.486 137.613 115.197 134.591 109.313 135.621Z" fill="white"/>
</g>
<path d="M154.487 148.042L145.134 147.229L145.18 146.806L154.521 147.618L154.487 148.042Z" fill="black"/>
<path d="M145.099 147.092L138.654 128.055L139.066 127.917L145.5 146.943L145.099 147.092Z" fill="black"/>
<path d="M102.296 148.031L101.872 148.008L103.429 128.398L103.853 128.432L102.296 148.031Z" fill="black"/>
<path d="M149.381 150.812C149.655 155.208 148.43 159.822 145.351 160.944C144.55 161.23 143.668 160.841 143.37 160.039C142.603 158.025 143.691 154.922 145.294 153.743L149.381 150.812Z" fill="black"/>
<path d="M141.138 161.036H129.404V145.295H141.138V161.036Z" fill="white"/>
<path d="M123.967 102.435V114.558C123.967 117.351 121.7 119.606 118.919 119.606C116.125 119.606 113.87 117.351 113.87 114.558V102.435H123.967Z" fill="#FF8F78"/>
<path d="M122.112 106.27C119.857 109.67 117.156 112.188 113.87 113.585V104.827L122.112 106.27Z" fill="black"/>
<path d="M123.601 103.82C123.223 105.044 122.559 106.04 121.735 106.819C119.686 108.742 116.583 109.349 114.088 108.799C114.008 108.776 113.939 108.765 113.87 108.742C112.405 108.296 111.558 106.636 111.077 104.747C110.871 104.003 110.734 103.213 110.642 102.446C110.321 99.9502 110.436 97.6835 110.436 97.6835L111.947 93.4937L117.305 91.5361L123.028 95.7374L123.212 98.3475L123.36 100.42L123.498 102.434L123.566 103.476L123.601 103.82Z" fill="#FF8F78"/>
<path d="M110.436 97.6839C111.328 95.36 112.198 93.6886 113.939 93.1964C114.454 93.0475 115.015 93.1277 115.484 93.3795C116.423 93.8603 117.957 94.9593 118.369 97.0542C118.976 100.134 120.613 101.278 123.085 100.511C125.558 99.7445 125.718 96.7337 125.718 96.7337L125.169 92.727L118.644 90.5291L113.378 91.8455L111.603 93.4368L110.436 97.6839Z" fill="black"/>
<path d="M126.314 101.61C125.707 103.064 124.254 103.842 123.063 103.339C121.884 102.847 121.415 101.267 122.021 99.8129C122.639 98.359 124.082 97.5806 125.272 98.0843C126.452 98.5765 126.921 100.156 126.314 101.61Z" fill="#FF8F78"/>
<path d="M123.028 101.92C123.051 101.427 123.257 100.924 123.612 100.534C123.956 100.145 124.425 99.8819 124.917 99.8018L124.974 99.962C124.585 100.237 124.219 100.5 123.921 100.821C123.624 101.141 123.395 101.53 123.189 101.965L123.028 101.92Z" fill="black"/>
<path d="M112.52 100.649C112.52 101.026 112.302 101.324 112.039 101.324C111.775 101.324 111.569 101.026 111.569 100.649C111.569 100.282 111.775 99.9731 112.039 99.9731C112.302 99.9731 112.52 100.282 112.52 100.649Z" fill="black"/>
<path d="M115.587 100.454C115.587 100.832 115.381 101.129 115.118 101.129C114.854 101.129 114.637 100.832 114.637 100.454C114.637 100.076 114.854 99.7786 115.118 99.7786C115.381 99.7786 115.587 100.076 115.587 100.454Z" fill="black"/>
<path d="M113.607 101.576C113.538 101.782 113.447 101.977 113.366 102.171C113.286 102.355 113.218 102.538 113.218 102.698C113.218 102.767 113.229 102.813 113.263 102.87C113.298 102.927 113.355 102.973 113.435 103.03C113.584 103.133 113.779 103.213 113.973 103.328L113.927 103.488C113.71 103.488 113.481 103.465 113.252 103.362C113.138 103.305 113.023 103.236 112.931 103.122C112.828 102.996 112.771 102.835 112.794 102.687C112.806 102.4 112.92 102.183 113.034 102C113.16 101.805 113.309 101.633 113.469 101.485L113.607 101.576Z" fill="black"/>
<path d="M112.668 104.644C112.977 104.85 113.286 105.044 113.606 105.17C113.938 105.285 114.27 105.308 114.568 105.193C114.866 105.067 115.129 104.827 115.381 104.575C115.644 104.323 115.873 104.037 116.125 103.762L116.251 103.842C116.079 104.186 115.873 104.495 115.633 104.804C115.392 105.102 115.106 105.388 114.705 105.548C114.305 105.697 113.835 105.651 113.481 105.468C113.126 105.285 112.828 105.033 112.576 104.758L112.668 104.644Z" fill="black"/>
<path d="M112.565 98.2333C112.573 98.2791 112.561 98.3364 112.531 98.4051C112.382 98.7943 111.764 98.9431 111.386 99.0003C111.066 99.0461 110.321 99.0347 110.791 98.5653C111.088 98.2677 111.535 98.096 111.936 98.0158C112.187 97.9701 112.531 98.0158 112.565 98.2333Z" fill="black"/>
<path d="M113.836 97.8673C113.813 97.9207 113.817 97.978 113.847 98.039C113.996 98.4397 114.889 98.4855 115.416 98.4855C115.885 98.4855 116.961 98.3595 116.355 97.936C115.977 97.6612 115.359 97.5697 114.786 97.5468C114.42 97.5353 113.928 97.6383 113.836 97.8673Z" fill="black"/>
<path opacity="0.4" d="M118.758 102.194C118.758 102.847 118.232 103.373 117.579 103.373C116.927 103.373 116.389 102.847 116.389 102.194C116.389 101.542 116.927 101.015 117.579 101.015C118.232 101.015 118.758 101.542 118.758 102.194Z" fill="#FF5970"/>
<path opacity="0.4" d="M111.889 103.625C111.889 104.151 111.546 104.586 111.077 104.747C110.871 103.991 110.733 103.213 110.642 102.446C110.664 102.446 110.684 102.446 110.699 102.446C111.363 102.446 111.889 102.972 111.889 103.625Z" fill="#FF5970"/>
<path d="M150.549 149.633C150.652 148.031 147.961 146.863 146.771 146.474C145.031 145.913 143.165 145.741 141.345 145.638C140.669 145.684 139.765 145.489 139.456 146.577C139.032 148.053 143.508 150.217 146.736 150.858C147.813 151.076 149.564 151.579 150.274 150.4C150.446 150.137 150.526 149.874 150.549 149.633Z" fill="#FF8F78"/>
<path d="M147.629 156.525C149.128 154.579 146.347 152.679 140.016 150.767C139.009 150.423 138.597 150.24 137.933 151.522C137.303 152.724 141.229 155.609 143.862 156.834C145.167 157.441 146.118 158.494 147.629 156.525Z" fill="#FF8F78"/>
<path d="M145.328 158.894C146.416 156.811 144.653 155.162 139.914 153.731C136.124 153.537 139.765 157.853 142.501 159.123C143.485 159.57 144.882 159.742 145.328 158.894Z" fill="#FF8F78"/>
<path d="M149.392 152.346C150.194 150.171 146.748 148.752 139.456 147.847C138.998 147.882 138.62 147.721 138.288 148.649C137.601 150.595 141.551 152.804 146.278 154.167C147.938 154.647 148.385 155.071 149.392 152.346Z" fill="#FF8F78"/>
<path d="M146.703 150.732L139.502 147.801L139.674 147.355L146.874 150.297L146.703 150.732Z" fill="black"/>
<path d="M144.344 153.136L139.158 150.892L139.353 150.457L144.527 152.701L144.344 153.136Z" fill="black"/>
<path d="M143.291 156.548L138.986 153.938L139.227 153.526L143.543 156.147L143.291 156.548Z" fill="black"/>
<path d="M119.01 161.058H97.9463V157.853H119.01V161.058Z" fill="black"/>
<path d="M107.791 161.035H76.8825L67.9189 133.561H98.8277L107.791 161.035Z" fill="#FF5970"/>
<path d="M106.361 87.9187L100.522 83.3511L100.751 83.0535L106.601 87.6096L106.361 87.9187Z" fill="black"/>
<path d="M97.408 96.6877L97.3164 96.3214L104.46 94.3867L104.563 94.753L97.408 96.6877Z" fill="black"/>
<path d="M105.491 91.1354L96.3096 88.5482L96.4126 88.1819L105.594 90.7691L105.491 91.1354Z" fill="black"/>
<path d="M110.745 197.645H105.594V168.076H110.745V197.645Z" fill="white"/>
<path fill-rule="evenodd" clip-rule="evenodd" d="M110.894 197.794H105.456V167.938H110.894V197.794ZM105.742 197.508H110.608V168.213H105.742V197.508Z" fill="black"/>
<path opacity="0.2" d="M110.745 172.163H105.594V168.076H110.745V172.163Z" fill="black"/>
<path d="M115.713 169.552H100.637V163.497H115.713V169.552Z" fill="white"/>
<path fill-rule="evenodd" clip-rule="evenodd" d="M115.839 169.678H100.511V163.371H115.839V169.678ZM100.763 169.426H115.587V163.622H100.763V169.426Z" fill="black"/>
<path opacity="0.2" d="M115.713 167.457H100.637V163.497H115.713V167.457Z" fill="black"/>
<path d="M156.639 165.385H59.7109V161.035H156.639V165.385Z" fill="white"/>
<path fill-rule="evenodd" clip-rule="evenodd" d="M156.776 165.523H59.5732V160.898H156.776V165.523ZM59.8594 165.236H156.489V161.184H59.8594V165.236Z" fill="black"/>
<path d="M30.9658 197.622H198.675" stroke="black" stroke-width="1.61116" stroke-miterlimit="10"/>
</svg>
