<svg width="627" height="627" viewBox="0 0 627 627" fill="none" xmlns="http://www.w3.org/2000/svg">
<path d="M544.8 334.066H488.872C485.423 334.066 482.602 331.244 482.602 327.796V299.832C482.602 296.383 485.423 293.562 488.872 293.562H544.8C548.248 293.562 551.07 296.383 551.07 299.832V327.796C551.07 331.244 548.248 334.066 544.8 334.066Z" fill="#60A8FF"/>
<path d="M516.836 349.866L525.677 328.861H507.995L516.836 349.866Z" fill="#60A8FF"/>
<path d="M516.648 306.854H532.637V309.237L540.474 304.722L532.637 300.145V302.528H516.648V306.854Z" fill="#223A7A"/>
<path d="M540.474 316.071H524.486V313.751L516.648 318.265L524.486 322.78V320.46H540.474V316.071Z" fill="white"/>
<path d="M506.804 320.209L506.052 320.46C506.052 320.46 503.669 317.764 502.415 314.817C501.161 311.87 501.161 308.233 501.161 308.233L501.725 308.045L498.339 299.894C497.712 300.396 497.148 301.023 496.647 301.775C494.766 305.035 494.954 309.989 496.897 314.817C498.778 319.707 500.847 324.034 504.609 326.73C506.867 328.36 508.748 328.673 510.252 328.423L506.804 320.209Z" fill="#223A7A"/>
<path d="M509.25 319.268L508.184 319.645L511.632 327.921C512.05 327.796 512.405 327.649 512.698 327.482C513.576 326.981 513.952 325.915 513.576 324.974L511.82 320.397C511.381 319.394 510.253 318.892 509.25 319.268Z" fill="#223A7A"/>
<path d="M500.973 298.515C500.555 298.64 500.095 298.849 499.594 299.142L503.042 307.418L504.234 306.916C505.237 306.477 505.738 305.349 505.362 304.346L503.544 299.643C503.105 298.64 501.976 298.138 500.973 298.515Z" fill="#223A7A"/>
<path d="M187.096 466.802V373.441C187.096 373.441 186.093 348.236 199.323 340.963C212.553 333.69 268.356 337.64 268.356 337.64V466.802H187.096Z" fill="#1C83FF"/>
<path d="M285.787 250.173C285.787 250.173 282.401 278.451 281.084 280.77C279.768 283.153 279.768 283.153 279.768 283.153L273.31 287.542C273.31 287.542 285.787 305.161 301.086 308.045C316.384 310.866 315.068 301.838 315.068 301.838L312.748 296.884L315.883 269.923C315.883 269.923 288.107 257.195 285.787 250.173Z" fill="#FF9D8C"/>
<path d="M265.283 289.862L275.378 285.473C275.378 285.473 281.836 296.069 296.884 302.339C311.932 308.547 312.246 304.91 312.998 302.339C313.75 299.706 312.747 296.885 312.747 296.885L313.876 287.793L319.895 289.799L340.774 458.776L287.04 461.347L265.283 289.862Z" fill="white"/>
<path d="M314.816 287.981C314.816 287.981 318.453 296.383 321.839 316.071C325.225 335.821 328.297 368.989 329.112 391.812C329.864 414.698 330.366 466.801 330.366 466.801C330.366 466.801 397.33 466.801 398.082 466.801C398.897 466.801 403.537 441.157 403.537 441.157C403.537 441.157 373.943 415.764 372.438 411.625C371.372 408.867 371.873 357.578 367.484 334.003C363.095 310.365 357.39 305.6 345.414 299.706C333.125 293.624 314.816 287.981 314.816 287.981Z" fill="#223A7A"/>
<path d="M350.117 437.082C349.74 437.082 349.49 436.831 349.49 436.455C349.49 434.637 349.113 408.24 348.8 382.784C348.486 357.265 348.173 330.931 348.173 329.05C348.173 328.674 348.486 328.423 348.8 328.423C349.176 328.423 349.427 328.674 349.427 329.05C349.427 330.931 349.74 357.265 350.054 382.721C350.367 408.24 350.744 434.574 350.744 436.455C350.744 436.831 350.43 437.082 350.117 437.082Z" fill="#8593B6"/>
<path d="M215.186 430.749L214.685 466.801H293.561C293.561 466.801 296.884 436.204 295.63 433.32C294.314 430.498 215.186 430.749 215.186 430.749Z" fill="#223A7A"/>
<g style="mix-blend-mode:multiply">
<path d="M302.966 280.018C306.164 282.589 310.553 284.658 314.001 285.912L315.882 269.923C315.882 269.923 295.003 260.33 287.918 253.245C289.423 261.333 293.059 271.992 302.966 280.018Z" fill="#8E9BBB"/>
</g>
<path d="M340.273 197.505C340.273 197.505 345.665 206.847 346.731 218.259C347.797 229.67 346.731 259.014 337.389 271.428C328.047 283.906 308.61 280.269 299.769 272.745C291.681 265.848 283.655 258.199 281.586 243.151C279.517 228.103 286.038 199.574 304.409 193.618C322.843 187.661 340.273 197.505 340.273 197.505Z" fill="#FF9D8C"/>
<path d="M363.66 450.5C363.66 450.5 362.719 450.5 361.34 450.5C361.027 450.437 360.65 450.5 360.274 450.437C358.957 450.437 357.327 450.374 355.634 450.311C355.3 450.311 354.945 450.311 354.568 450.311C352.938 450.249 351.559 450.437 350.242 450.374H350.179C349.929 450.374 349.49 450.437 349.176 450.437C349.051 450.437 348.863 450.437 348.8 450.437C348.048 450.311 347.86 450.123 347.044 449.747C345.979 449.308 331.746 446.11 320.146 446.173C308.547 446.236 298.138 446.988 296.446 445.609C294.753 444.167 293.749 429.62 303.656 428.617L315.82 433.257C315.82 433.257 343.596 429.934 353.753 437.458C363.973 444.982 363.66 450.5 363.66 450.5Z" fill="#FF9D8C"/>
<path d="M350.18 450.374C349.929 450.374 349.49 450.437 349.177 450.437C348.926 449.998 348.424 449.308 348.111 448.995C344.976 445.797 337.389 443.728 334.693 443.038C334.442 442.976 334.254 442.725 334.317 442.474C334.38 442.223 334.63 442.098 334.881 442.161C338.894 443.101 347.358 445.609 349.804 449.622C349.866 449.747 350.055 450.123 350.18 450.374Z" fill="#223A7A"/>
<path d="M355.634 450.311C355.3 450.311 354.944 450.311 354.568 450.311C351.12 444.041 345.539 442.286 338.642 440.029L338.204 439.903C337.953 439.841 337.827 439.527 337.89 439.276C338.015 439.088 338.266 438.9 338.517 439.025L338.893 439.151C346.229 441.471 352.123 443.352 355.634 450.311Z" fill="#223A7A"/>
<path d="M361.34 450.437C361.006 450.437 360.65 450.437 360.274 450.437C358.205 446.11 351.308 438.775 342.216 437.082C341.966 437.019 341.778 436.768 341.84 436.517C341.903 436.267 342.154 436.141 342.405 436.141C351.747 437.897 359.334 445.546 361.34 450.437Z" fill="#223A7A"/>
<path d="M287.855 230.36C287.855 230.36 293.561 227.601 297.574 219.951C301.587 212.302 301.085 205.405 301.085 205.405C301.085 205.405 308.358 204.276 319.205 207.474C330.115 210.735 343.094 215.124 354.004 208.916C364.914 202.709 364.914 192.74 359.584 188.539C353.628 183.899 341.777 186.72 341.777 186.72C341.777 186.72 346.355 182.332 343.847 179.761C341.401 177.127 332.435 180.513 332.435 180.513C332.435 180.513 321.588 171.798 300.96 172.864C280.331 173.93 270.425 188.288 269.296 204.402C268.105 220.453 273.936 236.567 273.936 236.567L287.855 230.36Z" fill="#223A7A"/>
<g style="mix-blend-mode:multiply">
<path d="M329.676 234.247C328.485 237.131 328.548 240.454 328.234 243.527C328.046 245.909 327.607 248.668 329.739 250.298C330.805 251.051 335.695 253.12 333.187 254.813C332.247 255.44 330.617 255.252 329.488 255.189C328.736 255.147 327.983 255.105 327.231 255.063C326.416 255.001 325.601 254.75 324.786 254.75C324.347 254.75 324.159 255.377 324.597 255.628C325.851 256.443 327.795 256.694 329.3 256.756C330.867 256.819 331.871 256.756 333.25 256.067C334.128 255.69 334.943 255.064 335.068 254.06C335.194 252.932 334.379 251.928 333.501 251.301C332.56 250.549 331.306 250.236 330.366 249.483C328.986 248.543 329.049 246.85 329.175 245.345C329.425 241.646 330.24 238.009 330.554 234.372C330.617 233.808 329.864 233.808 329.676 234.247Z" fill="#8E9BBB"/>
</g>
<path d="M340.273 242.837C339.896 245.031 338.329 246.599 336.761 246.285C335.131 246.035 334.191 244.028 334.567 241.834C334.943 239.639 336.573 238.134 338.141 238.385C339.708 238.699 340.649 240.642 340.273 242.837Z" fill="#223A7A"/>
<path d="M320.46 241.144C320.084 243.464 318.391 245.22 316.698 244.906C315.005 244.656 313.939 242.586 314.253 240.204C314.629 237.821 316.322 236.128 318.015 236.379C319.708 236.63 320.774 238.762 320.46 241.144Z" fill="#223A7A"/>
<path d="M335.633 233.871C336.887 234.059 338.079 233.808 339.333 233.934C339.625 233.934 339.918 233.954 340.21 233.996C340.399 234.059 339.834 233.934 340.085 233.996C340.169 233.996 340.231 234.017 340.273 234.059C340.44 234.059 340.608 234.08 340.775 234.122C341.026 234.184 341.276 234.31 341.527 234.372C341.778 234.372 342.029 234.435 342.28 234.435C342.405 234.435 342.53 234.414 342.656 234.372C342.572 234.414 342.489 234.435 342.405 234.435C342.405 234.435 342.844 234.372 342.907 234.372C343.596 234.247 344.035 233.432 343.847 232.742C343.764 232.533 343.68 232.366 343.596 232.241C343.513 232.157 343.45 232.073 343.408 231.99C343.45 232.073 343.492 232.136 343.534 232.178C343.492 232.094 343.45 232.032 343.408 231.99C343.325 231.864 343.22 231.76 343.095 231.676C343.011 231.593 342.928 231.53 342.844 231.488C342.53 231.237 342.092 231.112 341.715 230.987C340.963 230.799 340.211 230.736 339.458 230.736C338.706 230.736 338.016 230.799 337.264 230.924C336.637 230.987 335.884 231.237 335.383 231.614C334.944 231.927 334.693 232.303 334.756 232.805C334.818 233.244 335.195 233.745 335.633 233.871Z" fill="#223A7A"/>
<path d="M321.839 230.36C321.672 230.276 321.505 230.193 321.338 230.109C321.149 230.046 320.773 229.858 321.087 229.984C320.961 229.942 320.836 229.879 320.711 229.795C320.209 229.545 319.707 229.419 319.143 229.231C318.014 228.98 316.76 228.855 315.506 228.98C314.252 229.168 313.061 229.482 311.933 230.109C311.744 230.234 311.619 230.297 311.494 230.485C311.41 230.569 311.326 230.673 311.243 230.799C311.243 230.757 311.264 230.715 311.306 230.673C310.929 230.924 310.741 231.3 310.741 231.739C310.741 232.115 310.929 232.492 311.306 232.68C311.744 232.93 312.121 232.805 312.56 232.68C312.351 232.68 312.142 232.68 311.933 232.68C312.246 232.742 312.497 232.742 312.873 232.68C312.873 232.68 313.249 232.617 312.998 232.617C312.81 232.68 313.375 232.617 313.437 232.554C313.5 232.554 313.876 232.554 313.5 232.554C313.542 232.554 313.604 232.554 313.688 232.554C313.897 232.512 314.106 232.492 314.315 232.492C315.151 232.408 316.008 232.366 316.886 232.366C317.68 232.324 318.474 232.324 319.268 232.366C319.603 232.366 319.937 232.366 320.272 232.366C320.397 232.429 320.46 232.366 320.272 232.366C320.355 232.408 320.418 232.429 320.46 232.429C320.627 232.471 320.773 232.512 320.899 232.554C321.463 232.805 322.09 232.366 322.341 231.865C322.529 231.3 322.341 230.673 321.839 230.36Z" fill="#223A7A"/>
<path d="M327.984 266.412C329.175 264.03 331.37 262.274 333.815 261.145C331.683 260.957 321.4 260.017 318.83 261.459C315.945 263.089 319.331 269.735 325.35 270.049C325.977 270.111 326.542 270.049 327.106 269.923C327.169 268.732 327.419 267.541 327.984 266.412Z" fill="#223A7A"/>
<path d="M280.582 252.493C280.582 252.493 281.585 256.506 287.604 261.208C293.561 265.848 302.214 269.297 302.214 269.297L302.903 266.287C302.903 266.287 293.937 262.4 289.799 258.073C285.598 253.81 285.096 251.49 285.096 251.49L280.582 252.493Z" fill="#DEE1EB"/>
<path d="M303.907 264.03C308.735 263.779 311.431 267.604 311.745 270.049C312.058 272.494 309.738 275.253 304.346 272.871C297.637 269.861 299.142 264.218 303.907 264.03Z" fill="#223A7A"/>
<path d="M284.345 222.836C284.345 222.836 286.414 207.913 296.383 197.756C315.444 178.444 331.683 179.636 331.683 179.636C331.683 179.636 331.558 176.877 325.476 174.808C319.708 172.864 317.137 173.93 317.137 173.93C317.137 173.93 301.462 175.184 288.232 189.856C275.003 204.527 273.561 223.212 273.561 223.212L284.345 222.836Z" fill="#DEE1EB"/>
<path d="M282.902 221.017C270.425 218.886 263.465 228.667 262.901 238.511C262.399 248.355 269.547 255.879 279.14 255.126C300.646 253.433 298.201 223.588 282.902 221.017Z" fill="white"/>
<path d="M276.695 245.533C273.372 245.533 270.613 243.84 268.983 240.956C267.29 237.821 267.415 233.996 269.359 231.175C269.547 230.924 269.798 230.861 270.049 231.05C270.237 231.175 270.3 231.488 270.174 231.677C268.419 234.247 268.293 237.696 269.861 240.517C271.303 243.151 273.873 244.718 276.946 244.593C279.767 244.53 282.213 243.213 283.717 240.893C285.473 238.26 285.912 234.686 284.783 231.677C283.655 228.73 280.582 226.723 277.761 227.099C277.51 227.099 277.259 226.974 277.259 226.661C277.197 226.41 277.385 226.222 277.635 226.159C280.896 225.72 284.344 227.977 285.661 231.363C286.852 234.623 286.413 238.574 284.532 241.458C282.777 243.966 280.143 245.408 276.946 245.533C276.862 245.533 276.779 245.533 276.695 245.533Z" fill="#818FB3"/>
<path d="M267.604 286.226C267.604 286.226 229.733 295.568 216.503 310.616C203.274 325.664 197.004 399.901 196.753 413.632C196.502 427.363 206.095 433.069 211.801 436.956C217.507 440.844 242.712 447.866 262.901 448.932C283.153 449.935 302.34 448.932 302.34 448.932C302.34 448.932 302.277 444.48 305.412 438.022C308.296 432.003 311.933 430.749 311.933 430.749L294.565 424.542C294.565 424.542 291.555 369.993 286.79 343.596C281.335 313.249 267.604 286.226 267.604 286.226Z" fill="#223A7A"/>
<path d="M330.367 415.826C330.283 415.826 330.199 415.805 330.116 415.763C329.802 415.638 329.677 415.262 329.802 414.948C333.376 406.923 337.013 391.185 339.082 380.15L339.27 379.272C339.897 376.012 340.712 371.999 339.145 369.24C338.329 367.798 336.511 364.726 334.818 361.779C333 358.706 331.37 355.76 330.868 354.882C329.928 353.189 332.812 348.674 337.013 342.467C338.141 340.774 339.082 339.332 339.646 338.392C341.151 335.821 340.148 333.438 339.019 330.742L338.643 329.802C337.577 327.231 336.386 324.723 335.257 322.215C334.797 321.212 334.338 320.209 333.878 319.205C333.251 317.868 332.645 316.509 332.059 315.13C328.36 306.916 324.598 298.514 319.708 290.301C319.519 290.05 319.645 289.611 319.958 289.486C320.272 289.298 320.648 289.36 320.773 289.674C325.664 297.887 329.489 306.415 333.188 314.628C333.815 316.008 334.421 317.366 335.006 318.704C335.466 319.707 335.926 320.71 336.386 321.713C337.577 324.159 338.706 326.729 339.772 329.3L340.148 330.241C341.339 332.999 342.53 335.884 340.775 339.019C340.148 340.022 339.207 341.464 338.016 343.157C335.884 346.417 331.37 353.126 331.997 354.317C332.436 355.133 334.129 358.079 335.884 361.152C337.64 364.099 339.458 367.171 340.21 368.613C342.029 371.811 341.151 376.074 340.524 379.523L340.336 380.401C339.583 384.413 335.571 404.979 330.931 415.45C330.868 415.701 330.617 415.826 330.367 415.826Z" fill="#8593B6"/>
<path d="M293.436 418.021C293.248 418.021 293.06 417.958 292.997 417.833C289.987 414.886 275.817 390.245 274.751 385.605C274.187 383.097 275.629 376.639 277.009 370.432C278.137 365.604 279.266 360.65 278.952 359.271C278.451 357.265 274.814 354.318 271.303 351.434C267.039 347.985 262.65 344.348 261.772 341.151C260.832 337.451 261.647 314.503 262.211 299.267C262.399 293.812 262.588 289.486 262.588 287.919C262.588 287.605 262.838 287.292 263.215 287.292C263.528 287.292 263.842 287.605 263.842 287.919C263.842 289.486 263.653 293.812 263.465 299.33C262.964 313.5 262.086 337.326 263.026 340.837C263.779 343.659 268.168 347.295 272.055 350.493C275.943 353.628 279.579 356.575 280.144 359.02C280.52 360.65 279.454 365.29 278.263 370.683C276.946 376.514 275.441 383.097 275.943 385.354C277.009 389.869 290.991 414.008 293.875 416.955C294.126 417.206 294.126 417.582 293.875 417.833C293.749 417.958 293.603 418.021 293.436 418.021Z" fill="#8593B6"/>
<path d="M242.461 407.237C242.419 407.237 242.377 407.237 242.335 407.237C242.022 407.174 241.771 406.86 241.834 406.547C242.273 403.287 249.483 338.329 249.797 333.313C249.797 333 250.11 332.749 250.486 332.749C250.8 332.812 251.051 333.063 251.051 333.439C250.737 338.392 243.527 403.475 243.025 406.735C243.025 407.049 242.712 407.237 242.461 407.237Z" fill="#8593B6"/>
<path d="M294.063 424.918C293.979 424.918 293.895 424.897 293.812 424.855C292.244 424.228 285.159 421.846 276.256 418.836C258.261 412.754 233.62 404.415 228.917 401.97C228.604 401.844 228.478 401.468 228.667 401.155C228.792 400.841 229.168 400.716 229.482 400.904C234.059 403.286 259.703 411.939 276.632 417.645C285.598 420.654 292.683 423.037 294.313 423.664C294.627 423.789 294.752 424.166 294.627 424.479C294.564 424.73 294.313 424.918 294.063 424.918Z" fill="#8593B6"/>
<path d="M285.41 450.75C269.547 450.75 238.824 447.929 215.499 439.652C215.186 439.527 214.998 439.151 215.123 438.837C215.249 438.524 215.562 438.336 215.938 438.461C245.407 448.869 286.664 450.688 294.313 448.932C294.627 448.869 295.003 449.12 295.066 449.434C295.128 449.747 294.94 450.123 294.564 450.186C292.934 450.562 289.736 450.75 285.41 450.75Z" fill="#8593B6"/>
<path d="M104.019 295.003C108.973 299.33 115.18 302.089 119.506 307.105C121.199 309.048 122.704 311.18 124.271 313.249C125.463 314.754 128.535 317.199 129.037 319.08C129.225 319.958 129.162 318.829 128.974 317.952C128.932 317.952 128.911 317.931 128.911 317.889C128.472 314.064 128.159 310.24 128.033 306.352C127.908 302.527 128.159 298.703 127.908 294.815C127.594 289.423 125.902 284.219 121.45 280.833C119.318 279.203 116.559 278.137 114.553 276.319C112.672 274.563 113.424 272.62 114.553 270.676C115.556 268.858 116.81 267.039 117.249 264.97C117.688 262.588 116.81 260.08 115.619 258.073C113.048 253.747 107.342 248.982 101.95 249.609C97.4357 250.173 96.9341 255.314 96.9968 258.951C97.0595 262.462 97.373 265.973 97.4357 269.485C97.4357 273.121 96.8714 276.632 96.8087 280.269C96.6833 286.351 99.5048 291.053 104.019 295.003Z" fill="#6BAEFF"/>
<path d="M149.727 351.12C151.107 347.86 152.674 344.85 154.618 341.84C157.251 337.765 160.198 333.815 161.954 329.238C163.772 324.598 163.521 319.582 163.71 314.691C163.835 311.117 164.901 307.481 164.65 303.844C164.462 302.151 163.459 299.33 161.264 299.643C159.509 299.831 158.443 302.026 157.816 303.405C156.624 305.788 155.809 308.359 154.932 310.929C154.618 311.87 154.305 312.873 153.866 313.876C153.615 314.378 152.8 315.757 152.047 315.569C150.793 315.256 151.922 310.051 152.11 309.111C153.051 304.534 154.493 300.208 154.681 295.442C154.994 288.545 154.493 280.332 147.721 276.507C145.965 275.567 143.708 274.939 142.015 276.444C140.385 277.886 139.884 280.394 139.633 282.464C138.88 288.859 140.385 294.941 142.454 300.897C144.147 305.851 146.154 310.992 146.279 316.259C146.404 321.4 143.771 325.915 142.517 330.743C140.573 338.392 140.949 342.467 140.949 344.975C140.949 348.048 141.075 351.183 141.263 354.255C141.514 357.139 141.765 359.961 142.078 362.845C142.162 363.388 142.245 363.973 142.329 364.601C141.2 361.967 140.824 358.958 139.884 356.261C138.316 351.559 136.435 346.919 134.868 342.217C133.614 338.266 132.36 334.316 130.667 330.554C129.099 327.043 127.218 323.281 124.209 320.711C122.453 319.143 120.258 318.202 117.876 318.202C116.371 318.265 114.992 318.767 113.55 319.143C111.731 319.645 110.289 319.457 108.847 318.328C103.956 314.629 102.514 307.92 98.9405 303.217C96.2444 299.706 89.9117 293.75 85.2719 297.574C82.7639 299.581 82.0742 303.531 82.1996 306.54C82.3877 310.302 84.0179 313.751 86.0243 316.949C88.0934 320.272 90.7895 323.281 92.7332 326.73C93.8618 328.799 94.0499 330.743 93.8618 333.062C93.6737 335.194 93.4856 337.326 94.238 339.395C96.4325 345.665 103.392 344.787 108.784 344.975C112.546 345.101 116.559 345.665 120.196 346.856C124.334 348.236 127.03 350.932 128.472 355.007C129.538 358.017 130.102 361.34 132.171 363.848C133.112 365.039 134.366 365.917 135.745 366.544C137.814 367.485 144.21 367.861 144.273 367.297C144.461 365.353 145.401 363.284 145.965 361.403C147.031 357.892 148.348 354.506 149.727 351.12Z" fill="#6BAEFF"/>
<path d="M179.51 349.991C178.946 346.355 179.071 342.405 177.316 339.144C177.253 338.894 176.877 338.831 176.689 338.956C175.435 339.646 175.435 341.59 175.309 342.781C175.121 344.787 175.246 346.794 174.996 348.8C174.619 352.311 173.804 355.885 172.55 359.208C171.108 362.97 168.475 365.102 164.713 366.231C162.268 366.983 159.885 367.673 157.879 369.24C156.06 370.682 154.806 372.689 153.866 374.758C151.358 380.464 150.166 386.734 148.975 392.816C148.223 396.828 147.596 400.967 146.593 404.979C145.589 408.992 144.523 413.005 143.959 417.08C143.876 417.289 143.792 417.498 143.708 417.707C143.395 418.334 144.398 418.648 144.712 418.146C148.599 412.127 153.364 406.798 159.822 403.475C162.769 401.97 166.657 401.656 169.102 399.336C170.92 397.518 171.171 394.822 170.92 392.377C170.544 389.179 169.039 386.608 167.409 383.849C166.531 382.407 165.528 380.777 165.904 378.959C166.218 377.266 167.66 376.012 169.039 375.134C171.735 373.441 174.87 372.689 177.065 370.306C179.134 368.049 180.262 365.29 180.513 362.281C180.827 358.268 180.137 353.942 179.51 349.991Z" fill="#6BAEFF"/>
<path d="M126.341 370.683C122.955 366.231 118.754 362.406 114.114 359.334C111.606 357.641 105.775 354.381 104.584 359.271C103.894 362.155 106.653 364.977 108.534 366.732C111.293 369.429 114.49 371.748 116.81 374.883C113.926 375.824 110.917 375.949 108.409 377.956C105.399 380.338 104.082 384.915 107.029 387.8C108.471 389.242 110.352 390.119 112.171 390.997C114.49 392.063 116.873 393.129 119.256 394.132C124.397 396.264 129.601 398.459 133.99 401.97C138.505 405.544 142.705 411.626 143.019 417.519C143.082 418.084 142.894 417.519 143.207 417.269C143.395 417.457 144.022 417.143 144.022 416.83C143.897 408.114 142.329 399.838 138.755 391.875C135.495 384.477 131.357 377.078 126.341 370.683Z" fill="#6BAEFF"/>
<path d="M114.49 289.737C116.371 293.687 118.377 297.512 120.509 301.336C122.515 305.036 124.522 308.735 126.027 312.622C127.908 317.513 129.851 322.278 131.858 327.106C133.927 332.122 135.745 337.201 137.187 342.405C140.071 352.562 142.203 363.033 143.269 373.504C143.771 378.834 144.021 384.226 143.896 389.618C143.771 393.756 143.332 397.957 142.893 402.095C142.517 406.422 142.203 410.811 142.579 415.2C142.893 418.836 143.457 423.162 146.279 425.733C146.843 426.297 147.595 425.608 147.282 424.981C143.959 418.084 144.147 410.56 144.774 403.099C145.15 399.023 145.589 394.885 145.777 390.747C145.902 385.48 145.714 380.213 145.213 374.946C144.272 364.663 142.203 354.443 139.507 344.474C138.19 339.333 136.497 334.317 134.491 329.363C132.547 324.473 130.29 319.645 128.409 314.691C125.023 305.663 119.757 297.7 115.179 289.361C114.929 288.922 114.302 289.298 114.49 289.737Z" fill="#43588E"/>
<path d="M143.395 363.221C143.959 356.638 144.523 350.368 146.718 344.098C147.784 341.214 149.038 338.392 150.041 335.445C150.856 333.063 152.047 329.739 151.42 327.169C151.358 326.855 150.919 326.855 150.856 327.169C150.417 328.611 150.48 330.241 150.166 331.746C149.916 333.188 149.477 334.63 149.038 336.072C148.097 339.082 146.781 341.966 145.715 344.976C143.583 350.681 142.517 357.077 142.956 363.221C143.019 363.472 143.395 363.472 143.395 363.221Z" fill="#43588E"/>
<path d="M105.462 325.601C108.095 331.871 115.87 332.247 121.576 333.627C125.651 334.63 128.661 337.326 130.793 340.9C133.175 344.724 134.743 349.239 136.059 353.565C136.059 353.565 136.122 353.565 136.122 353.502C134.555 345.978 132.297 336.95 124.523 333.438C118.315 330.617 110.102 332.059 106.151 325.35C105.963 324.974 105.336 325.225 105.462 325.601Z" fill="#43588E"/>
<path d="M139.32 362.218C139.633 362.657 139.884 363.095 140.198 363.472C140.386 363.66 140.511 363.848 140.762 364.036C140.95 364.224 141.201 364.412 141.452 364.412C141.577 364.412 141.64 364.287 141.577 364.161C141.452 363.973 141.264 363.848 141.075 363.66C140.866 363.493 140.678 363.325 140.511 363.158C140.135 362.845 139.821 362.468 139.445 362.092C139.383 362.03 139.257 362.155 139.32 362.218Z" fill="#43588E"/>
<path d="M123.08 382.156C127.532 385.793 131.67 390.182 134.993 394.947C136.56 397.204 138.002 399.587 139.319 402.032C140.761 404.728 141.702 407.55 142.83 410.309C142.893 410.559 143.269 410.559 143.269 410.246C142.642 404.352 138.88 399.273 135.871 394.383C134.303 391.812 132.422 389.806 130.29 387.674C128.159 385.479 125.964 383.348 123.456 381.592C123.143 381.404 122.766 381.906 123.08 382.156Z" fill="#43588E"/>
<path d="M158.756 375.197C156.561 376.388 156.499 379.836 156.499 381.968C156.373 386.169 157.439 390.119 155.621 394.069C153.928 397.706 151.295 400.716 149.226 404.039C147.282 407.174 145.338 411.186 145.401 414.948C145.401 415.137 145.714 415.262 145.84 415.074C146.592 413.318 146.906 411.375 147.47 409.619C148.097 407.613 148.975 405.732 150.103 403.976C152.11 400.904 154.555 398.082 156.185 394.696C157.878 391.185 157.627 387.737 157.565 383.912C157.439 381.467 157.251 377.579 159.195 375.761C159.508 375.447 159.069 375.009 158.756 375.197Z" fill="#43588E"/>
<path d="M144.335 415.325C135.62 415.2 119.067 415.074 119.067 415.074L123.143 445.546C124.083 452.381 129.914 457.459 136.811 457.459H143.959H144.649H151.797C158.694 457.459 164.525 452.381 165.465 445.546L169.541 415.074C169.541 415.074 152.988 415.2 144.335 415.325Z" fill="white"/>
<path d="M564.551 359.396L514.955 457.647L370.369 458.713L414.949 358.017L564.551 359.396Z" fill="#F6F7FA"/>
<path d="M274.375 458.086V450.186H367.986L411.061 355.76H560.789L564.551 359.396H418.271L373.566 458.023C373.566 458.023 274.375 457.835 274.375 458.086Z" fill="#D9DEE8"/>
<path d="M489.436 413.632C487.805 418.522 478.965 422.284 469.622 422.096C460.343 421.845 454.136 417.707 455.766 412.754C457.396 407.863 466.237 404.101 475.579 404.352C484.859 404.54 491.066 408.741 489.436 413.632Z" fill="#D9DEE8"/>
<path d="M373.567 458.651C373.441 458.651 373.337 458.63 373.253 458.588C372.94 458.4 372.814 458.024 372.94 457.71L417.896 358.77H564.551C564.864 358.77 565.178 359.083 565.178 359.397C565.178 359.773 564.864 360.024 564.551 360.024H418.711L374.131 458.274C374.006 458.463 373.755 458.651 373.567 458.651Z" fill="white"/>
<path d="M267.854 503.669H95.8682V465.547H267.854V503.669Z" fill="#596B9B"/>
<path d="M576.339 503.669H266.852V465.547H576.339V503.669Z" fill="#7A89AF"/>
<g style="mix-blend-mode:multiply">
<path d="M267.854 465.547H266.851H95.8682V472.507H266.851H267.854H576.338V465.547H267.854Z" fill="#BDC4D7"/>
</g>
<path d="M275.378 467.366H87.5293V458.023H275.378V467.366Z" fill="#6F7FA9"/>
<path d="M583.862 467.366H274.375V458.023H583.862V467.366Z" fill="#9CA6C3"/>
<path d="M224.403 257.885H163.709C159.947 257.885 156.875 254.876 156.875 251.114V220.767C156.875 217.005 159.947 213.995 163.709 213.995H224.403C228.165 213.995 231.237 217.005 231.237 220.767V251.114C231.237 254.876 228.165 257.885 224.403 257.885Z" fill="white"/>
<path d="M248.543 235.94L225.72 226.284V245.533L248.543 235.94Z" fill="white"/>
<path d="M183.836 235.94C183.836 238.26 181.955 240.141 179.635 240.141C177.316 240.141 175.435 238.26 175.435 235.94C175.435 233.62 177.316 231.739 179.635 231.739C181.955 231.739 183.836 233.62 183.836 235.94Z" fill="#223A7A"/>
<path d="M198.257 235.94C198.257 238.26 196.376 240.141 194.056 240.141C191.736 240.141 189.855 238.26 189.855 235.94C189.855 233.62 191.736 231.739 194.056 231.739C196.376 231.739 198.257 233.62 198.257 235.94Z" fill="#223A7A"/>
<path d="M212.678 235.94C212.678 238.26 210.797 240.141 208.477 240.141C206.157 240.141 204.276 238.26 204.276 235.94C204.276 233.62 206.157 231.739 208.477 231.739C210.797 231.739 212.678 233.62 212.678 235.94Z" fill="#223A7A"/>
<path d="M533.577 120.697H393.38C384.414 120.697 377.078 128.033 377.078 136.999V203.524C377.078 212.553 384.414 219.826 393.38 219.826H405.983C406.296 225.845 405.418 234.811 400.402 246.285C416.579 238.824 425.921 227.601 430.812 219.826H533.577C542.606 219.826 549.879 212.553 549.879 203.524V136.999C549.879 128.033 542.606 120.697 533.577 120.697Z" fill="#60A8FF"/>
<path d="M473.761 152.424H404.227C402.346 152.424 400.778 150.856 400.778 148.975C400.778 147.031 402.346 145.464 404.227 145.464H473.761C475.705 145.464 477.21 147.031 477.21 148.975C477.21 150.856 475.705 152.424 473.761 152.424Z" fill="white"/>
<path d="M523.608 172.551H402.91C401.719 172.551 400.778 171.61 400.778 170.419C400.778 169.29 401.719 168.35 402.91 168.35H523.608C524.799 168.35 525.739 169.29 525.739 170.419C525.739 171.61 524.799 172.551 523.608 172.551Z" fill="#D2E6FF"/>
<path d="M523.608 184.338H402.91C401.719 184.338 400.778 183.397 400.778 182.206C400.778 181.015 401.719 180.074 402.91 180.074H523.608C524.799 180.074 525.739 181.015 525.739 182.206C525.739 183.397 524.799 184.338 523.608 184.338Z" fill="#D2E6FF"/>
<path d="M497.274 196.878H402.91C401.719 196.878 400.778 195.937 400.778 194.746C400.778 193.555 401.719 192.614 402.91 192.614H497.274C498.465 192.614 499.405 193.555 499.405 194.746C499.405 195.937 498.465 196.878 497.274 196.878Z" fill="#D2E6FF"/>
<path d="M522.668 152.424H489.499C487.618 152.424 486.051 150.856 486.051 148.975C486.051 147.031 487.618 145.464 489.499 145.464H522.668C524.611 145.464 526.116 147.031 526.116 148.975C526.116 150.856 524.611 152.424 522.668 152.424Z" fill="white"/>
<path d="M439.088 305.349H401.405C400.026 305.349 398.897 304.22 398.897 302.841V277.134C398.897 275.755 400.026 274.626 401.405 274.626H439.088C440.468 274.626 441.596 275.755 441.596 277.134V302.841C441.596 304.22 440.468 305.349 439.088 305.349Z" fill="white"/>
<path d="M420.529 294.565C420.278 294.565 420.09 294.502 419.902 294.377L399.399 277.448C399.023 277.072 398.96 276.507 399.274 276.131C399.65 275.692 400.214 275.629 400.591 276.006L420.467 292.433L439.841 275.567C440.28 275.191 440.844 275.253 441.22 275.629C441.534 276.006 441.471 276.633 441.095 276.946L421.156 294.314C420.968 294.502 420.717 294.565 420.529 294.565Z" fill="#6F7FA9"/>
<path d="M400.026 304.659C399.775 304.659 399.524 304.596 399.336 304.408C398.96 304.032 398.96 303.468 399.336 303.092L413.694 287.981C414.008 287.605 414.635 287.605 415.011 287.981C415.387 288.294 415.387 288.921 415.011 289.298L400.715 304.346C400.527 304.534 400.276 304.659 400.026 304.659Z" fill="#6F7FA9"/>
<path d="M440.467 304.095C440.217 304.095 440.029 304.032 439.84 303.844L425.545 289.486C425.169 289.11 425.169 288.546 425.545 288.169C425.921 287.793 426.485 287.793 426.862 288.169L441.157 302.465C441.533 302.841 441.533 303.468 441.157 303.844C440.969 304.032 440.718 304.095 440.467 304.095Z" fill="#6F7FA9"/>
<path d="M456.143 273.686C456.143 280.583 450.5 286.226 443.54 286.226C436.581 286.226 430.938 280.583 430.938 273.686C430.938 266.726 436.581 261.083 443.54 261.083C450.5 261.083 456.143 266.726 456.143 273.686Z" fill="#FF5F42"/>
<path d="M440.53 273.686L440.468 273.309C440.844 273.477 441.178 273.706 441.471 273.999C441.763 274.25 441.972 274.542 442.098 274.877C442.265 275.211 442.349 275.546 442.349 275.88C442.349 276.465 442.181 276.988 441.847 277.448C441.554 277.907 441.136 278.284 440.593 278.576C440.05 278.869 439.464 279.015 438.837 279.015C438.169 279.015 437.562 278.869 437.019 278.576C436.517 278.284 436.099 277.907 435.765 277.448C435.472 276.988 435.326 276.465 435.326 275.88C435.326 275.42 435.41 275.023 435.577 274.689C435.786 274.354 436.037 274.062 436.329 273.811C436.622 273.602 436.915 273.414 437.207 273.247L437.082 273.686C436.831 273.56 436.58 273.414 436.329 273.247C436.12 273.079 435.932 272.85 435.765 272.557C435.64 272.264 435.577 271.909 435.577 271.491C435.577 270.948 435.723 270.446 436.016 269.986C436.308 269.526 436.685 269.15 437.144 268.858C437.646 268.607 438.21 268.481 438.837 268.481C439.423 268.481 439.966 268.607 440.468 268.858C440.969 269.15 441.366 269.526 441.659 269.986C441.951 270.446 442.098 270.948 442.098 271.491C442.098 271.951 442.014 272.327 441.847 272.62C441.638 272.87 441.429 273.1 441.22 273.309C440.969 273.477 440.739 273.602 440.53 273.686ZM437.395 271.554C437.395 271.805 437.437 272.034 437.521 272.243C437.688 272.452 437.876 272.62 438.085 272.745C438.294 272.87 438.545 272.933 438.837 272.933C439.13 272.933 439.381 272.87 439.59 272.745C439.799 272.62 439.966 272.452 440.091 272.243C440.217 272.034 440.279 271.805 440.279 271.554C440.279 271.136 440.133 270.801 439.841 270.551C439.59 270.258 439.255 270.112 438.837 270.112C438.419 270.112 438.064 270.258 437.771 270.551C437.521 270.801 437.395 271.136 437.395 271.554ZM438.837 277.385C439.297 277.385 439.694 277.239 440.029 276.946C440.363 276.612 440.53 276.235 440.53 275.817C440.53 275.525 440.468 275.274 440.342 275.065C440.175 274.814 439.966 274.626 439.715 274.501C439.423 274.375 439.13 274.313 438.837 274.313C438.503 274.313 438.21 274.375 437.96 274.501C437.709 274.626 437.5 274.814 437.333 275.065C437.165 275.274 437.082 275.525 437.082 275.817C437.082 276.235 437.249 276.612 437.583 276.946C437.918 277.239 438.336 277.385 438.837 277.385ZM446.549 279.14C446.215 279.14 445.818 279.099 445.358 279.015C444.94 278.89 444.606 278.722 444.355 278.513C444.23 278.388 444.125 278.242 444.041 278.075C443.958 277.907 443.916 277.74 443.916 277.573C443.916 277.406 444 277.239 444.167 277.071C444.292 276.904 444.501 276.821 444.794 276.821C444.961 276.821 445.17 276.925 445.421 277.134C445.588 277.218 445.776 277.301 445.985 277.385C446.152 277.468 446.34 277.51 446.549 277.51C447.051 277.51 447.469 277.427 447.803 277.259C448.138 277.092 448.41 276.841 448.619 276.507C448.828 276.214 448.932 275.859 448.932 275.441C448.932 275.065 448.828 274.731 448.619 274.438C448.451 274.187 448.221 273.978 447.929 273.811C447.678 273.686 447.385 273.623 447.051 273.623C446.717 273.623 446.445 273.665 446.236 273.748C445.985 273.832 445.776 273.936 445.609 274.062C445.4 274.145 445.191 274.187 444.982 274.187C444.689 274.187 444.459 274.124 444.292 273.999C444.125 273.832 444.021 273.665 443.979 273.497C443.937 273.288 443.916 273.1 443.916 272.933L444.418 269.297C444.459 269.088 444.564 268.92 444.731 268.795C444.898 268.628 445.086 268.544 445.295 268.544H449.684C449.893 268.544 450.082 268.628 450.249 268.795C450.416 268.962 450.5 269.171 450.5 269.422C450.5 269.631 450.416 269.819 450.249 269.986C450.082 270.153 449.893 270.237 449.684 270.237H445.797L445.922 270.049L445.546 273.121L445.358 272.557C445.4 272.473 445.525 272.369 445.734 272.243C445.943 272.16 446.173 272.097 446.424 272.055C446.675 271.972 446.926 271.93 447.176 271.93C447.845 271.93 448.451 272.097 448.995 272.432C449.538 272.724 449.956 273.142 450.249 273.686C450.541 274.187 450.688 274.772 450.688 275.441C450.688 276.194 450.52 276.841 450.186 277.385C449.852 277.97 449.371 278.409 448.744 278.702C448.159 278.994 447.427 279.14 446.549 279.14Z" fill="white"/>
<path d="M569.943 269.046H496.396C493.637 269.046 491.38 266.789 491.38 264.03V252.493C491.38 249.734 493.637 247.477 496.396 247.477H569.943C572.702 247.477 574.959 249.734 574.959 252.493V264.03C574.959 266.789 572.702 269.046 569.943 269.046Z" fill="#223A7A"/>
<path d="M501.725 263.904C501.391 263.904 501.119 263.779 500.91 263.528C500.743 263.319 500.659 263.026 500.659 262.65L500.973 259.891C501.015 259.808 501.015 259.766 500.973 259.766C500.889 259.724 500.827 259.724 500.785 259.766L498.465 261.459C498.172 261.668 497.88 261.731 497.587 261.647C497.294 261.605 497.044 261.438 496.835 261.145C496.626 260.769 496.584 260.435 496.709 260.142C496.835 259.85 497.064 259.641 497.399 259.515L499.97 258.387C500.053 258.345 500.095 258.303 500.095 258.261C500.095 258.219 500.053 258.178 499.97 258.136L497.399 257.007C497.064 256.84 496.855 256.61 496.772 256.317C496.646 256.025 496.667 255.711 496.835 255.377C497.044 255.084 497.294 254.917 497.587 254.875C497.88 254.792 498.172 254.854 498.465 255.063L500.785 256.756C500.827 256.798 500.889 256.798 500.973 256.756C501.015 256.756 501.015 256.715 500.973 256.631L500.659 253.872C500.659 253.496 500.764 253.203 500.973 252.994C501.182 252.744 501.453 252.618 501.788 252.618C502.122 252.618 502.394 252.744 502.603 252.994C502.812 253.203 502.896 253.496 502.854 253.872L502.54 256.631C502.498 256.715 502.498 256.756 502.54 256.756C502.624 256.798 502.687 256.798 502.728 256.756L505.048 255.063C505.341 254.854 505.634 254.792 505.926 254.875C506.261 254.917 506.511 255.084 506.678 255.377C506.887 255.753 506.929 256.088 506.804 256.38C506.678 256.673 506.449 256.882 506.114 257.007L503.543 258.136C503.502 258.178 503.481 258.219 503.481 258.261C503.481 258.303 503.502 258.345 503.543 258.387L506.114 259.515C506.449 259.682 506.678 259.912 506.804 260.205C506.887 260.497 506.846 260.811 506.678 261.145C506.511 261.438 506.261 261.605 505.926 261.647C505.634 261.731 505.341 261.668 505.048 261.459L502.728 259.766C502.687 259.724 502.624 259.724 502.54 259.766C502.498 259.766 502.498 259.808 502.54 259.891L502.854 262.65C502.896 263.026 502.812 263.319 502.603 263.528C502.352 263.779 502.06 263.904 501.725 263.904Z" fill="white"/>
<path d="M516.899 263.904C516.606 263.904 516.355 263.779 516.146 263.528C515.937 263.319 515.854 263.026 515.896 262.65L516.209 259.891C516.209 259.808 516.188 259.766 516.146 259.766C516.105 259.724 516.042 259.724 515.958 259.766L513.701 261.459C513.409 261.668 513.116 261.731 512.823 261.647C512.489 261.605 512.238 261.438 512.071 261.145C511.862 260.769 511.82 260.435 511.946 260.142C512.071 259.85 512.28 259.641 512.573 259.515L515.143 258.387C515.227 258.345 515.269 258.303 515.269 258.261C515.269 258.219 515.227 258.178 515.143 258.136L512.573 257.007C512.238 256.84 512.029 256.61 511.946 256.317C511.862 256.025 511.904 255.711 512.071 255.377C512.238 255.084 512.489 254.917 512.823 254.875C513.116 254.792 513.409 254.854 513.701 255.063L515.958 256.756C516.042 256.798 516.105 256.798 516.146 256.756C516.188 256.756 516.209 256.715 516.209 256.631L515.896 253.872C515.854 253.496 515.937 253.203 516.146 252.994C516.355 252.744 516.648 252.618 517.024 252.618C517.317 252.618 517.589 252.744 517.839 252.994C518.048 253.203 518.111 253.496 518.027 253.872L517.714 256.631C517.714 256.715 517.735 256.756 517.777 256.756C517.818 256.798 517.881 256.798 517.965 256.756L520.222 255.063C520.515 254.854 520.828 254.792 521.162 254.875C521.455 254.917 521.685 255.084 521.852 255.377C522.061 255.753 522.103 256.088 521.978 256.38C521.852 256.673 521.643 256.882 521.351 257.007L518.78 258.136C518.696 258.178 518.654 258.219 518.654 258.261C518.654 258.303 518.696 258.345 518.78 258.387L521.351 259.515C521.685 259.682 521.894 259.912 521.978 260.205C522.103 260.497 522.061 260.811 521.852 261.145C521.685 261.438 521.455 261.605 521.162 261.647C520.828 261.731 520.515 261.668 520.222 261.459L517.965 259.766C517.881 259.724 517.818 259.724 517.777 259.766C517.735 259.766 517.714 259.808 517.714 259.891L518.027 262.65C518.111 263.026 518.027 263.319 517.777 263.528C517.568 263.779 517.275 263.904 516.899 263.904Z" fill="white"/>
<path d="M532.135 263.904C531.801 263.904 531.529 263.779 531.32 263.528C531.111 263.319 531.028 263.026 531.069 262.65L531.383 259.891C531.425 259.808 531.425 259.766 531.383 259.766C531.299 259.724 531.237 259.724 531.195 259.766L528.875 261.459C528.582 261.668 528.29 261.731 527.997 261.647C527.705 261.605 527.454 261.438 527.245 261.145C527.036 260.769 526.994 260.435 527.119 260.142C527.245 259.85 527.475 259.641 527.809 259.515L530.38 258.387C530.463 258.345 530.505 258.303 530.505 258.261C530.505 258.219 530.463 258.178 530.38 258.136L527.809 257.007C527.475 256.84 527.266 256.61 527.182 256.317C527.057 256.025 527.078 255.711 527.245 255.377C527.454 255.084 527.705 254.917 527.997 254.875C528.29 254.792 528.582 254.854 528.875 255.063L531.195 256.756C531.237 256.798 531.299 256.798 531.383 256.756C531.425 256.756 531.425 256.715 531.383 256.631L531.069 253.872C531.069 253.496 531.174 253.203 531.383 252.994C531.592 252.744 531.864 252.618 532.198 252.618C532.532 252.618 532.804 252.744 533.013 252.994C533.222 253.203 533.306 253.496 533.264 253.872L532.95 256.631C532.909 256.715 532.909 256.756 532.95 256.756C533.034 256.798 533.097 256.798 533.139 256.756L535.458 255.063C535.751 254.854 536.044 254.792 536.336 254.875C536.671 254.917 536.921 255.084 537.089 255.377C537.298 255.753 537.339 256.088 537.214 256.38C537.089 256.673 536.859 256.882 536.524 257.007L533.954 258.136C533.912 258.178 533.891 258.219 533.891 258.261C533.891 258.303 533.912 258.345 533.954 258.387L536.524 259.515C536.859 259.682 537.089 259.912 537.214 260.205C537.298 260.497 537.256 260.811 537.089 261.145C536.921 261.438 536.671 261.605 536.336 261.647C536.044 261.731 535.751 261.668 535.458 261.459L533.139 259.766C533.097 259.724 533.034 259.724 532.95 259.766C532.909 259.766 532.909 259.808 532.95 259.891L533.264 262.65C533.306 263.026 533.222 263.319 533.013 263.528C532.762 263.779 532.47 263.904 532.135 263.904Z" fill="white"/>
<path d="M547.308 263.904C547.015 263.904 546.765 263.779 546.556 263.528C546.347 263.319 546.263 263.026 546.305 262.65L546.618 259.891C546.618 259.808 546.597 259.766 546.556 259.766C546.514 259.724 546.451 259.724 546.368 259.766L544.11 261.459C543.818 261.668 543.525 261.731 543.233 261.647C542.898 261.605 542.647 261.438 542.48 261.145C542.271 260.769 542.229 260.435 542.355 260.142C542.48 259.85 542.689 259.641 542.982 259.515L545.552 258.387C545.636 258.345 545.678 258.303 545.678 258.261C545.678 258.219 545.636 258.178 545.552 258.136L542.982 257.007C542.647 256.84 542.438 256.61 542.355 256.317C542.271 256.025 542.313 255.711 542.48 255.377C542.647 255.084 542.898 254.917 543.233 254.875C543.525 254.792 543.818 254.854 544.11 255.063L546.368 256.756C546.451 256.798 546.514 256.798 546.556 256.756C546.597 256.756 546.618 256.715 546.618 256.631L546.305 253.872C546.263 253.496 546.347 253.203 546.556 252.994C546.765 252.744 547.057 252.618 547.433 252.618C547.726 252.618 547.998 252.744 548.249 252.994C548.458 253.203 548.52 253.496 548.437 253.872L548.123 256.631C548.123 256.715 548.144 256.756 548.186 256.756C548.228 256.798 548.29 256.798 548.374 256.756L550.631 255.063C550.924 254.854 551.237 254.792 551.572 254.875C551.864 254.917 552.094 255.084 552.261 255.377C552.47 255.753 552.512 256.088 552.387 256.38C552.261 256.673 552.052 256.882 551.76 257.007L549.189 258.136C549.105 258.178 549.064 258.219 549.064 258.261C549.064 258.303 549.105 258.345 549.189 258.387L551.76 259.515C552.094 259.682 552.303 259.912 552.387 260.205C552.512 260.497 552.47 260.811 552.261 261.145C552.094 261.438 551.864 261.605 551.572 261.647C551.237 261.731 550.924 261.668 550.631 261.459L548.374 259.766C548.29 259.724 548.228 259.724 548.186 259.766C548.144 259.766 548.123 259.808 548.123 259.891L548.437 262.65C548.52 263.026 548.437 263.319 548.186 263.528C547.977 263.779 547.684 263.904 547.308 263.904Z" fill="white"/>
<path d="M562.545 263.904C562.21 263.904 561.938 263.779 561.729 263.528C561.52 263.319 561.437 263.026 561.479 262.65L561.792 259.891C561.834 259.808 561.834 259.766 561.792 259.766C561.709 259.724 561.646 259.724 561.604 259.766L559.284 261.459C558.992 261.668 558.699 261.731 558.406 261.647C558.114 261.605 557.863 261.438 557.654 261.145C557.445 260.769 557.403 260.435 557.529 260.142C557.654 259.85 557.884 259.641 558.218 259.515L560.789 258.387C560.831 258.345 560.852 258.303 560.852 258.261C560.852 258.219 560.831 258.178 560.789 258.136L558.218 257.007C557.884 256.84 557.675 256.61 557.591 256.317C557.466 256.025 557.487 255.711 557.654 255.377C557.863 255.084 558.114 254.917 558.406 254.875C558.699 254.792 558.992 254.854 559.284 255.063L561.604 256.756C561.646 256.798 561.709 256.798 561.792 256.756C561.834 256.756 561.834 256.715 561.792 256.631L561.479 253.872C561.437 253.496 561.541 253.203 561.792 252.994C562.001 252.744 562.273 252.618 562.607 252.618C562.942 252.618 563.213 252.744 563.422 252.994C563.631 253.203 563.715 253.496 563.673 253.872L563.36 256.631C563.318 256.715 563.318 256.756 563.36 256.756C563.443 256.798 563.506 256.798 563.548 256.756L565.868 255.063C566.16 254.854 566.453 254.792 566.745 254.875C567.08 254.917 567.331 255.084 567.498 255.377C567.707 255.753 567.749 256.088 567.623 256.38C567.498 256.673 567.268 256.882 566.934 257.007L564.363 258.136C564.321 258.178 564.3 258.219 564.3 258.261C564.3 258.303 564.321 258.345 564.363 258.387L566.934 259.515C567.268 259.682 567.498 259.912 567.623 260.205C567.707 260.497 567.665 260.811 567.498 261.145C567.331 261.438 567.08 261.605 566.745 261.647C566.453 261.731 566.16 261.668 565.868 261.459L563.548 259.766C563.506 259.724 563.443 259.724 563.36 259.766C563.318 259.766 563.318 259.808 563.36 259.891L563.673 262.65C563.715 263.026 563.631 263.319 563.422 263.528C563.172 263.779 562.879 263.904 562.545 263.904Z" fill="#67ACFF"/>
</svg>
