<svg width="230" height="230" viewBox="0 0 230 230" fill="none" xmlns="http://www.w3.org/2000/svg">
<path d="M19.1562 169.232L43.1506 169.117L67.1679 169.071L115.18 169.003L163.191 169.071L187.208 169.117L211.203 169.232L187.208 169.323L163.191 169.369L115.18 169.438L67.1679 169.369L43.1506 169.323L19.1562 169.232Z" fill="#263238"/>
<path d="M188.238 131.042V169.163H153.804V131.042H188.238Z" fill="#EBEBEB"/>
<path d="M206.006 169.163H188.239V131.042H206.006V169.163Z" fill="#DBDBDB"/>
<path d="M204.792 166.53C203.479 163.813 202.174 161.097 200.877 158.38L197.008 150.183L193.207 141.941C191.94 139.193 190.688 136.431 189.452 133.653C190.78 136.37 192.085 139.094 193.367 141.826L197.237 150.023L201.037 158.265C202.304 161.013 203.556 163.768 204.792 166.53Z" fill="#EBEBEB"/>
<path d="M204.792 133.653C203.556 136.431 202.304 139.193 201.037 141.941L197.237 150.183L193.367 158.38C192.085 161.097 190.78 163.813 189.452 166.53C190.688 163.768 191.94 161.013 193.207 158.265L197.008 150.023L200.877 141.826C202.174 139.094 203.479 136.37 204.792 133.653Z" fill="#EBEBEB"/>
<path d="M188.238 73.4602V108.948H153.804V73.4602H188.238Z" fill="#EBEBEB"/>
<path d="M206.006 108.948H188.239V73.4602H206.006V108.948Z" fill="#DBDBDB"/>
<path d="M173.953 81.7025H173.22H172.671L172.35 81.0615L171.915 81.7025L171.32 80.3975L170.77 81.7025H169.145H168.412L168.137 80.8325L167.886 81.7025H167.428V73.4602H173.953V81.7025Z" fill="#DBDBDB"/>
<path d="M204.792 106.681C203.479 104.163 202.174 101.629 200.877 99.0799L197.008 91.4558L193.207 83.7858C191.94 81.2215 190.688 78.6496 189.452 76.0701C190.78 78.6038 192.085 81.1376 193.367 83.6713L197.237 91.3184L201.037 98.9884C202.304 101.537 203.556 104.102 204.792 106.681Z" fill="#EBEBEB"/>
<path d="M204.792 76.0701C203.556 78.6496 202.304 81.2215 201.037 83.7858L197.237 91.4558L193.367 99.0799C192.085 101.629 190.78 104.163 189.452 106.681C190.688 104.102 191.94 101.537 193.207 98.9884L197.008 91.3184L200.877 83.6713C202.174 81.1376 203.479 78.6038 204.792 76.0701Z" fill="#EBEBEB"/>
<path d="M185.972 106.75H182.148V102.927H185.972V106.75Z" fill="white"/>
<path d="M61.0548 100.317V135.805H26.6201V100.317H61.0548Z" fill="#EBEBEB"/>
<path d="M78.8225 135.805H61.0557V100.317H78.8225V135.805Z" fill="#DBDBDB"/>
<path d="M77.609 133.538C76.2963 131.019 74.9913 128.485 73.6939 125.936L69.8475 118.312L66.0239 110.642C64.7723 108.078 63.5283 105.506 62.292 102.927C63.6047 105.46 64.9021 107.994 66.1842 110.528L70.0535 118.175L73.8542 125.845C75.121 128.394 76.3727 130.958 77.609 133.538Z" fill="#EBEBEB"/>
<path d="M77.609 102.927C76.3727 105.506 75.121 108.078 73.8542 110.642L70.0535 118.312L66.1842 125.936C64.9021 128.485 63.6047 131.019 62.292 133.538C63.5283 130.958 64.7723 128.394 66.0239 125.845L69.8475 118.175L73.6939 110.528C74.9913 107.994 76.2963 105.46 77.609 102.927Z" fill="#EBEBEB"/>
<path d="M58.7884 133.607H54.9648V129.783H58.7884V133.607Z" fill="white"/>
<path d="M190.528 108.948V131.042H156.094V108.948H190.528Z" fill="#DBDBDB"/>
<path d="M208.295 131.042H190.528V108.948H208.295V131.042Z" fill="#C7C7C7"/>
<path d="M176.242 117.19H175.509H174.96L174.639 116.549L174.204 117.19L173.609 115.885L173.06 117.19H171.434H170.701L170.449 116.32L170.198 117.19H169.717V108.948H176.242V117.19Z" fill="white"/>
<path d="M207.083 129.714C205.77 128.112 204.465 126.501 203.168 124.883L199.321 120.03L195.498 115.176C194.246 113.543 193.002 111.909 191.766 110.276C193.078 111.879 194.376 113.481 195.658 115.084L199.527 119.938L203.328 124.815C204.595 126.448 205.846 128.081 207.083 129.714Z" fill="#DBDBDB"/>
<path d="M207.083 110.276C205.846 111.909 204.595 113.543 203.328 115.176L199.527 120.03L195.658 124.883C194.376 126.501 193.078 128.112 191.766 129.714C193.002 128.081 194.246 126.448 195.498 124.815L199.321 119.938L203.168 115.084C204.465 113.481 205.77 111.879 207.083 110.276Z" fill="#DBDBDB"/>
<path d="M58.7887 78.2227V100.317H24.377V78.2227H58.7887Z" fill="#DBDBDB"/>
<path d="M76.5778 100.317H58.7881V78.2227H76.5778V100.317Z" fill="#C7C7C7"/>
<path d="M44.5018 86.465H43.7691H43.2196L42.922 85.8239L42.487 86.465L41.8917 85.16L41.3193 86.465H39.7166H38.9611L38.7092 85.595L38.4574 86.465H37.9766V78.2227H44.5018V86.465Z" fill="white"/>
<path d="M75.3424 98.9885C74.0297 97.3858 72.7247 95.7755 71.4273 94.1576L67.5809 89.3037L63.7802 84.4499C62.5134 82.8167 61.2617 81.1835 60.0254 79.5503C61.3381 81.153 62.6431 82.7556 63.9405 84.3583L67.7869 89.2121L71.5876 94.0889C72.8544 95.7221 74.1061 97.3553 75.3424 98.9885Z" fill="#DBDBDB"/>
<path d="M75.3424 79.5503C74.1061 81.1835 72.8544 82.8167 71.5876 84.4499L67.7869 89.3037L63.9405 94.1576C62.6431 95.7755 61.3381 97.3858 60.0254 98.9885C61.2617 97.3553 62.5134 95.7221 63.7802 94.0889L67.5809 89.2121L71.4273 84.3583C72.7247 82.7556 74.0297 81.153 75.3424 79.5503Z" fill="#DBDBDB"/>
<path d="M56.4762 135.804V169.163H22.0645V135.804H56.4762Z" fill="#DBDBDB"/>
<path d="M74.2653 169.163H56.4756V135.804H74.2653V169.163Z" fill="#C7C7C7"/>
<path d="M42.1893 144.047H41.4566H40.9071L40.6095 143.406L40.1516 144.047L39.5563 142.742L39.0068 144.047H37.3812H36.6486L36.3967 143.177L36.1449 144.047H35.6641V135.804H42.1893V144.047Z" fill="white"/>
<path d="M73.0299 167.171C71.7172 164.744 70.4122 162.317 69.1148 159.89L65.2684 152.541L61.4448 145.191C60.1932 142.734 58.9492 140.269 57.7129 137.796C59.0256 140.208 60.3306 142.635 61.628 145.077L65.4744 152.403L69.2751 159.776C70.5419 162.233 71.7936 164.698 73.0299 167.171Z" fill="#DBDBDB"/>
<path d="M73.0299 137.796C71.7936 140.269 70.5419 142.734 69.2751 145.191L65.4744 152.541L61.628 159.89C60.3306 162.317 59.0256 164.744 57.7129 167.171C58.9492 164.698 60.1932 162.233 61.4448 159.776L65.2684 152.403L69.1148 145.077C70.4122 142.635 71.7172 140.208 73.0299 137.796Z" fill="#DBDBDB"/>
<path fill-rule="evenodd" clip-rule="evenodd" d="M33.9465 149.473L27.925 149.61L24.8799 149.656C23.8725 149.679 22.8423 149.679 21.812 149.679H21.6059V149.473L21.583 144.344V144.115H21.812L27.8792 144.161C29.894 144.161 31.9317 144.207 33.9465 144.23H34.061V144.344C34.061 145.214 34.0381 146.084 34.0152 146.932L33.9465 149.473ZM33.9465 149.473L33.8778 146.886C33.8549 146.084 33.832 145.283 33.8092 144.482C31.8401 144.505 29.8482 144.55 27.8792 144.55L22.0409 144.596L22.018 149.29C22.9567 149.29 23.8725 149.29 24.8113 149.313L27.8335 149.359L33.9465 149.473ZM33.8092 144.482C33.8549 144.482 33.9007 144.474 33.9465 144.459L33.8092 144.344C33.8092 144.39 33.8092 144.436 33.8092 144.482ZM22.0409 144.573V144.344L21.812 144.573H22.0409ZM22.018 149.267C21.957 149.267 21.8883 149.267 21.812 149.267L22.018 149.473V149.267Z" fill="#EBEBEB"/>
<path fill-rule="evenodd" clip-rule="evenodd" d="M27.1707 155.93L21.1721 156.067L18.127 156.113C17.0967 156.136 16.0664 156.136 15.059 156.136H14.853V155.93L14.8301 150.824V150.572L15.059 150.595L21.1263 150.618C23.1411 150.618 25.1559 150.664 27.1707 150.687H27.3081V150.824C27.3081 151.671 27.2623 152.541 27.2394 153.411L27.1707 155.93ZM27.1707 155.93L27.102 153.343C27.102 152.518 27.0562 151.717 27.0562 150.916C25.0643 150.939 23.0953 150.984 21.1034 151.007L15.288 151.03L15.2651 155.724C16.1809 155.724 17.1196 155.724 18.0583 155.747L21.0576 155.792L27.1707 155.93ZM27.0562 150.939C27.0867 150.939 27.1249 150.939 27.1707 150.939L27.0562 150.801C27.0562 150.847 27.0562 150.893 27.0562 150.939ZM15.2651 151.03L15.288 150.801L15.059 151.03H15.2651ZM15.2422 155.724C15.1659 155.724 15.0972 155.724 15.0361 155.724L15.2422 155.93V155.724Z" fill="#EBEBEB"/>
<path fill-rule="evenodd" clip-rule="evenodd" d="M155.751 63.1803L149.73 63.3176L146.685 63.3634C145.677 63.3863 144.647 63.3863 143.617 63.3863H143.433L143.411 63.1803L143.388 58.0517V57.8228H143.617L149.684 57.8456C151.699 57.8685 153.736 57.9143 155.751 57.9372H155.889L155.866 58.0517C155.866 58.9217 155.843 59.7918 155.82 60.6389L155.751 63.1803ZM155.751 63.1803L155.683 60.5931C155.66 59.7918 155.637 58.9904 155.614 58.1891C153.645 58.212 151.653 58.2578 149.684 58.2578L143.846 58.2807L143.823 62.9742C144.761 62.9971 145.677 62.9971 146.616 62.9971L149.638 63.0658L155.751 63.1803ZM155.614 58.1662C155.66 58.1662 155.705 58.1662 155.751 58.1662L155.614 58.0517C155.614 58.0975 155.614 58.1357 155.614 58.1662ZM143.846 58.2807V58.0517L143.617 58.2807H143.846ZM143.823 62.9742C143.762 62.9742 143.693 62.9742 143.617 62.9742L143.823 63.1803V62.9742Z" fill="#EBEBEB"/>
<path fill-rule="evenodd" clip-rule="evenodd" d="M148.996 69.6371L142.975 69.7744L139.93 69.8202C138.899 69.8431 137.892 69.8431 136.862 69.8431H136.656V69.6371L136.633 64.5085V64.2795H136.862L142.929 64.3253C144.944 64.3253 146.959 64.3711 148.996 64.394H149.111V64.5085C149.111 65.3785 149.065 66.2485 149.042 67.0957L148.996 69.6371ZM148.996 69.6371L148.951 67.0499C148.928 66.2485 148.882 65.4472 148.882 64.6459C146.913 64.6688 144.921 64.7146 142.952 64.7146L137.114 64.7603L137.091 69.4539C138.007 69.4539 138.945 69.4539 139.884 69.4768L142.883 69.5226L148.996 69.6371ZM148.882 64.6459C148.928 64.6459 148.966 64.6459 148.996 64.6459L148.882 64.5085C148.882 64.5543 148.882 64.6001 148.882 64.6459ZM137.114 64.7374V64.5085L136.885 64.7374H137.114ZM137.091 69.431C137.014 69.431 136.946 69.431 136.885 69.431L137.091 69.6371V69.431Z" fill="#EBEBEB"/>
<path fill-rule="evenodd" clip-rule="evenodd" d="M142.242 63.1803L136.243 63.3176L133.198 63.3634C132.168 63.3863 131.138 63.3863 130.13 63.3863H129.924V63.1803L129.901 58.0517V57.8228H130.13L136.175 57.8456C138.212 57.8685 140.227 57.9143 142.242 57.9372H142.379V58.0517C142.356 58.9217 142.334 59.7918 142.311 60.6389L142.242 63.1803ZM142.242 63.1803L142.173 60.5931C142.15 59.7918 142.128 58.9904 142.128 58.1891C140.136 58.212 138.167 58.2578 136.175 58.2578L130.336 58.2807L130.313 62.9742C131.252 62.9971 132.191 62.9971 133.107 62.9971L136.129 63.0658L142.242 63.1803ZM142.128 58.1662C142.158 58.1662 142.196 58.1662 142.242 58.1662L142.128 58.0517C142.128 58.0975 142.128 58.1357 142.128 58.1662ZM130.336 58.2807V58.0517L130.107 58.2807H130.336ZM130.313 62.9742C130.252 62.9742 130.184 62.9742 130.107 62.9742L130.313 63.1803V62.9742Z" fill="#EBEBEB"/>
<path fill-rule="evenodd" clip-rule="evenodd" d="M215.302 155.93L209.303 156.067L206.235 156.113C205.228 156.136 204.197 156.136 203.19 156.136H202.984V155.93L202.961 150.824V150.572L203.19 150.595L209.234 150.618C211.272 150.618 213.287 150.664 215.302 150.687H215.439V150.824C215.416 151.671 215.393 152.541 215.37 153.411L215.302 155.93ZM215.302 155.93L215.233 153.343C215.21 152.518 215.187 151.717 215.187 150.916C213.195 150.939 211.226 150.984 209.234 151.007L203.396 151.03L203.373 155.724C204.312 155.724 205.25 155.724 206.166 155.747L209.188 155.792L215.302 155.93ZM215.187 150.939C215.218 150.939 215.256 150.939 215.302 150.939L215.164 150.801C215.164 150.847 215.172 150.893 215.187 150.939ZM203.396 151.03V150.801L203.167 151.03H203.396ZM203.373 155.724C203.312 155.724 203.243 155.724 203.167 155.724L203.373 155.93V155.724Z" fill="#EBEBEB"/>
<path fill-rule="evenodd" clip-rule="evenodd" d="M208.547 30.6229L202.526 30.7374L199.481 30.8061C198.473 30.8061 197.443 30.8061 196.413 30.829H196.206V30.6229L196.184 25.4943V25.2654H196.413L202.48 25.2883C204.495 25.2883 206.509 25.3341 208.547 25.357L208.662 25.3799V25.4943C208.662 26.3644 208.616 27.2344 208.616 28.0815L208.547 30.6229ZM208.547 30.6229L208.478 28.0357C208.456 27.2344 208.433 26.433 208.41 25.6317C206.441 25.6546 204.449 25.7004 202.48 25.7004L196.642 25.7233L196.619 30.4168C197.557 30.4168 198.473 30.4168 199.412 30.4397L202.411 30.4855L208.547 30.6229ZM208.433 25.6317C208.478 25.6317 208.517 25.6317 208.547 25.6317L208.433 25.5172C208.433 25.5478 208.433 25.5859 208.433 25.6317ZM196.664 25.7462V25.5172L196.435 25.7462H196.664ZM196.642 30.4397C196.565 30.4397 196.497 30.4397 196.435 30.4397L196.642 30.6229V30.4397Z" fill="#EBEBEB"/>
<path fill-rule="evenodd" clip-rule="evenodd" d="M215.302 37.0797L209.303 37.1942L206.235 37.2629C205.228 37.2857 204.197 37.2629 203.19 37.2857H202.984V37.0797L202.961 31.9511V31.7222H203.19L209.234 31.7451C211.272 31.7451 213.287 31.8137 215.302 31.8366H215.439V31.9511C215.416 32.8211 215.393 33.6912 215.37 34.5383L215.302 37.0797ZM215.302 37.0797L215.233 34.4925C215.21 33.6912 215.187 32.8898 215.187 32.0885C213.195 32.1114 211.226 32.1572 209.234 32.1572L203.396 32.1801L203.373 36.8736C204.312 36.8965 205.25 36.8965 206.166 36.8965L209.188 36.9652L215.302 37.0797ZM215.187 32.0656C215.218 32.0656 215.256 32.0656 215.302 32.0656L215.164 31.9511C215.164 31.9969 215.172 32.0351 215.187 32.0656ZM203.396 32.1801V31.9511L203.167 32.1801H203.396ZM203.373 36.8736C203.312 36.8736 203.243 36.8736 203.167 36.8736L203.373 37.0797V36.8736Z" fill="#EBEBEB"/>
<path fill-rule="evenodd" clip-rule="evenodd" d="M33.9465 30.6229L27.925 30.7374L24.8799 30.8061C23.8725 30.8061 22.8423 30.8061 21.812 30.829H21.6059V30.6229L21.583 25.4943V25.2654H21.812L27.8792 25.2883C29.894 25.2883 31.9317 25.3341 33.9465 25.357L34.061 25.3799V25.4943C34.061 26.3644 34.0381 27.2344 34.0152 28.0815L33.9465 30.6229ZM33.9465 30.6229L33.8778 28.0357C33.8549 27.2344 33.832 26.433 33.8092 25.6317C31.8401 25.6546 29.8482 25.7004 27.8792 25.7004L22.0409 25.7233L22.018 30.4168C22.9567 30.4168 23.8725 30.4168 24.8113 30.4397L27.8335 30.4855L33.9465 30.6229ZM33.8092 25.6317C33.8549 25.6317 33.9007 25.6317 33.9465 25.6317L33.8092 25.5172C33.8092 25.5478 33.8092 25.5859 33.8092 25.6317ZM22.0409 25.7462V25.5172L21.812 25.7462H22.0409ZM22.018 30.4397C21.957 30.4397 21.8883 30.4397 21.812 30.4397L22.018 30.6229V30.4397Z" fill="#EBEBEB"/>
<path d="M216.652 199.705C216.652 205.933 172.441 210.97 117.904 210.97C63.3673 210.97 19.1562 205.933 19.1562 199.705C19.1562 193.478 63.3673 188.441 117.904 188.441C172.441 188.441 216.652 193.478 216.652 199.705Z" fill="#EBEBEB"/>
<path d="M78.5014 26.4102H65.1992V169.163H78.5014V26.4102Z" fill="#263238"/>
<path d="M165.161 26.4102H151.858V169.163H165.161V26.4102Z" fill="#455A64"/>
<path d="M151.858 45.207H70.6484V40.4219H151.858V45.207Z" fill="#37474F"/>
<path d="M151.858 76.1848H70.6484V71.3997H151.858V76.1848Z" fill="#37474F"/>
<path d="M151.858 107.185H70.6484V102.377H151.858V107.185Z" fill="#37474F"/>
<path d="M151.858 138.163H70.6484V133.378H151.858V138.163Z" fill="#37474F"/>
<path d="M151.858 169.164H70.6484V164.355H151.858V169.164Z" fill="#37474F"/>
<path d="M105.221 45.436V71.3994H80.0586V45.436H105.221Z" fill="#EBEBEB"/>
<path d="M118.224 71.3994H105.22V45.436H118.224V71.3994Z" fill="#DBDBDB"/>
<path d="M94.7803 51.4804H94.2537H93.8415L93.6126 50.9996L93.2921 51.4804L92.857 50.5188L92.4449 51.4804H91.2773H90.7278L90.5446 50.8394L90.3614 51.4804H89.9951V45.436H94.7803V51.4804Z" fill="#DBDBDB"/>
<path d="M117.332 69.7516C116.37 67.9047 115.416 66.0501 114.47 64.188L111.654 58.6015L108.861 52.9921C107.93 51.13 107.014 49.2525 106.113 47.3599C107.075 49.2068 108.029 51.0613 108.975 52.9234L111.791 58.5099L114.585 64.1193C115.5 65.9814 116.416 67.8589 117.332 69.7516Z" fill="#EBEBEB"/>
<path d="M117.332 47.3599C116.416 49.2525 115.5 51.13 114.585 52.9921L111.791 58.6015L108.975 64.188C108.029 66.0501 107.075 67.9047 106.113 69.7516C107.014 67.8589 107.93 65.9814 108.861 64.1193L111.654 58.5099L114.47 52.9234C115.416 51.0613 116.37 49.2068 117.332 47.3599Z" fill="#EBEBEB"/>
<path d="M103.573 69.7969H100.779V67.0037H103.573V69.7969Z" fill="white"/>
<path d="M121.064 86.2363V102.378H95.9023V86.2363H121.064Z" fill="#DBDBDB"/>
<path d="M134.068 102.378H121.063V86.2363H134.068V102.378Z" fill="#C7C7C7"/>
<path d="M110.624 92.2578H110.097H109.685L109.456 91.7999L109.135 92.2578L108.7 91.3191L108.288 92.2578H107.121H106.571L106.388 91.6396L106.205 92.2578H105.861V86.2363H110.624V92.2578Z" fill="white"/>
<path d="M133.176 101.416C132.214 100.256 131.26 99.0805 130.314 97.8899L127.498 94.3411L124.704 90.7923C123.789 89.6018 122.873 88.4036 121.957 87.1978C122.934 88.3731 123.888 89.5483 124.819 90.7236L127.658 94.2724L130.428 97.8441C131.359 99.0347 132.275 100.225 133.176 101.416Z" fill="#DBDBDB"/>
<path d="M133.176 87.1978C132.275 88.4036 131.359 89.6018 130.428 90.7923L127.658 94.3411L124.819 97.8899C123.888 99.0805 122.934 100.256 121.957 101.416C122.873 100.225 123.789 99.0347 124.704 97.8441L127.498 94.2724L130.314 90.7465C131.26 89.556 132.214 88.3731 133.176 87.1978Z" fill="#DBDBDB"/>
<path d="M210.699 196.179C210.585 195.103 198.221 168.453 197.099 167.743C196.687 167.468 192.703 169.025 187.941 171.086C187.88 171.101 187.827 171.116 187.781 171.132C186.796 171.567 168.663 176.421 168.663 176.421L176.699 193.867L195.565 188.418L195.863 188.28C195.863 188.28 205.158 196.362 206.463 197.026C207.768 197.667 210.814 197.255 210.699 196.179Z" fill="#C95F50"/>
<path d="M184.347 172.162L192.589 189.265L195.565 188.418L195.863 188.28C195.863 188.28 205.159 196.362 206.464 197.026C207.769 197.667 210.837 197.255 210.699 196.179C210.585 195.103 198.221 168.453 197.099 167.743C196.687 167.468 192.704 169.025 187.918 171.086C187.873 171.101 187.827 171.116 187.781 171.132C187.529 171.246 186.201 171.635 184.347 172.162Z" fill="#EBEBEB"/>
<path d="M210.814 196.317C210.699 195.218 198.29 168.271 197.168 167.538C196.756 167.263 192.726 168.843 187.896 170.881L195.84 188.281C195.84 188.281 205.204 196.478 206.509 197.142C207.837 197.806 210.928 197.394 210.814 196.317Z" fill="#FFC727"/>
<path d="M209.554 196.408C207.356 191.944 198.954 173.719 197.122 169.14C197.122 169.117 197.145 169.094 197.168 169.14C199.434 173.513 207.677 191.806 209.623 196.385C209.669 196.477 209.6 196.523 209.554 196.408Z" fill="#263238"/>
<path d="M204.747 195.859C204.22 194.806 204.243 193.524 204.609 192.654C204.976 191.807 205.617 190.937 206.555 190.525C206.578 190.525 206.601 190.57 206.578 190.593C204.93 191.647 204.129 193.982 204.815 195.836C204.815 195.859 204.77 195.905 204.747 195.859Z" fill="#263238"/>
<path d="M197.099 189.838C196.252 188.029 195.909 185.648 196.87 183.839C196.916 183.77 197.008 183.816 197.008 183.885C196.916 185.9 197.008 187.754 197.328 189.746C197.351 189.906 197.168 189.952 197.099 189.838Z" fill="#263238"/>
<path d="M198.29 190.983C197.42 189.174 197.1 186.793 198.061 184.984C198.107 184.915 198.199 184.961 198.199 185.03C198.107 187.045 198.199 188.899 198.519 190.891C198.542 191.051 198.336 191.097 198.29 190.983Z" fill="#263238"/>
<path d="M199.481 192.127C198.611 190.318 198.29 187.937 199.252 186.128C199.297 186.06 199.389 186.106 199.389 186.174C199.297 188.189 199.389 190.044 199.71 192.058C199.732 192.196 199.526 192.242 199.481 192.127Z" fill="#263238"/>
<path d="M200.649 193.272C199.802 191.463 199.481 189.082 200.443 187.273C200.466 187.204 200.58 187.25 200.58 187.319C200.489 189.356 200.557 191.188 200.901 193.203C200.924 193.34 200.718 193.386 200.649 193.272Z" fill="#263238"/>
<path d="M193.368 172.277C192.452 170.24 195.612 168.797 196.527 170.835C197.466 172.872 194.307 174.315 193.368 172.277Z" fill="#263238"/>
<path fill-rule="evenodd" clip-rule="evenodd" d="M193.161 194.005C191.994 193.432 192.2 191.944 192.726 191.006C193.596 189.517 195.085 188.052 196.596 187.251C196.642 187.228 196.664 187.251 196.687 187.274C196.825 187.251 197.008 187.365 196.962 187.525C196.664 189.22 196.573 191.074 195.749 192.631C195.291 193.547 194.283 194.531 193.161 194.005ZM196 190.021C196.161 189.174 196.275 188.35 196.481 187.525C195.726 188.258 194.947 188.968 194.283 189.769C193.94 190.158 193.619 190.571 193.368 191.006C192.933 191.67 192.246 194.142 194.306 193.41C195.428 193.02 195.794 191.006 196 190.021Z" fill="#263238"/>
<path fill-rule="evenodd" clip-rule="evenodd" d="M195.199 182.443C196.161 183.908 196.458 185.74 196.939 187.388C196.985 187.571 196.825 187.686 196.664 187.686C196.664 187.709 196.641 187.732 196.596 187.732C195.016 187.068 193.367 185.763 192.36 184.366C191.742 183.496 191.376 182.031 192.497 181.344C193.551 180.703 194.65 181.596 195.199 182.443ZM193.665 181.825C191.559 181.321 192.497 183.702 192.978 184.32C193.299 184.709 193.665 185.099 194.031 185.442C194.787 186.175 195.634 186.793 196.458 187.457C196.184 186.656 195.955 185.831 195.703 185.03C195.405 184.068 194.833 182.099 193.665 181.825Z" fill="#263238"/>
<path d="M144.875 119.549C144.875 119.549 145.219 129.989 146.775 135.141C146.775 135.141 148.493 136.034 148.996 136.354C148.996 136.354 136.038 167.423 136.77 179.374C136.999 183.29 141.441 189.746 145.928 192.516C153.873 197.462 192.589 193.135 192.589 193.135L186.98 169.85C186.98 169.85 162.482 171.201 161.864 169.896C161.085 168.202 165.962 155.128 169.854 144.528C170.243 143.452 174.158 139.491 173.7 132.324C173.265 125.364 170.335 119.549 170.335 119.549H144.875Z" fill="#37474F"/>
<path d="M182.515 172.437C177.157 172.345 172.807 172.78 167.473 172.803C166.129 172.803 164.786 172.803 163.443 172.803C162.771 172.803 162.092 172.803 161.405 172.803C160.947 172.803 160.49 172.78 160.032 172.666C159.62 172.574 159.185 172.391 158.956 172.025C158.589 171.498 158.772 170.834 158.91 170.262C159.169 169.01 159.467 167.759 159.803 166.507C161.154 161.47 162.916 156.548 164.565 151.579C165.42 149.03 166.274 146.481 167.129 143.932C167.335 143.314 167.541 142.696 167.793 142.101C168.045 141.551 168.32 141.024 168.64 140.498C169.213 139.491 169.739 138.46 170.083 137.338C171.525 132.599 170.151 127.676 168.457 123.189C168.228 122.594 167.992 121.998 167.747 121.403C167.724 121.357 167.656 121.38 167.679 121.426C169.213 126.165 171.044 131.088 170.014 136.125C169.785 137.315 169.373 138.46 168.778 139.513C168.48 140.063 168.16 140.589 167.885 141.139C167.587 141.688 167.335 142.261 167.129 142.856C166.236 145.352 165.435 147.916 164.588 150.434C162.894 155.471 161.108 160.486 159.711 165.591C159.36 166.858 159.04 168.14 158.75 169.438C158.543 170.376 158.063 171.681 158.887 172.46C159.505 173.032 160.444 173.101 161.245 173.124C162.573 173.124 163.901 173.101 165.229 173.101C170.655 173.101 181.828 172.643 182.515 172.62C182.629 172.62 182.629 172.437 182.515 172.437Z" fill="#263238"/>
<path d="M188.468 192.059C187.964 189.334 187.46 186.587 186.842 183.885C186.247 181.183 185.598 178.489 184.896 175.803C184.697 175.04 184.491 174.276 184.278 173.513C184.186 173.162 184.087 172.804 183.98 172.437C183.888 172.071 183.797 171.705 183.66 171.361C183.637 171.315 183.591 171.338 183.591 171.384C183.637 172.071 183.82 172.781 183.957 173.468C184.095 174.109 184.209 174.773 184.346 175.437C184.636 176.78 184.926 178.123 185.216 179.466C185.812 182.168 186.476 184.847 187.163 187.525C187.544 189.036 187.933 190.555 188.33 192.081C188.353 192.15 188.49 192.15 188.468 192.059Z" fill="#263238"/>
<path d="M141.213 157.601L168.71 147.641C169.092 146.588 169.473 145.55 169.855 144.528C170.244 143.452 174.159 139.491 173.701 132.324C173.266 125.364 170.336 119.549 170.336 119.549H144.876C144.876 119.549 145.22 129.989 146.776 135.118C146.776 135.118 148.494 136.034 148.997 136.354C148.997 136.354 144.716 146.611 141.213 157.601Z" fill="#263238"/>
<path d="M99.4274 197.416C100.458 197.737 129.81 196.775 130.909 196.02C131.344 195.745 131.435 191.464 131.412 186.266C131.412 186.22 131.412 186.167 131.412 186.106C131.412 185.053 128.985 167.126 128.985 167.126L108.448 167.744L112.478 186.518V186.839C112.478 186.839 101.419 192.242 100.297 193.204C99.1984 194.142 98.3742 197.119 99.4274 197.416Z" fill="#C95F50"/>
<path d="M99.4274 197.439C100.458 197.737 129.81 196.775 130.909 196.02C131.344 195.745 131.435 191.463 131.412 186.266V186.106C131.412 185.808 131.229 184.274 130.977 182.168L111.699 182.924L112.478 186.518L112.501 186.839C112.501 186.839 101.419 192.242 100.297 193.204C99.1984 194.142 98.3742 197.119 99.4274 197.439Z" fill="#EBEBEB"/>
<path d="M99.1991 197.553C100.252 197.873 129.902 196.889 131.001 196.133C131.413 195.836 131.527 191.508 131.504 186.288L112.387 186.861C112.387 186.861 101.214 192.333 100.092 193.271C98.9701 194.233 98.1459 197.232 99.1991 197.553Z" fill="#FFC727"/>
<path d="M99.5878 196.363C104.556 196.066 124.612 195.379 129.535 195.47C129.581 195.47 129.581 195.493 129.535 195.493C124.612 195.882 104.556 196.432 99.5878 196.432C99.4733 196.432 99.4733 196.363 99.5878 196.363Z" fill="#263238"/>
<path d="M101.969 192.15C103.137 192.058 104.304 192.585 104.968 193.272C105.609 193.913 106.182 194.851 106.182 195.882C106.182 195.905 106.113 195.905 106.113 195.882C105.77 193.936 103.938 192.287 101.969 192.218C101.923 192.218 101.923 192.15 101.969 192.15Z" fill="#263238"/>
<path d="M110.486 187.434C112.478 187.342 114.791 187.96 116.096 189.54C116.141 189.609 116.05 189.677 116.004 189.654C114.172 188.784 112.432 188.143 110.463 187.663C110.326 187.64 110.349 187.434 110.486 187.434Z" fill="#263238"/>
<path d="M108.975 188.075C110.967 187.983 113.279 188.601 114.584 190.204C114.63 190.25 114.539 190.318 114.47 190.296C112.638 189.426 110.921 188.784 108.952 188.327C108.792 188.281 108.815 188.075 108.975 188.075Z" fill="#263238"/>
<path d="M107.441 188.716C109.433 188.624 111.769 189.265 113.051 190.845C113.119 190.914 113.028 190.982 112.959 190.936C111.128 190.089 109.41 189.448 107.418 188.967C107.281 188.945 107.304 188.738 107.441 188.716Z" fill="#263238"/>
<path d="M105.93 189.38C107.922 189.288 110.257 189.906 111.539 191.486C111.585 191.555 111.516 191.624 111.447 191.601C109.616 190.731 107.876 190.09 105.907 189.632C105.769 189.586 105.792 189.38 105.93 189.38Z" fill="#263238"/>
<path d="M128.116 190.799C130.337 190.731 130.451 194.188 128.207 194.257C125.986 194.325 125.872 190.868 128.116 190.799Z" fill="#263238"/>
<path fill-rule="evenodd" clip-rule="evenodd" d="M108.151 182.19C109.136 181.32 110.441 182.099 111.082 182.946C112.135 184.32 112.891 186.266 113.051 187.96C113.074 188.006 113.028 188.029 113.005 188.029C112.959 188.166 112.799 188.303 112.639 188.189C111.196 187.273 109.525 186.449 108.403 185.098C107.762 184.32 107.236 183.014 108.151 182.19ZM110.739 186.334C111.448 186.815 112.158 187.25 112.845 187.754C112.456 186.769 112.112 185.785 111.631 184.846C111.402 184.388 111.151 183.93 110.853 183.518C110.395 182.877 108.403 181.274 108.266 183.45C108.197 184.663 109.914 185.762 110.739 186.334Z" fill="#263238"/>
<path fill-rule="evenodd" clip-rule="evenodd" d="M118.019 188.532C116.302 188.876 114.493 188.441 112.799 188.235C112.616 188.212 112.57 188.006 112.639 187.868C112.593 187.845 112.593 187.823 112.616 187.777C113.852 186.563 115.661 185.556 117.355 185.167C118.385 184.938 119.873 185.167 120.08 186.472C120.263 187.685 119.026 188.349 118.019 188.532ZM119.187 187.365C120.469 185.625 117.904 185.556 117.149 185.762C116.668 185.899 116.187 186.105 115.729 186.289C114.745 186.701 113.852 187.25 112.913 187.754C113.76 187.8 114.608 187.937 115.455 188.006C116.462 188.097 118.477 188.326 119.187 187.365Z" fill="#263238"/>
<path d="M110.807 185.098H133.794C133.794 185.098 129.696 153.8 131.046 151.763C131.665 150.847 161.497 153.846 170.243 144.39C178.211 135.736 170.083 119.549 170.083 119.549H145.585C145.585 119.549 145.104 126.486 143.776 129.256C143.204 130.447 115.844 128.753 111.562 136.583C105.839 147.023 110.807 185.098 110.807 185.098Z" fill="#37474F"/>
<path d="M131.367 180.725C128.78 180.634 126.17 180.542 123.583 180.542C120.973 180.542 118.363 180.596 115.753 180.703C115.02 180.725 112.868 180.84 112.501 180.863C112.158 180.886 111.792 180.886 111.448 180.954C111.403 180.954 111.425 181.023 111.448 181.023C112.021 181.115 117.905 181.183 119.187 181.183C121.774 181.206 124.361 181.115 126.948 181.023C128.414 180.977 129.887 180.924 131.367 180.863C131.436 180.863 131.459 180.725 131.367 180.725Z" fill="#263238"/>
<path d="M146.592 127.036C146.699 126.303 146.798 125.57 146.89 124.838C147.073 123.143 147.256 121.449 147.302 119.778C147.302 119.64 147.119 119.64 147.096 119.778C146.936 121.083 146.821 122.388 146.684 123.693C146.524 124.975 146.409 126.303 146.18 127.585C146.112 127.974 145.928 128.615 145.448 128.615C144.784 128.638 144.646 127.745 144.601 127.242C144.463 126.028 144.463 124.815 144.532 123.601C144.601 122.205 144.784 120.831 144.944 119.434C144.944 119.388 144.852 119.388 144.852 119.434C144.28 122.113 143.73 124.929 144.211 127.677C144.303 128.226 144.532 128.798 145.081 128.982C145.097 128.982 145.112 128.982 145.127 128.982C145.112 128.997 145.104 129.012 145.104 129.027C145.104 129.096 145.104 129.188 145.104 129.256C145.104 129.333 145.104 129.401 145.104 129.462C145.104 129.6 145.081 129.737 145.104 129.875C145.104 129.989 145.264 129.989 145.287 129.875C145.333 129.875 145.356 129.852 145.356 129.806C145.425 129.554 145.402 129.279 145.356 129.027C145.677 129.027 145.974 128.867 146.157 128.569C146.478 128.134 146.524 127.562 146.592 127.036Z" fill="#263238"/>
<path d="M144.166 129.027C146.043 130.287 147.783 131.798 149.432 133.355C149.5 133.423 149.409 133.538 149.34 133.469C147.554 132.095 145.7 130.722 143.983 129.234C143.845 129.119 144.006 128.936 144.166 129.027Z" fill="#263238"/>
<path d="M164.29 130.355C163.764 130.355 163.237 130.333 162.711 130.241C162.253 130.149 161.795 130.035 161.337 129.898C160.49 129.646 159.459 129.348 158.841 128.661C158.2 127.997 157.788 127.058 157.422 126.234C157.01 125.296 156.689 124.311 156.575 123.304C156.575 123.258 156.506 123.258 156.506 123.304C156.597 124.357 156.735 125.387 157.032 126.395C157.17 126.898 157.376 127.379 157.605 127.86C157.834 128.318 158.086 128.799 158.429 129.165C159.116 129.898 160.238 130.264 161.199 130.47C162.184 130.653 163.306 130.653 164.313 130.47C164.382 130.47 164.359 130.355 164.29 130.355Z" fill="#263238"/>
<path d="M128.574 150.274C128.734 149.679 129.1 149.313 129.696 149.198C130.36 149.084 131.046 149.153 131.688 149.153C133.222 149.175 134.756 149.198 136.29 149.198C142.311 149.221 148.401 149.038 154.331 147.847C157.216 147.275 160.078 146.474 162.78 145.306C165.092 144.299 167.381 142.948 168.824 140.819C170.472 138.392 170.61 135.186 170.541 132.347C170.472 129.279 169.992 126.211 169.076 123.258C168.832 122.51 168.564 121.777 168.274 121.06C168.252 121.014 168.32 120.968 168.343 121.014C169.557 123.83 170.381 126.738 170.724 129.783C170.907 131.264 170.976 132.752 170.93 134.248C170.884 135.713 170.793 137.201 170.381 138.598C168.801 143.932 162.825 146.13 157.994 147.504C152.156 149.13 146.089 149.588 140.067 149.679C137.045 149.725 134.023 149.679 131.001 149.633C130.405 149.61 129.467 149.45 129.123 150.068C128.94 150.389 128.894 150.801 128.849 151.167C128.787 151.595 128.742 152.022 128.711 152.449C128.574 154.052 128.665 155.678 128.757 157.28C128.955 160.547 129.184 163.813 129.444 167.08C129.696 170.354 130.062 173.628 130.314 176.902C130.36 177.726 130.451 178.527 130.52 179.329C130.543 179.42 130.383 179.42 130.36 179.329C129.513 172.849 128.917 166.347 128.505 159.822C128.391 158.196 128.276 156.594 128.23 154.968C128.185 153.411 128.185 151.785 128.574 150.274Z" fill="#263238"/>
<path d="M143.295 151.465C145.585 151.442 147.462 151.259 149.408 151.03C151.309 150.778 153.209 150.526 155.109 150.206C158.406 149.633 161.772 149.015 164.886 147.779C166.557 147.092 168.228 146.222 169.602 145.031C169.625 145.009 169.694 145.054 169.648 145.1C167.29 147.39 164.313 148.718 161.177 149.565C157.605 150.549 153.873 151.122 150.187 151.511C148.012 151.74 145.493 151.74 143.295 151.694C143.135 151.694 143.158 151.465 143.295 151.465Z" fill="#263238"/>
<path d="M150.438 91.8912C150.507 99.4238 148.446 110.849 145.63 116.366C143.616 120.327 131.641 128.089 125.253 129.852C123.01 130.47 121.888 121.106 122.987 118.816C123.651 117.442 135.625 110.78 136.861 108.948C138.716 106.155 142.494 98.2561 145.287 91.479C146.775 87.9303 150.393 87.2205 150.438 91.8912Z" fill="#C95F50"/>
<path d="M126.925 116.686C126.925 116.686 123.399 116.251 121.796 116.412C120.217 116.572 114.493 119.319 115.019 120.602C115.706 122.227 119.324 121.288 121.018 120.602C121.018 120.602 122.598 124.379 125.345 124.265C128.07 124.15 126.925 116.686 126.925 116.686Z" fill="#C95F50"/>
<path d="M127.36 129.05C126.101 129.622 120.171 131.66 118.408 131.866C116.622 132.072 111.471 132.278 111.173 130.927C110.876 129.577 112.387 129.393 112.387 129.393C112.387 129.393 110.189 129.142 110.028 127.768C109.845 126.394 112.204 126.165 112.204 126.165C112.204 126.165 109.983 125.753 109.891 124.356C109.822 122.96 112.226 123.166 112.226 123.166C112.226 123.166 110.166 122.868 110.601 121.701C111.105 120.281 114.837 121.266 116.783 120.899C117.218 120.808 125.62 118.541 125.62 118.541L127.36 129.05Z" fill="#C95F50"/>
<path d="M112.02 123.144C114.768 123.853 116.096 123.693 118.752 122.846C118.797 122.823 118.843 122.892 118.797 122.915C116.256 123.991 114.631 124.426 111.975 123.281C111.86 123.212 111.883 123.121 112.02 123.144Z" fill="#263238"/>
<path d="M111.998 126.12C114.905 126.601 116.348 126.44 119.187 125.754C119.233 125.731 119.255 125.799 119.21 125.822C116.485 126.738 114.837 127.127 111.998 126.257C111.86 126.234 111.86 126.097 111.998 126.12Z" fill="#263238"/>
<path d="M112.524 129.371C115.385 129.623 116.965 129.508 119.667 128.501C119.713 128.478 119.758 128.569 119.713 128.592C117.057 129.897 115.088 130.058 112.524 129.439C112.363 129.417 112.363 129.348 112.524 129.371Z" fill="#263238"/>
<path d="M115.363 120.991C117.057 122.022 119.232 120.969 120.949 120.419C121.087 120.373 121.155 120.465 121.178 120.579C121.934 122.113 123.468 124.082 125.254 124.357C125.322 124.357 125.299 124.426 125.254 124.426C123.285 124.403 121.636 122.617 120.903 120.854C119.163 121.449 116.92 122.411 115.34 120.991C115.34 120.991 115.34 120.969 115.363 120.991Z" fill="#263238"/>
<path d="M140.273 99.9047L149.821 106.201C149.821 106.201 151.103 93.6772 150.416 89.8994C149.683 85.6409 147.669 86.9459 145.265 90.2886C142.884 93.6543 140.273 99.9047 140.273 99.9047Z" fill="#FFC727"/>
<path opacity="0.1" d="M140.273 99.9047L149.821 106.201C149.821 106.201 151.103 93.6772 150.416 89.8994C149.683 85.6409 147.669 86.9459 145.265 90.2886C142.884 93.6543 140.273 99.9047 140.273 99.9047Z" fill="black"/>
<path d="M141.738 98.3939C143.066 99.035 146.775 101.508 147.394 101.92C147.714 102.126 148.973 103.019 149.294 103.248C149.34 103.271 149.294 103.316 149.248 103.294C148.63 102.904 147.966 102.561 147.348 102.172C146.707 101.76 142.86 99.4013 141.716 98.4397C141.693 98.4168 141.716 98.371 141.738 98.3939Z" fill="#263238"/>
<path d="M150.553 94.9589C150.553 94.8902 150.622 94.9131 150.622 94.9589C150.637 96.0273 150.629 97.0958 150.599 98.1642C150.759 97.6376 150.828 97.0881 150.874 96.5158C150.897 96.4929 150.919 96.4929 150.919 96.5158C150.896 97.1568 150.782 97.8208 150.599 98.439C150.568 99.1869 150.538 99.9272 150.507 100.66C150.393 102.56 150.324 104.46 150.118 106.361C150.095 106.452 149.981 106.498 149.912 106.452C149.591 106.223 149.271 105.979 148.95 105.72C148.927 105.697 148.95 105.628 148.996 105.651C149.294 105.811 149.569 105.972 149.866 106.132C149.912 104.3 150.049 102.469 150.141 100.637C150.255 98.7366 150.37 96.8363 150.553 94.9589Z" fill="#263238"/>
<path d="M173.884 123.212L143.066 127.494C143.158 128.089 141.441 103.11 147.417 87.4495C147.829 86.3735 152.522 84.6334 154.926 86.3048C165.481 93.6313 173.952 123.601 173.884 123.212Z" fill="#FFC727"/>
<path opacity="0.1" fill-rule="evenodd" clip-rule="evenodd" d="M155.659 86.8542L147.188 88.1135C147.188 88.0524 147.203 87.999 147.233 87.9532L155.522 86.7397C155.567 86.7703 155.613 86.8084 155.659 86.8542ZM158.109 89.2124L146.249 90.9525C146.264 90.9067 146.28 90.8609 146.295 90.8151L157.994 89.098C158.025 89.1438 158.063 89.1819 158.109 89.2124ZM160.032 91.6623L145.493 93.7915C145.509 93.7457 145.524 93.6999 145.539 93.6542L159.94 91.5249C159.971 91.5707 160.001 91.6165 160.032 91.6623ZM161.68 94.135L144.875 96.6077C144.891 96.5619 144.906 96.5161 144.921 96.4703L161.612 94.0205C161.642 94.051 161.665 94.0892 161.68 94.135ZM163.169 96.6306L144.394 99.4009C144.394 99.3551 144.402 99.3093 144.417 99.2635L163.1 96.5161C163.131 96.5619 163.153 96.6 163.169 96.6306ZM164.52 99.1719L143.982 102.194C143.982 102.148 143.99 102.103 144.005 102.057L164.451 99.0346C164.481 99.0804 164.504 99.1262 164.52 99.1719ZM165.779 101.713L143.662 104.964C143.662 104.919 143.662 104.873 143.662 104.827L165.71 101.576C165.725 101.622 165.748 101.668 165.779 101.713ZM166.946 104.255L143.387 107.712C143.402 107.666 143.41 107.62 143.41 107.575L166.878 104.117C166.893 104.163 166.916 104.209 166.946 104.255ZM168.045 106.819L143.204 110.482C143.204 110.436 143.204 110.391 143.204 110.345L167.977 106.682C168.007 106.727 168.03 106.773 168.045 106.819ZM169.076 109.383L143.044 113.207C143.044 113.161 143.051 113.115 143.067 113.069L169.03 109.246C169.045 109.292 169.06 109.338 169.076 109.383ZM170.083 111.948L142.952 115.954C142.952 115.908 142.952 115.863 142.952 115.817L170.037 111.833C170.053 111.879 170.068 111.917 170.083 111.948ZM171.022 114.535L142.906 118.679C142.906 118.633 142.906 118.587 142.906 118.541L170.976 114.42C170.991 114.451 171.007 114.489 171.022 114.535ZM171.915 117.122L142.906 121.403V121.266L171.892 117.007C171.907 117.053 171.915 117.091 171.915 117.122ZM172.785 119.732L142.952 124.128C142.952 124.082 142.952 124.036 142.952 123.991L172.739 119.595C172.754 119.64 172.769 119.686 172.785 119.732ZM173.609 122.319L143.044 126.83C143.044 126.784 143.044 126.738 143.044 126.692L173.563 122.205C173.578 122.251 173.594 122.289 173.609 122.319Z" fill="black"/>
<path opacity="0.1" d="M150.164 97.203L155.018 96.5161C155.018 96.5161 155.911 101.484 155.911 101.622C155.911 101.782 153.575 103.659 153.369 103.591C153.163 103.499 150.874 102.858 150.782 102.721C150.714 102.583 150.164 97.203 150.164 97.203Z" fill="black"/>
<path d="M113.027 105.811V139.033H143.043V105.811H113.027Z" fill="#FFC727"/>
<path opacity="0.1" d="M113.027 105.811V139.033H143.043V105.811H113.027Z" fill="black"/>
<path d="M97.5508 139.033H113.028V105.811H97.5508V139.033Z" fill="#FFC727"/>
<path d="M125.506 113H126.124H126.605L126.88 112.428L127.269 113L127.773 111.856L128.276 113H129.673H130.314L130.543 112.222L130.772 113H131.184V105.811H125.506V113Z" fill="white"/>
<g opacity="0.1">
<path d="M98.6035 136.743C99.7635 134.393 100.901 132.027 102.015 129.646L105.381 122.503L108.7 115.313C109.799 112.917 110.891 110.513 111.974 108.101C110.83 110.467 109.693 112.841 108.563 115.222L105.197 122.365L101.878 129.531C100.779 131.928 99.6872 134.332 98.6035 136.743Z" fill="black"/>
<path d="M98.6035 108.101C99.6872 110.513 100.779 112.917 101.878 115.313L105.197 122.503L108.563 129.646C109.693 132.027 110.83 134.393 111.974 136.743C110.891 134.332 109.799 131.928 108.7 129.531L105.381 122.365L102.015 115.222C100.901 112.841 99.7635 110.467 98.6035 108.101Z" fill="black"/>
</g>
<path d="M148.035 113H118.019L113.051 105.811H143.044L148.035 113Z" fill="#FFC727"/>
<g opacity="0.2">
<path d="M148.034 113.001H118.018L113.05 105.812H143.043L148.034 113.001Z" fill="black"/>
</g>
<path d="M108.06 113H92.6055L97.5967 105.811H113.051L108.06 113Z" fill="#FFC727"/>
<path opacity="0.1" d="M108.06 113H92.6055L97.5967 105.811H113.051L108.06 113Z" fill="black"/>
<path d="M149.019 91.4788C150.53 91.6161 153.347 89.464 154.102 87.2202C154.148 87.06 153.667 85.6175 153.186 83.8546C152.889 82.7556 152.568 81.5651 152.385 80.4432C152.339 80.2142 145.631 83.3967 145.631 83.3967C145.631 83.3967 146.753 85.6404 147.096 87.5865C147.111 87.7544 147.119 87.9147 147.119 88.0673C147.119 88.0826 147.119 88.1055 147.119 88.136C147.142 89.029 147.394 91.3185 149.019 91.4788Z" fill="#C95F50"/>
<path d="M147.119 88.0676C147.119 88.0829 147.119 88.1058 147.119 88.1363C147.348 88.1211 147.592 88.0905 147.852 88.0447C151.973 87.2205 152.156 81.8401 152.133 80.4893C150.897 80.8785 145.631 83.397 145.631 83.397C145.631 83.397 146.753 85.6407 147.096 87.5868C147.111 87.7547 147.119 87.915 147.119 88.0676Z" fill="#263238"/>
<path d="M152.133 71.4685C153.255 73.8725 152.98 81.3135 151.446 83.168C149.179 85.8926 144.989 86.7397 142.54 83.9236C140.181 81.1761 140.708 71.4914 142.471 69.7284C145.104 67.1412 150.461 67.9197 152.133 71.4685Z" fill="#C95F50"/>
<path d="M145.677 76.8263C145.7 76.8034 145.723 76.8492 145.723 76.8721C145.7 77.3758 145.746 77.9482 146.181 78.1313C146.203 78.1542 146.203 78.1771 146.181 78.1771C145.631 78.0627 145.585 77.3071 145.677 76.8263Z" fill="#263238"/>
<path d="M146.158 76.3222C146.959 76.2764 146.959 77.902 146.226 77.9478C145.494 77.9707 145.471 76.3451 146.158 76.3222Z" fill="#263238"/>
<path d="M142.792 76.9406C142.769 76.9177 142.746 76.9635 142.746 76.9864C142.769 77.4901 142.7 78.0624 142.242 78.2227C142.242 78.2456 142.242 78.2685 142.242 78.2685C142.815 78.1769 142.883 77.3985 142.792 76.9406Z" fill="#263238"/>
<path d="M142.334 76.414C141.532 76.3683 141.463 77.9709 142.219 78.0396C142.952 78.0854 142.997 76.4598 142.334 76.414Z" fill="#263238"/>
<path d="M146.775 75.5664C146.569 75.5207 146.363 75.4291 146.157 75.3604C145.905 75.2688 145.722 75.223 145.561 75.017C145.47 74.9025 145.493 74.6964 145.607 74.6048C145.836 74.3759 146.157 74.4217 146.454 74.5133C146.775 74.6048 147.004 74.7651 147.187 75.0399C147.37 75.3146 147.072 75.658 146.775 75.5664Z" fill="#263238"/>
<path d="M141.693 75.6125C141.922 75.5667 142.128 75.498 142.334 75.4293C142.586 75.3606 142.792 75.3377 142.952 75.1317C143.044 75.0172 143.044 74.8112 142.929 74.7196C142.723 74.4906 142.403 74.4906 142.082 74.5593C141.762 74.628 141.533 74.7883 141.327 75.0401C141.144 75.292 141.395 75.6583 141.693 75.6125Z" fill="#263238"/>
<path d="M146.18 81.4734C146.065 81.6108 145.951 81.771 145.768 81.771C145.585 81.7939 145.378 81.7252 145.218 81.6565L145.195 81.6794C145.333 81.8855 145.607 82 145.836 81.9542C146.065 81.9084 146.18 81.7023 146.226 81.4963C146.249 81.4734 146.203 81.4734 146.18 81.4734Z" fill="#263238"/>
<path d="M145.654 79.9858C145.356 80.4208 144.967 80.6726 144.509 80.7642C144.303 80.7871 144.097 80.81 143.891 80.7871C143.86 80.7871 143.822 80.7795 143.776 80.7642C143.746 80.7642 143.708 80.7642 143.662 80.7642C143.616 80.7413 143.57 80.6955 143.57 80.6497C143.57 80.6345 143.57 80.6116 143.57 80.5811C143.57 80.5963 143.57 80.5963 143.57 80.5811V80.5353C143.57 80.1689 143.593 79.5737 143.593 79.5737C143.456 79.6423 142.746 79.9629 142.746 79.7797C142.838 78.1084 142.929 76.2309 143.364 74.6054C143.387 74.5367 143.456 74.5596 143.456 74.6054C143.433 76.208 143.135 77.8107 143.09 79.4363C143.318 79.3447 143.685 79.1844 143.891 79.1844C143.96 79.1844 143.822 80.3063 143.822 80.4895C143.822 80.4895 143.83 80.4971 143.845 80.5124C144.486 80.5811 144.967 80.375 145.608 79.94C145.631 79.9171 145.677 79.94 145.654 79.9858Z" fill="#263238"/>
<path d="M144.12 80.5808C144.12 80.5808 144.464 81.0387 144.944 81.2219C145.105 81.2677 145.288 81.2906 145.494 81.2448C145.883 81.1303 145.906 80.764 145.814 80.4435C145.769 80.1916 145.631 79.9626 145.631 79.9626C145.631 79.9626 145.059 80.535 144.12 80.5808Z" fill="#263238"/>
<path d="M144.943 81.2223C145.104 81.2681 145.287 81.291 145.493 81.2452C145.882 81.1307 145.905 80.7644 145.813 80.4438C145.401 80.4896 144.966 80.7873 144.943 81.2223Z" fill="#FF99BA"/>
<path d="M141.418 72.2016C141.693 71.5605 142.013 70.9194 142.38 70.782C142.769 70.6676 143.044 71.5834 143.914 71.6521C145.081 71.7207 145.631 70.6218 147.279 70.4844C149.637 70.3012 150.714 72.2702 150.782 75.6359C150.874 78.6123 152.683 78.887 152.683 78.887C152.683 78.887 153.713 72.2702 151.835 70.0952C149.958 67.943 145.677 67.0043 142.837 69.1107C141.784 69.8891 141.418 72.2016 141.418 72.2016Z" fill="#263238"/>
<path d="M151.171 77.7188C151.171 77.7188 152.522 75.1545 153.644 75.6124C154.789 76.0703 153.988 79.642 152.797 80.2601C151.584 80.8783 150.988 79.7793 150.988 79.7793L151.171 77.7188Z" fill="#C95F50"/>
<path d="M153.393 76.6426C153.416 76.6197 153.416 76.6655 153.416 76.6655C152.568 77.1234 152.202 77.9935 151.996 78.8864C152.225 78.5201 152.546 78.314 153.026 78.5659C153.049 78.5659 153.026 78.6116 153.003 78.6116C152.637 78.5888 152.385 78.6803 152.179 79.0009C152.019 79.2298 151.95 79.4817 151.859 79.7335C151.813 79.8251 151.676 79.8022 151.698 79.7106C151.698 79.6954 151.698 79.6877 151.698 79.6877C151.538 78.5659 152.202 76.8945 153.393 76.6426Z" fill="#263238"/>
<path d="M159.025 92.0746C162.093 98.9204 168.87 112.909 167.13 118.175C164.84 125.09 152.866 132.714 149.752 134.866C148.401 135.782 141.693 127.173 142.105 125.479C142.517 123.762 155.11 113.779 155.797 112.658C156.461 111.536 153.622 100.18 153.141 93.8376C152.523 85.8471 156.415 86.305 159.025 92.0746Z" fill="#C95F50"/>
<path d="M138.991 130.081C139.358 129.325 138.968 129.142 137.641 129.783C136.267 130.447 131.55 134.156 130.406 132.393C129.238 130.608 136.015 125.479 138.327 124.563C140.64 123.647 144.692 122.983 144.692 122.983C143.57 124.266 141.166 127.585 138.991 130.081Z" fill="#C95F50"/>
<path d="M153.049 132.187C149.752 135.622 145.905 140.109 140.731 141.597C139.724 141.872 138.991 141.552 138.991 141.552C136.701 142.238 135.671 141.368 135.671 141.368C133.336 141.368 132.42 140.338 132.42 140.338C132.42 140.338 129.695 141.117 128.963 139.56C128.116 137.82 132.077 137.041 134 135.278C138.396 131.249 143.524 124.288 144.692 122.983L153.049 132.187Z" fill="#C95F50"/>
<path d="M141.578 134.294C140.273 135.461 138.991 136.629 137.526 137.613C135.923 138.689 134.183 139.445 132.443 140.269C132.375 140.292 132.42 140.361 132.466 140.361C135.855 139.376 139.335 137.018 141.647 134.362C141.693 134.294 141.647 134.248 141.578 134.294Z" fill="#263238"/>
<path d="M144.417 136.606C143.067 137.659 140.685 139.514 135.648 141.322C135.648 141.322 135.648 141.345 135.671 141.345C139.083 140.613 141.922 139.033 144.463 136.675C144.532 136.606 144.509 136.537 144.417 136.606Z" fill="#263238"/>
<path d="M145.906 137.865C143.548 139.582 141.83 140.361 139.014 141.529C138.991 141.529 138.991 141.551 139.014 141.551C142.38 140.59 143.479 139.834 145.974 137.934C146.066 137.888 145.997 137.797 145.906 137.865Z" fill="#263238"/>
<path d="M153.668 102.56L165.093 103.11C165.093 103.11 159.804 91.685 157.285 88.7773C154.469 85.4804 153.416 87.6554 153.05 91.7537C152.706 95.852 153.668 102.56 153.668 102.56Z" fill="#FFC727"/>
<path opacity="0.1" d="M153.668 102.56L165.093 103.11C165.093 103.11 159.804 91.685 157.285 88.7773C154.469 85.4804 153.416 87.6554 153.05 91.7537C152.706 95.852 153.668 102.56 153.668 102.56Z" fill="black"/>
<path d="M154.171 100.5C155.636 100.386 160.078 100.615 160.81 100.66C161.2 100.683 162.734 100.798 163.123 100.821C163.169 100.821 163.169 100.889 163.123 100.889C162.367 100.867 161.635 100.912 160.902 100.912C160.146 100.889 155.613 100.798 154.148 100.569C154.125 100.569 154.125 100.523 154.171 100.5Z" fill="#263238"/>
<path d="M159.986 93.0586C159.963 93.0128 160.032 92.9899 160.055 93.0357C160.604 93.9515 161.138 94.875 161.657 95.806C161.52 95.2566 161.314 94.7529 161.062 94.2263C161.062 94.2034 161.085 94.2034 161.108 94.2263C161.406 94.7757 161.635 95.4168 161.795 96.035C162.146 96.6913 162.497 97.3477 162.848 98.004C163.718 99.6754 164.634 101.347 165.412 103.087C165.458 103.178 165.389 103.27 165.275 103.27C164.878 103.239 164.489 103.194 164.107 103.133C164.061 103.133 164.061 103.064 164.107 103.064C164.428 103.041 164.748 103.018 165.092 103.018C164.199 101.415 163.375 99.7669 162.527 98.1414C161.657 96.47 160.787 94.7758 159.986 93.0586Z" fill="#263238"/>
<path d="M152.958 97.6833C152.843 97.1109 152.706 96.5156 152.614 95.9204C152.614 95.8975 152.637 95.8975 152.637 95.9204C152.744 96.3477 152.843 96.7751 152.935 97.2025C152.889 96.3325 152.843 95.4396 152.866 94.5466H152.889C153.072 95.8746 153.164 97.2254 153.324 98.5533C153.484 99.8584 153.599 101.186 153.736 102.491C153.996 102.537 154.255 102.583 154.515 102.629C154.56 102.652 154.56 102.72 154.492 102.72C154.202 102.705 153.919 102.705 153.645 102.72C153.576 102.72 153.507 102.697 153.484 102.606C153.255 100.98 153.072 99.3547 152.958 97.6833Z" fill="#263238"/>
<path d="M107.35 162.089V197.874H64.0322V162.089H107.35Z" fill="#FFC727"/>
<path d="M124.498 197.874H107.35V162.089H124.498V197.874Z" fill="#FFC727"/>
<path opacity="0.1" d="M124.498 197.874H107.35V162.089H124.498V197.874Z" fill="black"/>
<path d="M123.308 195.424C122.041 192.875 120.782 190.318 119.53 187.754L115.821 180.061L112.135 172.323C110.929 169.743 109.723 167.156 108.518 164.561C109.8 167.11 111.059 169.667 112.295 172.231L116.027 179.924L119.691 187.64C120.912 190.219 122.117 192.814 123.308 195.424Z" fill="#FFC727"/>
<path d="M123.308 164.561C122.117 167.156 120.912 169.743 119.691 172.323L116.027 180.061L112.295 187.754C111.059 190.318 109.8 192.875 108.518 195.424C109.723 192.814 110.929 190.219 112.135 187.64L115.821 179.924L119.53 172.231C120.782 169.667 122.041 167.11 123.308 164.561Z" fill="#FFC727"/>
<path d="M88.759 169.827H88.0722H87.5456L87.2708 169.232L86.8587 169.827L86.2863 168.614L85.7597 169.827H84.2486H83.5618L83.3099 169.003L83.081 169.827H82.623V162.089H88.759V169.827Z" fill="white"/>
<path d="M149.637 162.089V197.874H117.332V162.089H149.637Z" fill="#FFC727"/>
<path d="M166.328 197.874H149.638V162.089H166.328V197.874Z" fill="#FFC727"/>
<path opacity="0.1" d="M166.328 197.874H149.638V162.089H166.328V197.874Z" fill="black"/>
<g opacity="0.1">
<path d="M147.278 195.401C144.897 192.867 142.547 190.318 140.227 187.754L133.266 180.061L126.398 172.322C124.123 169.743 121.872 167.156 119.644 164.561C122.025 167.11 124.375 169.659 126.695 172.208L133.656 179.924L140.501 187.639C142.791 190.219 145.05 192.806 147.278 195.401Z" fill="black"/>
<path d="M147.278 164.561C145.05 167.156 142.791 169.743 140.501 172.322L133.656 180.061L126.695 187.754C124.375 190.318 122.025 192.867 119.644 195.401C121.872 192.806 124.123 190.219 126.398 187.639L133.266 179.924L140.227 172.208C142.547 169.659 144.897 167.11 147.278 164.561Z" fill="black"/>
</g>
<path d="M163.97 195.951H161.039V191.83H163.97V195.951Z" fill="white"/>
<path d="M108.151 138.964V162.088H71.2666V138.964H108.151Z" fill="#FFC727"/>
<path opacity="0.1" d="M108.151 138.964V162.088H71.2666V138.964H108.151Z" fill="black"/>
<path d="M124.819 162.088H108.151V138.964H124.819V162.088Z" fill="#FFC727"/>
<path opacity="0.2" d="M124.819 162.088H108.151V138.964H124.819V162.088Z" fill="black"/>
<path d="M123.674 160.737C122.438 159.15 121.217 157.555 120.011 155.952L116.393 151.121L112.822 146.29C111.631 144.672 110.456 143.054 109.296 141.436C110.532 143.024 111.753 144.619 112.959 146.221L116.577 151.029L120.148 155.883C121.339 157.486 122.514 159.104 123.674 160.737Z" fill="#FFC727"/>
<path d="M123.674 141.436C122.514 143.054 121.339 144.672 120.148 146.29L116.577 151.121L112.959 155.952C111.753 157.555 110.532 159.15 109.296 160.737C110.456 159.104 111.631 157.486 112.822 155.883L116.393 151.029L120.011 146.221C121.217 144.619 122.438 143.024 123.674 141.436Z" fill="#FFC727"/>
<path d="M86.5615 40.7197C85.9891 46.1917 81.0895 50.1526 75.6175 49.5802C73.4195 49.3513 71.4505 48.4125 69.9165 47.0159L64.9482 47.7486L67.4438 43.4442C66.8257 41.956 66.5738 40.3305 66.757 38.6362C67.3294 33.1642 72.229 29.2033 77.701 29.7757C83.1501 30.3481 87.1339 35.2477 86.5615 40.7197Z" fill="white"/>
<path fill-rule="evenodd" clip-rule="evenodd" d="M86.5612 40.7197C86.3551 42.5285 85.6912 44.3143 84.5464 45.7567C84.2945 46.1459 83.9511 46.4665 83.6535 46.787C83.31 47.1075 82.9895 47.4281 82.6003 47.6799C81.8676 48.2523 81.0434 48.6873 80.1963 49.0308C79.3491 49.3742 78.4333 49.5573 77.5175 49.6718C77.0596 49.6947 76.6017 49.7405 76.1438 49.6947C75.6706 49.6795 75.2051 49.6337 74.7471 49.5573C72.9613 49.2139 71.2442 48.3897 69.8704 47.1533L64.9708 47.9089L64.6045 47.9776L64.7877 47.657L67.2146 43.4214C66.0698 40.6052 66.3445 37.2625 67.8785 34.6295C68.6341 33.3016 69.7102 32.1568 70.9923 31.3097C72.2516 30.4626 73.7398 29.936 75.2509 29.7299C76.7391 29.5239 78.2959 29.6612 79.7383 30.142C81.1808 30.6229 82.5087 31.4471 83.5848 32.5003C85.7827 34.5838 86.8817 37.7204 86.5612 40.7197ZM69.8704 47.1533H69.9391L69.8246 47.1075C69.8399 47.1228 69.8552 47.1381 69.8704 47.1533ZM67.2146 43.4214C67.2298 43.4519 67.2451 43.4824 67.2604 43.513V43.3298L67.2146 43.4214ZM86.5612 40.7197C86.8588 37.7204 85.7369 34.6067 83.539 32.5461C82.44 31.5158 81.135 30.7373 79.6926 30.2794C78.273 29.8215 76.7391 29.7299 75.2737 29.9589C73.8084 30.1649 72.3889 30.7144 71.1526 31.5616C69.9391 32.4316 68.9317 33.5306 68.1762 34.8127C67.4206 36.0949 67.0314 37.5602 66.9169 39.0255C66.8253 40.5137 67.0772 42.0019 67.6267 43.3756L67.6496 43.4672L67.6038 43.5359L65.2914 47.5197L69.9162 46.8786L69.9849 46.8557L70.0307 46.9015C71.3357 48.1607 73.0071 49.0079 74.7929 49.3742C75.2356 49.4658 75.6859 49.5192 76.1438 49.5345C76.6017 49.5802 77.0596 49.5573 77.4946 49.5345C78.4104 49.4429 79.3262 49.2826 80.1734 48.9392C81.0205 48.6186 81.8447 48.2065 82.5774 47.657C82.9437 47.4052 83.2642 47.0617 83.6077 46.7641C83.9282 46.4436 84.2716 46.123 84.5235 45.7338C85.6683 44.3143 86.3322 42.5285 86.5612 40.7197ZM65.2914 47.5197L64.925 47.5654L65.1082 47.8402L65.2914 47.5197Z" fill="#263238"/>
<path d="M75.5027 45.3446L71.2441 41.0402L72.6637 39.6436L75.1593 42.1621L80.3107 34.0571L82.005 35.1332L75.5027 45.3446Z" fill="#FFC727"/>
<path d="M43.4944 49.5348C41.823 49.26 37.5874 50.6338 36.2594 52.9004C34.9315 55.19 35.2291 58.7616 35.9618 59.0822C36.7173 59.4027 39.8769 58.9906 41.9833 57.6856C44.1126 56.4034 44.3186 49.6951 43.4944 49.5348Z" fill="#263238"/>
<path d="M43.494 49.5573C43.5398 49.5345 43.5627 49.4429 43.494 49.4429C42.0287 49.4658 40.4947 50.0382 39.1438 50.4961C38.022 50.8624 36.9001 51.2974 36.0301 52.0987C35.16 52.9001 34.725 53.9304 34.7479 55.098C34.7479 56.3802 34.9998 57.9371 35.6866 59.036C35.7095 59.0589 35.7782 59.0589 35.7553 59.0131C34.9769 56.632 34.2671 53.7014 36.6025 51.9385C38.5715 50.4503 41.1815 50.1526 43.494 49.5573Z" fill="#263238"/>
<path d="M36.1908 58.4414C34.7484 58.6933 31.0852 61.6239 30.5815 64.4171C30.0778 67.1875 32.4818 71.1713 33.2144 71.446C33.9471 71.6979 37.038 68.9275 37.9996 66.9356C38.6406 65.6077 37.9996 64.0966 37.6332 62.6084C37.0609 60.4104 36.3969 58.3956 36.1908 58.4414Z" fill="#263238"/>
<path d="M38.8464 66.546C39.144 63.7069 37.4269 61.0053 36.3508 58.4868C36.3508 58.4639 36.305 58.4868 36.305 58.5097C36.9461 60.9366 38.5258 63.043 38.6632 65.6072C38.7548 67.1183 38.2969 68.6294 37.1063 69.5911C36.0531 70.4611 34.7023 70.8732 33.466 71.3769C33.3973 71.4227 33.4659 71.5372 33.5346 71.5143C36.0073 70.5756 38.5258 69.4537 38.8464 66.546Z" fill="#263238"/>
<path d="M35.8698 58.7162C35.9614 58.6704 35.8927 58.5559 35.824 58.6017C33.8092 59.6778 31.3823 61.2117 30.3749 63.341C29.2759 65.6535 30.581 67.9888 31.7257 69.9807C31.7486 70.0036 31.7944 69.9807 31.7715 69.9578C30.6268 67.9201 29.4133 65.4016 30.6726 63.135C31.7486 61.1889 33.9695 59.7464 35.8698 58.7162Z" fill="#263238"/>
<path d="M33.4665 71.0791C34.4739 71.5141 35.985 73.0939 36.42 75.0171C37.1527 78.314 38.389 77.5814 42.0752 78.2683C45.189 78.8406 46.0361 82.2292 44.5021 84.0379C44.5021 84.0379 45.3263 81.8628 43.1971 80.947C40.6557 79.848 35.1379 82.7558 32.1157 79.4359C28.2006 75.1087 33.4665 71.0791 33.4665 71.0791Z" fill="#263238"/>
<path d="M34.8629 72.5444C34.8401 72.4986 34.9087 72.4299 34.9545 72.4528C35.3895 72.8649 35.7559 73.3228 36.0306 73.8494C36.374 74.5363 36.4427 75.2918 36.7404 76.0016C37.5188 77.7874 39.7168 77.6042 41.3194 77.6271C43.4716 77.65 45.2575 78.8635 45.5322 81.1072C45.5322 81.1301 45.4864 81.153 45.4864 81.1072C45.2804 79.7106 44.3645 78.4972 43.0137 78.0164C41.7316 77.5585 40.3349 77.9019 39.0299 77.6729C38.1141 77.5127 37.2212 77.1921 36.7404 76.345C36.4885 75.8871 36.4198 75.3376 36.2596 74.8339C35.9848 73.9181 35.5269 73.2083 34.8629 72.5444Z" fill="#263238"/>
<path d="M32.94 71.5146C32.9629 71.4917 32.9858 71.5146 32.9629 71.5375C31.8181 72.8196 30.6047 74.0789 30.3528 75.8647C30.101 77.7651 31.1771 79.5967 32.7111 80.6499C34.4511 81.8404 36.1912 81.1307 38.0228 80.6499C39.3507 80.3064 40.7245 80.0775 42.0524 80.4667C42.0982 80.4667 42.0753 80.5354 42.0295 80.5354C39.9002 80.1691 37.977 80.9017 35.9164 81.3596C34.2451 81.726 32.8713 81.2223 31.7037 79.963C29.1165 77.1927 30.3986 73.7813 32.94 71.5146Z" fill="#263238"/>
<path d="M42.1432 48.0697C41.6624 47.5202 40.7924 48.2757 41.2732 48.8481C41.7769 49.4205 42.6469 48.642 42.1432 48.0697Z" fill="#FFC727"/>
<path d="M42.6471 49.0306C42.1663 48.4811 41.2963 49.2367 41.7771 49.809C42.2579 50.3814 43.1279 49.603 42.6471 49.0306Z" fill="#FFC727"/>
<path d="M43.3108 49.901C42.8071 49.3515 41.9371 50.107 42.4408 50.6794C42.9216 51.2289 43.7916 50.4733 43.3108 49.901Z" fill="#FFC727"/>
<path d="M44.0446 50.6564C43.5638 50.084 42.6938 50.8625 43.1746 51.4349C43.6554 51.9843 44.5254 51.2288 44.0446 50.6564Z" fill="#FFC727"/>
<path d="M44.9368 51.275C44.4331 50.7255 43.5631 51.481 44.0667 52.0534C44.5476 52.6258 45.4176 51.8474 44.9368 51.275Z" fill="#FFC727"/>
<path d="M45.876 51.7327C45.3723 51.1603 44.5252 51.9387 45.006 52.4882C45.4868 53.0606 46.3568 52.3051 45.876 51.7327Z" fill="#FFC727"/>
<path d="M81.4781 203.598C80.4249 203.941 49.5161 203.254 48.3942 202.522C47.9592 202.224 50.5922 172.941 50.5922 172.941L70.2135 173.33L67.9698 192.906C67.9698 192.906 79.3717 198.309 80.5394 199.271C81.6841 200.232 82.5542 203.277 81.4781 203.598Z" fill="#D3766A"/>
<path d="M81.4778 203.598C80.4246 203.941 49.5158 203.254 48.3939 202.499C48.2565 202.43 48.2108 199.454 48.6916 195.584C54.3009 196.523 74.3115 199.591 75.8684 198.675C76.9674 198.034 76.0058 197.027 75.1128 196.363C77.6542 197.645 80.0354 198.858 80.5391 199.27C81.6838 200.232 82.5309 203.277 81.4778 203.598Z" fill="#263238"/>
<path d="M68.5187 188.212L49.2865 187.938C49.2865 187.938 53.0872 141.849 52.9269 140.956C52.7437 139.834 39.0752 86.282 39.0752 86.282H57.4373C57.4373 86.282 71.9301 136.194 72.4567 141.002C73.3038 148.764 68.5187 188.212 68.5187 188.212Z" fill="#37474F"/>
<path d="M51.0046 183.61C52.1494 183.519 53.2942 183.541 54.4389 183.519C55.5837 183.503 56.7285 183.503 57.8733 183.519C60.1399 183.541 62.4294 183.564 64.719 183.633C65.3295 183.648 65.9477 183.671 66.5735 183.702C67.2375 183.725 67.9243 183.839 68.5883 183.862C68.6341 183.862 68.6341 183.954 68.5883 183.954C68.0159 183.954 67.4664 184.045 66.894 184.045C66.314 184.06 65.734 184.068 65.154 184.068C64.0092 184.068 62.8645 184.068 61.7197 184.068C59.453 184.045 57.1635 183.999 54.874 183.908C53.5918 183.862 52.2868 183.839 51.0046 183.725C50.936 183.702 50.936 183.61 51.0046 183.61Z" fill="#263238"/>
<path d="M43.1283 90.6089C44.7538 96.4244 46.2649 102.308 47.7302 108.17C49.2108 114.031 50.6761 119.9 52.1261 125.776C52.8588 128.707 53.5915 131.645 54.3241 134.591C55.0339 137.453 55.8581 140.315 56.0413 143.268C56.2244 146.268 55.8352 149.313 55.5834 152.289C55.3315 155.288 55.0797 158.311 54.8049 161.31C54.2783 167.309 53.7746 173.33 53.1335 179.329C53.042 180.077 52.958 180.832 52.8817 181.595C52.8817 181.641 52.7901 181.641 52.7901 181.595C53.1793 175.574 53.6143 169.552 54.0952 163.554C54.3241 160.547 54.5683 157.54 54.8278 154.533C55.0568 151.534 55.4231 148.511 55.5147 145.512C55.6062 142.467 55.0568 139.559 54.3241 136.629C53.6067 133.759 52.8817 130.89 52.149 128.02C50.6837 122.159 49.2184 116.275 47.7531 110.413C46.1276 103.82 44.502 97.2486 43.0596 90.6318C43.0596 90.586 43.1054 90.5632 43.1283 90.6089Z" fill="#263238"/>
<path d="M39.0752 86.282C39.0752 86.282 44.9364 109.246 49.0347 125.433L56.842 86.282H39.0752Z" fill="#263238"/>
<path d="M58.3995 203.666C57.3463 204.01 26.4375 203.346 25.2927 202.59C24.8577 202.293 26.4833 173.01 26.4833 173.01L45.8299 173.376L44.8912 192.974C44.8912 192.974 56.2931 198.378 57.4608 199.339C58.6055 200.301 59.4527 203.346 58.3995 203.666Z" fill="#D3766A"/>
<path d="M58.3995 203.666C57.3463 204.01 26.4375 203.346 25.2927 202.59C25.1554 202.499 25.2011 199.591 25.3156 195.653C30.9021 196.592 51.2332 199.66 52.7901 198.744C53.8662 198.103 52.9046 197.118 52.0117 196.432C54.5759 197.714 56.9571 198.927 57.4608 199.339C58.6055 200.301 59.4527 203.346 58.3995 203.666Z" fill="#263238"/>
<path d="M56.8424 86.282C56.8424 86.282 56.3158 95.0509 54.2094 101.988C54.0415 102.568 53.866 103.133 53.6828 103.682C53.6828 103.682 51.5764 104.415 48.3482 106.338C48.3482 106.338 47.0203 139.926 47.0431 142.009C47.1347 149.817 45.1428 187.823 45.1428 187.823L25.7275 187.64C25.7275 187.64 27.7423 144.665 27.7423 141.803C27.7652 137.201 31.8177 86.282 31.8177 86.282H56.8424Z" fill="#37474F"/>
<path d="M52.6061 98.073C52.6824 97.5846 52.7587 97.0961 52.8351 96.6077C52.9724 95.7148 53.1556 94.8448 53.3159 93.9518C53.6593 91.937 54.0256 89.9222 54.4835 87.9303C54.4835 87.8845 54.5751 87.8845 54.5522 87.9303C54.4759 88.7393 54.3843 89.5483 54.2775 90.3573C54.163 91.1586 54.0943 91.9599 53.9798 92.7613C53.7509 94.3411 53.5219 95.9437 53.2472 97.5235C53.1556 98.1417 52.7664 99.2407 53.6593 99.4238C54.3462 99.5612 54.8499 98.8972 55.0559 98.3249C55.3078 97.6151 55.3994 96.8367 55.5138 96.1269C55.6665 95.3179 55.7962 94.509 55.9031 93.7C56.1549 91.937 56.4296 90.197 56.7044 88.434C56.7273 88.3882 56.796 88.4111 56.796 88.4569C56.7502 90.2657 56.6586 92.0515 56.4067 93.8374C56.2999 94.6921 56.1702 95.5469 56.0175 96.4016C55.8802 97.203 55.7886 98.0501 55.4451 98.7828C55.1704 99.3551 54.6438 99.8817 53.9798 99.9504C53.9646 99.9504 53.9493 99.9504 53.934 99.9504C53.9646 99.9657 53.9798 99.981 53.9798 99.9962C53.9569 100.294 53.9569 100.569 53.934 100.866C53.9112 101.141 53.8425 101.416 53.7967 101.69C53.7509 101.988 53.6822 102.263 53.5906 102.538C53.5448 102.675 53.4914 102.805 53.4303 102.927C53.3617 103.041 53.2701 103.156 53.2014 103.27C53.1785 103.316 53.1098 103.293 53.1098 103.247C53.1098 103.202 53.1098 103.156 53.1098 103.11C53.1098 103.095 53.1098 103.087 53.1098 103.087C53.1098 102.996 53.1174 102.912 53.1327 102.835C53.148 102.698 53.1709 102.561 53.2014 102.423C53.2701 102.148 53.3388 101.874 53.4075 101.622C53.4761 101.347 53.5448 101.072 53.6135 100.798C53.6822 100.523 53.7738 100.271 53.8425 99.9733C53.8425 99.9733 53.8501 99.9657 53.8654 99.9504C53.3388 99.9504 52.8122 99.6986 52.629 99.1949C52.4916 98.8286 52.5603 98.4393 52.6061 98.073Z" fill="#263238"/>
<path d="M46.7684 107.002C47.3408 106.544 47.9819 106.155 48.6001 105.789C49.2717 105.392 49.9662 105.033 50.6835 104.713C52.0802 104.095 53.5226 103.682 54.9879 103.202C55.0337 103.202 55.0566 103.27 55.0108 103.293C53.6142 103.843 52.2633 104.575 50.9125 105.239C50.2409 105.575 49.5617 105.888 48.8748 106.178C48.2108 106.476 47.524 106.842 46.8371 107.094C46.7684 107.117 46.7226 107.025 46.7684 107.002Z" fill="#263238"/>
<path d="M35.825 94.7529C36.8095 94.7529 37.794 94.6155 38.7556 94.3637C39.1906 94.2492 39.6256 94.1118 40.0606 93.9745C40.4727 93.8371 40.9077 93.6768 41.2283 93.3792C41.8922 92.8068 42.2128 91.891 42.4875 91.0897C42.8309 90.1967 43.0599 89.2809 43.266 88.3422C43.266 88.2964 43.3346 88.2964 43.3346 88.3422C43.3804 89.3954 43.2202 90.4715 42.9454 91.4789C42.7165 92.3489 42.3959 93.3105 41.6862 93.9287C40.9535 94.5698 39.9461 94.7987 39.0074 94.9132C37.9313 95.0506 36.8781 95.0048 35.825 94.8674C35.7563 94.8674 35.7563 94.7529 35.825 94.7529Z" fill="#263238"/>
<path d="M29.4369 164.011C29.7803 157.875 30.1237 151.739 30.4901 145.603C31.1998 133.4 31.8867 121.197 32.6422 108.994C33.0772 102.125 33.5122 95.2335 34.0617 88.3648C34.0617 88.2733 34.1762 88.2962 34.1762 88.3648C33.6954 100.637 32.9399 112.909 32.2301 125.158C31.5203 137.361 30.7877 149.587 30.0321 161.767C29.5971 168.659 29.0476 175.528 28.6126 182.419C28.6126 182.465 28.5439 182.465 28.5439 182.419C28.8645 176.283 29.1163 170.147 29.4369 164.011Z" fill="#263238"/>
<path d="M26.5972 183.885C27.7191 183.793 28.8639 183.816 30.0087 183.793C31.1534 183.778 32.2982 183.778 33.443 183.793C35.7096 183.816 37.9992 183.862 40.2887 183.907C40.9145 183.923 41.5403 183.946 42.1661 183.976C42.8301 184.022 43.4941 184.136 44.158 184.159C44.2038 184.159 44.2038 184.228 44.158 184.228C43.5856 184.228 43.0361 184.32 42.4638 184.342C41.8837 184.358 41.3037 184.365 40.7237 184.365C39.5789 184.365 38.4418 184.358 37.3123 184.342C35.0228 184.32 32.7332 184.297 30.4666 184.205C29.1615 184.136 27.8565 184.136 26.5744 183.999C26.5057 183.999 26.5057 183.885 26.5972 183.885Z" fill="#263238"/>
<path d="M49.0808 66.4082C50.9353 71.0331 58.3305 85.9837 63.2072 87.0369C66.3897 87.7238 79.2798 86.4875 81.5006 83.4424C82.4851 82.1144 80.8367 72.8418 79.1195 73.2081C77.4024 73.5744 67.0536 74.9482 65.7944 74.5589C64.5352 74.1926 55.0107 63.2486 51.4619 60.5241C45.3259 55.8305 48.0734 63.9126 49.0808 66.4082Z" fill="#D3766A"/>
<path d="M60.3459 68.6977L52.2409 73.4828C52.2409 73.4828 48.8295 67.0034 47.5016 62.7449C46.1736 58.5092 47.3184 56.5631 52.218 60.7759C57.0947 65.0115 60.3459 68.6977 60.3459 68.6977Z" fill="#FFC727"/>
<path d="M51.8967 71.8115C52.9804 71.0331 54.0794 70.2852 55.1936 69.5678C55.7202 69.2015 56.2697 68.8351 56.8192 68.4917C57.4145 68.1483 58.0097 67.8277 58.5821 67.4614C58.605 67.4385 58.6508 67.4843 58.605 67.5301C58.0784 67.8964 57.5518 68.2856 57.0252 68.652C56.4758 69.0412 55.9034 69.4075 55.331 69.7738C54.2167 70.5065 53.0872 71.2086 51.9425 71.8802C51.8967 71.8802 51.8738 71.8344 51.8967 71.8115Z" fill="#263238"/>
<path d="M59.933 92.1663L58.1013 81.8176C58.1013 81.8176 60.9175 76.918 59.2919 73.3692C58.4677 71.5834 51.2327 60.4791 48.1876 58.2582C45.3257 56.1977 41.1816 58.4185 39.6247 60.0441C33.6719 66.2945 32.0922 77.8567 29.9629 94.7764L59.933 92.1663Z" fill="#FFC727"/>
<path d="M59.7725 74.3993C59.5893 73.6438 59.1772 72.9798 58.788 72.3158C58.6506 72.064 58.3301 71.5603 57.9408 70.965C57.834 70.6903 57.7119 70.4155 57.5745 70.1408C57.3685 69.7515 57.1395 69.3394 56.9792 68.9273C56.9563 68.8815 56.8877 68.9044 56.9106 68.9502C57.1166 69.3394 57.254 69.7744 57.4143 70.1865C56.7732 69.202 56.1092 68.1946 55.8116 67.7825C55.7887 67.7367 55.72 67.7825 55.7429 67.8054C56.3611 68.6297 58.3988 72.1784 58.8796 73.0714C59.3833 73.9872 59.5893 74.9259 59.5893 75.9791C59.6122 76.8033 59.429 78.3144 59.2001 79.07C59.1772 79.1615 59.2459 79.2073 59.2917 79.1158C59.6122 78.3831 59.7725 77.5818 59.8641 76.8033C59.9556 76.0249 59.9785 75.1778 59.7725 74.3993Z" fill="#263238"/>
<path d="M47.6616 67.3245C47.6616 67.3245 45.8299 65.2868 47.3181 64.1649C48.8063 63.043 50.2716 65.3326 50.2716 65.3326L47.6616 67.3245Z" fill="#455A64"/>
<path d="M61.8337 80.4893L62.2687 83.1223L62.429 83.9923L61.6277 83.626L59.2007 82.4812L47.5928 67.2329L50.2028 65.241L61.8108 80.4893C61.8261 80.4893 61.8337 80.4893 61.8337 80.4893Z" fill="#455A64"/>
<path d="M62.269 83.1223L62.4293 83.9923L61.6279 83.626L62.269 83.1223Z" fill="#37474F"/>
<path d="M50.8214 65.6074L47.7763 67.9199L47.3184 67.3246L50.3634 64.9893L50.8214 65.6074Z" fill="#263238"/>
<path d="M51.3253 66.2715L48.2802 68.6068L47.8223 67.9887L50.8674 65.6533L51.3253 66.2715Z" fill="#263238"/>
<path d="M48.2793 68.6064L49.2638 67.8508L52.9271 73.7807L52.5378 74.0326L48.2793 68.6064Z" fill="#263238"/>
<path d="M36.8779 63.3409C29.5513 72.5219 21.5837 87.7473 25.5675 90.6322C29.2079 93.288 41.7088 89.785 49.4932 86.1676C50.9585 85.4807 43.9983 72.4532 42.4872 73.3461C39.8772 74.903 37.7937 75.8646 37.5876 75.9333C37.1526 76.0707 39.3735 73.0027 41.6172 65.7907C43.8839 58.487 41.0677 58.0978 36.8779 63.3409Z" fill="#D3766A"/>
<path d="M61.788 71.1481C61.9025 72.705 58.0332 72.6363 58.0332 72.6363C58.0332 72.6363 58.9719 73.14 59.2924 74.1245C59.6588 75.2693 58.0332 76.3225 58.0332 76.3225C58.0332 76.3225 58.9032 77.0322 59.1322 78.1083C59.3611 79.2302 57.8958 80.5352 57.8958 80.5352C57.8958 80.5352 58.3308 81.6342 57.85 82.7103C57.0487 84.5419 53.9807 84.7709 52.1033 85.2746C50.0885 85.847 47.2037 87.0375 46.0131 87.6557L41.6172 73.8727C41.6172 73.8727 49.539 68.4693 51.8514 68.4464C53.7975 68.4007 61.6278 68.767 61.788 71.1481Z" fill="#D3766A"/>
<path d="M57.9879 72.5905C55.9273 72.1326 53.7294 72.1555 51.6459 72.2013C51.5772 72.2013 51.6001 72.2929 51.6459 72.2929C53.7294 72.2013 55.9044 72.6821 57.9879 72.6821C58.0337 72.6821 58.0566 72.6134 57.9879 72.5905Z" fill="#263238"/>
<path d="M57.9869 76.1616C57.5061 76.07 57.0024 76.1387 56.5216 76.1845C56.0179 76.215 55.5066 76.2608 54.9876 76.3219C53.965 76.4287 52.9499 76.5661 51.9425 76.734C51.8968 76.734 51.8968 76.8027 51.9425 76.8027C52.9652 76.6958 53.9879 76.6042 55.0105 76.5279C55.5142 76.4974 56.0256 76.4669 56.5445 76.4363C57.0024 76.4134 57.529 76.4363 57.9869 76.299C58.0556 76.299 58.0556 76.1845 57.9869 76.1616Z" fill="#263238"/>
<path d="M57.8505 80.5355C57.4384 80.4439 56.9576 80.5584 56.5455 80.6042C56.0723 80.6652 55.6068 80.7263 55.1489 80.7874C54.2102 80.9018 53.2943 81.0163 52.3556 81.085C52.3098 81.085 52.3098 81.1537 52.3556 81.1537C53.2943 81.085 54.2559 81.0163 55.1947 80.9476C55.6678 80.9018 56.1334 80.856 56.5913 80.8102C57.0034 80.7645 57.4842 80.7645 57.8505 80.5813C57.8734 80.5813 57.8734 80.5355 57.8505 80.5355Z" fill="#263238"/>
<path d="M39.075 74.9485L31.1074 69.9115C31.1074 69.9115 35.366 63.9129 38.5484 60.7991C41.7309 57.6853 43.9746 57.8227 42.4177 64.1189C40.8838 70.3923 39.075 74.9485 39.075 74.9485Z" fill="#FFC727"/>
<path d="M32.4357 68.8354C33.6263 69.446 34.7939 70.0794 35.9387 70.7357C36.5111 71.0563 37.0835 71.3768 37.633 71.7202C38.2282 72.0637 38.7777 72.4529 39.3501 72.7963C39.3959 72.8421 39.373 72.8879 39.3272 72.865C38.7548 72.5674 38.1595 72.2926 37.5872 71.9721C36.9919 71.6516 36.4195 71.3081 35.8242 70.9647C34.6794 70.3084 33.5423 69.6215 32.4128 68.9041C32.3899 68.8812 32.4128 68.8125 32.4357 68.8354Z" fill="#263238"/>
<path d="M39.0759 74.9942C39.4422 73.6434 39.9917 72.3841 40.4496 71.0562C40.9075 69.7512 41.3654 68.4003 41.7547 67.0724C41.7776 67.0495 41.8233 67.0495 41.8004 67.0953C41.6402 67.7593 41.5028 68.4461 41.2968 69.1101C41.2052 69.4459 41.106 69.7741 40.9991 70.0946C41.0754 69.9878 41.1441 69.8733 41.2052 69.7512C41.4112 69.3848 41.6631 69.0414 41.9149 68.7209C41.9149 68.698 41.9607 68.7209 41.9378 68.7438C41.7547 69.1101 41.5715 69.4764 41.3425 69.8428C41.1823 70.0946 41.022 70.3465 40.8388 70.5983C40.7778 70.7815 40.7167 70.9723 40.6557 71.1707C40.2207 72.4757 39.8085 73.8037 39.1446 75.0171C39.1217 75.0629 39.053 75.04 39.0759 74.9942Z" fill="#263238"/>
<path d="M37.2668 76.047C35.252 77.1002 32.9624 78.6571 31.7719 79.8935C31.749 79.9164 31.7948 79.9851 31.8177 79.9622C33.0082 79.0234 36.4883 76.9171 37.3812 76.3218C37.656 76.1157 37.862 75.7265 37.2668 76.047Z" fill="#263238"/>
<path d="M72.938 87.8844L56.751 88.2278L63.8714 67.3014L80.0585 66.958L72.938 87.8844Z" fill="#EBEBEB"/>
<path d="M74.0366 87.8612L57.8496 88.2046L64.9701 67.2782L81.1571 66.9348L74.0366 87.8612Z" fill="#37474F"/>
<path d="M66.6877 67.233C66.5962 67.5765 66.3672 67.897 66.0238 68.1031C65.8635 68.1946 65.8177 67.9886 65.978 67.897C66.184 67.7825 66.3443 67.5765 66.4359 67.3704C66.4512 67.3246 66.4588 67.2788 66.4588 67.233C66.5046 67.0956 66.5046 66.9583 66.4817 66.8438C66.4664 66.7828 66.4359 66.737 66.3901 66.7064C66.3901 66.7064 66.3825 66.7064 66.3672 66.7064C66.3672 66.6912 66.3596 66.6835 66.3443 66.6835H66.3214C66.2909 66.6835 66.2527 66.6912 66.2069 66.7064C66.1382 66.7064 66.0925 66.7751 66.0238 66.8209C65.9551 66.8896 65.9093 66.9583 65.8635 67.0499C65.8482 67.0804 65.8253 67.1185 65.7948 67.1643V67.1872C65.7795 67.2025 65.7719 67.2178 65.7719 67.233C65.7719 67.2483 65.7719 67.2559 65.7719 67.2559H65.543C65.5888 67.1185 65.6574 66.9812 65.749 66.8667C65.9093 66.6377 66.1153 66.4546 66.3672 66.4546C66.5733 66.4317 66.6877 66.592 66.7335 66.7751C66.7564 66.9125 66.7335 67.0728 66.6877 67.233Z" fill="#C7C7C7"/>
<path d="M67.9694 67.2098C67.8778 67.5304 67.626 67.8738 67.2826 68.0799C67.1223 68.1485 67.0765 67.9654 67.2368 67.8738C67.4657 67.7593 67.6031 67.5304 67.6947 67.3243C67.7099 67.2938 67.7176 67.2556 67.7176 67.2098C67.7634 67.0725 67.7863 66.9351 67.7405 66.8206C67.7252 66.7596 67.6947 66.7138 67.6489 66.6832C67.6489 66.6832 67.6489 66.6756 67.6489 66.6603C67.6336 66.6603 67.626 66.6603 67.626 66.6603C67.6031 66.6603 67.5802 66.6603 67.5802 66.6603C67.5497 66.6451 67.5115 66.6451 67.4657 66.6603C67.4199 66.6832 67.3512 66.729 67.2826 66.7977C67.2139 66.8664 67.191 66.9351 67.1452 67.0038C67.1147 67.0496 67.0918 67.0954 67.0765 67.1411L67.0536 67.164C67.0536 67.1793 67.046 67.1946 67.0307 67.2098C67.0307 67.2098 67.0307 67.2175 67.0307 67.2327H66.8018C66.8475 67.0954 66.9162 66.958 67.0078 66.8206C67.1681 66.6146 67.3741 66.4314 67.626 66.4314C67.832 66.4085 67.9694 66.5688 67.9923 66.7519C68.0152 66.8893 68.0152 67.0496 67.9694 67.2098Z" fill="#C7C7C7"/>
<path d="M69.2292 67.1871C69.1376 67.5076 68.9086 67.851 68.5423 68.0342C68.4049 68.1258 68.3592 67.9197 68.4965 67.851C68.7255 67.7137 68.8858 67.5076 68.9544 67.3016C68.9697 67.271 68.985 67.2329 69.0002 67.1871C69.046 67.0497 69.046 66.9123 69.0231 66.7979C69.0079 66.7368 68.9697 66.691 68.9086 66.6605C68.9086 66.6605 68.9086 66.6528 68.9086 66.6376C68.8934 66.6376 68.8858 66.6376 68.8858 66.6376H68.8629C68.8171 66.6223 68.7789 66.6223 68.7484 66.6376C68.6797 66.6605 68.611 66.7063 68.5652 66.775C68.4965 66.8436 68.4507 66.9123 68.405 66.981C68.3744 67.0268 68.3515 67.065 68.3363 67.0955V67.1413C68.321 67.1566 68.3134 67.1718 68.3134 67.1871C68.2981 67.1871 68.2905 67.1947 68.2905 67.21H68.0615C68.1073 67.0726 68.1989 66.9352 68.2676 66.7979C68.4278 66.5918 68.6568 66.4086 68.8858 66.3857C69.1147 66.3857 69.2292 66.546 69.2521 66.7292C69.2979 66.8665 69.275 67.0268 69.2292 67.1871Z" fill="#C7C7C7"/>
<path d="M70.4875 67.1646C70.396 67.4852 70.167 67.8286 69.8236 68.0117C69.6633 68.1033 69.6175 67.8973 69.7778 67.8286C69.9839 67.6912 70.1441 67.4852 70.2357 67.2791C70.251 67.2333 70.2586 67.1951 70.2586 67.1646C70.3044 67.0272 70.3044 66.8899 70.2815 66.7754C70.2662 66.7143 70.2357 66.6609 70.1899 66.6151C70.1899 66.6151 70.1823 66.6151 70.167 66.6151C70.167 66.6151 70.1594 66.6151 70.1441 66.6151H70.1212C70.0907 66.5999 70.0525 66.5999 70.0067 66.6151C69.9381 66.638 69.8923 66.6838 69.8236 66.7296C69.7549 66.8212 69.7091 66.867 69.6633 66.9586C69.6481 67.0044 69.6252 67.0425 69.5946 67.073V67.1188C69.5794 67.1188 69.5717 67.1265 69.5717 67.1417C69.5717 67.157 69.5717 67.1723 69.5717 67.1875H69.3428C69.3886 67.0501 69.4573 66.9128 69.5488 66.7754C69.7091 66.5693 69.9152 66.3862 70.167 66.3633C70.3731 66.3633 70.4875 66.5235 70.5333 66.6838C70.5562 66.8441 70.5333 67.0044 70.4875 67.1646Z" fill="#C7C7C7"/>
<path d="M71.7702 67.1414C71.6786 67.462 71.4268 67.8054 71.0833 67.9886C70.9231 68.0801 70.8773 67.8741 71.0376 67.8054C71.2665 67.668 71.4268 67.462 71.4955 67.2559C71.5107 67.2101 71.526 67.172 71.5413 67.1414C71.5641 67.0041 71.587 66.8667 71.5413 66.7293C71.526 66.6835 71.4955 66.6377 71.4497 66.5919C71.4344 66.5919 71.4268 66.5919 71.4268 66.5919C71.4039 66.5919 71.381 66.569 71.381 66.569C71.3505 66.569 71.3199 66.5767 71.2894 66.5919C71.2207 66.6148 71.152 66.6606 71.1062 66.7064C71.0147 66.798 70.9918 66.8438 70.946 66.9354C70.9154 66.9659 70.8926 67.0041 70.8773 67.0498L70.8544 67.0727C70.8544 67.088 70.8468 67.1033 70.8315 67.1185C70.8315 67.1338 70.8315 67.1414 70.8315 67.1414L70.6025 67.1643C70.6483 67.027 70.717 66.8896 70.8086 66.7522C70.9689 66.5461 71.1749 66.363 71.4268 66.3401C71.6328 66.3401 71.7702 66.4775 71.7931 66.6606C71.816 66.798 71.816 66.9583 71.7702 67.1414Z" fill="#C7C7C7"/>
<path d="M73.029 67.0956C72.9374 67.439 72.7085 67.7824 72.3421 67.9656C72.2048 68.0572 72.159 67.8511 72.2963 67.7595C72.5253 67.6451 72.6856 67.439 72.7543 67.2329C72.7695 67.1872 72.7848 67.149 72.8 67.1185C72.8458 66.9582 72.8458 66.8208 72.8229 66.7064C72.8077 66.6453 72.7771 66.5995 72.7314 66.569C72.7161 66.569 72.7085 66.569 72.7085 66.569C72.6932 66.569 72.6856 66.5613 72.6856 66.5461H72.6627C72.6169 66.5461 72.5787 66.5537 72.5482 66.569C72.4795 66.5919 72.4108 66.6377 72.365 66.6835C72.2963 66.7521 72.2505 66.8208 72.2048 66.9124C72.1742 66.9429 72.1513 66.9811 72.1361 67.0269V67.0498C72.1208 67.065 72.1132 67.0803 72.1132 67.0956C72.0979 67.1108 72.0903 67.1185 72.0903 67.1185H71.8613C71.9071 67.004 71.9987 66.8437 72.0903 66.7293C72.2277 66.5003 72.4566 66.34 72.6856 66.3171C72.9145 66.2942 73.029 66.4545 73.0519 66.6377C73.0977 66.775 73.0748 66.9353 73.029 67.0956Z" fill="#C7C7C7"/>
<path d="M74.2883 67.0724C74.1967 67.3929 73.9678 67.7363 73.6244 67.9424C73.4641 68.0111 73.4183 67.8279 73.5786 67.7363C73.7846 67.6219 73.9449 67.4158 74.0365 67.1869C74.0517 67.1563 74.0594 67.1182 74.0594 67.0724C74.1052 66.935 74.1052 66.7976 74.0823 66.6832C74.067 66.6221 74.0365 66.5763 73.9907 66.5458C73.9907 66.5458 73.9831 66.5458 73.9678 66.5458C73.9678 66.5305 73.9678 66.5229 73.9678 66.5229C73.9449 66.5229 73.922 66.5229 73.922 66.5229C73.8915 66.5076 73.8533 66.5076 73.8075 66.5229C73.7388 66.5458 73.693 66.5916 73.6244 66.6603C73.5557 66.7289 73.5099 66.7976 73.4641 66.8663C73.4488 66.9121 73.4259 66.9579 73.3954 67.0037V67.0266C73.3801 67.0419 73.3725 67.0571 73.3725 67.0724C73.3725 67.0724 73.3725 67.08 73.3725 67.0953H73.1436C73.1893 66.9579 73.258 66.8205 73.3496 66.7061C73.5099 66.4771 73.7159 66.2939 73.9678 66.2939C74.1738 66.271 74.2883 66.4313 74.3341 66.6145C74.357 66.7518 74.3341 66.9121 74.2883 67.0724Z" fill="#C7C7C7"/>
<path d="M75.571 67.0492C75.4794 67.3697 75.2276 67.7131 74.8841 67.9192C74.7239 67.9879 74.6781 67.8047 74.8383 67.7131C75.0673 67.5987 75.2276 67.3697 75.2962 67.1637C75.3115 67.1331 75.3268 67.095 75.342 67.0492C75.3649 66.9118 75.3878 66.7744 75.342 66.66C75.3268 66.5989 75.2962 66.5531 75.2505 66.5226C75.2505 66.5226 75.2505 66.515 75.2505 66.4997C75.2352 66.4997 75.2276 66.4997 75.2276 66.4997C75.2047 66.4997 75.2047 66.4997 75.2047 66.4997C75.1589 66.4844 75.1207 66.4844 75.0902 66.4997C75.0215 66.5226 74.9528 66.5684 74.907 66.6371C74.8154 66.7057 74.7925 66.7744 74.7468 66.8431C74.7162 66.8889 74.6933 66.9347 74.6781 66.9805L74.6552 67.0034C74.6552 67.0187 74.6475 67.0339 74.6323 67.0492C74.6323 67.0492 74.6323 67.0568 74.6323 67.0721H74.4033C74.4491 66.9347 74.5178 66.7973 74.6094 66.66C74.7696 66.4539 74.9757 66.2707 75.2276 66.2707C75.4565 66.2478 75.571 66.4081 75.5939 66.5913C75.6168 66.7286 75.6168 66.8889 75.571 67.0492Z" fill="#C7C7C7"/>
<path d="M76.8298 67.0272C76.7382 67.3477 76.5092 67.6911 76.1429 67.8743C76.0055 67.9659 75.9597 67.7598 76.0971 67.6911C76.3261 67.5538 76.4863 67.3477 76.555 67.1416C76.5703 67.1111 76.5856 67.073 76.6008 67.0272C76.6466 66.8898 76.6466 66.7524 76.6237 66.6379C76.6085 66.5769 76.5779 66.5311 76.5321 66.5006C76.5169 66.5006 76.5092 66.4929 76.5092 66.4777C76.5092 66.4777 76.5016 66.4777 76.4863 66.4777H76.4634C76.4329 66.4624 76.3948 66.4624 76.349 66.4777C76.2803 66.5006 76.2116 66.5464 76.1658 66.6151C76.0971 66.6837 76.0513 66.7295 76.0055 66.8211C75.975 66.8669 75.9521 66.9051 75.9369 66.9356V66.9814C75.9216 66.9966 75.914 67.0043 75.914 67.0043C75.8987 67.0195 75.8911 67.0348 75.8911 67.0501H75.6621C75.7079 66.9127 75.7995 66.7753 75.8911 66.6379C76.0284 66.4319 76.2574 66.2487 76.4863 66.2258C76.7153 66.2258 76.8298 66.3861 76.8756 66.5464C76.8985 66.7066 76.8756 66.8669 76.8298 67.0272Z" fill="#C7C7C7"/>
<path d="M78.0891 67.004C77.9975 67.3245 77.7686 67.6679 77.4251 67.8511C77.2649 67.9427 77.2191 67.7366 77.3793 67.6679C77.5854 67.5306 77.7457 67.3245 77.8373 67.1185C77.8525 67.0727 77.8602 67.0345 77.8602 67.004C77.9059 66.8666 77.9059 66.7292 77.883 66.6148C77.8678 66.5537 77.8373 66.5003 77.7915 66.4545C77.7915 66.4545 77.7838 66.4545 77.7686 66.4545C77.7457 66.4545 77.7228 66.4316 77.7228 66.4316C77.6923 66.4316 77.6541 66.4392 77.6083 66.4545C77.5396 66.4774 77.4938 66.5232 77.4251 66.569C77.3565 66.6605 77.3107 66.7063 77.2649 66.7979C77.2496 66.8284 77.2267 66.8666 77.1962 66.9124V66.9353C77.1809 66.9506 77.1733 66.9658 77.1733 66.9811C77.1733 66.9963 77.1733 67.004 77.1733 67.004L76.9443 67.0269C76.9901 66.8895 77.0588 66.7521 77.1504 66.6148C77.3107 66.4087 77.5167 66.2255 77.7686 66.2026C77.9746 66.2026 78.0891 66.34 78.1349 66.5232C78.1578 66.6605 78.1578 66.8437 78.0891 67.004Z" fill="#C7C7C7"/>
<path d="M79.3708 66.9579C79.2792 67.3013 79.0274 67.6448 78.6839 67.8279C78.5466 67.9195 78.5008 67.7134 78.6381 67.6219C78.8671 67.5074 79.0274 67.3013 79.096 67.0953C79.1113 67.0495 79.1266 67.0113 79.1418 66.9808C79.1647 66.8434 79.1876 66.706 79.1418 66.5687C79.1266 66.5229 79.096 66.4771 79.0503 66.4313C79.035 66.4313 79.0274 66.4237 79.0274 66.4084H79.0045C78.9587 66.4084 78.9205 66.416 78.89 66.4313C78.8213 66.4542 78.7526 66.5 78.7068 66.5458C78.6381 66.6145 78.5923 66.6831 78.5466 66.7747C78.516 66.8053 78.4931 66.8434 78.4779 66.8892L78.455 66.9121C78.455 66.9274 78.455 66.9426 78.455 66.9579C78.4397 66.9732 78.4321 66.9808 78.4321 66.9808L78.2031 67.0037C78.2489 66.8663 78.3176 66.7289 78.4092 66.5916C78.5694 66.3626 78.7984 66.2023 79.0274 66.1794C79.2563 66.1794 79.3708 66.3168 79.3937 66.5C79.4395 66.6374 79.4166 66.7976 79.3708 66.9579Z" fill="#C7C7C7"/>
<path d="M80.6306 66.9349C80.539 67.2784 80.31 67.5989 79.9666 67.8049C79.8063 67.8965 79.7605 67.6905 79.8979 67.5989C80.1269 67.4844 80.2871 67.2784 80.3558 67.0723C80.3711 67.0265 80.3863 66.9807 80.4016 66.9349C80.4474 66.7976 80.4474 66.6602 80.4245 66.5457C80.4092 66.4846 80.3787 66.4389 80.3329 66.4083C80.3176 66.4083 80.31 66.4083 80.31 66.4083C80.31 66.3931 80.3024 66.3854 80.2871 66.3854H80.2642C80.2337 66.3854 80.1955 66.3931 80.1498 66.4083C80.0811 66.4083 80.0124 66.477 79.9666 66.5228C79.8979 66.5915 79.8521 66.6602 79.8063 66.7518C79.7911 66.7823 79.7682 66.8204 79.7376 66.8662V66.8891C79.7224 66.9044 79.7147 66.9197 79.7147 66.9349C79.7147 66.9502 79.7071 66.9578 79.6918 66.9578H79.4629C79.5087 66.8205 79.6003 66.6831 79.6918 66.5686C79.8292 66.3396 80.0582 66.1565 80.2871 66.1565C80.5161 66.1336 80.6306 66.2939 80.6763 66.477C80.6992 66.6144 80.6763 66.7747 80.6306 66.9349Z" fill="#C7C7C7"/>
<path d="M80.1268 71.6746C80.8824 73.4604 82.8972 75.727 83.0117 77.1695C83.1261 78.4516 82.0272 78.8866 82.0272 78.8866C82.0272 78.8866 83.4238 79.6422 83.3322 80.9701C83.2635 81.657 82.1187 82.1607 82.1187 82.1607C82.1187 82.1607 83.2177 82.8246 83.0575 83.9923C82.9201 84.931 81.7982 85.2973 81.7982 85.2973C81.7982 85.2973 82.5537 86.4421 82.0958 87.335C81.2029 89.1895 73.0979 88.869 71.9761 85.8239C71.4495 84.4273 73.4185 84.6105 73.4185 84.6105C73.4185 84.6105 70.6481 83.6489 70.671 81.9775C70.6939 80.3061 73.2353 80.6954 73.2353 80.6954C73.2353 80.6954 70.5566 79.7566 70.7626 78.0166C70.9687 76.2307 73.4414 77.055 73.4414 77.055C73.4414 77.055 71.7013 75.7728 72.1363 74.4678C72.8919 72.3385 76.2117 75.2005 77.9976 74.8341L79.0965 71.9493L80.1268 71.6746Z" fill="#D3766A"/>
<path d="M81.6379 74.2848C81.0655 72.5218 83.3092 70.4612 82.9887 68.6983C82.5766 66.3172 79.8291 68.538 79.0965 71.9494L79.0049 74.674L81.6379 74.2848Z" fill="#D3766A"/>
<path d="M81.6149 85.3885C81.6606 85.3885 81.6606 85.4343 81.6377 85.4343C78.9361 85.9838 75.8223 85.7549 73.3038 84.6101C73.2122 84.5643 73.258 84.4269 73.3496 84.4498C76.1657 85.1367 78.7071 85.503 81.6149 85.3885Z" fill="#263238"/>
<path d="M82.1643 82.1833C82.1872 82.1833 82.1872 82.2291 82.1643 82.2291C79.394 82.7786 75.8681 82.4351 73.1435 80.7638C73.052 80.718 73.0062 80.5806 73.1206 80.6264C75.0439 81.588 79.5542 82.2978 82.1643 82.1833Z" fill="#263238"/>
<path d="M73.2816 76.8721C75.9832 78.3603 78.868 78.8411 81.9131 78.9097C81.9589 78.9097 81.9589 78.9555 81.9131 78.9784C80.4249 79.3448 78.4788 79.0929 76.9906 78.7953C75.5711 78.4747 74.3347 77.9252 73.2358 76.9636C73.19 76.9407 73.2358 76.8492 73.2816 76.8721Z" fill="#263238"/>
<path d="M42.9452 57.823C43.0597 58.3038 46.6314 61.4176 48.8751 61.3031C49.5849 61.2802 48.3485 57.3651 48.3485 57.3651L48.4172 57.0675L49.333 52.9463L44.5021 49.8325L43.7924 49.4204C43.7924 49.4204 43.6321 50.5652 43.426 52.0076C43.4108 52.0686 43.3955 52.1297 43.3802 52.1908C43.365 52.2823 43.3573 52.3663 43.3573 52.4426C43.3116 52.6563 43.2734 52.87 43.2429 53.0837C43.22 53.2439 43.1971 53.4042 43.1971 53.5874C43.1666 53.7553 43.1437 53.9232 43.1284 54.0911C42.9452 55.8311 42.8994 57.617 42.9452 57.823Z" fill="#D3766A"/>
<path d="M43.4258 52.0076C44.5934 55.2816 47.2035 56.6096 48.417 57.0675L49.3328 52.9463L44.5019 49.8325L43.7921 49.4204C43.7921 49.4204 43.6318 50.5652 43.4258 52.0076Z" fill="#263238"/>
<path d="M55.6976 47.7942C55.1252 55.1666 50.6377 55.6703 49.058 55.5558C47.6155 55.4413 42.693 54.8918 42.487 47.4966C42.2809 40.0785 45.8755 37.995 49.1953 38.0866C52.5152 38.1553 56.2471 40.399 55.6976 47.7942Z" fill="#D3766A"/>
<path d="M42.6935 46.9931C44.4106 47.2908 44.8456 44.5433 44.8456 44.5433C44.8456 44.5433 46.8604 44.6807 47.5244 41.5211C47.5244 41.5211 48.1655 43.6046 50.7755 44.4289C51.325 44.5891 49.6765 42.8262 49.6765 42.8262C49.6765 42.8262 51.5998 45.2531 55.9728 45.1615C56.2704 45.1386 56.362 40.5824 53.294 38.5218C50.226 36.4613 47.0894 36.8505 44.7082 38.6134C44.7082 38.6134 42.7163 39.14 42.0524 41.4067C41.4113 43.6504 42.0066 46.8787 42.6935 46.9931Z" fill="#263238"/>
<path d="M43.7235 47.6573C43.7235 47.6573 42.51 45.1159 41.3882 45.5051C40.2434 45.9173 40.9074 49.4203 42.0521 50.0613C43.1969 50.7024 43.8151 49.6721 43.8151 49.6721L43.7235 47.6573Z" fill="#D3766A"/>
<path d="M41.5943 46.5128C41.5714 46.4899 41.5714 46.5357 41.5943 46.5357C42.3728 47.0165 42.6933 47.8865 42.8765 48.7565C42.6704 48.3902 42.3728 48.1612 41.892 48.4131C41.8691 48.4131 41.892 48.4589 41.9149 48.4589C42.2583 48.436 42.5101 48.5276 42.6933 48.8481C42.8307 49.077 42.8994 49.3518 42.9909 49.6036C43.0138 49.6723 43.1741 49.6494 43.1512 49.5578C43.1512 49.5578 43.1512 49.5502 43.1512 49.535C43.3344 48.4589 42.7391 46.8104 41.5943 46.5128Z" fill="#263238"/>
<path d="M54.3927 46.3295C54.2324 46.2837 54.0722 46.215 53.9119 46.1692C53.7287 46.1006 53.5685 46.0548 53.454 45.8945C53.3853 45.8029 53.4082 45.6426 53.4998 45.574C53.683 45.4137 53.9348 45.4366 54.1638 45.5053C54.3927 45.5969 54.5759 45.7113 54.7132 45.9403C54.8506 46.1463 54.6217 46.3982 54.3927 46.3295Z" fill="#263238"/>
<path d="M49.6528 45.6197C49.836 45.6426 49.9962 45.6197 50.1794 45.5968C50.3626 45.5739 50.5228 45.5968 50.6831 45.4594C50.7747 45.3907 50.7976 45.2304 50.7289 45.1389C50.5915 44.9328 50.3626 44.887 50.1107 44.9099C49.8589 44.9099 49.6757 44.9786 49.4696 45.1617C49.2865 45.322 49.4239 45.6197 49.6528 45.6197Z" fill="#263238"/>
<path d="M50.4549 47.6349C50.4549 47.612 50.4091 47.6578 50.4091 47.6807C50.3633 48.1844 50.2259 48.7339 49.7451 48.8484C49.7451 48.8713 49.7451 48.8941 49.768 48.8941C50.3175 48.8713 50.5007 48.1157 50.4549 47.6349Z" fill="#263238"/>
<path d="M50.0657 47.062C49.2644 46.9018 49.0126 48.5044 49.7452 48.6647C50.4779 48.8021 50.7297 47.1994 50.0657 47.062Z" fill="#263238"/>
<path d="M49.7449 47.085C49.5846 47.1537 49.4244 47.291 49.2412 47.291C49.0352 47.2681 48.9207 47.085 48.8291 46.9018C48.8062 46.8789 48.8062 46.9018 48.7833 46.9247C48.7375 47.2224 48.8062 47.5658 49.1267 47.6574C49.4244 47.7489 49.6762 47.52 49.8136 47.2224C49.8365 47.1537 49.7907 47.0621 49.7449 47.085Z" fill="#263238"/>
<path d="M53.156 48.0239C53.1789 48.001 53.2018 48.0697 53.2018 48.0926C53.0873 48.5734 53.0644 49.1687 53.4994 49.3976C53.4994 49.3976 53.4994 49.4205 53.4765 49.4205C52.9499 49.2602 52.9957 48.4818 53.156 48.0239Z" fill="#263238"/>
<path d="M53.7052 47.5885C54.5065 47.6572 54.3005 49.2828 53.5449 49.2141C52.8123 49.1454 53.0183 47.5199 53.7052 47.5885Z" fill="#263238"/>
<path d="M54.0268 47.7257C54.1413 47.8402 54.2329 48.0004 54.3931 48.0462C54.5763 48.0691 54.7137 47.9088 54.851 47.7486C54.8739 47.7486 54.8739 47.7486 54.8739 47.7715C54.851 48.092 54.7137 48.3896 54.3931 48.4125C54.1184 48.4354 53.9581 48.1378 53.9352 47.8402C53.9123 47.7715 53.981 47.7028 54.0268 47.7257Z" fill="#263238"/>
<path d="M49.8368 51.6634C49.9284 51.8008 50.02 51.9839 50.1802 52.0297C50.3634 52.0755 50.5695 52.0526 50.7526 52.0068C50.7755 52.0068 50.7755 52.0297 50.7755 52.0526C50.5924 52.2129 50.2947 52.2816 50.0887 52.19C49.8597 52.0984 49.791 51.8924 49.791 51.6634C49.791 51.6405 49.8139 51.6405 49.8368 51.6634Z" fill="#263238"/>
<path d="M52.1946 50.1533C52.1946 50.1533 52.1717 50.9088 52.126 51.2752C52.126 51.2981 52.0344 51.2981 51.9199 51.2981C51.9046 51.2981 51.897 51.2981 51.897 51.2981C51.2559 51.2981 50.6835 51.0004 50.363 50.428C50.3401 50.4052 50.4088 50.3594 50.4317 50.3823C50.8438 50.7944 51.3475 50.9546 51.897 51.0462C51.9199 50.9546 51.8512 49.7412 51.9199 49.7641C52.1031 49.7641 52.4694 49.9472 52.6754 50.0388C52.7441 48.459 52.5381 46.8793 52.6297 45.2995C52.6297 45.2537 52.7212 45.2537 52.7212 45.2995C53.0418 46.9479 53.0189 48.7567 52.996 50.4052C52.996 50.6112 52.3091 50.2449 52.1946 50.1533Z" fill="#263238"/>
<path d="M51.714 51.0687C51.714 51.0687 51.3477 51.4579 50.9356 51.5495C50.7753 51.5953 50.5921 51.5953 50.4319 51.5495C50.0884 51.4121 50.1113 51.0687 50.2029 50.794C50.2716 50.5879 50.409 50.3818 50.409 50.3818C50.409 50.3818 50.8669 50.9313 51.714 51.0687Z" fill="#263238"/>
<path d="M50.9356 51.55C50.7753 51.5958 50.5921 51.5958 50.4319 51.55C50.0884 51.4126 50.1113 51.0692 50.2029 50.7944C50.5692 50.886 50.9356 51.1837 50.9356 51.55Z" fill="#FF9CBD"/>
<path d="M55.5604 40.4678C54.7133 40.2847 49.9739 40.422 47.8446 41.3379C45.7383 42.2537 41.9376 45.2988 41.7545 45.459C41.5484 45.6193 40.5868 37.812 46.9059 36.3925C53.8203 34.8356 55.5604 40.4678 55.5604 40.4678Z" fill="#FFC727"/>
<path d="M42.1201 45.139C42.1201 45.139 46.31 39.6212 48.6224 38.362C50.9577 37.1027 56.155 36.393 59.3832 37.8125C61.9017 38.9115 55.7658 42.1397 55.7658 42.1397C55.7658 42.1397 55.5826 41.2468 54.7813 40.9263C53.2244 40.3081 50.248 40.7889 48.5308 41.3613C46.4016 42.071 42.1201 45.139 42.1201 45.139Z" fill="#FFC727"/>
<path opacity="0.2" d="M42.1201 45.139C42.1201 45.139 46.31 39.6212 48.6224 38.362C50.9577 37.1027 56.155 36.393 59.3832 37.8125C61.9017 38.9115 55.7658 42.1397 55.7658 42.1397C55.7658 42.1397 55.5826 41.2468 54.7813 40.9263C53.2244 40.3081 50.248 40.7889 48.5308 41.3613C46.4016 42.071 42.1201 45.139 42.1201 45.139Z" fill="black"/>
<path d="M48.3485 57.3649L47.3411 60.7305L42.8994 56.9985L41.8691 58.4409C41.8691 58.4409 46.4711 64.6227 46.4711 64.3022L47.5472 61.3716L49.6536 63.1574L49.0354 58.2578L48.3485 57.3649Z" fill="#FFC727"/>
<path d="M49.4927 60.7076C49.3553 59.9062 49.2638 59.082 49.0806 58.3036C49.0806 58.2578 49.0348 58.2578 49.0348 58.2807C48.9432 59.082 49.4469 62.1729 49.5156 62.9055C49.424 62.814 47.5466 61.3486 47.5466 61.3715C47.2948 61.8523 46.4934 63.9816 46.4476 64.1877C45.715 63.2032 42.9675 59.6544 42.1204 58.7386C42.0975 58.6928 42.0517 58.7386 42.0746 58.7615C42.7386 59.8147 46.4018 64.5998 46.4476 64.5769C46.4934 64.5998 47.4779 61.9668 47.5695 61.486C47.89 61.8066 49.8132 63.5008 49.7903 63.3634C49.7675 62.5621 49.6301 61.5089 49.4927 60.7076Z" fill="#263238"/>
</svg>
