<svg width="230" height="230" viewBox="0 0 230 230" fill="none" xmlns="http://www.w3.org/2000/svg">
<path d="M60.7214 67.8721C55.8435 74.9673 53.0463 83.427 47.3837 89.8741C41.1413 97.0035 32.0335 100.96 25.0064 107.305C13.3402 117.914 8.97392 137.699 19.3098 149.604C31.4536 163.555 54.4108 159.394 70.648 168.263C82.0413 174.505 89.7846 187.093 102.338 190.436C111.889 192.96 122.054 189.412 130.787 184.739C139.52 180.066 147.775 174.164 157.326 171.469C172.54 167.171 190.448 171.162 203.24 161.85C215.589 152.844 217.601 135.072 215.35 119.927C213.269 105.668 207.811 90.9316 196.077 82.5742C186.696 75.8883 174.655 74.2168 164.421 68.8613C153.505 63.1646 145.182 53.6133 135.187 46.4499C111.104 29.1893 76.2764 45.1195 60.7214 67.8721Z" fill="#DAE1FA"/>
<path d="M19.9926 111.194C19.8562 127.908 29.5439 145.169 45.2694 150.763C50.932 152.776 57.1062 153.287 62.5641 155.744C73.821 160.792 80.5069 173.243 91.9343 177.882C101.963 181.907 113.391 179.042 123.317 174.846C133.278 170.684 142.897 165.158 153.608 163.828C160.567 162.941 167.628 163.896 174.621 163.487C181.614 163.112 189.016 161.099 193.485 155.675C199.42 148.444 198.192 137.733 195.293 128.795C188.709 108.499 175.133 90.556 157.361 78.7533C145.012 70.5324 130.89 65.3133 116.427 61.9704C99.5753 58.0475 81.9055 56.7513 64.7472 59.5143C57.2768 60.7082 47.2479 62.2774 40.7667 66.4731C34.9677 70.1913 30.3626 78.4463 27.1902 84.45C22.8239 92.6709 20.0609 101.813 19.9926 111.194Z" fill="#EBEEFA"/>
<path d="M30.8049 136.811C29.4064 136.095 27.6326 133.469 29.0311 131.934C29.1448 131.82 29.2699 131.717 29.4064 131.627C29.9976 131.308 30.6116 131.001 31.2484 130.705C33.1245 129.853 32.9881 127.192 31.0437 126.544C29.6451 126.066 28.2125 125.691 26.8139 125.248C24.5966 124.531 22.3111 123.542 20.6738 122.007C19.6504 121.052 20.2644 119.312 21.663 119.176L25.4153 118.835C26.4386 118.732 26.8139 117.402 25.9952 116.788C21.663 113.581 17.5355 109.863 15.7276 105.053C15.2841 103.928 16.2051 102.734 17.399 102.87C20.3668 103.143 23.2321 104.439 25.3812 106.486C26.8821 107.987 28.3148 109.931 30.1568 110.716C30.9073 111.057 31.7601 110.477 31.726 109.624C31.726 108.567 31.8965 107.51 32.2718 106.52C32.8517 105.053 34.6596 104.508 35.9558 105.395C37.3885 106.418 38.446 108.26 39.0259 110C40.0151 112.899 40.6291 116.242 43.4263 117.743C43.54 117.811 43.6537 117.857 43.7674 117.879C46.4964 118.289 45.6094 113.888 47.6562 112.831C48.5772 112.353 49.737 112.831 50.3851 113.616C51.0332 114.4 52.807 117.641 53.2164 118.562C56.6958 126.169 59.1859 135.174 56.6275 137.835C54.7514 139.847 44.4155 139.472 43.4604 139.438C38.7871 139.302 35.0007 138.961 30.8049 136.811Z" fill="url(#paint0_linear_335_6893)"/>
<path d="M25.8594 111.91C33.3298 119.654 47.9638 132.309 55.9118 137.051C60.0735 139.541 64.508 141.622 69.079 143.293" stroke="#1F1473" stroke-width="0.932776" stroke-linecap="round" stroke-linejoin="round"/>
<path d="M31.624 123.236C32.2608 123.395 32.9089 123.543 33.5684 123.679C35.0352 124.02 36.809 124.259 37.9006 123.202C38.5828 122.519 38.7534 121.428 38.5487 120.473C38.3781 119.518 37.8665 118.665 37.3889 117.812" stroke="#1F1473" stroke-width="0.932776" stroke-linecap="round" stroke-linejoin="round"/>
<path d="M37.7646 131.388C39.402 132.241 41.0735 133.094 42.8473 133.571C44.6211 134.083 46.5314 134.219 48.2711 133.571C49.4309 133.162 50.3178 131.866 50.1813 129.375C50.079 127.67 48.5098 124.532 47.7935 123.065" stroke="#1F1473" stroke-width="0.932776" stroke-linecap="round" stroke-linejoin="round"/>
<path d="M32.6133 108.943C32.6133 109.045 32.6133 109.147 32.6815 109.25C32.7838 109.454 33.0908 109.523 33.3296 109.42C33.5684 109.318 33.739 109.079 33.8413 108.84C34.0119 108.499 34.0801 108.056 34.0801 107.646C34.046 107.408 33.9778 107.101 33.7049 107.067C33.5684 107.032 33.3979 107.135 33.2955 107.237C32.8521 107.646 32.6133 108.329 32.6133 108.943Z" fill="#1F1473"/>
<path d="M37.1504 111.978C37.1504 112.024 37.1618 112.081 37.1845 112.149C37.2186 112.251 37.4233 112.285 37.5256 112.251C37.6621 112.183 37.7644 112.047 37.7985 111.91C37.9009 111.705 37.9691 111.501 37.935 111.262C37.935 111.126 37.9009 110.955 37.7644 110.921C37.6621 110.921 37.5938 110.955 37.5256 111.023C37.2527 111.262 37.1504 111.637 37.1504 111.978Z" fill="#1F1473"/>
<path d="M35.3087 108.943C35.2859 108.897 35.2632 108.863 35.2405 108.84C35.1722 108.772 35.0358 108.806 34.9676 108.875C34.8993 108.943 34.8652 109.045 34.8652 109.147C34.8652 109.329 34.9107 109.489 35.0017 109.625C35.0358 109.727 35.104 109.796 35.2064 109.796C35.2746 109.761 35.3087 109.727 35.3428 109.659C35.4451 109.42 35.411 109.147 35.3087 108.943Z" fill="#1F1473"/>
<path d="M36.3999 107.169C36.3999 107.146 36.3885 107.134 36.3658 107.134C36.3317 107.1 36.2635 107.1 36.1952 107.169C36.1611 107.203 36.1611 107.271 36.1611 107.339C36.1611 107.43 36.1839 107.521 36.2294 107.612C36.2635 107.68 36.2976 107.714 36.3658 107.714C36.3999 107.714 36.434 107.68 36.434 107.646C36.5023 107.476 36.4681 107.305 36.3999 107.169Z" fill="#1F1473"/>
<path d="M37.6964 108.703C37.6737 108.658 37.651 108.624 37.6282 108.601C37.56 108.533 37.4236 108.567 37.3553 108.669C37.2871 108.738 37.2871 108.84 37.2871 108.942C37.2871 109.101 37.3212 109.261 37.3894 109.42C37.4236 109.488 37.4918 109.59 37.5941 109.556C37.6623 109.556 37.6964 109.488 37.7306 109.42C37.8329 109.215 37.7988 108.942 37.6964 108.703Z" fill="#1F1473"/>
<path d="M46.3604 117.915C46.3604 118.017 46.3945 118.119 46.4286 118.222C46.5309 118.46 46.872 118.529 47.0767 118.392C47.3155 118.29 47.486 118.085 47.5884 117.846C47.7589 117.471 47.8272 117.062 47.8272 116.652C47.8272 116.38 47.7248 116.073 47.486 116.038C47.3155 116.004 47.179 116.107 47.0426 116.209C46.5991 116.652 46.3604 117.301 46.3604 117.915Z" fill="#1F1473"/>
<path d="M50.8975 120.95C50.8975 121.018 50.9088 121.075 50.9316 121.12C50.9998 121.257 51.1703 121.291 51.3068 121.223C51.4091 121.154 51.5115 121.018 51.5797 120.916C51.682 120.711 51.7161 120.472 51.7161 120.233C51.682 120.097 51.6479 119.926 51.5115 119.892C51.4091 119.892 51.3409 119.961 51.2727 119.995C51.0339 120.233 50.8975 120.609 50.8975 120.95Z" fill="#1F1473"/>
<path d="M49.0549 117.914C49.0321 117.868 49.0094 117.834 48.9866 117.812C48.9184 117.743 48.782 117.777 48.7137 117.846C48.6455 117.914 48.6455 118.05 48.6455 118.153C48.6455 118.312 48.6796 118.46 48.7478 118.596C48.782 118.698 48.8843 118.801 48.9525 118.767C49.0207 118.733 49.0548 118.699 49.089 118.63C49.1913 118.392 49.1572 118.119 49.0549 117.914Z" fill="#1F1473"/>
<path d="M48.68 115.049C48.7255 115.026 48.7596 115.003 48.7824 114.98C48.8165 114.878 48.7824 114.776 48.7141 114.707C48.6118 114.639 48.5095 114.639 48.4071 114.673C48.2479 114.673 48.1001 114.719 47.9637 114.81C47.8613 114.878 47.7931 114.98 47.8272 115.083C47.8613 115.117 47.8955 115.151 47.9637 115.185C48.2025 115.253 48.4754 115.185 48.68 115.049Z" fill="#1F1473"/>
<path d="M50.1811 116.175C50.1584 116.152 50.147 116.129 50.147 116.106C50.0788 116.072 50.0105 116.072 49.9764 116.141C49.9082 116.175 49.9082 116.243 49.9082 116.311C49.9082 116.402 49.9309 116.493 49.9764 116.584C50.0105 116.652 50.0446 116.72 50.1129 116.686C50.147 116.686 50.1811 116.652 50.1811 116.618C50.2493 116.482 50.2493 116.311 50.1811 116.175Z" fill="#1F1473"/>
<path d="M51.4435 117.675C51.4208 117.652 51.398 117.63 51.3753 117.607C51.3071 117.539 51.1706 117.573 51.1024 117.641C51.0342 117.709 51.0342 117.811 51.0342 117.914C51.0342 118.073 51.0683 118.232 51.1365 118.391C51.1706 118.46 51.273 118.562 51.3753 118.528C51.4094 118.528 51.4435 118.46 51.4776 118.425C51.58 118.187 51.5459 117.914 51.4435 117.675Z" fill="#1F1473"/>
<path d="M170.254 106.657C171.38 105.6 174.45 104.815 175.439 106.657C175.507 106.794 175.553 106.942 175.575 107.101C175.689 107.783 175.78 108.477 175.848 109.182C175.985 111.194 178.577 111.979 179.839 110.375C180.726 109.216 181.579 107.988 182.466 106.828C183.864 104.986 185.57 103.178 187.583 102.155C188.845 101.506 190.243 102.666 189.902 103.997L188.981 107.681C188.742 108.67 189.868 109.489 190.721 108.909C195.224 105.941 200.068 103.28 205.218 103.178C206.446 103.178 207.265 104.44 206.719 105.532C205.457 108.226 203.274 110.478 200.613 111.808C198.703 112.729 196.383 113.411 195.019 114.878C194.439 115.458 194.712 116.447 195.531 116.72C196.52 117.061 197.475 117.607 198.26 118.289C199.454 119.313 199.385 121.223 198.089 122.144C196.622 123.133 194.541 123.509 192.699 123.474C189.663 123.406 186.286 122.86 183.933 124.975C183.842 125.066 183.774 125.169 183.728 125.282C182.398 127.704 186.832 128.352 187.139 130.638C187.276 131.661 186.457 132.582 185.468 132.923C184.513 133.264 180.863 133.844 179.873 133.913C171.516 134.629 162.238 133.947 160.566 130.638C159.304 128.182 163.125 118.596 163.5 117.709C165.205 113.377 166.809 109.898 170.254 106.657Z" fill="url(#paint1_linear_335_6893)"/>
<path d="M195.326 110.409C185.536 114.844 168.685 124.361 161.556 130.228C157.803 133.298 154.324 136.743 151.254 140.496" stroke="#1F1473" stroke-width="0.932776" stroke-linecap="round" stroke-linejoin="round"/>
<path d="M182.739 112.012C182.375 112.581 182.023 113.15 181.682 113.718C180.863 114.98 180.01 116.583 180.658 117.948C181.068 118.801 182.057 119.346 183.012 119.483C183.967 119.619 184.956 119.449 185.912 119.278" stroke="#1F1473" stroke-width="0.932776" stroke-linecap="round" stroke-linejoin="round"/>
<path d="M173.017 115.083C171.653 116.311 170.288 117.573 169.231 119.074C168.139 120.609 167.389 122.383 167.389 124.225C167.389 125.419 168.31 126.715 170.698 127.431C172.369 127.909 175.814 127.466 177.452 127.295" stroke="#1F1473" stroke-width="0.932776" stroke-linecap="round" stroke-linejoin="round"/>
<path d="M195.872 117.778C195.77 117.744 195.667 117.71 195.565 117.744C195.326 117.744 195.156 118.051 195.19 118.289C195.19 118.562 195.36 118.767 195.531 118.972C195.838 119.245 196.213 119.449 196.588 119.586C196.827 119.654 197.168 119.688 197.271 119.449C197.339 119.313 197.305 119.142 197.237 119.006C196.998 118.426 196.452 117.982 195.872 117.778Z" fill="#1F1473"/>
<path d="M191.506 121.018C191.438 120.996 191.381 120.984 191.335 120.984C191.199 121.018 191.097 121.155 191.097 121.291C191.131 121.462 191.199 121.564 191.301 121.667C191.472 121.837 191.677 121.94 191.881 122.008C192.018 122.076 192.222 122.076 192.256 121.94C192.325 121.871 192.291 121.769 192.256 121.701C192.12 121.36 191.813 121.121 191.506 121.018Z" fill="#1F1473"/>
<path d="M194.986 120.302C195.031 120.302 195.065 120.302 195.088 120.302C195.19 120.233 195.19 120.097 195.156 120.029C195.088 119.926 194.986 119.858 194.918 119.824C194.758 119.779 194.599 119.767 194.44 119.79C194.338 119.79 194.201 119.858 194.201 119.926C194.201 119.995 194.235 120.063 194.304 120.097C194.474 120.268 194.747 120.336 194.986 120.302Z" fill="#1F1473"/>
<path d="M196.247 121.939C196.27 121.939 196.293 121.939 196.315 121.939C196.384 121.905 196.384 121.837 196.349 121.769C196.315 121.7 196.247 121.666 196.213 121.666C196.099 121.621 195.997 121.609 195.906 121.632C195.838 121.632 195.77 121.666 195.77 121.735C195.77 121.769 195.804 121.803 195.838 121.837C195.94 121.939 196.111 121.973 196.247 121.939Z" fill="#1F1473"/>
<path d="M194.371 122.655C194.417 122.633 194.462 122.621 194.508 122.621C194.576 122.553 194.61 122.417 194.542 122.348C194.508 122.246 194.405 122.212 194.303 122.178C194.144 122.11 193.984 122.087 193.825 122.11C193.723 122.11 193.621 122.178 193.621 122.28C193.587 122.314 193.655 122.382 193.689 122.417C193.859 122.587 194.132 122.655 194.371 122.655Z" fill="#1F1473"/>
<path d="M182.773 127.704C182.671 127.67 182.569 127.636 182.501 127.636C182.228 127.67 182.057 127.943 182.091 128.216C182.091 128.454 182.262 128.693 182.466 128.864C182.739 129.171 183.115 129.375 183.49 129.512C183.729 129.58 184.07 129.58 184.172 129.375C184.274 129.239 184.206 129.068 184.172 128.898C183.899 128.352 183.353 127.909 182.773 127.704Z" fill="#1F1473"/>
<path d="M178.407 130.945C178.339 130.922 178.282 130.91 178.237 130.91C178.1 130.91 177.998 131.081 177.998 131.217C178.032 131.354 178.1 131.49 178.203 131.593C178.373 131.729 178.578 131.866 178.817 131.934C178.919 131.968 179.124 131.968 179.192 131.866C179.226 131.797 179.192 131.695 179.158 131.593C179.021 131.286 178.714 131.047 178.407 130.945Z" fill="#1F1473"/>
<path d="M181.887 130.229C181.933 130.229 181.967 130.217 181.989 130.195C182.092 130.16 182.092 130.024 182.058 129.922C181.989 129.853 181.921 129.785 181.819 129.751C181.66 129.706 181.501 129.683 181.341 129.683C181.239 129.717 181.103 129.751 181.103 129.853C181.103 129.922 181.137 129.99 181.205 130.024C181.375 130.195 181.648 130.263 181.887 130.229Z" fill="#1F1473"/>
<path d="M184.718 130.842C184.718 130.888 184.729 130.922 184.752 130.945C184.82 131.047 184.956 131.047 185.025 130.979C185.093 130.911 185.161 130.808 185.161 130.706C185.207 130.547 185.207 130.388 185.161 130.228C185.127 130.126 185.093 130.024 184.991 130.024C184.922 130.024 184.854 130.092 184.82 130.126C184.684 130.331 184.649 130.604 184.718 130.842Z" fill="#1F1473"/>
<path d="M183.149 131.866C183.172 131.866 183.195 131.855 183.218 131.832C183.286 131.832 183.286 131.73 183.252 131.695C183.218 131.627 183.184 131.593 183.115 131.559C183.024 131.536 182.922 131.525 182.808 131.525C182.74 131.559 182.672 131.593 182.672 131.627C182.672 131.661 182.706 131.695 182.74 131.73C182.842 131.832 183.013 131.866 183.149 131.866Z" fill="#1F1473"/>
<path d="M181.306 132.548C181.329 132.548 181.363 132.537 181.408 132.514C181.477 132.48 181.511 132.344 181.443 132.241C181.408 132.173 181.306 132.105 181.204 132.071C181.067 132.025 180.908 132.014 180.726 132.037C180.624 132.037 180.521 132.071 180.521 132.173C180.521 132.241 180.556 132.309 180.59 132.344C180.76 132.514 181.033 132.582 181.306 132.548Z" fill="#1F1473"/>
<path d="M151.629 103.723C152.209 102.291 154.665 100.278 156.302 101.54C156.439 101.631 156.553 101.745 156.643 101.881C157.03 102.45 157.394 103.03 157.735 103.621C158.758 105.395 161.419 105.02 161.863 103.041C162.204 101.609 162.442 100.142 162.784 98.709C163.261 96.4576 164.046 94.0698 165.444 92.296C166.297 91.2044 168.071 91.6138 168.31 93.0124L169.026 96.6964C169.231 97.7198 170.595 97.9927 171.141 97.0717C173.938 92.5007 177.213 88.0321 181.852 85.7807C182.944 85.269 184.206 86.0536 184.206 87.2475C184.172 90.2493 183.182 93.217 181.306 95.5366C179.976 97.174 178.168 98.7772 177.554 100.688C177.281 101.472 177.963 102.257 178.782 102.154C179.839 102.052 180.897 102.12 181.92 102.393C183.455 102.837 184.172 104.61 183.387 105.975C182.5 107.51 180.76 108.704 179.089 109.454C176.292 110.682 173.017 111.603 171.789 114.537C171.744 114.651 171.709 114.764 171.687 114.878C171.55 117.641 175.848 116.345 177.076 118.289C177.622 119.176 177.281 120.37 176.531 121.086C175.814 121.803 172.744 123.849 171.857 124.361C164.626 128.523 155.893 131.832 152.994 129.546C150.844 127.875 150.23 117.539 150.196 116.584C149.889 111.944 149.855 108.124 151.629 103.723Z" fill="url(#paint2_linear_335_6893)"/>
<path d="M175.952 96.5261C168.959 104.645 157.702 120.404 153.711 128.728C151.63 133.128 149.958 137.733 148.73 142.441" stroke="white" stroke-width="0.932776" stroke-linecap="round" stroke-linejoin="round"/>
<path d="M165.205 103.28C165.114 103.963 165.035 104.633 164.967 105.293C164.762 106.794 164.66 108.568 165.819 109.523C166.57 110.171 167.661 110.205 168.617 109.932C169.538 109.659 170.356 109.113 171.175 108.533" stroke="white" stroke-width="0.932776" stroke-linecap="round" stroke-linejoin="round"/>
<path d="M157.667 110.171C156.985 111.877 156.269 113.616 155.962 115.424C155.62 117.232 155.689 119.177 156.473 120.848C156.985 121.94 158.349 122.724 160.805 122.349C162.545 122.076 165.479 120.234 166.877 119.381" stroke="white" stroke-width="0.932776" stroke-linecap="round" stroke-linejoin="round"/>
<path d="M179.533 102.973C179.43 102.973 179.328 103.007 179.26 103.041C179.055 103.178 179.021 103.519 179.123 103.723C179.26 103.962 179.498 104.064 179.737 104.167C180.147 104.303 180.556 104.337 180.965 104.303C181.204 104.269 181.511 104.133 181.511 103.894C181.545 103.723 181.409 103.587 181.306 103.485C180.863 103.075 180.147 102.905 179.533 102.973Z" fill="white"/>
<path d="M176.94 107.749C176.894 107.749 176.849 107.76 176.804 107.783C176.667 107.851 176.633 108.056 176.735 108.158C176.804 108.294 176.94 108.363 177.076 108.397C177.281 108.499 177.52 108.499 177.725 108.499C177.861 108.465 178.032 108.397 178.032 108.26C178.066 108.158 177.997 108.09 177.929 108.022C177.656 107.817 177.281 107.715 176.94 107.749Z" fill="white"/>
<path d="M179.805 105.634C179.851 105.611 179.885 105.588 179.907 105.565C179.941 105.463 179.907 105.361 179.839 105.293C179.737 105.224 179.634 105.224 179.532 105.224C179.373 105.247 179.225 105.304 179.089 105.395C178.986 105.429 178.918 105.531 178.952 105.634C178.986 105.668 179.02 105.702 179.089 105.736C179.327 105.804 179.6 105.77 179.805 105.634Z" fill="white"/>
<path d="M181.648 106.589C181.671 106.566 181.693 106.543 181.716 106.52C181.75 106.486 181.716 106.418 181.682 106.384C181.614 106.35 181.546 106.316 181.477 106.35C181.386 106.35 181.295 106.373 181.204 106.418C181.17 106.452 181.102 106.52 181.136 106.589C181.136 106.623 181.17 106.623 181.204 106.657C181.341 106.691 181.511 106.657 181.648 106.589Z" fill="white"/>
<path d="M180.249 107.988C180.295 107.965 180.329 107.942 180.352 107.919C180.386 107.851 180.352 107.715 180.283 107.647C180.181 107.578 180.079 107.578 179.976 107.578C179.817 107.601 179.669 107.658 179.533 107.749C179.431 107.783 179.362 107.885 179.397 107.988C179.431 108.056 179.465 108.09 179.533 108.09C179.772 108.158 180.045 108.124 180.249 107.988Z" fill="white"/>
<path d="M171.892 117.471C171.789 117.505 171.687 117.505 171.585 117.573C171.38 117.709 171.346 118.016 171.482 118.255C171.585 118.46 171.823 118.596 172.096 118.699C172.472 118.835 172.881 118.869 173.29 118.801C173.563 118.767 173.836 118.664 173.87 118.392C173.87 118.255 173.768 118.119 173.631 118.016C173.188 117.573 172.471 117.436 171.892 117.471Z" fill="white"/>
<path d="M169.265 122.28C169.22 122.28 169.174 122.292 169.129 122.314C168.992 122.383 168.992 122.553 169.06 122.69C169.129 122.826 169.265 122.894 169.402 122.928C169.606 122.997 169.845 123.031 170.084 122.997C170.22 122.997 170.357 122.928 170.391 122.792C170.391 122.69 170.323 122.621 170.254 122.553C170.016 122.314 169.606 122.246 169.265 122.28Z" fill="white"/>
<path d="M172.13 120.165C172.176 120.143 172.21 120.12 172.232 120.097C172.301 119.995 172.267 119.893 172.164 119.824C172.096 119.756 171.994 119.756 171.891 119.756C171.709 119.779 171.55 119.836 171.414 119.927C171.346 119.961 171.243 120.063 171.277 120.165C171.311 120.2 171.38 120.234 171.414 120.268C171.653 120.336 171.925 120.268 172.13 120.165Z" fill="white"/>
<path d="M174.961 119.518C174.984 119.563 175.018 119.597 175.064 119.62C175.132 119.654 175.268 119.586 175.302 119.518C175.337 119.415 175.337 119.313 175.337 119.211C175.291 119.051 175.223 118.904 175.132 118.767C175.064 118.699 174.961 118.631 174.859 118.665C174.791 118.699 174.791 118.767 174.757 118.835C174.723 119.074 174.825 119.347 174.961 119.518Z" fill="white"/>
<path d="M173.973 121.121C173.996 121.098 174.019 121.075 174.041 121.052C174.075 121.018 174.041 120.95 174.007 120.882C173.939 120.848 173.871 120.848 173.837 120.848C173.723 120.87 173.621 120.905 173.53 120.95C173.496 120.984 173.427 121.052 173.461 121.086C173.461 121.121 173.496 121.155 173.53 121.155C173.7 121.223 173.871 121.189 173.973 121.121Z" fill="white"/>
<path d="M172.574 122.519C172.62 122.496 172.654 122.473 172.677 122.45C172.745 122.348 172.711 122.246 172.609 122.178C172.54 122.109 172.438 122.109 172.336 122.109C172.154 122.132 171.995 122.189 171.858 122.28C171.79 122.314 171.688 122.416 171.722 122.519C171.756 122.553 171.824 122.587 171.858 122.621C172.097 122.689 172.37 122.621 172.574 122.519Z" fill="white"/>
<mask id="mask0_335_6893" style="mask-type:luminance" maskUnits="userSpaceOnUse" x="134" y="76" width="25" height="47">
<path d="M154.212 119.207L152.213 122.523L148.784 120.452C140.468 115.434 135.119 106.681 134.454 96.9934L134.416 96.4476C133.918 89.1886 136.098 81.9979 140.54 76.2364L140.703 76.0249C147.3 79.0199 152.581 84.3107 155.556 90.9147L155.863 91.5935C159.884 100.51 159.267 110.833 154.212 119.207Z" fill="white"/>
</mask>
<g mask="url(#mask0_335_6893)">
<path d="M154.221 119.21L152.209 122.519L148.798 120.438C140.474 115.424 135.119 106.691 134.471 97.0034L134.402 96.4576C133.925 89.1918 136.108 81.9942 140.543 76.2293L140.713 76.0247C147.297 79.0265 152.584 84.3138 155.552 90.8974L155.859 91.5796C159.884 100.517 159.27 110.819 154.221 119.21Z" fill="url(#paint3_linear_335_6893)"/>
<path d="M140.713 76.0247L152.209 122.519" stroke="#8981EB" stroke-width="0.805579" stroke-miterlimit="10"/>
<path d="M144.739 92.33L134.676 90.3516" stroke="#8981EB" stroke-width="0.805579" stroke-miterlimit="10"/>
<path d="M146.888 101.028L155.552 90.8972" stroke="#8981EB" stroke-width="0.805579" stroke-miterlimit="10"/>
<path d="M150.095 114.264L140.748 113.548" stroke="#8981EB" stroke-width="0.805579" stroke-miterlimit="10"/>
<path d="M148.081 105.839L135.835 103.997" stroke="#8981EB" stroke-width="0.805579" stroke-miterlimit="10"/>
<path d="M149.48 111.774L158.554 103.963" stroke="#8981EB" stroke-width="0.805579" stroke-miterlimit="10"/>
</g>
<path d="M177.554 166.08C177.554 168.127 151.391 169.73 119.121 169.73C86.8513 169.73 60.7217 168.127 60.7217 166.08C60.7217 164.067 86.8513 162.43 119.121 162.43C151.391 162.43 177.554 164.067 177.554 166.08Z" fill="#7672F2"/>
<path d="M169.947 124.122L156.917 113.548H132.834C132.22 113.548 131.708 113.787 131.299 114.196C138.087 118.528 145.865 121.223 153.813 122.656C159.134 123.645 164.524 124.054 169.947 124.122Z" fill="#BBC7FA"/>
<path d="M153.812 122.655C145.864 121.223 138.087 118.528 131.299 114.196C130.889 114.571 130.65 115.151 130.65 115.765V126.271C130.65 127.499 131.606 128.454 132.834 128.454H175.337L169.947 124.122C164.523 124.054 159.134 123.645 153.812 122.655Z" fill="#CDD5FA"/>
<path d="M53.5583 141.11H50.3859C49.0897 141.11 48.0322 142.133 48.0322 143.43V146.534C48.0322 147.83 49.0897 148.853 50.3859 148.853H53.5583V141.11Z" fill="#FF2E5F"/>
<path d="M53.558 144.691H49.8398C49.5669 144.691 49.3281 144.487 49.3281 144.18V142.542C49.3281 142.235 49.5669 142.031 49.8398 142.031H53.558V144.691Z" fill="#FF577D"/>
<path d="M53.5577 143.021H49.9759C49.8054 143.021 49.6689 142.884 49.6689 142.713C49.6689 142.543 49.8054 142.406 49.9759 142.406H53.5577V143.021Z" fill="#FFB0C3"/>
<path d="M53.5577 144.317H49.9759C49.8054 144.317 49.6689 144.18 49.6689 144.01C49.6689 143.839 49.8054 143.669 49.9759 143.669H53.5577V144.317Z" fill="#FFB0C3"/>
<path d="M53.558 147.932H49.8398C49.5669 147.932 49.3281 147.728 49.3281 147.421V145.783C49.3281 145.476 49.5669 145.271 49.8398 145.271H53.558V147.932Z" fill="#FF577D"/>
<path d="M53.5577 146.261H49.9759C49.8054 146.261 49.6689 146.125 49.6689 145.954C49.6689 145.784 49.8054 145.613 49.9759 145.613H53.5577V146.261Z" fill="#FFB0C3"/>
<path d="M53.5577 147.557H49.9759C49.8054 147.557 49.6689 147.42 49.6689 147.25C49.6689 147.079 49.8054 146.909 49.9759 146.909H53.5577V147.557Z" fill="#FFB0C3"/>
<path opacity="0.4" d="M51.0342 144.726C51.8188 145.408 52.6375 145.988 53.5585 146.466V141.11H50.3861C49.6698 141.11 49.0558 141.417 48.6123 141.895C49.2945 142.952 50.1132 143.907 51.0342 144.726Z" fill="white"/>
<path d="M44.962 76.1956H125.568C126.66 76.1956 127.512 77.0825 127.512 78.1399V138.211C127.512 139.268 126.66 140.155 125.568 140.155H44.962C43.9046 140.155 43.0518 139.268 43.0518 138.211V78.1399C43.0518 77.0825 43.9046 76.1956 44.962 76.1956Z" fill="url(#paint4_linear_335_6893)"/>
<path d="M45.712 77.1843H124.203C125.261 77.1843 126.113 78.0371 126.113 79.0605V80.1179C126.113 79.0605 125.261 78.2077 124.203 78.2077H45.712C44.6546 78.2077 43.8018 79.0605 43.8018 80.1179V79.0605C43.8018 78.0371 44.6546 77.1843 45.712 77.1843Z" fill="white"/>
<path d="M127.341 154.379H51.1357V140.121H127.341V154.379Z" fill="#333333"/>
<path d="M107.523 140.462H125.022C125.568 140.462 125.977 140.974 125.977 141.588V153.288C125.977 153.936 125.568 154.448 125.022 154.448H107.523C107.011 154.448 106.567 153.936 106.567 153.288V141.588C106.567 140.974 107.011 140.462 107.523 140.462Z" fill="#525252"/>
<path d="M122.191 154.448H120.656V140.462H122.191V154.448Z" fill="#878787"/>
<path d="M111.89 154.448H110.389V140.462H111.89V154.448Z" fill="#878787"/>
<path d="M116.29 144.044C117.211 144.044 117.995 144.794 117.995 145.681C117.995 146.602 117.211 147.318 116.29 147.318C115.334 147.318 114.584 146.602 114.584 145.681C114.584 144.794 115.334 144.044 116.29 144.044Z" fill="#333333"/>
<path d="M116.29 143.771C117.177 143.771 117.927 144.487 117.927 145.408C117.927 146.295 117.177 147.045 116.29 147.045C115.369 147.045 114.652 146.295 114.652 145.408C114.652 144.487 115.369 143.771 116.29 143.771Z" fill="#CCCCCC"/>
<path d="M116.289 144.146C116.972 144.146 117.517 144.726 117.517 145.408C117.517 146.09 116.972 146.636 116.289 146.636C115.607 146.636 115.027 146.09 115.027 145.408C115.027 144.726 115.607 144.146 116.289 144.146Z" fill="#E6E6E6"/>
<path d="M175.849 136.812H127.342V132.855H175.849V136.812Z" fill="#A2C30D"/>
<path d="M152.107 129.649C152.482 129.785 152.926 129.546 153.028 129.137L155.279 121.667C155.382 121.257 155.143 120.814 154.733 120.711C154.358 120.575 153.915 120.814 153.812 121.223L151.595 128.694C151.459 129.103 151.698 129.546 152.107 129.649Z" fill="#0D0D0D"/>
<path d="M139.895 126.067C140.27 125.009 140.987 124.054 141.976 123.611C142.42 123.372 142.931 123.27 143.443 123.235C145.455 123.065 147.57 124.156 148.423 125.999C148.764 126.783 148.901 127.636 149.003 128.489C149.094 129.421 149.162 130.342 149.208 131.252C148.389 130.911 147.502 131.047 146.615 131.081C144.773 131.149 142.999 130.638 141.294 130.024C140.884 129.865 140.464 129.694 140.032 129.512C139.52 129.307 139.452 129.307 139.486 128.727C139.486 127.806 139.588 126.92 139.895 126.067Z" fill="#7672F2"/>
<path d="M154.358 125.521L152.413 125.999L151.356 127.738L150.571 126.238L152.379 124.293L154.835 123.338C154.972 123.27 155.142 123.406 155.074 123.577L154.494 125.385C154.46 125.453 154.426 125.521 154.358 125.521Z" fill="#F2B18B"/>
<path d="M144.091 120.916L144.296 120.2L146.274 121.905L146.138 122.86C145.705 122.724 145.307 122.542 144.944 122.315C144.466 121.939 144.193 121.428 144.091 120.916Z" fill="#F2947A"/>
<path d="M143.136 123.849L144.091 120.916C144.193 121.427 144.466 121.939 144.944 122.314C145.308 122.542 145.705 122.724 146.138 122.86L145.865 125.009L143.136 123.849Z" fill="#F2B18B"/>
<path d="M146.751 125.282C146.546 125.725 145.455 125.691 144.329 125.179C143.203 124.702 142.453 123.917 142.658 123.474C142.828 123.03 143.92 123.064 145.045 123.542C146.171 124.054 146.956 124.838 146.751 125.282Z" fill="#F2B18B"/>
<path d="M148.082 122.042C148.457 121.905 148.764 121.7 148.901 121.496C149.412 119.586 146.752 115.833 146.752 115.833L144.807 115.697L143.102 117.812L143.954 120.643C144.193 121.428 144.807 122.007 145.592 122.246C146.41 122.383 147.263 122.314 148.082 122.042Z" fill="#F2B18B"/>
<path d="M149.377 117.437C149.104 117.846 148.661 118.085 148.183 118.255C147.603 118.494 146.955 118.596 146.307 118.631C146 118.631 145.591 118.562 145.523 118.255C145.454 117.982 145.693 117.778 145.898 117.607C146.33 117.243 146.785 116.914 147.262 116.618C147.706 116.379 148.661 115.799 149.173 116.004C149.718 116.243 149.65 117.027 149.377 117.437Z" fill="#151852"/>
<path d="M142.623 120.37C142.794 120.609 143.101 120.745 143.374 120.643C143.101 120.745 142.999 121.052 143.033 121.325C143.067 121.666 143.306 121.973 143.613 122.042C143.954 122.144 144.329 121.939 144.534 121.632C144.704 121.325 144.738 120.95 144.738 120.575C144.704 119.859 144.363 118.494 143.374 118.562C142.589 118.631 142.248 119.79 142.623 120.37Z" fill="#151852"/>
<path d="M142.658 120.097C142.556 120.029 142.147 120.029 143.238 119.074C144.91 117.573 146.41 116.448 148.491 115.629C149.105 115.39 150.06 115.322 149.242 116.175C148.423 116.993 147.4 117.676 146.376 118.255C145.217 118.938 143.954 119.688 142.658 120.097Z" fill="#EF4D41"/>
<path d="M142.385 120.029C142.385 120.029 140.987 118.085 141.669 116.789C142.351 115.458 143.375 114.708 144.023 114.64C144.671 114.537 145.592 114.537 146.649 115.424C147.741 116.311 147.843 116.311 147.843 116.311C147.843 116.311 145.831 118.085 144.773 118.767C143.75 119.45 142.385 120.029 142.385 120.029Z" fill="#EF4D41"/>
<path d="M150.811 125.794L152.243 126.885C152.243 126.885 150.435 131.354 148.457 132.923C146.444 134.458 145.387 134.424 145.387 134.424C145.387 134.424 144.261 134.219 144.432 132.821C144.739 130.194 150.811 125.794 150.811 125.794Z" fill="#7672F2"/>
<path d="M143.989 119.859C144.193 119.62 144.637 119.62 144.978 119.825C145.319 120.063 145.421 120.439 145.217 120.643C145.012 120.882 144.569 120.916 144.228 120.677C143.886 120.473 143.784 120.097 143.989 119.859Z" fill="#F2B18B"/>
<path d="M148.73 118.801C148.73 118.801 149.173 119.483 149.276 121.052C149.344 122.314 148.798 122.246 148.491 122.485C147.98 122.86 146.717 123.031 145.967 122.587C145.251 122.144 145.08 120.131 145.08 120.131C145.08 120.131 146.99 119.824 147.604 119.585C148.389 119.278 148.73 118.801 148.73 118.801Z" fill="#E1E5FA"/>
<path d="M175.336 128.455H132.833C131.605 128.455 130.65 127.5 130.65 126.272V115.765C130.65 114.537 131.605 113.548 132.833 113.548H156.916L150.776 108.602C148.797 106.999 146.307 106.112 143.783 106.112H127.409V133.128H181.101L175.336 128.455Z" fill="#FF7656"/>
<path d="M127.342 133.128V137.46H127.41V133.128H127.342Z" fill="url(#paint5_linear_335_6893)"/>
<path d="M183.591 135.175L181.101 133.128H127.409V137.46H185.74C185.126 136.608 184.41 135.823 183.591 135.175Z" fill="#6DB125"/>
<path d="M183.591 135.175L181.101 133.128H127.409V137.46H185.74C185.126 136.608 184.41 135.823 183.591 135.175Z" fill="#FF5A33"/>
<path d="M140.884 130.638H138.292V113.138H140.884V130.638Z" fill="#FF7656"/>
<path d="M167.184 131.559L146.444 112.763L148.832 110.136L169.538 128.932L167.184 131.559Z" fill="#FF7656"/>
<path d="M185.74 137.46H127.409V154.38H183.08C185.638 154.38 187.719 152.299 187.719 149.741V143.805C187.719 141.52 187.002 139.302 185.74 137.46Z" fill="#FF7656"/>
<path d="M154.017 140.462C146.342 140.462 140.065 146.67 140.031 154.38H145.864C145.898 149.877 149.548 146.261 154.017 146.261C158.52 146.261 162.17 149.877 162.204 154.38H168.037C168.003 146.67 161.726 140.462 154.017 140.462Z" fill="#0D0D0D"/>
<path fill-rule="evenodd" clip-rule="evenodd" d="M154.018 144.078C159.748 144.078 164.387 148.717 164.387 154.448C164.387 160.145 159.748 164.784 154.018 164.784C148.321 164.784 143.682 160.145 143.682 154.448C143.682 148.717 148.321 144.078 154.018 144.078ZM154.018 160.486C157.36 160.486 160.089 157.791 160.089 154.448C160.089 151.105 157.36 148.376 154.018 148.376C150.675 148.376 147.98 151.105 147.98 154.448C147.98 157.791 150.675 160.486 154.018 160.486Z" fill="#333333"/>
<path d="M154.017 148.376C157.36 148.376 160.089 151.105 160.089 154.448C160.089 157.791 157.36 160.486 154.017 160.486C150.674 160.486 147.979 157.791 147.979 154.448C147.979 151.105 150.674 148.376 154.017 148.376Z" fill="#969696"/>
<path d="M156.131 148.751C155.858 149.365 155.04 149.809 154.016 149.809C153.027 149.809 152.208 149.365 151.936 148.751C152.584 148.512 153.3 148.376 154.016 148.376C154.767 148.376 155.449 148.512 156.131 148.751Z" fill="#333333"/>
<path d="M159.987 153.39C159.339 153.492 158.554 152.981 158.043 152.128C157.531 151.275 157.497 150.32 157.906 149.808C158.998 150.695 159.748 151.957 159.987 153.39Z" fill="#333333"/>
<path d="M159.987 155.471C159.748 156.904 158.998 158.2 157.906 159.087C157.497 158.575 157.531 157.62 158.043 156.768C158.554 155.881 159.339 155.403 159.987 155.471Z" fill="#333333"/>
<path d="M154.016 159.087C155.04 159.087 155.858 159.531 156.097 160.111C155.449 160.349 154.767 160.486 154.016 160.486C153.3 160.486 152.584 160.349 151.936 160.111C152.208 159.531 153.027 159.087 154.016 159.087Z" fill="#333333"/>
<path d="M150.025 156.768C150.537 157.62 150.537 158.575 150.162 159.087C149.07 158.2 148.32 156.904 148.081 155.471C148.729 155.403 149.514 155.881 150.025 156.768Z" fill="#333333"/>
<path d="M150.162 149.808C150.537 150.32 150.537 151.275 150.025 152.128C149.514 152.981 148.729 153.492 148.081 153.39C148.32 151.957 149.07 150.695 150.162 149.808Z" fill="#333333"/>
<path fill-rule="evenodd" clip-rule="evenodd" d="M154.017 152.025C155.347 152.025 156.439 153.117 156.439 154.447C156.439 155.778 155.347 156.835 154.017 156.835C152.686 156.835 151.629 155.778 151.629 154.447C151.629 153.117 152.686 152.025 154.017 152.025ZM154.017 155.948C154.87 155.948 155.552 155.266 155.552 154.447C155.552 153.595 154.87 152.912 154.017 152.912C153.198 152.912 152.516 153.595 152.516 154.447C152.516 155.266 153.198 155.948 154.017 155.948Z" fill="#333333"/>
<path fill-rule="evenodd" clip-rule="evenodd" d="M154.017 147.659C157.769 147.659 160.805 150.695 160.805 154.448C160.805 158.2 157.769 161.236 154.017 161.236C150.299 161.236 147.229 158.2 147.229 154.448C147.229 150.695 150.299 147.659 154.017 147.659ZM154.017 160.485C157.36 160.485 160.089 157.791 160.089 154.448C160.089 151.105 157.36 148.376 154.017 148.376C150.674 148.376 147.979 151.105 147.979 154.448C147.979 157.791 150.674 160.485 154.017 160.485Z" fill="white"/>
<path d="M83.0991 140.462C75.3898 140.462 69.1474 146.67 69.1133 154.38H74.9123C74.9464 149.877 78.5963 146.261 83.0991 146.261C87.6018 146.261 91.2518 149.877 91.2859 154.38H97.0849C97.0508 146.67 90.8083 140.462 83.0991 140.462Z" fill="#0D0D0D"/>
<path fill-rule="evenodd" clip-rule="evenodd" d="M83.0985 144.078C88.8293 144.078 93.4685 148.717 93.4685 154.448C93.4685 160.145 88.8293 164.784 83.0985 164.784C77.4019 164.784 72.7627 160.145 72.7627 154.448C72.7627 148.717 77.4019 144.078 83.0985 144.078ZM83.0985 160.486C86.4415 160.486 89.1704 157.791 89.1704 154.448C89.1704 151.105 86.4415 148.376 83.0985 148.376C79.7556 148.376 77.0608 151.105 77.0608 154.448C77.0608 157.791 79.7556 160.486 83.0985 160.486Z" fill="#333333"/>
<path d="M83.0983 148.376C86.4413 148.376 89.1702 151.105 89.1702 154.448C89.1702 157.791 86.4413 160.486 83.0983 160.486C79.7554 160.486 77.0605 157.791 77.0605 154.448C77.0605 151.105 79.7554 148.376 83.0983 148.376Z" fill="#969696"/>
<path d="M85.1792 148.751C84.9404 149.365 84.0876 149.809 83.0984 149.809C82.1092 149.809 81.2564 149.365 81.0176 148.751C81.6657 148.512 82.3821 148.376 83.0984 148.376C83.8489 148.376 84.5311 148.512 85.1792 148.751Z" fill="#333333"/>
<path d="M89.068 153.39C88.4198 153.492 87.6012 152.981 87.1236 152.128C86.6119 151.275 86.5778 150.32 86.9872 149.808C88.0446 150.695 88.8292 151.957 89.068 153.39Z" fill="#333333"/>
<path d="M89.068 155.471C88.8292 156.904 88.0446 158.2 86.9872 159.087C86.5778 158.575 86.6119 157.62 87.1236 156.768C87.6012 155.881 88.4198 155.403 89.068 155.471Z" fill="#333333"/>
<path d="M83.0984 159.087C84.0876 159.087 84.9404 159.531 85.1792 160.111C84.5311 160.349 83.8489 160.486 83.0984 160.486C82.3821 160.486 81.6657 160.349 81.0176 160.111C81.2564 159.531 82.1092 159.087 83.0984 159.087Z" fill="#333333"/>
<path d="M79.1084 156.768C79.5859 157.62 79.62 158.575 79.2107 159.087C78.1532 158.2 77.4028 156.904 77.1299 155.471C77.778 155.403 78.5967 155.881 79.1084 156.768Z" fill="#333333"/>
<path d="M79.2107 149.808C79.62 150.32 79.5859 151.275 79.1084 152.128C78.5967 152.981 77.778 153.492 77.1299 153.39C77.4028 151.957 78.1532 150.695 79.2107 149.808Z" fill="#333333"/>
<path fill-rule="evenodd" clip-rule="evenodd" d="M83.0987 152.025C84.4291 152.025 85.5206 153.117 85.5206 154.447C85.5206 155.778 84.4291 156.835 83.0987 156.835C81.7683 156.835 80.6768 155.778 80.6768 154.447C80.6768 153.117 81.7683 152.025 83.0987 152.025ZM83.0987 155.948C83.9515 155.948 84.6337 155.266 84.6337 154.447C84.6337 153.595 83.9515 152.912 83.0987 152.912C82.2459 152.912 81.5637 153.595 81.5637 154.447C81.5637 155.266 82.2459 155.948 83.0987 155.948Z" fill="#333333"/>
<path fill-rule="evenodd" clip-rule="evenodd" d="M83.0988 147.659C86.8511 147.659 89.887 150.695 89.887 154.448C89.887 158.2 86.8511 161.236 83.0988 161.236C79.3465 161.236 76.3105 158.2 76.3105 154.448C76.3105 150.695 79.3465 147.659 83.0988 147.659ZM83.0988 160.485C86.4417 160.485 89.1707 157.791 89.1707 154.448C89.1707 151.105 86.4417 148.376 83.0988 148.376C79.7558 148.376 77.061 151.105 77.061 154.448C77.061 157.791 79.7558 160.485 83.0988 160.485Z" fill="white"/>
<path d="M186.253 148.376C186.253 149.161 186.867 149.775 187.652 149.843V146.943C186.867 146.977 186.253 147.591 186.253 148.376Z" fill="#FF8CA7"/>
<path d="M187.651 143.02H184.445C183.182 143.02 182.125 144.078 182.125 145.374V148.478C182.125 149.774 183.182 150.798 184.445 150.798H187.651V143.02Z" fill="#FF2E5F"/>
<path d="M187.652 146.636H183.934C183.661 146.636 183.422 146.431 183.422 146.124V144.487C183.422 144.18 183.661 143.975 183.934 143.975H187.652V146.636Z" fill="#FF577D"/>
<path d="M187.651 144.965H184.07C183.899 144.965 183.763 144.828 183.763 144.658C183.763 144.487 183.899 144.317 184.07 144.317H187.651V144.965Z" fill="#FFB0C3"/>
<path d="M187.651 146.261H184.07C183.899 146.261 183.763 146.125 183.763 145.954C183.763 145.784 183.899 145.613 184.07 145.613H187.651V146.261Z" fill="#FFB0C3"/>
<path d="M187.652 149.877H183.934C183.661 149.877 183.422 149.638 183.422 149.365V147.728C183.422 147.421 183.661 147.216 183.934 147.216H187.652V149.877Z" fill="#FF577D"/>
<path d="M187.651 148.205H184.07C183.899 148.205 183.763 148.069 183.763 147.898C183.763 147.728 183.899 147.557 184.07 147.557H187.651V148.205Z" fill="#FFB0C3"/>
<path d="M187.651 149.501H184.07C183.899 149.501 183.763 149.365 183.763 149.194C183.763 149.024 183.899 148.853 184.07 148.853H187.651V149.501Z" fill="#FFB0C3"/>
<path opacity="0.4" d="M185.127 146.67C185.877 147.352 186.73 147.932 187.651 148.41V143.02H184.445C183.763 143.02 183.114 143.361 182.705 143.839C183.353 144.896 184.172 145.852 185.127 146.67Z" fill="white"/>
<path d="M58.0267 104.133H57.174V109.761H58.0267C58.9819 109.761 59.721 109.522 60.244 109.045C60.7671 108.567 61.0286 107.862 61.0286 106.93C61.0286 106.02 60.7671 105.327 60.244 104.849C59.7437 104.371 59.0046 104.133 58.0267 104.133ZM54.7861 111.569V102.325H57.2763C58.6862 102.325 59.7323 102.427 60.4146 102.632C61.1195 102.836 61.7108 103.177 62.1884 103.655C62.6205 104.064 62.9388 104.542 63.1435 105.088C63.3709 105.634 63.4846 106.248 63.4846 106.93C63.4846 107.635 63.3709 108.26 63.1435 108.806C62.9388 109.352 62.6205 109.829 62.1884 110.239C61.6881 110.716 61.0968 111.057 60.4146 111.262C59.7096 111.467 58.6635 111.569 57.2763 111.569H54.7861ZM65.3267 111.569V102.325H71.7397V104.133H67.7145V105.838H71.5009V107.646H67.7145V109.761H71.8761V111.569H65.3267ZM73.991 111.569V102.325H76.3789V109.761H80.5746V111.569H73.991ZM82.0755 111.569V102.325H84.4292V111.569H82.0755ZM89.1367 111.569L85.6914 102.325H88.1133L90.5352 109.147L92.9913 102.325H95.3791L91.9679 111.569H89.1367ZM96.6412 111.569V102.325H103.054V104.133H98.995V105.838H102.815V107.646H98.995V109.761H103.191V111.569H96.6412ZM107.693 106.418H108.683C109.183 106.418 109.547 106.327 109.774 106.145C109.979 105.963 110.081 105.656 110.081 105.224C110.081 104.815 109.979 104.519 109.774 104.337C109.547 104.155 109.183 104.064 108.683 104.064H107.693V106.418ZM108.376 108.055H107.693V111.569H105.306V102.325H108.956C110.161 102.325 111.048 102.529 111.616 102.939C112.185 103.348 112.469 103.985 112.469 104.849C112.469 105.463 112.321 105.963 112.026 106.35C111.73 106.759 111.287 107.055 110.695 107.237C111.014 107.305 111.309 107.476 111.582 107.748C111.832 107.999 112.094 108.397 112.367 108.942L113.663 111.569H111.105L109.979 109.249C109.752 108.795 109.524 108.476 109.297 108.294C109.069 108.135 108.762 108.055 108.376 108.055ZM116.597 107.646L113.083 102.325H115.676L117.791 105.599L119.905 102.325H122.498L118.984 107.646V111.569H116.597V107.646Z" fill="#FF5A33"/>
<path d="M162.545 129.102H161.317C160.464 129.102 159.782 128.42 159.782 127.567V121.905C159.782 121.052 160.464 120.37 161.317 120.37H162.545C164.046 120.37 165.274 121.598 165.274 123.099V126.374C165.274 127.874 164.046 129.102 162.545 129.102Z" fill="#FF896E"/>
<path d="M166.195 81.4822C166.093 81.4822 165.99 81.5163 165.922 81.6186C165.695 81.6186 165.467 81.6186 165.24 81.6186C165.263 81.3457 165.24 81.0842 165.172 80.8341C165.103 80.6067 165.012 80.3906 164.899 80.1859C165.24 79.8676 165.581 79.5378 165.922 79.1967C165.945 79.1967 165.979 79.1967 166.024 79.1967C166.263 79.1967 166.434 78.992 166.434 78.7532C166.434 78.5145 166.229 78.3439 165.99 78.3439C165.751 78.3439 165.581 78.5486 165.581 78.7874C165.581 78.8101 165.592 78.8442 165.615 78.8897C165.297 79.2081 164.967 79.5264 164.626 79.8448C164.387 79.5719 164.114 79.3673 163.773 79.2308C163.796 79.0489 163.83 78.8669 163.875 78.685C164.012 78.6168 164.114 78.4462 164.114 78.2757C164.114 78.0369 163.909 77.8663 163.671 77.8663C163.466 77.9005 163.261 78.071 163.295 78.3098C163.295 78.4462 163.33 78.5486 163.432 78.6168C163.409 78.776 163.386 78.9352 163.364 79.0944C162.784 78.9579 162.204 79.0602 161.726 79.3331L160.908 78.1392C160.93 78.0937 160.942 78.0369 160.942 77.9687C160.942 77.7299 160.737 77.5593 160.498 77.5593C160.26 77.5593 160.089 77.764 160.089 78.0028C160.123 78.2416 160.294 78.4121 160.532 78.4121L161.351 79.5719C160.976 79.8789 160.669 80.2883 160.498 80.7658L159.475 80.6294C159.407 80.4588 159.236 80.3565 159.066 80.3565C158.827 80.3906 158.656 80.5612 158.656 80.7999C158.69 81.0387 158.861 81.2093 159.1 81.2093C159.236 81.2093 159.338 81.1411 159.407 81.0387L160.43 81.1752C160.385 81.4253 160.396 81.6755 160.464 81.9256C160.567 82.2667 160.737 82.6079 160.976 82.8808C160.657 83.1537 160.35 83.4265 160.055 83.6994C159.987 83.6767 159.918 83.6653 159.85 83.6653C159.611 83.6653 159.441 83.87 159.441 84.1088C159.441 84.3476 159.645 84.5181 159.884 84.5181C160.123 84.484 160.294 84.2794 160.294 84.0747C160.294 84.0747 160.294 84.0633 160.294 84.0406C160.635 83.7449 160.976 83.4493 161.317 83.1537C161.499 83.2901 161.692 83.3924 161.897 83.4607C162.306 83.6312 162.716 83.6653 163.159 83.5971C163.318 83.9382 163.477 84.268 163.637 84.5864C163.637 84.6318 163.637 84.6773 163.637 84.7228C163.637 84.9616 163.841 85.1321 164.08 85.1321C164.319 85.098 164.489 84.9275 164.489 84.6887C164.455 84.4499 164.285 84.2793 164.046 84.2793C164.023 84.2793 164 84.2793 163.978 84.2793C163.841 84.0292 163.705 83.7677 163.568 83.4948C163.728 83.4493 163.875 83.3924 164.012 83.3242C164.523 83.0513 164.933 82.6079 165.137 82.0621C165.365 82.0621 165.592 82.0621 165.82 82.0621C165.888 82.1985 166.059 82.335 166.229 82.3009C166.468 82.3009 166.673 82.0962 166.638 81.8574C166.638 81.6527 166.434 81.4481 166.195 81.4822Z" fill="#9EA6FA"/>
<path d="M161.351 82.7105C161.795 83.188 162.477 83.3927 163.125 83.2562C163.262 83.2221 163.432 83.1539 163.466 83.0174C163.466 82.9151 163.398 82.7787 163.33 82.7105C163.228 82.6422 163.125 82.6081 163.023 82.574C162.818 82.4717 162.648 82.3011 162.511 82.1305C162.375 81.8577 162.307 81.5507 162.238 81.2778C162.068 80.7661 161.283 80.0497 160.908 80.8002C160.601 81.3801 160.976 82.3011 161.351 82.7105Z" fill="#8F98FA"/>
<path d="M164.387 80.9028C164.421 80.8687 164.455 80.8005 164.489 80.7323C164.66 80.1524 163.841 79.1631 163.261 79.7772C162.92 80.1865 164.114 81.1075 164.387 80.9028Z" fill="#AAB2FA"/>
<path d="M38.0035 149.501C37.8671 149.501 37.7648 149.569 37.6965 149.638C37.4691 149.66 37.2417 149.66 37.0143 149.638C37.037 149.388 37.0143 149.126 36.9461 148.853C36.9006 148.626 36.8096 148.41 36.6732 148.205C37.037 147.887 37.3782 147.557 37.6965 147.216C37.742 147.216 37.7875 147.216 37.833 147.216C38.0718 147.216 38.2423 147.011 38.2423 146.772C38.2082 146.568 38.0035 146.363 37.7989 146.397C37.5601 146.397 37.3895 146.602 37.3895 146.841C37.3895 146.863 37.3895 146.886 37.3895 146.909C37.0712 147.25 36.7414 147.568 36.4003 147.864C36.1956 147.625 35.8886 147.386 35.5816 147.25C35.6044 147.068 35.6271 146.897 35.6498 146.738C35.8204 146.67 35.9227 146.499 35.9227 146.329C35.9227 146.09 35.7181 145.885 35.4793 145.919C35.2405 145.919 35.0699 146.124 35.0699 146.363C35.0699 146.465 35.1382 146.602 35.2405 146.67C35.195 146.806 35.1609 146.954 35.1382 147.113C34.5924 147.011 34.0125 147.113 33.5008 147.386L32.6821 146.192C32.7276 146.124 32.7503 146.056 32.7503 145.988C32.7162 145.749 32.5116 145.578 32.3069 145.578C32.0681 145.612 31.8634 145.817 31.8975 146.022C31.8975 146.261 32.1022 146.431 32.341 146.431L33.1597 147.625C32.7503 147.898 32.4433 148.307 32.3069 148.785L31.2494 148.648C31.1812 148.512 31.0447 148.41 30.8742 148.41C30.6354 148.41 30.4648 148.614 30.4648 148.853C30.4648 149.092 30.6695 149.262 30.9083 149.262C31.0447 149.228 31.1471 149.194 31.2153 149.092L32.2045 149.228C32.1818 149.456 32.2045 149.695 32.2728 149.945C32.341 150.32 32.5457 150.627 32.7844 150.9C32.4661 151.173 32.1477 151.446 31.8293 151.718C31.7838 151.696 31.727 151.684 31.6588 151.684C31.42 151.718 31.2153 151.889 31.2494 152.128C31.2494 152.367 31.4541 152.537 31.6929 152.537C31.8975 152.537 32.1022 152.332 32.0681 152.094C32.4092 151.798 32.7503 151.502 33.0914 151.207C33.2734 151.343 33.4667 151.446 33.6714 151.514C34.0807 151.65 34.5241 151.684 34.9335 151.616C35.0927 151.957 35.2632 152.287 35.4452 152.605C35.4224 152.651 35.4224 152.696 35.4452 152.742C35.4452 152.981 35.6498 153.151 35.8545 153.151C36.0933 153.151 36.298 152.946 36.2638 152.708C36.2638 152.469 36.0592 152.298 35.8204 152.298C35.7976 152.298 35.7863 152.31 35.7863 152.332C35.6271 152.06 35.4906 151.787 35.3769 151.514C35.5361 151.468 35.6839 151.411 35.8204 151.343C36.298 151.07 36.7414 150.627 36.912 150.081C37.1621 150.081 37.4009 150.081 37.6283 150.081C37.6965 150.252 37.8671 150.354 38.0377 150.354C38.2764 150.32 38.447 150.149 38.447 149.911C38.447 149.672 38.2423 149.501 38.0035 149.501Z" fill="#9EA6FA"/>
<path d="M33.1595 150.763C33.6029 151.207 34.2851 151.446 34.8992 151.309C35.0697 151.275 35.2062 151.207 35.2403 151.036C35.2744 150.934 35.2062 150.832 35.1038 150.763C35.0015 150.695 34.8992 150.661 34.7968 150.593C34.5921 150.491 34.4216 150.354 34.3193 150.149C34.1487 149.911 34.1146 149.604 34.0123 149.331C33.8417 148.819 33.0912 148.103 32.716 148.853C32.409 149.399 32.7501 150.32 33.1595 150.763Z" fill="#8F98FA"/>
<path d="M36.1613 148.955C36.2296 148.921 36.2637 148.853 36.2637 148.785C36.4342 148.171 35.6156 147.182 35.0698 147.83C34.6945 148.205 35.9226 149.16 36.1613 148.955Z" fill="#AAB2FA"/>
<path d="M96.3691 63.267C96.1303 63.2329 95.8915 63.3011 95.7209 63.4376C95.2661 63.3693 94.8113 63.3011 94.3565 63.2329C94.527 62.7212 94.5611 62.1754 94.527 61.6296C94.4815 61.152 94.3678 60.6972 94.1859 60.2651C95.0046 59.7421 95.8005 59.1963 96.5737 58.6278C96.642 58.6733 96.7102 58.696 96.7784 58.696C97.256 58.7642 97.6653 58.4231 97.7335 57.9797C97.8018 57.5021 97.4606 57.0928 97.0172 57.0245C96.5396 56.9563 96.1303 57.2974 96.0621 57.7409C96.0621 57.8091 96.0621 57.8773 96.0621 57.9455C95.3116 58.4913 94.5498 59.003 93.7766 59.4806C93.4013 58.9007 92.9238 58.389 92.3098 57.9797C92.4235 57.6386 92.5485 57.2974 92.685 56.9563C93.0261 56.8881 93.2649 56.6152 93.3331 56.24C93.4013 55.7965 93.0602 55.3531 92.5827 55.2848C92.1392 55.2507 91.6958 55.5577 91.6616 56.0353C91.6275 56.2741 91.6958 56.5129 91.8663 56.7175C91.7526 56.9904 91.6389 57.2747 91.5252 57.5703C90.4677 57.161 89.2738 57.161 88.2164 57.5362L86.9883 54.9096C87.0793 54.7959 87.1248 54.6708 87.1248 54.5344C87.193 54.0568 86.886 53.6475 86.4084 53.5792C85.9309 53.511 85.5215 53.8521 85.4533 54.3297C85.3851 54.7732 85.7262 55.2166 86.2038 55.2507L87.4318 57.8773C86.5449 58.3208 85.7944 59.0371 85.3169 59.8899L83.3384 59.2759C83.236 58.9689 82.9631 58.696 82.622 58.6619C82.1445 58.5937 81.7351 58.9348 81.6669 59.3782C81.5987 59.8558 81.9398 60.2651 82.4174 60.3334C82.6561 60.3675 82.8949 60.2993 83.0996 60.1287L85.0099 60.7086C84.8734 61.1862 84.8052 61.6637 84.8393 62.1754C84.9075 62.9259 85.1804 63.6422 85.5556 64.2562C84.8279 64.6883 84.1116 65.1204 83.4066 65.5525C83.2929 65.4842 83.1678 65.4388 83.0314 65.416C82.5879 65.3819 82.1445 65.6889 82.1104 66.1665C82.0421 66.6099 82.3491 67.0534 82.8267 67.1216C83.3043 67.1557 83.7136 66.8487 83.7818 66.3712C84.555 65.8708 85.3282 65.3933 86.1014 64.9385C86.4198 65.2568 86.7609 65.5297 87.1248 65.7571C87.8752 66.2006 88.728 66.4053 89.5808 66.4394C89.7855 67.1444 90.0129 67.8493 90.2631 68.5543C90.2176 68.6225 90.1835 68.7135 90.1607 68.8272C90.0925 69.2707 90.4336 69.7141 90.9112 69.7482C91.3546 69.8164 91.7981 69.4753 91.8663 69.0319C91.9004 68.5543 91.5934 68.145 91.1159 68.0767C91.0704 68.0767 91.0363 68.0767 91.0135 68.0767C90.8089 67.5082 90.6269 66.9397 90.4677 66.3712C90.7861 66.3257 91.0931 66.2575 91.3887 66.1665C92.4803 65.7913 93.4696 65.0749 94.0154 64.0516C94.4929 64.1425 94.9591 64.2221 95.4139 64.2903C95.5163 64.6315 95.7892 64.9043 96.1303 64.9385C96.6078 65.0067 97.0513 64.6656 97.0854 64.2221C97.1536 63.7446 96.8125 63.3352 96.3691 63.267Z" fill="#9EA6FA"/>
<path d="M86.3394 64.0855C87.0558 65.1429 88.352 65.8252 89.6142 65.757C89.9212 65.757 90.2964 65.6546 90.3987 65.3817C90.4669 65.177 90.3646 64.9383 90.2282 64.7677C90.0576 64.5971 89.8529 64.4948 89.6824 64.3584C89.3071 64.0855 89.0001 63.7102 88.8637 63.3009C88.6249 62.721 88.6249 62.1411 88.5567 61.5271C88.4202 60.4696 87.124 58.7982 86.1006 60.1285C85.3502 61.1519 85.6913 63.1303 86.3394 64.0855Z" fill="#8F98FA"/>
<path d="M92.9237 61.5615C93.0601 61.4933 93.1284 61.3569 93.1966 61.2204C93.7424 60.1288 92.4461 57.8775 91.1499 58.9349C90.2971 59.5831 92.3779 61.8344 92.9237 61.5615Z" fill="#AAB2FA"/>
<defs>
<linearGradient id="paint0_linear_335_6893" x1="3401.04" y1="56203.8" x2="16959.6" y2="61939.1" gradientUnits="userSpaceOnUse">
<stop offset="0.19" stop-color="#4D47BD"/>
<stop offset="0.86" stop-color="#252259"/>
<stop offset="1"/>
</linearGradient>
<linearGradient id="paint1_linear_335_6893" x1="-71183.7" y1="29742.6" x2="-77757.7" y2="41193.6" gradientUnits="userSpaceOnUse">
<stop offset="0.19" stop-color="#4D47BD"/>
<stop offset="0.86" stop-color="#252259"/>
<stop offset="1"/>
</linearGradient>
<linearGradient id="paint2_linear_335_6893" x1="-48458.1" y1="54512.4" x2="-49274.2" y2="64163.5" gradientUnits="userSpaceOnUse">
<stop stop-color="#FFBA00"/>
<stop offset="1" stop-color="#FF9500"/>
</linearGradient>
<linearGradient id="paint3_linear_335_6893" x1="2364.46" y1="29256.6" x2="4270.87" y2="31696.5" gradientUnits="userSpaceOnUse">
<stop offset="0.09" stop-color="#5640D4"/>
<stop offset="1" stop-color="#332292"/>
</linearGradient>
<linearGradient id="paint4_linear_335_6893" x1="-144310" y1="35602.5" x2="-149662" y2="80162.9" gradientUnits="userSpaceOnUse">
<stop stop-color="#FFBA00"/>
<stop offset="1" stop-color="#FF9500"/>
</linearGradient>
<linearGradient id="paint5_linear_335_6893" x1="316.186" y1="-2188.54" x2="316.186" y2="-2189.4" gradientUnits="userSpaceOnUse">
<stop stop-color="#5B9823"/>
<stop offset="1" stop-color="#6DB125"/>
</linearGradient>
</defs>
</svg>
