<svg width="551" height="618" viewBox="0 0 551 618" fill="none" xmlns="http://www.w3.org/2000/svg">
<path d="M181.507 520.541H182.557C189.911 512.477 195.659 502.712 199.305 491.835C205.238 474.253 204.991 455.806 198.594 439.862C195.381 431.828 190.746 424.319 186.265 417.057C181.692 409.703 176.964 402.102 173.782 393.944C172.453 390.576 171.495 386.961 170.908 383.253C170.64 383.232 170.372 383.201 170.104 383.16C170.692 386.992 171.68 390.731 173.071 394.222C176.284 402.442 181.012 410.074 185.585 417.459C190.066 424.69 194.701 432.167 197.884 440.14C204.187 455.899 204.434 474.161 198.594 491.588C194.886 502.589 189.015 512.477 181.507 520.541Z" fill="white"/>
<path fill-rule="evenodd" clip-rule="evenodd" d="M207.123 139.514H151.379V114.639H207.123V139.514ZM152.553 138.339H205.948V115.751H152.553V138.339Z" fill="#9ACA3C"/>
<path fill-rule="evenodd" clip-rule="evenodd" d="M170.846 163.337H115.134V138.432H170.846V163.337ZM116.308 162.163H169.703V139.606H116.308V162.163Z" fill="#9ACA3C"/>
<path d="M524.188 189.85C520.573 177.86 514.207 166.829 505.122 156.756C496.038 146.703 483.626 138.391 467.888 131.819C452.17 125.227 432.188 121.931 407.942 121.931C388.599 121.931 368.895 124.548 348.83 129.78C328.714 135.002 311.287 142.449 296.517 152.121L315.767 204.96L305.447 213.303L320.402 217.69C335.173 209.965 348.624 204.362 360.758 200.881C372.871 197.399 385.756 195.659 399.414 195.659C413.051 195.659 423.371 198.944 430.375 205.516C437.39 212.098 440.881 220.039 440.881 229.309C440.881 240.556 437.297 250.506 430.097 259.22C422.887 267.934 414.925 276.74 406.212 285.64C400.155 291.82 394.284 298.185 388.599 304.767C382.913 311.348 377.876 318.424 373.55 325.964C369.183 333.504 365.681 341.63 363.044 350.344C360.356 359.058 359.058 368.822 359.058 379.637C359.058 383.16 359.12 387.301 359.336 392.152C359.378 393.038 359.419 393.903 359.46 394.747H345.339L360.758 405.192H435.783C435.412 402.874 435.227 400.155 435.227 397.065C435.227 393.975 435.227 391.658 435.227 390.112C435.227 383.52 436.545 377.031 439.182 370.645C441.839 364.28 445.177 358.193 449.132 352.353C453.118 346.574 457.567 341.043 462.511 335.821C467.435 330.589 472.173 325.655 476.725 321.02C482.782 314.84 489.024 308.269 495.451 301.306C501.909 294.322 507.595 286.999 512.508 279.243C517.452 271.487 521.5 263.083 524.744 253.967C527.958 244.882 529.595 234.933 529.595 224.087C529.595 213.272 527.772 201.839 524.188 189.85Z" fill="#E49B31"/>
<path d="M383.531 191.982C370.038 191.982 357.307 193.661 345.338 197.018C333.329 200.397 320.031 205.825 305.446 213.303L281.839 149.834C296.455 140.471 313.666 133.272 333.535 128.204C353.372 123.157 372.85 120.634 391.966 120.634C415.904 120.634 435.649 123.816 451.202 130.182C466.755 136.547 479.022 144.602 488.004 154.345C496.996 164.079 503.268 174.739 506.822 186.358C510.375 197.976 512.167 209.008 512.167 219.483C512.167 229.989 510.561 239.629 507.378 248.405C504.195 257.242 500.178 265.369 495.296 272.878C490.445 280.356 484.821 287.463 478.456 294.199C472.09 300.956 465.91 307.321 459.916 313.295C455.425 317.786 450.749 322.565 445.887 327.633C441.005 332.669 436.617 338.015 432.693 343.639C428.737 349.263 425.462 355.165 422.836 361.345C420.219 367.525 418.911 373.797 418.911 380.163C418.911 381.646 418.911 383.891 418.911 386.899C418.911 389.896 419.097 392.523 419.467 394.747H345.338C344.566 391.009 344.102 386.806 343.917 382.109C343.732 377.443 343.639 373.426 343.639 370.027C343.639 359.552 344.937 350.097 347.563 341.661C350.179 333.236 353.65 325.377 357.976 318.085C362.272 310.761 367.246 303.963 372.839 297.567C378.463 291.202 384.272 285.022 390.267 279.058C398.878 270.426 406.747 261.898 413.875 253.473C420.951 245.037 424.535 235.427 424.535 224.55C424.535 215.558 421.074 207.895 414.122 201.499C407.2 195.154 397.003 191.982 383.531 191.982Z" fill="#FBC343"/>
<path d="M440.912 478.023C440.912 491.557 436.535 502.001 427.78 509.356C419.035 516.741 409.116 520.418 398.085 520.418C387.023 520.418 377.104 516.741 368.359 509.356C359.614 502.001 355.227 491.557 355.227 478.023C355.227 464.52 359.614 454.076 368.359 446.69C381.831 435.319 401.793 432.785 417.552 440.758C431.58 447.865 440.912 462.233 440.912 478.023Z" fill="#E49B31"/>
<path d="M426.235 478.023C426.235 491.557 421.857 502.001 413.102 509.356C404.357 516.741 394.438 520.418 383.407 520.418C372.345 520.418 362.426 516.741 353.681 509.356C344.937 502.001 340.549 491.557 340.549 478.023C340.549 464.52 344.937 454.075 353.681 446.69C362.426 439.336 372.345 435.628 383.407 435.628C394.438 435.628 404.357 439.336 413.102 446.69C421.857 454.065 426.235 464.509 426.235 478.023Z" fill="#FBC343"/>
<path d="M202.859 280.201C205.362 283.878 204.435 288.915 200.758 291.418C197.05 293.952 192.044 293.025 189.51 289.317C186.976 285.64 187.934 280.603 191.611 278.1C195.288 275.566 200.325 276.524 202.859 280.201Z" fill="#9ACA3C"/>
<path d="M207.988 301.429C207.525 303.901 205.115 305.508 202.643 305.045C200.171 304.581 198.533 302.202 198.996 299.73C199.46 297.289 201.839 295.651 204.311 296.115C206.814 296.578 208.452 298.957 207.988 301.429Z" fill="#9ACA3C"/>
<path d="M207.524 249.95C204.279 267.223 187.655 278.594 170.382 275.35C153.109 272.105 141.738 255.481 144.982 238.208C148.196 220.935 164.82 209.564 182.093 212.808C199.366 216.053 210.738 232.677 207.524 249.95Z" fill="#9ACA3C"/>
<path d="M168.034 244.079C168.034 246.304 166.242 248.096 164.017 248.096C161.823 248.096 160 246.304 160 244.079C160 241.854 161.823 240.062 164.017 240.062C166.242 240.062 168.034 241.854 168.034 244.079Z" fill="white"/>
<path d="M180.239 244.079C180.239 246.304 178.447 248.096 176.253 248.096C174.029 248.096 172.236 246.304 172.236 244.079C172.236 241.854 174.029 240.062 176.253 240.062C178.447 240.062 180.239 241.854 180.239 244.079Z" fill="white"/>
<path d="M192.476 244.079C192.476 246.304 190.684 248.096 188.459 248.096C186.235 248.096 184.442 246.304 184.442 244.079C184.442 241.854 186.235 240.062 188.459 240.062C190.684 240.062 192.476 241.854 192.476 244.079Z" fill="white"/>
<path d="M153.449 504.473L156.416 515.937C157.188 518.935 160.093 520.943 163.275 520.727C173.04 520.078 193.279 517.668 204.898 509.108L201.591 492.608C185.616 491.681 170.66 492.577 157.744 496.934C154.5 498.015 152.615 501.291 153.449 504.473Z" fill="#102048"/>
<path d="M172.082 513.589C171.897 513.589 171.742 513.496 171.711 513.311L167.725 499.035C167.663 498.819 167.787 498.602 167.972 498.541C168.189 498.51 168.405 498.602 168.467 498.819L172.453 513.125C172.515 513.311 172.391 513.527 172.175 513.589C172.133 513.589 172.103 513.589 172.082 513.589Z" fill="white"/>
<path d="M180.703 511.673C180.518 511.673 180.363 511.55 180.332 511.395L176.346 497.088C176.284 496.903 176.408 496.687 176.593 496.625C176.81 496.563 177.026 496.687 177.088 496.903L181.074 511.179C181.136 511.395 181.012 511.611 180.796 511.642C180.775 511.663 180.744 511.673 180.703 511.673Z" fill="white"/>
<path d="M190.715 442.519L153.573 453.55L181.167 491.341L220.75 494.493L275.381 471.41L254.616 440.171L190.715 442.519Z" fill="#FBC343"/>
<path d="M236.508 447.772C318.084 423.639 331.186 495.729 203.909 508.861C199.428 503.794 194.175 495.018 192.074 487.664L259.282 456.609L236.508 447.772Z" fill="#FBC343"/>
<path d="M239.969 499.437C236.168 498.232 232.491 495.821 232.491 495.821L219.39 499.931L222.387 514.176L236.014 516.957C240.154 509.356 240.402 503.145 239.969 499.437Z" fill="#F9B384"/>
<path d="M192.383 488.189L191.796 487.169C205.824 479.012 241.73 459.452 272.321 453.674L272.538 454.817C242.132 460.565 206.35 480.062 192.383 488.189Z" fill="#E49B31"/>
<path d="M190.714 442.519C114.793 428.089 95.1407 501.074 222.387 514.176C226.898 509.139 230.421 503.145 232.491 495.821C212.962 482.72 191.085 470.298 167.138 458.463L190.714 442.519Z" fill="#FBC343"/>
<path d="M232.183 496.316C228.568 493.998 224.829 491.557 220.843 488.993C200.819 476.076 178.17 461.461 158.919 453.118L159.352 452.036C178.726 460.41 201.437 475.088 221.461 488.035C225.447 490.599 229.216 493.04 232.801 495.327L232.183 496.316Z" fill="#E49B31"/>
<path d="M135.002 478.703L134.014 478.147C136.856 472.986 141.43 469.526 147.579 467.795L147.888 468.938C141.955 470.576 137.753 473.759 135.002 478.703Z" fill="#E49B31"/>
<path d="M293.488 474.315C290.738 469.371 286.535 466.157 280.603 464.52L280.912 463.407C287.092 465.107 291.634 468.598 294.508 473.759L293.488 474.315Z" fill="#E49B31"/>
<path d="M215.281 513.558L214.446 512.755C220.503 506.235 224.242 499.375 225.848 491.773L226.992 491.99C225.323 499.838 221.522 506.884 215.281 513.558Z" fill="#E49B31"/>
<path d="M277.853 495.203C268.12 489.178 249.271 499.56 244.512 500.086C243.153 500.24 241.546 499.962 239.97 499.437C240.402 503.145 240.155 509.356 236.015 516.957L238.332 517.42C238.332 517.42 254.307 523.291 271.272 519.862C286.938 516.71 285.486 499.931 277.853 495.203Z" fill="#102048"/>
<path d="M264.597 514.856C264.555 514.856 264.514 514.845 264.473 514.825C264.257 514.763 264.164 514.547 264.226 514.361C265.369 510.684 265.864 503.485 262.526 498.664C262.403 498.479 262.434 498.232 262.619 498.139C262.804 498.015 263.052 498.046 263.175 498.232C266.667 503.299 266.142 510.777 264.937 514.578C264.906 514.763 264.751 514.856 264.597 514.856Z" fill="white"/>
<path d="M256.964 516.308C256.923 516.308 256.882 516.298 256.841 516.277C256.624 516.215 256.532 515.999 256.593 515.814C257.737 512.137 258.231 504.937 254.894 500.116C254.77 499.931 254.832 499.684 254.987 499.56C255.172 499.437 255.419 499.498 255.543 499.684C259.034 504.721 258.509 512.229 257.335 516.03C257.273 516.215 257.119 516.308 256.964 516.308Z" fill="white"/>
<path d="M177.273 348.459C177.273 348.459 196.4 332.206 195.689 329.116C195.195 326.891 189.787 330.136 189.787 330.136C189.787 330.136 197.358 321.113 196.987 320.031C196.307 318.085 191.054 321.731 191.054 321.731C191.054 321.731 194.608 316.601 192.908 315.767C191.209 314.933 187.501 318.085 187.501 318.085C187.501 318.085 189.664 315.242 188.644 314.5C187.624 313.759 183.237 316.818 183.237 316.818C183.237 316.818 184.812 313.233 181.475 314.593C178.138 315.952 154.716 337.459 154.716 337.459L177.273 348.459Z" fill="#F9B384"/>
<path d="M185.121 329.178C185.029 329.178 184.936 329.147 184.843 329.054C181.568 326.057 180.116 325.346 176.5 324.234C176.284 324.172 176.191 323.956 176.253 323.739C176.315 323.554 176.531 323.43 176.717 323.492C180.486 324.635 181.97 325.408 185.369 328.498C185.523 328.652 185.554 328.9 185.4 329.054C185.307 329.116 185.214 329.178 185.121 329.178Z" fill="#E28B6D"/>
<path d="M179.344 337.984C179.323 337.984 179.302 337.984 179.282 337.984C179.096 337.953 178.942 337.768 178.973 337.552C179.344 334.863 180.178 333.164 181.568 332.422C182.712 331.742 184.226 331.835 186.08 332.608C186.265 332.7 186.358 332.917 186.265 333.133C186.172 333.318 185.956 333.411 185.771 333.318C184.164 332.639 182.866 332.546 181.939 333.071C180.796 333.72 180.054 335.265 179.745 337.644C179.714 337.861 179.529 337.984 179.344 337.984Z" fill="#E28B6D"/>
<path d="M178.448 321.731C178.355 321.731 178.231 321.7 178.17 321.607C178.015 321.453 178.015 321.205 178.17 321.051L182.99 316.54C183.144 316.385 183.392 316.416 183.515 316.57C183.67 316.725 183.67 316.972 183.515 317.096L178.726 321.638C178.633 321.7 178.54 321.731 178.448 321.731Z" fill="#E28B6D"/>
<path d="M182.897 323.276C182.804 323.276 182.712 323.245 182.619 323.183C182.464 323.029 182.464 322.781 182.619 322.627L187.223 317.807C187.377 317.652 187.625 317.652 187.779 317.807C187.934 317.961 187.934 318.208 187.779 318.363L183.175 323.152C183.082 323.245 182.99 323.276 182.897 323.276Z" fill="#E28B6D"/>
<path d="M187.439 325.995C187.346 325.995 187.254 325.933 187.161 325.871C187.007 325.717 187.007 325.501 187.13 325.346L190.745 321.453C190.9 321.298 191.147 321.298 191.302 321.422C191.456 321.576 191.456 321.824 191.333 321.978L187.717 325.871C187.625 325.933 187.532 325.995 187.439 325.995Z" fill="#E28B6D"/>
<path d="M249.517 457.196L179.591 459.916L171.896 396.169C171.896 396.169 195.288 373.983 204.28 365.794L219.482 365.022C266.667 386.466 258.942 413.226 249.517 457.196Z" fill="#9ACA3C"/>
<path d="M219.482 365.022C219.482 365.022 273.434 369.626 290.46 406.613C307.115 442.797 238.702 455.651 238.702 455.651L219.482 365.022Z" fill="#9ACA3C"/>
<path d="M157.806 372.963L180.116 345.802L159.258 333.164C150.576 339.22 133.735 352.909 119.49 368.421C116.338 371.851 113.897 375.868 112.661 380.255C111.58 384.025 111.394 387.733 111.981 391.379C113.526 400.835 121.004 408.158 130.954 409.301C139.421 410.321 171.866 407.756 198.131 400.031L205.856 370.213C201.9 367.988 172.391 367.586 157.806 372.963Z" fill="#9ACA3C"/>
<g opacity="0.8">
<path d="M264.535 379.699C264.638 379.679 264.751 379.648 264.875 379.607C264.628 379.462 264.381 379.328 264.133 379.205C260.178 380.101 256.099 381.028 252.082 381.522C249.672 381.8 241.576 382.357 239.228 376.949C238.054 374.292 238.95 371.295 240.279 369.224C240.073 369.162 239.877 369.101 239.691 369.039C238.332 371.264 237.467 374.384 238.703 377.196C241.206 382.944 249.641 382.388 252.144 382.079C256.285 381.584 260.487 380.626 264.535 379.699Z" fill="white"/>
<path d="M289.688 421.383C287.123 420.395 284.466 419.375 281.654 419.622C276.741 420.086 272.538 424.937 272.291 430.468C272.106 434.207 273.558 438.131 276.277 441.592C276.442 441.489 276.607 441.386 276.772 441.283C274.114 437.915 272.693 434.114 272.878 430.468C273.125 425.246 277.081 420.642 281.716 420.209C284.373 419.962 286.876 420.92 289.503 421.94C290.43 422.279 291.387 422.65 292.345 422.959C292.407 422.774 292.459 422.588 292.5 422.403C291.542 422.094 290.615 421.754 289.688 421.383Z" fill="white"/>
<path d="M153.512 402.967C150.143 400.186 144.921 399.444 139.143 400.928C134.014 402.256 129.626 404.883 126.598 408.344C126.814 408.405 126.999 408.498 127.185 408.56C130.12 405.254 134.384 402.751 139.298 401.484C144.86 400.031 149.927 400.742 153.141 403.4C154.686 404.666 155.767 406.335 156.54 408.096C156.746 408.076 156.952 408.055 157.158 408.035C156.323 406.119 155.18 404.327 153.512 402.967Z" fill="white"/>
<path d="M123.044 364.651C129.378 363.075 135.528 360.881 141.213 357.606C143.345 356.37 145.786 354.794 147.486 352.476C149.309 350.004 149.896 347.069 149.093 344.628C148.784 343.67 148.227 342.836 147.517 342.156C147.373 342.279 147.228 342.403 147.084 342.527C147.733 343.145 148.258 343.917 148.536 344.813C149.278 347.069 148.722 349.819 147.022 352.136C145.385 354.361 143.005 355.906 140.935 357.111C135.558 360.201 129.78 362.333 123.816 363.878C123.569 364.126 123.312 364.383 123.044 364.651Z" fill="white"/>
</g>
<path d="M224.427 350.87V351.858L224.272 367.216L224.241 368.884C224.21 371.48 223.16 373.828 221.429 375.559C219.699 377.258 217.351 378.34 214.724 378.34C209.471 378.371 205.145 374.137 205.114 368.853L204.929 349.881L224.427 350.87Z" fill="#F9B384"/>
<path d="M224.426 351.858L224.272 367.216C215.712 363.724 212.221 354.485 212.221 354.485L224.426 351.858Z" fill="#102048"/>
<path d="M227.795 325.037C230.854 328.714 239.784 349.51 230.73 356.617C220.533 364.62 205.021 351.487 205.021 351.487L202.951 327.231L216.424 323.677L227.795 325.037Z" fill="#F9B384"/>
<path d="M196.091 323.708C196.091 323.708 166.211 339.282 190.56 384.18C193.712 389.958 200.633 392.461 206.566 389.649C212.901 386.621 215.311 378.865 211.881 372.747C207.895 365.671 204.032 356.555 205.67 349.757L196.091 323.708Z" fill="#102048"/>
<path d="M207 331.063C207 335.543 203.384 339.158 198.904 339.158C194.454 339.158 190.839 335.543 190.839 331.063C190.839 326.613 194.454 322.998 198.904 322.998C203.384 322.998 207 326.613 207 331.063Z" fill="#FBC343"/>
<path d="M208.853 340.765C207.988 335.729 207.431 332.268 212.53 329.672C212.53 329.672 230.483 332.948 233.913 326.18C237.343 319.413 232.121 308.722 221.182 316.138C193.187 310.669 189.448 336.872 197.914 345.586L206.319 344.319C207.988 344.041 209.131 342.465 208.853 340.765Z" fill="#102048"/>
<path d="M223.932 340.796C223.932 341.445 223.407 342.001 222.758 342.001C222.078 342.001 221.553 341.445 221.553 340.796C221.553 340.147 222.078 339.591 222.758 339.591C223.407 339.591 223.932 340.147 223.932 340.796Z" fill="#102048"/>
<path d="M232.028 336.81C232.028 337.459 231.502 338.015 230.823 338.015C230.174 338.015 229.648 337.459 229.648 336.81C229.648 336.161 230.174 335.636 230.823 335.636C231.502 335.636 232.028 336.161 232.028 336.81Z" fill="#102048"/>
<path d="M229.989 344.473C229.907 344.473 229.834 344.442 229.773 344.38C229.649 344.257 229.618 344.041 229.773 343.886C230.236 343.392 230.761 342.681 230.545 342.156C230.298 341.63 229.34 341.414 228.907 341.414C227.95 341.414 227.486 339.715 227.424 339.375C227.362 339.189 227.486 339.004 227.671 338.973C227.826 338.911 228.011 339.035 228.073 339.22C228.228 339.931 228.629 340.734 228.907 340.734C229.371 340.734 230.761 340.951 231.163 341.908C231.441 342.588 231.132 343.423 230.236 344.35C230.174 344.442 230.082 344.473 229.989 344.473Z" fill="#102048"/>
<path d="M230.05 348.985C229.988 348.985 229.927 348.974 229.865 348.954C227.64 347.409 225.353 348.707 225.322 348.707C225.168 348.799 224.952 348.737 224.859 348.583C224.766 348.428 224.828 348.212 224.983 348.119C225.106 348.058 227.671 346.636 230.266 348.367C230.421 348.49 230.452 348.707 230.328 348.861C230.266 348.954 230.174 348.985 230.05 348.985Z" fill="#102048"/>
<path d="M222.233 335.636C222.913 336.903 221.708 337.15 220.348 337.892C218.958 338.633 217.536 338.911 217.196 338.293C216.887 337.675 217.753 336.594 219.143 335.852C220.503 335.111 221.708 334.647 222.233 335.636Z" fill="#102048"/>
<path d="M227.269 333.318C227.578 334.462 228.443 333.967 229.679 333.627C230.915 333.318 231.904 332.7 231.75 332.144C231.626 331.588 230.514 331.433 229.278 331.742C228.042 332.082 227.053 332.422 227.269 333.318Z" fill="#102048"/>
<path opacity="0.4" d="M220.75 346.358C220.75 348.305 219.174 349.881 217.227 349.881C215.311 349.881 213.735 348.305 213.735 346.358C213.735 344.411 215.311 342.835 217.227 342.835C219.174 342.835 220.75 344.411 220.75 346.358Z" fill="#EB5D60"/>
<path d="M206.783 342.588C209.162 344.442 209.78 347.594 208.173 349.695C206.566 351.766 203.322 351.982 200.973 350.159C198.594 348.336 197.976 345.153 199.583 343.052C201.19 340.981 204.403 340.765 206.783 342.588Z" fill="#F9B384"/>
<path d="M205.979 348.15C205.794 348.15 205.639 347.996 205.639 347.81C205.639 346.822 205.145 345.895 204.341 345.338C203.631 344.875 202.796 344.751 202.117 345.029C201.931 345.122 201.746 345.029 201.653 344.844C201.591 344.69 201.684 344.473 201.839 344.411C202.766 344.041 203.816 344.195 204.712 344.782C205.701 345.462 206.319 346.574 206.319 347.81C206.319 347.996 206.165 348.15 205.979 348.15Z" fill="#102048"/>
<path d="M145.909 386.405L145.322 385.879L157.528 372.685L158.084 373.21L145.909 386.405Z" fill="#102048"/>
<path d="M243.461 429.386L243.214 428.645C252.113 425.926 260.734 422.712 268.521 412.948L269.139 413.411C261.198 423.361 252.453 426.636 243.461 429.386Z" fill="#102048"/>
<path d="M248.838 399.475H173.318C170.599 399.475 168.405 401.855 168.405 404.79V458.711C168.405 461.646 170.599 464.025 173.318 464.025H248.838C251.557 464.025 253.782 461.646 253.782 458.711V404.79C253.782 401.855 251.557 399.475 248.838 399.475Z" fill="#D3DFFF"/>
</svg>
