<svg width="94" height="94" viewBox="0 0 94 94" fill="none" xmlns="http://www.w3.org/2000/svg">
<path d="M46.9996 67.2772V74.0586M46.9996 33.6386V39.95M46.9996 90.5758C70.4996 90.5758 87.2853 82.25 87.2853 63.7186C87.2853 43.5758 77.2139 30.1472 57.071 20.0758L64.9939 9.87005C65.3964 9.20044 65.6147 8.43631 65.6267 7.65513C65.6387 6.87395 65.444 6.10348 65.0622 5.42182C64.6805 4.74015 64.1253 4.17152 63.453 3.77357C62.7807 3.37561 62.0151 3.16247 61.2339 3.15576H32.7653C31.9841 3.16247 31.2185 3.37561 30.5461 3.77357C29.8738 4.17152 29.3187 4.74015 28.9369 5.42182C28.5552 6.10348 28.3605 6.87395 28.3725 7.65513C28.3845 8.43631 28.6028 9.20044 29.0053 9.87005L36.9282 20.1429C16.7853 30.2815 6.71387 43.71 6.71387 63.8529C6.71387 82.25 23.4996 90.5758 46.9996 90.5758Z" stroke="white" stroke-width="2" stroke-linecap="round" stroke-linejoin="round"/>
<path d="M40.2855 64.1885C41.1047 65.161 42.1359 65.9329 43.2997 66.445C44.4636 66.9571 45.7293 67.1958 46.9998 67.1428C48.9416 67.2752 50.8591 66.6495 52.3491 65.3973C53.8392 64.1452 54.7857 62.3641 54.9898 60.4285C54.7857 58.4929 53.8392 56.7118 52.3491 55.4597C50.8591 54.2075 48.9416 53.5818 46.9998 53.7142C45.058 53.8466 43.1405 53.2209 41.6504 51.9688C40.1603 50.7166 39.2138 48.9355 39.0098 46.9999C39.1974 45.0575 40.1394 43.2662 41.6333 42.0108C43.1273 40.7554 45.0541 40.136 46.9998 40.2856C48.2479 40.2093 49.4973 40.4106 50.6583 40.8749C51.8193 41.3393 52.8629 42.0553 53.7141 42.9714" stroke="white" stroke-width="2" stroke-linecap="round" stroke-linejoin="round"/>
</svg>
