<svg width="94" height="94" viewBox="0 0 94 94" fill="none" xmlns="http://www.w3.org/2000/svg">
<path d="M34.717 61.7285H18.2082L14.084 72.3897V83.7088H35.9507" stroke="white" stroke-width="2" stroke-linecap="round" stroke-linejoin="round"/>
<path d="M33.3737 61.7227L31.5133 72.3897V83.7089M39.2448 65.1576C41.6633 65.5727 43.3181 66.4148 43.3181 67.3862C43.3181 68.2557 41.9962 69.0214 39.989 69.4698M31.8384 69.5031C29.7449 69.0605 28.3545 68.2772 28.3545 67.3881C28.3545 66.4089 30.025 65.5649 32.4611 65.1517" stroke="white" stroke-width="2" stroke-linecap="round" stroke-linejoin="round"/>
<path d="M34.717 61.7285H53.5346L57.8175 72.3897M57.8175 72.3897H40.3922M57.8175 72.3897V83.7088H35.9507M31.5132 72.3897H14.084" stroke="white" stroke-width="2" stroke-linecap="round" stroke-linejoin="round"/>
<path d="M38.5302 61.7227L39.9324 69.7558L40.3906 72.3898V83.7089M21.0795 65.8H24.3832M19.6617 69.2917H22.9654M48.9094 65.8H45.6057M50.3272 69.2917H47.0196M29.4455 53.9873H12.9367L8.8125 64.6485" stroke="white" stroke-width="2" stroke-linecap="round" stroke-linejoin="round"/>
<path d="M8.8125 64.6465V75.9657H14.0315M28.1021 53.9814L26.8018 61.4349L26.7587 61.6797M33.9732 57.4144C36.3917 57.8296 38.0465 58.6717 38.0465 59.6449C38.0465 60.5144 36.7246 61.2802 34.7173 61.7286M26.2045 61.6797C24.3147 61.2253 23.0829 60.4831 23.0829 59.643C23.0829 58.6677 24.7533 57.8217 27.1895 57.4105M29.4455 53.9873H48.4237L51.42 61.7286M16.8456 64.6446H8.8125M33.2603 53.9814L34.5979 61.6464M15.8077 58.0587H19.1114M43.6375 58.0587H40.3338M76.9429 65.5239C76.9429 67.7622 73.2534 69.5776 68.7023 69.5776C64.1511 69.5776 60.4577 67.7622 60.4577 65.5239M76.9429 71.4987C76.9429 73.7371 73.2534 75.5525 68.7023 75.5525C64.1511 75.5525 60.4577 73.7371 60.4577 71.4987M76.9429 59.4942C76.9429 61.7345 73.2534 63.5479 68.7023 63.5479C64.1491 63.5479 60.4577 61.7345 60.4577 59.4942C60.4577 57.2538 64.1491 55.4404 68.7023 55.4404C73.2534 55.4404 76.9429 57.2538 76.9429 59.4942Z" stroke="white" stroke-width="2" stroke-linecap="round" stroke-linejoin="round"/>
<path d="M60.4592 59.4941L60.4573 77.4716C60.4573 79.712 64.1507 81.5254 68.7019 81.5254C73.253 81.5254 76.9425 79.712 76.9425 77.4716C81.4957 77.4716 85.1871 75.6563 85.1871 73.4179M68.6999 55.4384V43.4926M75.6696 39.4369V13.4811C75.6691 12.6354 75.3328 11.8245 74.7346 11.2266C74.1364 10.6288 73.3252 10.293 72.4795 10.293H19.8571C19.0114 10.293 18.2003 10.6288 17.6021 11.2266C17.0038 11.8245 16.6675 12.6354 16.667 13.4811V53.8815" stroke="white" stroke-width="2" stroke-linecap="round" stroke-linejoin="round"/>
<path d="M28.8125 46.6242L38.3496 31.1651L53.4934 40.2577L62.02 24.5205M85.187 61.4684C85.187 63.7068 81.4956 65.5221 76.9425 65.5221M85.187 67.4433C85.187 69.6816 81.4956 71.497 76.9425 71.497" stroke="white" stroke-width="2" stroke-linecap="round" stroke-linejoin="round"/>
<path d="M76.9434 77.4717C81.4984 77.4717 85.1879 75.6564 85.1879 73.418V43.4888" stroke="white" stroke-width="2" stroke-linecap="round" stroke-linejoin="round"/>
<path d="M85.1876 49.4656C85.1876 51.706 81.4962 53.5194 76.943 53.5194C72.3899 53.5194 68.7024 51.706 68.7024 49.4656M85.1876 55.4405C85.1876 57.6808 81.4962 59.4943 76.943 59.4943L76.945 77.4718M56.5039 69.1175H60.4597M85.1876 43.4908C85.1876 45.7311 81.4962 47.5465 76.943 47.5465C72.3919 47.5465 68.7024 45.7311 68.7024 43.4927C68.7024 41.2524 72.3919 39.437 76.945 39.437C81.4981 39.437 85.1876 41.2524 85.1876 43.4908Z" stroke="white" stroke-width="2" stroke-linecap="round" stroke-linejoin="round"/>
</svg>
