<svg width="94" height="94" viewBox="0 0 94 94" fill="none" xmlns="http://www.w3.org/2000/svg">
<path d="M10.7705 10.771V79.3127C10.7705 80.3514 11.1832 81.3477 11.9177 82.0822C12.6522 82.8167 13.6484 83.2293 14.6872 83.2293H83.2288M10.7705 70.5002H16.6455M10.7705 58.7502H16.6455M10.7705 47.0002H16.6455M10.7705 35.2502H16.6455M10.7705 23.5002H16.6455" stroke="white" stroke-width="2" stroke-linecap="round" stroke-linejoin="round"/>
<path d="M76.3747 30.3543C80.1601 30.3543 83.2288 27.2856 83.2288 23.5002C83.2288 19.7147 80.1601 16.646 76.3747 16.646C72.5892 16.646 69.5205 19.7147 69.5205 23.5002C69.5205 27.2856 72.5892 30.3543 76.3747 30.3543Z" stroke="white" stroke-width="2" stroke-linecap="round" stroke-linejoin="round"/>
<path d="M65.1735 55.9691C68.959 55.9691 72.0277 52.9004 72.0277 49.1149C72.0277 45.3295 68.959 42.2607 65.1735 42.2607C61.388 42.2607 58.3193 45.3295 58.3193 49.1149C58.3193 52.9004 61.388 55.9691 65.1735 55.9691Z" stroke="white" stroke-width="2" stroke-linecap="round" stroke-linejoin="round"/>
<path d="M42.7897 42.1043C46.5752 42.1043 49.6439 39.0356 49.6439 35.2502C49.6439 31.4647 46.5752 28.396 42.7897 28.396C39.0043 28.396 35.9355 31.4647 35.9355 35.2502C35.9355 39.0356 39.0043 42.1043 42.7897 42.1043Z" stroke="white" stroke-width="2" stroke-linecap="round" stroke-linejoin="round"/>
<path d="M29.7663 71.4793C33.5517 71.4793 36.6204 68.4106 36.6204 64.6252C36.6204 60.8397 33.5517 57.771 29.7663 57.771C25.9808 57.771 22.9121 60.8397 22.9121 64.6252C22.9121 68.4106 25.9808 71.4793 29.7663 71.4793Z" stroke="white" stroke-width="2" stroke-linecap="round" stroke-linejoin="round"/>
<path d="M32.5479 58.3582L40.0091 41.5166M59.3574 45.5115L48.6062 38.8532M73.6533 29.7861L68.0133 42.8874" stroke="white" stroke-width="2" stroke-linecap="round" stroke-linejoin="round"/>
</svg>
