<svg width="94" height="94" viewBox="0 0 94 94" fill="none" xmlns="http://www.w3.org/2000/svg">
<path opacity="0.2" d="M73.4375 23.5V29.375H64.625C63.0669 29.375 61.5725 29.994 60.4707 31.0957C59.369 32.1975 58.75 33.6919 58.75 35.25V64.625H14.6875C13.1294 64.625 11.635 64.006 10.5332 62.9043C9.43147 61.8025 8.8125 60.3081 8.8125 58.75V23.5C8.8125 21.9419 9.43147 20.4475 10.5332 19.3457C11.635 18.244 13.1294 17.625 14.6875 17.625H67.5625C69.1206 17.625 70.615 18.244 71.7168 19.3457C72.8185 20.4475 73.4375 21.9419 73.4375 23.5Z" fill="white"/>
<path d="M82.25 26.4375H76.375V23.5C76.375 21.1628 75.4465 18.9213 73.7939 17.2686C72.1412 15.616 69.8997 14.6875 67.5625 14.6875H14.6875C12.3503 14.6875 10.1088 15.616 8.45612 17.2686C6.80346 18.9213 5.875 21.1628 5.875 23.5V58.75C5.875 61.0872 6.80346 63.3287 8.45612 64.9814C10.1088 66.634 12.3503 67.5625 14.6875 67.5625H55.8125V70.5C55.8125 72.8372 56.741 75.0787 58.3936 76.7314C60.0463 78.384 62.2878 79.3125 64.625 79.3125H82.25C84.5872 79.3125 86.8287 78.384 88.4814 76.7314C90.134 75.0787 91.0625 72.8372 91.0625 70.5V35.25C91.0625 32.9128 90.134 30.6713 88.4814 29.0186C86.8287 27.366 84.5872 26.4375 82.25 26.4375ZM14.6875 61.6875C13.9084 61.6875 13.1613 61.378 12.6104 60.8271C12.0595 60.2762 11.75 59.5291 11.75 58.75V23.5C11.75 22.7209 12.0595 21.9738 12.6104 21.4229C13.1613 20.872 13.9084 20.5625 14.6875 20.5625H67.5625C68.3416 20.5625 69.0887 20.872 69.6396 21.4229C70.1905 21.9738 70.5 22.7209 70.5 23.5V26.4375H64.625C62.2878 26.4375 60.0463 27.366 58.3936 29.0186C56.741 30.6713 55.8125 32.9128 55.8125 35.25V61.6875H14.6875ZM85.1875 70.5C85.1875 71.2791 84.878 72.0262 84.3271 72.5771C83.7762 73.128 83.0291 73.4375 82.25 73.4375H64.625C63.8459 73.4375 63.0988 73.128 62.5479 72.5771C61.997 72.0262 61.6875 71.2791 61.6875 70.5V35.25C61.6875 34.4709 61.997 33.7238 62.5479 33.1729C63.0988 32.622 63.8459 32.3125 64.625 32.3125H82.25C83.0291 32.3125 83.7762 32.622 84.3271 33.1729C84.878 33.7238 85.1875 34.4709 85.1875 35.25V70.5ZM49.9375 76.375C49.9375 77.1541 49.628 77.9012 49.0771 78.4521C48.5262 79.003 47.7791 79.3125 47 79.3125H32.3125C31.5334 79.3125 30.7863 79.003 30.2354 78.4521C29.6845 77.9012 29.375 77.1541 29.375 76.375C29.375 75.5959 29.6845 74.8488 30.2354 74.2979C30.7863 73.747 31.5334 73.4375 32.3125 73.4375H47C47.7791 73.4375 48.5262 73.747 49.0771 74.2979C49.628 74.8488 49.9375 75.5959 49.9375 76.375ZM79.3125 41.125C79.3125 41.9041 79.003 42.6512 78.4521 43.2021C77.9012 43.753 77.1541 44.0625 76.375 44.0625H70.5C69.7209 44.0625 68.9738 43.753 68.4229 43.2021C67.872 42.6512 67.5625 41.9041 67.5625 41.125C67.5625 40.3459 67.872 39.5988 68.4229 39.0479C68.9738 38.497 69.7209 38.1875 70.5 38.1875H76.375C77.1541 38.1875 77.9012 38.497 78.4521 39.0479C79.003 39.5988 79.3125 40.3459 79.3125 41.125Z" fill="white"/>
</svg>
