<svg width="617" height="411" viewBox="0 0 617 411" fill="none" xmlns="http://www.w3.org/2000/svg">
<path d="M235.448 92.475C315.616 53.019 398.089 1.43855 491.256 22.5228C520.131 29.0988 546.416 45.4566 564.185 69.2535C611.694 132.835 607.828 230.283 582.037 301.88C578.664 311.25 574.469 320.292 569.039 328.636C542.837 369.037 498.701 370.969 456.087 359.255C420.054 349.391 388.134 339.198 350.909 349.268C330.301 354.816 310.31 362.502 289.785 368.297C261.814 376.229 232.98 381.614 203.857 382.189C126.773 383.627 38.7479 344.336 31.9198 258.355C31.5085 252.765 31.4262 247.175 31.673 241.586C33.1949 207.267 44.5477 172.908 76.0147 155.07C107.687 137.151 145.201 130.082 179.054 117.382C198.304 110.148 216.979 101.558 235.448 92.475Z" fill="#9ACA3C"/>
<path opacity="0.7" d="M235.448 92.475C315.616 53.019 398.089 1.43855 491.256 22.5228C520.131 29.0988 546.416 45.4566 564.185 69.2535C611.694 132.835 607.828 230.283 582.037 301.88C578.664 311.25 574.469 320.292 569.039 328.636C542.837 369.037 498.701 370.969 456.087 359.255C420.054 349.391 388.134 339.198 350.909 349.268C330.301 354.816 310.31 362.502 289.785 368.297C261.814 376.229 232.98 381.614 203.857 382.189C126.773 383.627 38.7479 344.336 31.9198 258.355C31.5085 252.765 31.4262 247.175 31.673 241.586C33.1949 207.267 44.5477 172.908 76.0147 155.07C107.687 137.151 145.201 130.082 179.054 117.382C198.304 110.148 216.979 101.558 235.448 92.475Z" fill="white"/>
<path d="M15.4248 362.625H603.056" stroke="#263238" stroke-width="2" stroke-miterlimit="10"/>
<path d="M543.372 189.184L557.069 320.293" stroke="#263238" stroke-width="4" stroke-miterlimit="10"/>
<path d="M554.889 295.18L548.678 288.645" stroke="#263238" stroke-width="4" stroke-miterlimit="10"/>
<path d="M550.57 290.618C550.57 290.618 550.735 287.7 548.102 285.357C546.498 283.919 538.107 280.384 537.325 283.343C536.462 286.549 545.017 292.879 550.57 290.618Z" fill="#9ACA3C" stroke="#263238" stroke-width="2" stroke-miterlimit="10"/>
<path d="M550.57 290.618L542.549 285.645" stroke="#263238" stroke-miterlimit="10"/>
<path d="M556.411 310.1L550.241 303.565" stroke="#263238" stroke-width="4" stroke-miterlimit="10"/>
<path d="M552.092 305.496C552.092 305.496 552.298 302.619 549.624 300.236C548.061 298.838 539.67 295.304 538.848 298.263C537.984 301.469 546.581 307.757 552.092 305.496Z" fill="#9ACA3C" stroke="#263238" stroke-width="2" stroke-miterlimit="10"/>
<path d="M552.092 305.496L544.112 300.564" stroke="#263238" stroke-miterlimit="10"/>
<path d="M551.064 258.807L544.853 252.272" stroke="#263238" stroke-width="4" stroke-miterlimit="10"/>
<path d="M546.745 254.204C546.745 254.204 546.95 251.327 544.277 248.943C542.673 247.546 534.323 244.011 533.5 246.97C532.636 250.176 541.233 256.464 546.745 254.204Z" fill="#9ACA3C" stroke="#263238" stroke-width="2" stroke-miterlimit="10"/>
<path d="M546.744 254.204L538.765 249.272" stroke="#263238" stroke-miterlimit="10"/>
<path d="M552.626 273.726L546.415 267.15" stroke="#263238" stroke-width="4" stroke-miterlimit="10"/>
<path d="M548.307 269.123C548.307 269.123 548.472 266.246 545.839 263.862C544.235 262.465 535.844 258.93 535.062 261.889C534.199 265.095 542.795 271.383 548.307 269.123Z" fill="#9ACA3C" stroke="#263238" stroke-width="2" stroke-miterlimit="10"/>
<path d="M548.307 269.123L540.327 264.15" stroke="#263238" stroke-miterlimit="10"/>
<path d="M548.554 234.599L542.343 228.023" stroke="#263238" stroke-width="4" stroke-miterlimit="10"/>
<path d="M544.235 229.996C544.235 229.996 544.4 227.119 541.767 224.735C540.163 223.338 531.772 219.803 530.99 222.762C530.127 225.968 538.682 232.256 544.235 229.996Z" fill="#9ACA3C" stroke="#263238" stroke-width="2" stroke-miterlimit="10"/>
<path d="M544.236 229.996L536.256 225.023" stroke="#263238" stroke-miterlimit="10"/>
<path d="M546.004 210.268L539.793 203.733" stroke="#263238" stroke-width="4" stroke-miterlimit="10"/>
<path d="M541.685 205.665C541.685 205.665 541.85 202.788 539.217 200.404C537.613 199.006 529.222 195.472 528.44 198.431C527.576 201.637 536.173 207.925 541.685 205.665Z" fill="#9ACA3C" stroke="#263238" stroke-width="2" stroke-miterlimit="10"/>
<path d="M541.685 205.665L533.705 200.692" stroke="#263238" stroke-miterlimit="10"/>
<path d="M553.819 286.385L558.55 278.699" stroke="#263238" stroke-width="4" stroke-miterlimit="10"/>
<path d="M557.11 281.001C557.11 281.001 556.329 278.206 558.427 275.329C559.702 273.603 567.188 268.424 568.586 271.137C570.067 274.137 562.992 282.069 557.11 281.001Z" fill="#9ACA3C" stroke="#263238" stroke-width="2" stroke-miterlimit="10"/>
<path d="M557.11 281.001L564.309 274.137" stroke="#263238" stroke-miterlimit="10"/>
<path d="M549.747 247.134L554.436 239.449" stroke="#263238" stroke-width="4" stroke-miterlimit="10"/>
<path d="M552.997 241.75C552.997 241.75 552.256 238.956 554.354 236.079C555.588 234.393 563.075 229.215 564.473 231.927C565.995 234.887 558.879 242.819 552.997 241.75Z" fill="#9ACA3C" stroke="#263238" stroke-width="2" stroke-miterlimit="10"/>
<path d="M552.997 241.75L560.195 234.887" stroke="#263238" stroke-miterlimit="10"/>
<path d="M547.938 229.914L552.668 222.187" stroke="#263238" stroke-width="4" stroke-miterlimit="10"/>
<path d="M551.228 224.529C551.228 224.529 550.447 221.694 552.545 218.858C553.82 217.131 561.265 211.953 562.663 214.665C564.185 217.625 557.069 225.598 551.228 224.529Z" fill="#9ACA3C" stroke="#263238" stroke-width="2" stroke-miterlimit="10"/>
<path d="M551.229 224.529L558.386 217.666" stroke="#263238" stroke-miterlimit="10"/>
<path d="M545.305 204.596L549.994 196.91" stroke="#263238" stroke-width="4" stroke-miterlimit="10"/>
<path d="M548.555 199.253C548.555 199.253 547.814 196.417 549.912 193.581C551.187 191.855 558.632 186.676 560.031 189.389C561.553 192.348 554.437 200.322 548.555 199.253Z" fill="#9ACA3C" stroke="#263238" stroke-width="2" stroke-miterlimit="10"/>
<path d="M548.555 199.253L555.753 192.389" stroke="#263238" stroke-miterlimit="10"/>
<path d="M543.29 188.444C543.29 188.444 542.508 185.649 544.606 182.813C545.881 181.087 553.326 175.908 554.725 178.621C556.247 181.58 549.131 189.512 543.29 188.444Z" fill="#9ACA3C" stroke="#263238" stroke-width="2" stroke-miterlimit="10"/>
<path d="M543.29 188.444L550.447 181.58" stroke="#263238" stroke-miterlimit="10"/>
<path d="M543.701 188.731C543.701 188.731 540.822 189.225 538.189 186.841C536.626 185.402 532.266 177.429 535.104 176.319C538.23 175.127 545.387 183.018 543.701 188.731Z" fill="#9ACA3C" stroke="#263238" stroke-width="2" stroke-miterlimit="10"/>
<path d="M543.701 188.731L537.613 180.881" stroke="#263238" stroke-miterlimit="10"/>
<path d="M579.487 207.226L565.872 338.335" stroke="#263238" stroke-width="4" stroke-miterlimit="10"/>
<path d="M568.916 313.347L564.186 305.661" stroke="#263238" stroke-width="4" stroke-miterlimit="10"/>
<path d="M565.625 307.962C565.625 307.962 566.365 305.168 564.268 302.291C563.034 300.564 555.547 295.427 554.149 298.139C552.627 301.099 559.743 309.031 565.625 307.962Z" fill="#9ACA3C" stroke="#263238" stroke-width="2" stroke-miterlimit="10"/>
<path d="M565.625 307.962L558.838 301.469" stroke="#263238" stroke-miterlimit="10"/>
<path d="M572.659 276.973L567.97 269.246" stroke="#263238" stroke-width="4" stroke-miterlimit="10"/>
<path d="M569.409 271.589C569.409 271.589 570.15 268.794 568.052 265.917C566.777 264.191 559.332 259.012 557.933 261.766C556.411 264.725 563.527 272.657 569.409 271.589Z" fill="#9ACA3C" stroke="#263238" stroke-width="2" stroke-miterlimit="10"/>
<path d="M569.409 271.589L562.622 265.054" stroke="#263238" stroke-miterlimit="10"/>
<path d="M571.137 291.851L566.406 284.166" stroke="#263238" stroke-width="4" stroke-miterlimit="10"/>
<path d="M567.846 286.467C567.846 286.467 568.628 283.672 566.53 280.836C565.255 279.11 557.768 273.932 556.37 276.644C554.889 279.603 561.964 287.577 567.846 286.467Z" fill="#9ACA3C" stroke="#263238" stroke-width="2" stroke-miterlimit="10"/>
<path d="M567.847 286.467L561.06 279.973" stroke="#263238" stroke-miterlimit="10"/>
<path d="M575.209 252.724L570.479 245.038" stroke="#263238" stroke-width="4" stroke-miterlimit="10"/>
<path d="M571.918 247.34C571.918 247.34 572.7 244.545 570.561 241.709C569.327 239.983 561.84 234.804 560.442 237.517C558.92 240.476 566.036 248.408 571.918 247.34Z" fill="#9ACA3C" stroke="#263238" stroke-width="2" stroke-miterlimit="10"/>
<path d="M571.918 247.34L565.131 240.846" stroke="#263238" stroke-miterlimit="10"/>
<path d="M577.718 228.393L572.987 220.707" stroke="#263238" stroke-width="4" stroke-miterlimit="10"/>
<path d="M574.427 223.009C574.427 223.009 575.209 220.214 573.111 217.378C571.836 215.652 564.35 210.473 562.951 213.186C561.47 216.145 568.545 224.077 574.427 223.009Z" fill="#9ACA3C" stroke="#263238" stroke-width="2" stroke-miterlimit="10"/>
<path d="M574.428 223.009L567.641 216.515" stroke="#263238" stroke-miterlimit="10"/>
<path d="M569.697 304.51L575.908 297.934" stroke="#263238" stroke-width="4" stroke-miterlimit="10"/>
<path d="M574.017 299.907C574.017 299.907 573.852 296.989 576.485 294.646C578.089 293.207 586.439 289.673 587.262 292.632C588.125 295.838 579.529 302.167 574.017 299.907Z" fill="#9ACA3C" stroke="#263238" stroke-width="2" stroke-miterlimit="10"/>
<path d="M574.017 299.907L582.449 294.646" stroke="#263238" stroke-miterlimit="10"/>
<path d="M573.77 265.26L579.981 258.684" stroke="#263238" stroke-width="4" stroke-miterlimit="10"/>
<path d="M578.089 260.656C578.089 260.656 577.924 257.779 580.557 255.396C582.161 253.998 590.552 250.464 591.334 253.382C592.198 256.588 583.601 262.917 578.089 260.656Z" fill="#9ACA3C" stroke="#263238" stroke-width="2" stroke-miterlimit="10"/>
<path d="M578.089 260.656L586.521 255.437" stroke="#263238" stroke-miterlimit="10"/>
<path d="M575.579 247.998L581.749 241.463" stroke="#263238" stroke-width="4" stroke-miterlimit="10"/>
<path d="M579.898 243.435C579.898 243.435 579.693 240.517 582.366 238.175C583.929 236.736 592.32 233.201 593.102 236.161C594.007 239.366 585.41 245.655 579.898 243.435Z" fill="#9ACA3C" stroke="#263238" stroke-width="2" stroke-miterlimit="10"/>
<path d="M579.898 243.435L588.331 238.175" stroke="#263238" stroke-miterlimit="10"/>
<path d="M578.171 222.721L584.382 216.186" stroke="#263238" stroke-width="4" stroke-miterlimit="10"/>
<path d="M582.489 218.159C582.489 218.159 582.325 215.241 584.957 212.898C586.562 211.46 594.953 207.925 595.734 210.884C596.598 214.09 588.042 220.378 582.489 218.159Z" fill="#9ACA3C" stroke="#263238" stroke-width="2" stroke-miterlimit="10"/>
<path d="M582.489 218.159L590.963 212.898" stroke="#263238" stroke-miterlimit="10"/>
<path d="M579.528 206.487C579.528 206.487 579.364 203.61 581.996 201.226C583.601 199.828 591.992 196.294 592.773 199.253C593.637 202.459 585.081 208.747 579.528 206.487Z" fill="#9ACA3C" stroke="#263238" stroke-width="2" stroke-miterlimit="10"/>
<path d="M579.528 206.487L588.002 201.267" stroke="#263238" stroke-miterlimit="10"/>
<path d="M579.898 206.856C579.898 206.856 576.978 206.733 574.921 203.856C573.646 202.13 571.013 193.458 574.057 192.965C577.348 192.43 582.695 201.637 579.898 206.856Z" fill="#9ACA3C" stroke="#263238" stroke-width="2" stroke-miterlimit="10"/>
<path d="M579.898 206.856L575.579 197.938" stroke="#263238" stroke-miterlimit="10"/>
<path d="M563.897 153.837V319.635" stroke="#263238" stroke-width="4" stroke-miterlimit="10"/>
<path d="M564.021 294.728L558.55 287.536" stroke="#263238" stroke-width="4" stroke-miterlimit="10"/>
<path d="M560.195 289.714C560.195 289.714 560.689 286.837 558.303 284.207C556.864 282.645 548.884 278.247 547.773 281.124C546.58 284.207 554.478 291.358 560.195 289.714Z" fill="#9ACA3C" stroke="#263238" stroke-width="2" stroke-miterlimit="10"/>
<path d="M560.195 289.714L552.791 283.919" stroke="#263238" stroke-miterlimit="10"/>
<path d="M564.021 263.575L558.55 256.382" stroke="#263238" stroke-width="4" stroke-miterlimit="10"/>
<path d="M560.195 258.56C560.195 258.56 560.689 255.683 558.303 253.053C556.864 251.491 548.884 247.093 547.773 249.97C546.58 253.053 554.478 260.204 560.195 258.56Z" fill="#9ACA3C" stroke="#263238" stroke-width="2" stroke-miterlimit="10"/>
<path d="M560.195 258.56L552.791 252.765" stroke="#263238" stroke-miterlimit="10"/>
<path d="M564.021 226.995L558.55 219.803" stroke="#263238" stroke-width="4" stroke-miterlimit="10"/>
<path d="M560.195 221.981C560.195 221.981 560.689 219.104 558.303 216.474C556.864 214.912 548.884 210.514 547.773 213.391C546.58 216.474 554.478 223.625 560.195 221.981Z" fill="#9ACA3C" stroke="#263238" stroke-width="2" stroke-miterlimit="10"/>
<path d="M560.195 221.981L552.791 216.186" stroke="#263238" stroke-miterlimit="10"/>
<path d="M564.021 202.623L558.55 195.472" stroke="#263238" stroke-width="4" stroke-miterlimit="10"/>
<path d="M560.195 197.609C560.195 197.609 560.689 194.732 558.303 192.143C556.864 190.54 548.884 186.183 547.773 189.019C546.58 192.143 554.478 199.294 560.195 197.609Z" fill="#9ACA3C" stroke="#263238" stroke-width="2" stroke-miterlimit="10"/>
<path d="M560.195 197.609L552.791 191.855" stroke="#263238" stroke-miterlimit="10"/>
<path d="M564.021 178.169L558.55 171.017" stroke="#263238" stroke-width="4" stroke-miterlimit="10"/>
<path d="M560.195 173.154C560.195 173.154 560.689 170.277 558.303 167.647C556.864 166.085 548.884 161.729 547.773 164.565C546.58 167.647 554.478 174.84 560.195 173.154Z" fill="#9ACA3C" stroke="#263238" stroke-width="2" stroke-miterlimit="10"/>
<path d="M560.195 173.154L552.791 167.4" stroke="#263238" stroke-miterlimit="10"/>
<path d="M563.897 304.222L569.409 297.071" stroke="#263238" stroke-width="4" stroke-miterlimit="10"/>
<path d="M567.723 299.208C567.723 299.208 567.27 296.372 569.656 293.742C571.096 292.139 579.034 287.782 580.145 290.618C581.338 293.742 573.481 300.893 567.723 299.208Z" fill="#9ACA3C" stroke="#263238" stroke-width="2" stroke-miterlimit="10"/>
<path d="M567.723 299.208L575.579 293.125" stroke="#263238" stroke-miterlimit="10"/>
<path d="M563.897 254.656L569.409 247.504" stroke="#263238" stroke-width="4" stroke-miterlimit="10"/>
<path d="M567.723 249.683C567.723 249.683 567.27 246.806 569.656 244.175C571.096 242.613 579.034 238.216 580.145 241.093C581.338 244.175 573.481 251.327 567.723 249.683Z" fill="#9ACA3C" stroke="#263238" stroke-width="2" stroke-miterlimit="10"/>
<path d="M567.723 249.683L575.579 243.6" stroke="#263238" stroke-miterlimit="10"/>
<path d="M563.897 230.201L569.409 223.05" stroke="#263238" stroke-width="4" stroke-miterlimit="10"/>
<path d="M567.723 225.187C567.723 225.187 567.27 222.351 569.656 219.721C571.096 218.118 579.034 213.761 580.145 216.597C581.338 219.721 573.481 226.872 567.723 225.187Z" fill="#9ACA3C" stroke="#263238" stroke-width="2" stroke-miterlimit="10"/>
<path d="M567.723 225.187L575.579 219.104" stroke="#263238" stroke-miterlimit="10"/>
<path d="M563.897 197.897L569.409 190.745" stroke="#263238" stroke-width="4" stroke-miterlimit="10"/>
<path d="M567.723 192.882C567.723 192.882 567.27 190.005 569.656 187.375C571.096 185.813 579.034 181.415 580.145 184.292C581.338 187.375 573.481 194.567 567.723 192.882Z" fill="#9ACA3C" stroke="#263238" stroke-width="2" stroke-miterlimit="10"/>
<path d="M567.723 192.882L575.579 186.8" stroke="#263238" stroke-miterlimit="10"/>
<path d="M563.897 172.456L569.409 165.304" stroke="#263238" stroke-width="4" stroke-miterlimit="10"/>
<path d="M567.723 167.483C567.723 167.483 567.27 164.606 569.656 161.975C571.096 160.413 579.034 156.016 580.145 158.893C581.338 161.975 573.481 169.127 567.723 167.483Z" fill="#9ACA3C" stroke="#263238" stroke-width="2" stroke-miterlimit="10"/>
<path d="M567.723 167.483L575.579 161.4" stroke="#263238" stroke-miterlimit="10"/>
<path d="M563.568 156.18C563.568 156.18 563.116 153.344 565.502 150.714C566.941 149.111 574.921 144.754 575.991 147.59C577.184 150.714 569.327 157.865 563.568 156.18Z" fill="#9ACA3C" stroke="#263238" stroke-width="2" stroke-miterlimit="10"/>
<path d="M563.568 156.18L571.425 150.097" stroke="#263238" stroke-miterlimit="10"/>
<path d="M563.98 156.55C563.98 156.55 561.059 156.714 558.715 154.043C557.275 152.481 553.779 144.097 556.699 143.275C559.949 142.412 566.242 151.002 563.98 156.55Z" fill="#9ACA3C" stroke="#263238" stroke-width="2" stroke-miterlimit="10"/>
<path d="M563.98 156.55L558.756 148.083" stroke="#263238" stroke-miterlimit="10"/>
<path d="M570.726 362.625H553.162L550.94 318.32H572.906L570.726 362.625Z" fill="#263238" stroke="#263238" stroke-width="2" stroke-miterlimit="10"/>
<path d="M113.652 63.7051C113.652 81.8713 98.8847 96.6262 80.6626 96.6262C62.4817 96.6262 47.7148 81.8713 47.7148 63.7051C47.7148 45.4978 62.4817 30.7429 80.6626 30.7429C98.8847 30.7429 113.652 45.4978 113.652 63.7051Z" stroke="#263238" stroke-width="2" stroke-miterlimit="10"/>
<path d="M111.183 63.7052C111.183 80.5151 97.5271 94.1603 80.6624 94.1603C63.8389 94.1603 50.1826 80.5151 50.1826 63.7052C50.1826 46.8542 63.8389 33.209 80.6624 33.209C97.5271 33.209 111.183 46.8542 111.183 63.7052Z" stroke="#A8A8A8" stroke-width="2" stroke-miterlimit="10"/>
<path d="M83.2952 63.7051C83.2952 65.1436 82.1024 66.2944 80.6627 66.2944C79.223 66.2944 78.0713 65.1436 78.0713 63.7051C78.0713 62.2666 79.223 61.0747 80.6627 61.0747C82.1024 61.0747 83.2952 62.2666 83.2952 63.7051Z" stroke="#A8A8A8" stroke-width="2" stroke-miterlimit="10"/>
<path d="M78.0714 63.7051H69.1455" stroke="#A8A8A8" stroke-width="2" stroke-miterlimit="10"/>
<path d="M80.6631 66.2944V86.269" stroke="#A8A8A8" stroke-width="2" stroke-miterlimit="10"/>
<path d="M91.6446 233.941H67.376V231.804H91.6446V233.941Z" fill="#263238" stroke="#263238" stroke-width="2" stroke-miterlimit="10"/>
<path d="M79.7982 233.941H67.376V216.391H79.7982V233.941Z" fill="#263238" stroke="#263238" stroke-width="2" stroke-miterlimit="10"/>
<path d="M111.142 217.583H32.207V156.057H111.142V217.583Z" fill="#263238" stroke="#263238" stroke-width="2" stroke-miterlimit="10"/>
<path d="M113.528 217.583H34.5928V156.057H113.528V217.583Z" fill="white" stroke="#263238" stroke-width="2" stroke-miterlimit="10"/>
<path d="M110.772 215.446H37.3486V158.194H110.772V215.446Z" fill="#EDEDED" stroke="#263238" stroke-width="2" stroke-miterlimit="10"/>
<path d="M158.075 231.27H97.1562V233.941H158.075V231.27Z" fill="white" stroke="#263238" stroke-width="2" stroke-miterlimit="10"/>
<path d="M38.2123 238.585L38.13 243.189L35.7443 360.118C35.7032 361.516 34.5926 362.625 33.194 362.625C31.7955 362.625 30.6438 361.516 30.6438 360.118L28.258 243.189L28.1758 238.585H38.2123Z" fill="white" stroke="#263238" stroke-width="2" stroke-miterlimit="10"/>
<path d="M38.2123 238.585L38.13 243.189H28.258L28.1758 238.585H38.2123Z" fill="#263238" stroke="#263238" stroke-width="2" stroke-miterlimit="10"/>
<path d="M211.384 362.625C209.985 362.625 208.874 361.515 208.833 360.118L206.365 238.626H216.402L213.975 360.118C213.934 361.515 212.782 362.625 211.384 362.625Z" fill="white" stroke="#263238" stroke-width="2" stroke-miterlimit="10"/>
<path d="M206.489 243.189H216.32L216.402 238.626H206.365L206.489 243.189Z" fill="#263238" stroke="#263238" stroke-width="2" stroke-miterlimit="10"/>
<path d="M221.421 239.983H22.2529V234.064H221.421V239.983Z" fill="white" stroke="#263238" stroke-width="2" stroke-miterlimit="10"/>
<path d="M132.777 280.672C132.421 280.672 132.092 280.617 131.79 280.507C130.474 279.932 129.857 278.452 130.392 277.137C134.505 267.191 139.277 249.477 134.423 244.175C133.271 243.394 126.443 241.75 89.6698 245.12C88.4358 245.244 87.4897 245.326 86.9961 245.367C84.4047 245.572 82.2246 248.819 81.6488 249.97C81.0318 251.203 79.5098 251.737 78.2347 251.08C76.9596 250.463 76.466 248.943 77.083 247.668C77.4532 246.97 80.7438 240.681 86.5848 240.229C87.0784 240.229 87.9833 240.147 89.2173 240.024C128.376 236.407 135.904 238.216 138.166 240.723C146.804 250.135 136.356 276.192 135.122 279.11C134.711 280.096 133.765 280.672 132.777 280.672Z" fill="#263238" stroke="#263238" stroke-width="2" stroke-linecap="round" stroke-linejoin="round"/>
<path d="M44.9169 167.113C44.9169 167.113 42.8602 175.004 43.8885 179.936C44.9169 184.909 54.1719 206.486 61.0411 226.338C67.8693 246.148 66.5119 267.725 66.5119 274.096C66.5119 280.466 66.1828 285.07 70.9543 287.577C75.7669 290.043 83.2943 288.604 85.3509 284.001C87.4076 279.439 88.765 250.052 84.9807 232.338C81.2376 214.624 69.6791 187.621 66.2651 180.552C62.851 173.483 57.5859 157.536 44.9169 167.113Z" fill="#999999" stroke="#263238" stroke-width="2" stroke-linecap="round" stroke-linejoin="round"/>
<path opacity="0.3" d="M41.6264 168.962C41.6264 168.962 37.8422 175.004 38.8705 179.936C39.8988 184.909 49.1538 206.486 56.0231 226.338C62.8512 246.148 61.4938 267.725 61.4938 274.096C61.4938 280.466 61.1648 285.07 65.9362 287.577C70.7488 290.043 78.2762 288.604 80.3329 284.001C82.3896 279.439 83.747 250.052 79.9627 232.338C76.2196 214.624 62.8512 183.511 59.4372 176.401C56.0231 169.332 54.2955 159.427 41.6264 168.962Z" fill="black"/>
<path d="M47.3437 165.633C43.2715 167.154 40.2276 170.647 39.1581 174.798C38.7468 176.483 38.5411 178.292 38.8702 179.936C39.8985 184.909 49.1535 206.486 56.0228 226.338C62.8509 246.148 61.4935 267.725 61.4935 274.096C61.4935 280.466 61.1645 285.069 65.9359 287.577C70.7485 290.043 78.2759 288.604 80.3326 284.001C82.3893 279.439 83.7467 250.052 79.9624 232.338C76.2193 214.624 62.8509 183.511 59.4369 176.401C56.5987 170.565 54.9533 162.797 47.3437 165.633Z" fill="#999999" stroke="#263238" stroke-width="2" stroke-linecap="round" stroke-linejoin="round"/>
<path d="M114.186 327.69H109.62V283.426H114.186V327.69Z" fill="#263238" stroke="#263238" stroke-width="2" stroke-linecap="round" stroke-linejoin="round"/>
<path d="M117.724 329.458V322.019H106.083V329.54L59.3965 347.459V356.296H62.5638V349.556L112.047 339.116L160.255 349.556V356.296H163.34V347.459L117.724 329.458Z" fill="white" stroke="#263238" stroke-width="2" stroke-linecap="round" stroke-linejoin="round"/>
<path d="M123.4 297.564H100.406V283.426H123.4V297.564Z" fill="#263238" stroke="#263238" stroke-width="2" stroke-linecap="round" stroke-linejoin="round"/>
<path d="M59.3965 356.625C59.3965 353.912 57.1753 351.693 54.4605 351.693C51.7046 351.693 49.4834 353.912 49.4834 356.625C49.4834 359.378 51.7046 361.598 54.4605 361.598C57.1753 361.598 59.3965 359.378 59.3965 356.625Z" fill="#263238" stroke="#263238" stroke-width="2" stroke-linecap="round" stroke-linejoin="round"/>
<path d="M56.558 356.625C56.558 355.474 55.612 354.529 54.4602 354.529C53.2674 354.529 52.3213 355.474 52.3213 356.625C52.3213 357.817 53.2674 358.762 54.4602 358.762C55.612 358.762 56.558 357.817 56.558 356.625Z" fill="white" stroke="#263238" stroke-width="2" stroke-linecap="round" stroke-linejoin="round"/>
<path d="M173.583 356.625C173.583 353.912 171.362 351.693 168.647 351.693C165.891 351.693 163.711 353.912 163.711 356.625C163.711 359.378 165.891 361.598 168.647 361.598C171.362 361.598 173.583 359.378 173.583 356.625Z" fill="#263238" stroke="#263238" stroke-width="2" stroke-linecap="round" stroke-linejoin="round"/>
<path d="M170.745 356.625C170.745 355.474 169.798 354.529 168.647 354.529C167.454 354.529 166.508 355.474 166.508 356.625C166.508 357.817 167.454 358.762 168.647 358.762C169.798 358.762 170.745 357.817 170.745 356.625Z" fill="white" stroke="#263238" stroke-width="2" stroke-linecap="round" stroke-linejoin="round"/>
<path d="M114.022 357.364H110.114L108.181 330.855H115.955L114.022 357.364Z" fill="white" stroke="#263238" stroke-width="2" stroke-linecap="round" stroke-linejoin="round"/>
<path d="M113.857 362.625H109.949V351.693H113.857V362.625Z" fill="#263238" stroke="#263238" stroke-width="2" stroke-linecap="round" stroke-linejoin="round"/>
<path opacity="0.3" d="M147.256 287.864L80.0446 289.96C78.1113 290.043 76.5071 288.522 76.4248 286.59L76.0135 273.808C75.9724 271.876 77.4943 270.274 79.3864 270.191L146.639 268.095C148.573 268.013 150.177 269.534 150.218 271.465L150.629 284.248C150.712 286.179 149.19 287.782 147.256 287.864Z" fill="black"/>
<path d="M155.278 287.864L88.0249 289.96C86.1328 290.043 84.4875 288.522 84.4463 286.59L84.035 273.808C83.9939 271.876 85.4747 270.274 87.4079 270.191L154.661 268.095C156.594 268.013 158.198 269.534 158.24 271.465L158.651 284.248C158.733 286.179 157.211 287.782 155.278 287.864Z" fill="#999999" stroke="#263238" stroke-width="2" stroke-linecap="round" stroke-linejoin="round"/>
<path d="M147.256 287.864L80.0446 289.96C78.1113 290.043 76.5071 288.522 76.4248 286.59L76.0135 273.808C75.9724 271.876 77.4943 270.274 79.3864 270.191L146.639 268.095C148.573 268.013 150.177 269.534 150.218 271.465L150.629 284.248C150.712 286.179 149.19 287.782 147.256 287.864Z" fill="#999999" stroke="#263238" stroke-width="2" stroke-linecap="round" stroke-linejoin="round"/>
<path d="M125.498 280.672C125.169 280.672 124.839 280.617 124.51 280.507C123.235 279.932 122.618 278.452 123.153 277.137C127.266 267.191 131.997 249.477 127.143 244.175C126.032 243.394 119.204 241.75 82.431 245.12C81.1558 245.244 80.2509 245.326 79.7573 245.367C77.1659 245.572 74.9858 248.819 74.41 249.97C73.793 251.203 72.2299 251.737 70.9959 251.08C69.7208 250.463 69.1861 248.943 69.8442 247.668C70.1733 246.97 73.4639 240.681 79.346 240.229C79.8396 240.229 80.7445 240.147 81.9374 240.024C121.137 236.407 128.665 238.216 130.927 240.723C139.565 250.135 129.117 276.192 127.883 279.11C127.472 280.096 126.526 280.672 125.498 280.672Z" fill="white" stroke="#263238" stroke-width="2" stroke-linecap="round" stroke-linejoin="round"/>
<g opacity="0.3">
<path d="M328.984 109.079H231.827V362.625H328.984V109.079Z" stroke="black" stroke-width="2" stroke-miterlimit="10"/>
<path d="M323.76 179.073H237.051V115.861H323.76V179.073Z" stroke="black" stroke-width="2" stroke-miterlimit="10"/>
<path d="M293.198 145.535H267.613V129.424H293.198V145.535Z" stroke="black" stroke-width="2" stroke-miterlimit="10"/>
<path d="M294.308 155.399H266.502V151.371H294.308V155.399Z" fill="#263238" stroke="black" stroke-width="2" stroke-miterlimit="10"/>
<path d="M323.76 252.148H237.051V188.978H323.76V252.148Z" stroke="black" stroke-width="2" stroke-miterlimit="10"/>
<path d="M293.198 218.652H267.613V202.5H293.198V218.652Z" stroke="black" stroke-width="2" stroke-miterlimit="10"/>
<path d="M294.308 228.516H266.502V224.488H294.308V228.516Z" fill="#263238" stroke="black" stroke-width="2" stroke-miterlimit="10"/>
<path d="M323.76 325.265H237.051V262.053H323.76V325.265Z" stroke="black" stroke-width="2" stroke-miterlimit="10"/>
<path d="M293.198 291.728H267.613V275.575H293.198V291.728Z" stroke="black" stroke-width="2" stroke-miterlimit="10"/>
<path d="M294.308 301.592H266.502V297.564H294.308V301.592Z" fill="#263238" stroke="black" stroke-width="2" stroke-miterlimit="10"/>
</g>
<g opacity="0.3">
<path d="M350.456 31.1128H517.211V362.625H350.456V31.1128Z" stroke="black" stroke-width="2" stroke-miterlimit="10"/>
<path d="M355.763 38.3464H511.946V355.392H355.763V38.3464Z" stroke="black" stroke-width="2" stroke-miterlimit="10"/>
<path d="M498.084 182.936V210.802H355.763V182.936H498.084Z" stroke="black" stroke-width="2" stroke-miterlimit="10"/>
<path d="M511.617 156.961V230.037H498.084V156.961H511.617Z" stroke="black" stroke-width="2" stroke-miterlimit="10"/>
<path d="M420.506 80.0217L414.624 85.8579" stroke="black" stroke-width="2" stroke-miterlimit="10"/>
<path d="M455.634 44.9224L425.318 75.172" stroke="black" stroke-width="2" stroke-miterlimit="10"/>
<path d="M419.108 72.4595L399.487 92.0642" stroke="black" stroke-width="2" stroke-miterlimit="10"/>
<path d="M442.184 262.752L396.731 308.168" stroke="black" stroke-width="2" stroke-miterlimit="10"/>
<path d="M449.423 255.519L445.639 259.3" stroke="black" stroke-width="2" stroke-miterlimit="10"/>
<path d="M425.319 260.369L419.807 265.835" stroke="black" stroke-width="2" stroke-miterlimit="10"/>
<path d="M448.724 236.942L428.774 256.916" stroke="black" stroke-width="2" stroke-miterlimit="10"/>
</g>
<path d="M531.155 233.736C531.155 233.736 532.348 246.888 532.06 247.956C531.731 248.984 528.564 255.642 527.659 256.094C526.754 256.546 520.995 255.066 520.09 254.738C519.185 254.45 517.54 253.546 517.54 253.546L520.378 233.283C520.378 233.283 528.564 234.475 531.155 233.736Z" fill="white" stroke="#263238" stroke-width="2" stroke-linecap="round" stroke-linejoin="round"/>
<path d="M523.586 241.873C523.586 241.873 524.615 245.202 525.684 246.107C526.754 247.052 527.823 247.627 527.823 247.627L527.494 251.573L519.021 249.312" stroke="#263238" stroke-width="2" stroke-linecap="round" stroke-linejoin="round"/>
<path d="M530.415 132.876C530.415 132.876 536.996 180.84 536.996 188.526C536.996 196.17 532.348 234.064 532.348 234.064C532.348 234.064 529.345 236.695 525.273 235.873C523.504 235.544 521.242 235.092 521.242 235.092L520.049 211.911L517.211 195.143L527.7 137.89C527.7 137.89 529.715 131.89 530.415 132.876Z" fill="#9ACA3C" stroke="#263238" stroke-width="2" stroke-linecap="round" stroke-linejoin="round"/>
<path d="M522.271 230.448C522.271 230.448 526.919 233.078 531.937 228.845" stroke="#263238" stroke-width="2" stroke-linecap="round" stroke-linejoin="round"/>
<path d="M522.064 185.895C522.064 185.895 526.301 192.759 527.494 194.362" stroke="#263238" stroke-width="2" stroke-linecap="round" stroke-linejoin="round"/>
<path d="M520.831 187.292C520.831 187.292 524.903 199.006 527.495 202.212" stroke="#263238" stroke-width="2" stroke-linecap="round" stroke-linejoin="round"/>
<path d="M513.632 370.558C513.632 370.558 515.401 382.559 515.236 385.436C515.072 388.272 508.778 389.916 506.804 390.08C504.83 390.245 503.39 390.614 502.156 389.71C500.881 388.806 499.071 388.107 499.071 388.107L498.536 375.572C498.536 375.572 509.149 374.133 513.632 370.558Z" fill="white" stroke="#263238" stroke-width="2" stroke-linecap="round" stroke-linejoin="round"/>
<path d="M515.236 385.436C515.277 384.902 515.236 384.038 515.154 383.011C513.714 384.203 510.794 386.258 507.503 387.039C503.883 387.861 500.387 386.628 498.988 386.052L499.071 388.107C499.071 388.107 500.88 388.806 502.156 389.71C503.39 390.614 504.829 390.245 506.804 390.08C508.778 389.916 515.071 388.272 515.236 385.436Z" fill="white" stroke="#263238" stroke-width="2" stroke-linecap="round" stroke-linejoin="round"/>
<path d="M477.928 370.722C477.928 370.722 473.075 374.298 469.496 375.901C465.918 377.545 461.599 379.147 462.298 381.49C463.038 383.792 479.368 388.642 485.086 389.546C490.844 390.45 499.811 393.286 501.95 388.107C504.13 382.888 501.786 377.175 501.786 377.175L477.928 370.722Z" fill="white" stroke="#263238" stroke-width="2" stroke-linecap="round" stroke-linejoin="round"/>
<path d="M501.951 388.107C502.156 387.573 502.321 387.08 502.486 386.545C498.825 387.573 491.873 388.806 483.482 386.504C473.939 383.874 466.124 380.709 462.998 379.394C462.381 380.052 462.093 380.709 462.298 381.49C463.039 383.792 479.369 388.642 485.086 389.546C490.845 390.45 499.812 393.286 501.951 388.107Z" fill="white" stroke="#263238" stroke-width="2" stroke-linecap="round" stroke-linejoin="round"/>
<path d="M461.023 213.104C461.023 213.104 458.514 231.681 458.514 252.56C458.514 273.438 464.19 306.565 465.548 311.99C466.905 317.456 476.201 350.994 476.654 352.391C477.147 353.748 478.258 367.352 478.258 367.352C478.258 367.352 476.201 368.708 476.201 369.859C476.201 370.969 476.448 372.777 476.448 372.777C476.448 372.777 483.029 377.791 488.006 380.052C493.025 382.312 501.868 380.257 501.868 380.257C501.868 380.257 504.583 380.257 507.791 378.901C510.959 377.545 513.468 375.983 514.373 373.476C515.278 370.969 515.278 366.9 515.278 364.845C515.278 362.79 513.221 334.924 512.563 322.882C511.864 310.88 510.506 300.893 510.506 300.893C510.506 300.893 519.72 250.998 520.502 243.024C521.242 235.092 522.312 213.556 522.312 213.556L522.764 210.843L461.023 213.104Z" fill="#263238" stroke="#263238" stroke-width="2" stroke-linecap="round" stroke-linejoin="round"/>
<path d="M501.21 363.077C501.745 373.106 501.868 380.257 501.868 380.257" stroke="white" stroke-width="2" stroke-linecap="round" stroke-linejoin="round"/>
<path d="M502.567 245.531L492.12 250.052C492.12 250.052 491.873 280.22 491.667 290.659C491.42 301.099 498.907 332.622 500.264 349.186C500.552 352.268 500.758 355.268 500.922 358.104" stroke="white" stroke-width="2" stroke-linecap="round" stroke-linejoin="round"/>
<path d="M471.882 128.561C471.882 128.561 456.745 135.507 456.745 137.068C456.745 138.63 459.624 215.98 459.624 215.98C459.624 215.98 456.992 217.542 462.257 218.857C467.522 220.173 484.099 223.337 499.112 219.638C514.126 215.98 523.052 215.98 524.368 212.528C525.685 209.117 522.27 194.937 522.27 194.937C522.27 194.937 531.238 135.219 530.415 132.876C529.633 130.492 508.038 123.752 508.038 123.752C508.038 123.752 491.75 118.984 471.882 128.561Z" fill="#9ACA3C" stroke="#263238" stroke-width="2" stroke-linecap="round" stroke-linejoin="round"/>
<path d="M471.183 72.8703C471.183 72.8703 464.889 85.6113 465.342 87.1731C465.794 88.7349 465.794 88.7349 465.794 88.7349L461.311 100.12L465.136 103.49L472.746 111.504L472.951 116.642L476.324 117.094L476.53 122.478L500.223 118.45L500.469 105.052C500.469 105.052 489.076 106.161 487.266 102.791C485.497 99.462 490.392 84.5016 490.639 80.0217C490.844 75.5418 486.813 72.8703 483.687 71.7606C480.561 70.6098 471.183 72.8703 471.183 72.8703Z" fill="white" stroke="#263238" stroke-width="2" stroke-linecap="round" stroke-linejoin="round"/>
<path d="M476.53 66.6231C476.53 66.6231 470.73 66.8286 470.031 71.0619C469.373 75.3363 473.198 76.8981 474.309 76.6515C475.419 76.446 484.798 76.8981 482.782 77.3502C480.766 77.7612 475.213 78.2133 474.967 79.1175C474.761 80.0217 471.182 84.5016 472.293 85.8168C473.404 87.1731 475.872 88.0362 475.872 88.0362C475.872 88.0362 474.514 97.6536 473.198 102.339C471.841 107.065 465.794 103.695 465.136 103.49C464.478 103.243 464.231 107.929 464.231 109.737C464.231 111.504 462.462 114.628 464.683 116.888C466.905 119.108 472.046 117.998 472.951 116.642C473.856 115.327 476.982 111.299 476.777 107.723C476.53 104.147 477.435 92.9682 477.435 92.9682C477.435 92.9682 481.219 89.187 482.576 94.3245C483.934 99.462 481.918 105.052 481.918 105.052C481.918 105.052 486.155 110.189 491.955 110.847C497.796 111.504 500.469 110.189 502.238 105.915C504.048 101.681 512.521 97.9002 512.521 88.0362C512.521 78.2133 505.159 69.5001 500.922 68.3904C496.644 67.2807 488.376 67.0341 488.376 67.0341C488.376 67.0341 490.639 63.0474 487.06 63.0474C483.481 63.0474 476.53 66.6231 476.53 66.6231Z" fill="#263238" stroke="#263238" stroke-width="2" stroke-linecap="round" stroke-linejoin="round"/>
<path d="M466.534 87.7484C466.534 87.7484 468.673 86.1455 470.689 88.2827" stroke="#263238" stroke-width="2" stroke-linecap="round" stroke-linejoin="round"/>
<path d="M469.332 91.1597C469.332 92.0639 468.962 92.8448 468.509 92.8448C468.098 92.8448 467.728 92.0639 467.728 91.1597C467.728 90.2144 468.098 89.4746 468.509 89.4746C468.962 89.4746 469.332 90.2144 469.332 91.1597Z" fill="#263238"/>
<path d="M473.28 121.944L471.882 128.561C471.882 128.561 486.279 125.149 493.066 123.958C499.853 122.766 508.038 123.752 508.038 123.752C508.038 123.752 506.023 117.751 502.855 116.56C499.647 115.368 480.273 117.176 473.28 121.944Z" fill="white" stroke="#263238" stroke-width="2" stroke-linecap="round" stroke-linejoin="round"/>
<path d="M504.912 158.358C504.912 158.358 502.526 170.729 497.549 178.374" stroke="#263238" stroke-width="2" stroke-linecap="round" stroke-linejoin="round"/>
<path d="M496.274 185.32C494.793 187.005 493.395 188.485 492.284 189.389" stroke="#263238" stroke-width="2" stroke-linecap="round" stroke-linejoin="round"/>
<path d="M505.694 173.113C505.694 173.113 501.786 178.621 497.796 183.429" stroke="#263238" stroke-width="2" stroke-linecap="round" stroke-linejoin="round"/>
<path d="M421.206 175.579L415.57 167.524C415.57 167.524 430.09 168.674 431.859 168.304C433.587 167.893 443.253 165.797 443.253 165.797L459.542 188.978L436.301 196.54L421.206 175.579Z" fill="white" stroke="#263238" stroke-width="2" stroke-linecap="round" stroke-linejoin="round"/>
<path d="M439.016 195.307C439.016 195.307 436.342 192.554 435.849 191.362C435.355 190.211 434.368 184.21 433.874 183.512C433.381 182.854 430.83 180.182 429.843 178.991C428.897 177.84 427.91 174.182 426.799 175.292C425.73 176.36 425.236 178.004 425.73 179.278C426.223 180.593 426.717 182.155 426.923 182.525C427.128 182.936 421.205 175.579 421.205 175.579C421.205 175.579 420.341 181.662 420.835 183.224C421.329 184.786 423.673 192.184 424.167 193.129C424.66 194.115 433.586 200.404 434.08 200.691C434.574 201.02 439.016 195.307 439.016 195.307Z" fill="white" stroke="#263238" stroke-width="2" stroke-linecap="round" stroke-linejoin="round"/>
<path d="M426.923 182.525C426.923 182.525 428.075 187.457 428.198 188.033C428.28 188.608 430.543 190.992 430.543 190.992" fill="white"/>
<path d="M426.923 182.525C426.923 182.525 428.075 187.457 428.198 188.033C428.28 188.608 430.543 190.992 430.543 190.992" stroke="#263238" stroke-width="2" stroke-linecap="round" stroke-linejoin="round"/>
<path d="M478.586 163.126C478.586 163.126 478.586 163.126 477.27 174.922C475.953 186.758 466.205 212.816 464.395 215.446C462.544 218.077 457.814 217.296 453.865 215.446C449.916 213.597 436.465 207.555 436.465 207.555C436.465 207.555 431.488 204.39 434.121 198.349C436.753 192.307 439.386 193.869 441.731 194.937C444.116 195.965 451.479 196.499 451.479 196.499C451.479 196.499 454.112 153.632 454.112 146.028C454.112 138.384 456.744 137.069 456.744 137.069C456.744 137.069 458.842 134.972 462.256 133.904" fill="#9ACA3C"/>
<path d="M478.586 163.126C478.586 163.126 478.586 163.126 477.27 174.922C475.953 186.758 466.205 212.816 464.395 215.446C462.544 218.077 457.814 217.296 453.865 215.446C449.916 213.597 436.465 207.555 436.465 207.555C436.465 207.555 431.488 204.39 434.121 198.349C436.753 192.307 439.386 193.869 441.731 194.937C444.116 195.965 451.479 196.499 451.479 196.499C451.479 196.499 454.112 153.632 454.112 146.028C454.112 138.384 456.744 137.069 456.744 137.069C456.744 137.069 458.842 134.972 462.256 133.904" stroke="#263238" stroke-width="2" stroke-linecap="round" stroke-linejoin="round"/>
<path d="M451.479 196.499C451.479 196.499 449.916 203.322 451.479 205.705" stroke="#263238" stroke-width="2" stroke-linecap="round" stroke-linejoin="round"/>
<path d="M441.731 196.746C441.731 196.746 435.438 199.129 440.168 208.336" stroke="#263238" stroke-width="2" stroke-linecap="round" stroke-linejoin="round"/>
<path d="M474.72 160.043C474.967 161.482 475.131 162.92 475.172 164.4" stroke="#263238" stroke-width="2" stroke-linecap="round" stroke-linejoin="round"/>
<path d="M467.521 143.891C467.521 143.891 472.17 149.851 474.226 157.865" stroke="#263238" stroke-width="2" stroke-linecap="round" stroke-linejoin="round"/>
<path d="M380.442 276.932C380.442 276.932 383.322 298.674 383.322 300.194C383.322 301.756 384.062 315.155 386.489 322.47C388.916 329.786 393.07 365.461 393.07 366.571C393.07 367.68 397.76 380.997 402.202 380.545C406.603 380.093 405.739 372.119 404.382 368.79C403.066 365.461 401.626 360.159 401.626 360.159C401.626 360.159 404.834 319.059 404.382 311.949C403.971 304.88 401.955 293.988 401.955 293.988L403.724 277.589L380.442 276.932Z" fill="white" stroke="#263238" stroke-width="2" stroke-linecap="round" stroke-linejoin="round"/>
<path d="M402.202 380.545C405.945 380.175 405.863 374.421 404.958 370.64L395.744 372.325L394.305 370.434C395.991 374.667 399.158 380.832 402.202 380.545Z" fill="#263238" stroke="#263238" stroke-width="2" stroke-linecap="round" stroke-linejoin="round"/>
<path d="M352.266 278.042L356.05 301.099C356.05 301.099 355.804 305.537 356.709 321.279C357.572 337.02 358.477 361.187 358.477 361.187C358.477 361.187 349.592 370.475 348.071 371.832C346.507 373.147 343.834 377.339 348.934 377.339C354.035 377.339 359.135 376.024 361.357 374.462C363.578 372.941 367.568 369.366 368.226 368.914C368.925 368.503 369.583 367.146 369.583 364.721C369.583 362.297 368.678 358.515 368.678 356.296C368.678 354.077 374.437 323.704 374.437 316.84C374.437 309.976 373.779 295.098 373.779 295.098L375.136 279.151L352.266 278.042Z" fill="white" stroke="#263238" stroke-width="2" stroke-linecap="round" stroke-linejoin="round"/>
<path d="M361.357 374.462C363.578 372.941 367.568 369.366 368.226 368.914C368.925 368.503 369.583 367.146 369.583 364.721C369.583 363.899 369.46 362.954 369.336 361.927C368.514 362.872 367.568 363.982 366.704 365.173C364.03 368.708 358.025 371.133 358.025 371.133L350.991 368.914C349.634 370.311 348.523 371.421 348.071 371.832C346.507 373.147 343.834 377.339 348.934 377.339C354.035 377.339 359.135 376.024 361.357 374.462Z" fill="#263238" stroke="#263238" stroke-width="2" stroke-linecap="round" stroke-linejoin="round"/>
<path d="M359.218 76.0349C359.218 76.0349 354.817 76.4459 351.649 85.4879C348.523 94.5299 347.125 109.162 347.824 111.217C348.523 113.272 354.817 116.971 360.863 118.368C366.869 119.724 374.561 119.601 383.857 117.793C393.194 116.025 398.418 110.271 398.418 109.162C398.418 108.093 395.539 90.6665 389.081 80.0216C382.664 69.3356 364.689 70.2809 359.218 76.0349Z" fill="#263238" stroke="#263238" stroke-width="2" stroke-linecap="round" stroke-linejoin="round"/>
<path d="M352.142 184.991C352.142 184.991 345.15 196.992 341.571 217.871C337.993 238.75 340.296 281.617 340.296 281.617H408.948C408.948 281.617 409.606 236.037 405.78 214.912C401.996 193.786 394.263 184.991 394.263 184.991H352.142Z" fill="#263238" stroke="#263238" stroke-width="2" stroke-linecap="round" stroke-linejoin="round"/>
<path d="M365.675 126.382C365.675 126.382 346.096 134.232 345.767 135.219C345.479 136.164 349.263 153.056 349.263 153.056C349.263 153.056 348.152 161.235 349.263 167.811C350.374 174.428 352.636 178.251 352.636 178.251C352.636 178.251 351.196 183.224 352.142 184.991C353.129 186.758 364.852 189.019 375.136 188.854C385.419 188.69 394.263 185.649 394.263 184.991C394.263 184.374 394.756 178.744 394.756 178.744C394.756 178.744 405.369 135.219 405.204 133.945C405.04 132.63 382.375 125.437 382.375 125.437L365.675 126.382Z" fill="#1E293B" stroke="#263238" stroke-width="2" stroke-linecap="round" stroke-linejoin="round"/>
<path d="M367.28 123.3C367.28 123.3 364.153 124.245 363.166 126.177C362.22 128.067 361.932 134.397 361.521 136.863C361.11 139.329 360.698 142.452 360.698 142.452L369.089 136.986L379.907 143.973C379.907 143.973 383.075 129.999 383.322 127.821C383.61 125.601 383.198 125.067 382.499 124.122C381.841 123.135 379.208 122.067 378.797 122.067C378.386 122.067 367.28 123.3 367.28 123.3Z" fill="white" stroke="#263238" stroke-width="2" stroke-linecap="round" stroke-linejoin="round"/>
<path d="M366.334 120.423L366.622 128.643C366.622 128.643 368.802 136.452 369.09 136.986C369.337 137.521 378.962 125.602 378.962 125.602L380.607 109.449C380.607 109.449 374.561 114.094 372.915 115.491C371.27 116.847 366.334 120.423 366.334 120.423Z" fill="white" stroke="#263238" stroke-width="2" stroke-linecap="round" stroke-linejoin="round"/>
<path d="M376.7 114.792L366.91 127.163L366.334 120.423L376.7 114.792Z" fill="#263238" stroke="#263238" stroke-width="2" stroke-linecap="round" stroke-linejoin="round"/>
<path d="M371.146 82.7341C371.146 82.7341 361.685 90.2554 358.107 93.1324C354.528 96.0094 353.171 96.9958 353.171 96.9958C353.171 96.9958 355.228 106.983 355.639 109.86C356.05 112.737 360.287 119.724 362.22 120.834C364.153 121.902 365.799 122.313 366.868 122.067C367.979 121.779 376.617 116.025 378.262 114.792C379.908 113.559 380.607 109.449 380.607 109.449C380.607 109.449 383.733 108.093 385.79 105.051C387.846 102.051 387.024 97.9411 385.09 97.5301C383.198 97.1191 380.854 99.2974 380.854 99.2974C380.854 99.2974 373.738 91.2418 371.558 87.8305C369.336 84.3781 371.146 82.7341 371.146 82.7341Z" fill="white" stroke="#263238" stroke-width="2" stroke-linecap="round" stroke-linejoin="round"/>
<path d="M362.097 96.9958L363.331 100.53L360.451 107.928L364.4 108.627" stroke="#263238" stroke-width="2" stroke-linecap="round" stroke-linejoin="round"/>
<path d="M362.92 111.792C362.92 111.792 368.267 112.737 371.681 108.75" stroke="#263238" stroke-width="2" stroke-linecap="round" stroke-linejoin="round"/>
<path d="M365.799 95.5985C365.799 95.5985 369.748 94.1189 372.627 96.0095" stroke="#263238" stroke-width="2" stroke-linecap="round" stroke-linejoin="round"/>
<path d="M360.575 95.5985C360.575 95.5985 357.284 94.2422 355.516 96.2972" stroke="#263238" stroke-width="2" stroke-linecap="round" stroke-linejoin="round"/>
<path d="M360.451 100.284C360.451 101.27 360.04 102.051 359.547 102.051C359.053 102.051 358.642 101.27 358.642 100.284C358.642 99.2973 359.053 98.4753 359.547 98.4753C360.04 98.4753 360.451 99.2973 360.451 100.284Z" fill="#263238"/>
<path d="M369.953 100.284C369.953 101.27 369.583 102.051 369.09 102.051C368.596 102.051 368.185 101.27 368.185 100.284C368.185 99.2973 368.596 98.4753 369.09 98.4753C369.583 98.4753 369.953 99.2973 369.953 100.284Z" fill="#263238"/>
<path d="M350.374 234.681L350.497 225.433H375.918L376.453 234.393L373.203 234.27V227.653H353.13V234.681H350.374Z" fill="white" stroke="#263238" stroke-width="2" stroke-linecap="round" stroke-linejoin="round"/>
<path d="M350.374 234.681L350.497 225.433H375.918L376.453 234.393L373.203 234.27V227.653H353.13V234.681H350.374Z" fill="#969696" stroke="#263238" stroke-width="2" stroke-linecap="round" stroke-linejoin="round"/>
<path d="M356.667 212.939C356.667 212.939 362.755 220.501 362.92 221.488C363.084 222.433 364.071 228.064 364.071 228.064C364.071 228.064 362.303 229.173 361.644 229.009C360.986 228.845 359.876 227.899 359.876 227.899C359.876 227.899 354.405 228.68 353.747 228.68C353.13 228.68 351.526 227.406 351.526 226.132C351.526 224.858 350.086 215.528 350.086 215.528L356.667 212.939Z" fill="white" stroke="#263238" stroke-width="2" stroke-linecap="round" stroke-linejoin="round"/>
<path d="M345.767 135.219C345.767 135.219 339.926 175.374 339.926 177.305C339.926 179.237 350.086 215.528 350.086 215.528L356.667 212.939L352.142 184.991L352.636 178.251C352.636 178.251 348.934 169.743 348.769 164.77C348.605 159.797 349.263 153.056 349.263 153.056L345.767 135.219Z" fill="white" stroke="#263238" stroke-width="2" stroke-linecap="round" stroke-linejoin="round"/>
<path d="M393.152 150.015L384.309 184.991L370.323 214.583L376.905 217.131L399.569 181.621C399.569 181.621 409.564 138.589 409.688 136.657C409.852 134.726 397.183 131.027 397.183 131.027" fill="white"/>
<path d="M393.152 150.015L384.309 184.991L370.323 214.583L376.905 217.131L399.569 181.621C399.569 181.621 409.564 138.589 409.688 136.657C409.852 134.726 397.183 131.027 397.183 131.027" stroke="#263238" stroke-width="2" stroke-linecap="round" stroke-linejoin="round"/>
<path d="M370.324 214.583C370.324 214.583 364.236 222.104 364.072 223.091C363.907 224.036 362.92 229.667 362.92 229.667C362.92 229.667 364.689 230.776 365.347 230.612C366.005 230.448 367.116 229.502 367.116 229.502C367.116 229.502 372.586 230.324 373.203 230.324C373.861 230.324 375.466 229.009 375.466 227.735C375.466 226.461 376.905 217.131 376.905 217.131L370.324 214.583Z" fill="white" stroke="#263238" stroke-width="2" stroke-linecap="round" stroke-linejoin="round"/>
<path d="M388.875 234.023L338.61 232.831C338.61 232.831 334.579 272.493 335.443 275.575C336.306 278.617 340.708 279.069 340.708 279.069H386.777C386.777 279.069 390.232 279.767 391.302 276.027C392.371 272.287 391.836 269.698 391.836 269.698L388.875 234.023Z" fill="#969696" stroke="#263238" stroke-width="2" stroke-linecap="round" stroke-linejoin="round"/>
<path d="M338.856 255.601L383.116 256.464" stroke="#263238" stroke-width="2" stroke-linecap="round" stroke-linejoin="round"/>
<path d="M391.302 276.027C392.371 272.287 391.836 269.698 391.836 269.698L388.875 234.023C388.875 234.023 384.432 275.781 386.777 279.069C386.777 279.069 390.232 279.767 391.302 276.027Z" fill="#6B6B6B" stroke="#263238" stroke-width="2" stroke-linecap="round" stroke-linejoin="round"/>
<path d="M324.337 226.091C324.337 226.091 324.172 235.174 324.09 237.722C324.049 240.271 317.591 246.6 317.591 246.6L316.274 226.872L324.337 226.091Z" fill="white" stroke="#263238" stroke-width="2" stroke-linecap="round" stroke-linejoin="round"/>
<path d="M321.292 228.845C321.292 228.845 321.128 234.434 321.087 235.462C321.087 236.489 318.865 242.038 318.495 242.654C318.084 243.312 317.467 241.997 317.508 240.599C317.549 239.202 317.878 236.161 317.878 236.161L316.438 228.968" fill="white"/>
<path d="M321.292 228.845C321.292 228.845 321.128 234.434 321.087 235.462C321.087 236.489 318.865 242.038 318.495 242.654C318.084 243.312 317.467 241.997 317.508 240.599C317.549 239.202 317.878 236.161 317.878 236.161L316.438 228.968" stroke="#263238" stroke-width="2" stroke-linecap="round" stroke-linejoin="round"/>
<path d="M321.704 130.862C321.704 130.862 325.324 141.178 325.694 149.851C326.064 158.482 326.023 190.211 326.188 197.855C326.393 205.5 324.337 226.091 324.337 226.091L316.275 226.872L314.506 192.718L319.935 146.891L321.704 130.862Z" fill="#9ACA3C" stroke="#263238" stroke-width="2" stroke-linecap="round" stroke-linejoin="round"/>
<path d="M260.786 358.68L255.85 363.776C255.85 363.776 246.595 371.75 246.142 373.311C245.69 374.914 248.98 379.23 257.701 376.271C266.421 373.27 267.285 371.092 269.712 370.352C272.138 369.612 274.977 369.284 275.553 362.297C276.17 355.268 260.786 358.68 260.786 358.68Z" fill="white" stroke="#263238" stroke-width="2" stroke-linecap="round" stroke-linejoin="round"/>
<path d="M315.822 359.748L322.074 365.543C322.074 365.543 330.918 374.01 331.247 375.613C331.617 377.257 328.08 381.367 319.565 377.914C311.009 374.462 310.269 372.243 307.883 371.38C305.497 370.516 302.7 370.023 302.453 362.995C302.248 355.967 315.822 359.748 315.822 359.748Z" fill="white" stroke="#263238" stroke-width="2" stroke-linecap="round" stroke-linejoin="round"/>
<path d="M260.334 202.911L259.593 216.515C259.593 216.515 258.4 291.769 259.223 298.427C260.046 305.044 261.156 352.843 261.156 352.843L259.675 356.049L259.758 360.241C259.758 360.241 261.526 361.31 265.722 362.009C269.918 362.749 275.553 362.296 275.553 362.296L277.404 353.912L288.757 244.997L300.027 340.883L302.454 363.817C302.454 363.817 306.033 364.31 308.089 362.954C310.146 361.598 316.193 360.981 316.193 360.981C316.193 360.981 316.727 354.775 316.604 352.556C316.481 350.336 315.699 348.898 315.74 347.911C315.74 346.925 319.442 247.669 319.442 247.669L317.961 202.417L260.334 202.911Z" fill="#263238" stroke="#263238" stroke-width="2" stroke-linecap="round" stroke-linejoin="round"/>
<path d="M260.128 206.445C265.845 207.678 277.527 209.774 290.525 209.528C302.248 209.322 312.367 207.678 318.126 206.527L317.961 202.417L260.334 202.911L260.128 206.445Z" fill="#969696" stroke="#263238" stroke-width="2" stroke-linecap="round" stroke-linejoin="round"/>
<path d="M297.888 209.569L289.744 209.898L289.538 205.212L297.724 204.925L297.888 209.569Z" fill="white" stroke="#263238" stroke-width="2" stroke-linecap="round" stroke-linejoin="round"/>
<path d="M265.639 211.336L265.434 201.883L269.958 202.294L270.781 210.103" fill="#263238"/>
<path d="M265.639 211.336L265.434 201.883L269.958 202.294L270.781 210.103" stroke="#263238" stroke-width="2" stroke-linecap="round" stroke-linejoin="round"/>
<path d="M310.146 211.131L309.94 201.637L314.465 202.048L315.288 209.857" fill="#263238"/>
<path d="M310.146 211.131L309.94 201.637L314.465 202.048L315.288 209.857" stroke="#263238" stroke-width="2" stroke-linecap="round" stroke-linejoin="round"/>
<path d="M272.92 125.314C272.92 125.314 253.053 132.547 252.97 135.507C252.888 138.466 260.333 202.911 260.333 202.911C260.333 202.911 293.569 209.076 317.961 202.417L320.882 153.714C320.882 153.714 323.267 131.808 321.704 130.862C320.141 129.917 299.122 122.149 299.122 122.149L272.92 125.314Z" fill="#9ACA3C" stroke="#263238" stroke-width="2" stroke-linecap="round" stroke-linejoin="round"/>
<path d="M279.336 118.574C279.336 118.574 275.388 119.478 274.976 120.053C274.524 120.587 271.315 126.3 271.315 126.3L279.007 146.152L291.183 135.219L304.181 145.371C304.181 145.371 304.304 130.082 303.729 125.437C303.112 120.793 302.371 121.368 300.438 119.149C298.463 116.93 297.271 117.299 297.271 117.299L279.336 118.574Z" fill="white" stroke="#263238" stroke-width="2" stroke-linecap="round" stroke-linejoin="round"/>
<path d="M277.568 114.053L277.774 123.136C277.774 123.136 282.052 130.616 283.286 132.548C284.561 134.438 289.662 142.823 289.95 142.247C290.279 141.672 299.369 125.191 299.739 123.588C300.068 122.026 298.505 110.436 298.505 110.436C298.505 110.436 290.032 117.834 286.988 118.204C283.944 118.532 277.568 114.053 277.568 114.053Z" fill="white" stroke="#263238" stroke-width="2" stroke-linecap="round" stroke-linejoin="round"/>
<path d="M288.469 118.943L281.065 128.561L277.774 123.136L277.568 114.052L288.469 118.943Z" fill="#263238" stroke="#263238" stroke-width="2" stroke-linecap="round" stroke-linejoin="round"/>
<path d="M271.933 92.804C271.933 92.804 269.63 92.0231 268.972 95.4755C268.314 98.9279 272.139 101.312 272.139 101.312L271.933 92.804Z" fill="white" stroke="#263238" stroke-width="2" stroke-linecap="round" stroke-linejoin="round"/>
<path d="M271.892 83.7208C271.892 83.7208 272.097 97.5715 272.138 101.312C272.18 105.093 274.524 109.038 275.882 112.696C277.239 116.354 282.833 122.56 286.453 121.944C290.114 121.327 296.037 115.82 298.423 112.285C300.849 108.751 301.549 103.408 301.549 103.408C301.549 103.408 306.69 100.531 306.485 97.2016C306.32 93.8725 304.017 92.3518 304.017 92.3518L303.688 83.8441C303.688 83.8441 301.384 78.4189 291.718 77.3092C282.052 76.1995 273.002 80.4328 273.002 80.4328L271.892 83.7208Z" fill="white" stroke="#263238" stroke-width="2" stroke-linecap="round" stroke-linejoin="round"/>
<path d="M273.99 91.1188C273.99 91.1188 276.211 89.146 280.366 91.5709" stroke="#263238" stroke-width="2" stroke-linecap="round" stroke-linejoin="round"/>
<path d="M285.836 91.7353C285.836 91.7353 288.798 89.3515 292.458 92.1874" stroke="#263238" stroke-width="2" stroke-linecap="round" stroke-linejoin="round"/>
<path d="M281.476 92.4751L282.299 94.6534L279.995 104.271L284.767 104.106" stroke="#263238" stroke-width="2" stroke-linecap="round" stroke-linejoin="round"/>
<path d="M282.093 107.518C282.093 107.518 288.222 109.86 291.553 104.723" stroke="#263238" stroke-width="2" stroke-linecap="round" stroke-linejoin="round"/>
<path d="M290.197 96.3386C290.156 97.2839 289.703 98.0648 289.127 98.0237C288.593 98.0237 288.14 97.2428 288.181 96.2564C288.181 95.3111 288.675 94.5713 289.251 94.5713C289.786 94.5713 290.238 95.3933 290.197 96.3386Z" fill="#263238"/>
<path d="M278.062 95.8454C278.062 96.8318 277.569 97.5716 276.993 97.5716C276.458 97.5305 276.005 96.7496 276.047 95.8043C276.088 94.859 276.54 94.0781 277.116 94.1192C277.651 94.1192 278.103 94.9001 278.062 95.8454Z" fill="#263238"/>
<path d="M280.653 70.3221C276.992 71.3907 273.537 73.158 270.617 75.624C268.519 77.3502 266.503 79.3641 266.174 80.8026C265.516 83.9673 277.157 86.8854 280.653 86.2689C284.108 85.6113 292.171 82.2411 292.171 82.2411C292.171 82.2411 291.348 85.9812 292.335 86.1456C293.363 86.31 296.572 85.6524 296.572 85.6524C296.572 85.6524 296.037 88.8171 296.448 89.7213C296.86 90.5844 298.258 92.3517 298.258 92.3517C298.258 92.3517 298.834 97.5714 299.41 97.7358C299.986 97.9002 299.986 97.9002 299.986 97.9002C299.986 97.9002 301.096 93.7491 301.549 93.1737C302.001 92.5983 304.017 92.3517 304.017 92.3517C304.017 92.3517 306.773 82.611 306.115 79.734C305.457 76.8159 300.356 73.9389 300.356 73.9389L297.6 73.2813C297.6 73.2813 292.253 66.9519 283.697 69.459C282.381 69.8289 281.394 70.1166 280.653 70.3221Z" fill="#263238" stroke="#263238" stroke-width="2" stroke-linecap="round" stroke-linejoin="round"/>
<path d="M312.284 171.223C312.284 171.223 315.122 169.99 315.534 169.496C315.904 169.003 319.894 163.249 320.922 162.633C321.992 162.016 329.355 161.975 329.355 161.975C329.355 161.975 333.674 159.057 333.879 160.824C334.085 162.633 329.807 164.4 329.025 164.77C328.285 165.14 325.036 166.208 325.036 166.208C325.036 166.208 331.823 165.222 332.851 164.77C333.92 164.277 342.764 162.345 342.476 163.619C342.188 164.893 338.815 166.702 338.815 166.702C338.815 166.702 330.959 173.73 329.149 174.716C327.339 175.702 313.642 177.223 313.642 177.223L312.284 171.223Z" fill="white" stroke="#263238" stroke-width="2" stroke-linecap="round" stroke-linejoin="round"/>
<path d="M307.431 171.058L313.724 170.606L314.341 179.402L307.431 180.635V171.058Z" fill="#9ACA3C" stroke="#263238" stroke-width="2" stroke-linecap="round" stroke-linejoin="round"/>
<path d="M263.007 129.383C263.007 129.383 248.693 133.781 247.705 136.288C246.718 138.754 258.071 193.006 258.277 193.951C258.482 194.855 260.498 196.499 261.65 196.335C262.801 196.129 307.925 184.334 309.117 182.977C310.31 181.621 308.295 170.853 308.295 170.853L272.139 172.373L269.012 144.179" fill="#9ACA3C"/>
<path d="M263.007 129.383C263.007 129.383 248.693 133.781 247.705 136.288C246.718 138.754 258.071 193.006 258.277 193.951C258.482 194.855 260.498 196.499 261.65 196.335C262.801 196.129 307.925 184.334 309.117 182.977C310.31 181.621 308.295 170.853 308.295 170.853L272.139 172.373L269.012 144.179" stroke="#263238" stroke-width="2" stroke-linecap="round" stroke-linejoin="round"/>
<path d="M288.756 244.997L289.373 237.394L297.97 232.215" stroke="white" stroke-width="2" stroke-linecap="round" stroke-linejoin="round"/>
<path d="M204.145 156.385L214.14 140.233L215.415 130.081C215.415 130.081 215.868 125.314 216.032 124.862C216.197 124.369 215.703 115.327 216.814 115.039C217.924 114.71 218.582 118.327 218.747 119.437C218.87 120.546 219.035 127.533 219.035 127.533C219.035 127.533 221.256 117.875 221.256 117.094C221.256 116.272 222.079 114.71 223.189 115.655C224.3 116.601 223.025 120.094 223.025 121.82C223.025 123.588 222.531 126.588 222.531 126.588C222.531 126.588 226.357 117.382 227.303 116.436C228.249 115.491 229.195 116.436 228.413 119.601C227.591 122.766 226.192 126.917 226.027 127.862C225.863 128.807 225.863 128.807 225.863 128.807C225.863 128.807 228.701 125.643 230.141 122.766C231.58 119.93 232.856 121.82 231.58 124.04C230.305 126.259 226.48 133.411 226.357 133.863C226.192 134.356 224.917 137.192 223.313 139.904C221.75 142.576 218.87 145.124 218.87 145.124L211.754 161.934L204.145 156.385Z" fill="white" stroke="#263238" stroke-width="2" stroke-linecap="round" stroke-linejoin="round"/>
<path d="M215.703 136.082C215.703 136.082 218.253 129.301 219.529 126.259C220.804 123.259 222.531 119.149 223.025 121.82C223.477 124.533 222.079 127.698 221.421 129.424C220.804 131.191 221.75 134.356 220.804 136.904C219.858 139.411 217.924 140.85 217.924 140.85" fill="white"/>
<path d="M215.703 136.082C215.703 136.082 218.253 129.301 219.529 126.259C220.804 123.259 222.531 119.149 223.025 121.82C223.477 124.533 222.079 127.698 221.421 129.424C220.804 131.191 221.75 134.356 220.804 136.904C219.858 139.411 217.924 140.85 217.924 140.85" stroke="#263238" stroke-width="2" stroke-linecap="round" stroke-linejoin="round"/>
<path d="M222.366 127.698L226.644 131.191" stroke="#263238" stroke-width="2" stroke-linecap="round" stroke-linejoin="round"/>
<path d="M183.824 136.082L195.588 166.496L204.761 154.947L213.81 161.276C213.81 161.276 199.537 186.019 198.756 187.416C197.974 188.854 193.655 189.512 192.257 188.854C190.817 188.238 185.757 179.196 185.757 179.196L183.824 136.082Z" fill="#9ACA3C" stroke="#263238" stroke-width="2" stroke-linecap="round" stroke-linejoin="round"/>
<path d="M131.174 227.078C131.174 227.078 128.871 242.202 134.794 259.505C140.717 276.809 141.787 284.001 140.512 291.522C139.278 299.085 134.959 303.03 134.959 318.484C134.959 333.896 138.331 361.475 138.249 363.324C138.167 365.132 137.139 377.997 137.879 382.189C138.619 386.381 144.625 391.478 146.476 390.861C148.368 390.245 152.358 383.751 152.481 380.545C152.646 377.298 148.944 366.53 149.067 363.776C149.191 361.022 159.145 313.799 160.502 308.99C161.86 304.222 163.587 296.495 163.587 296.495C163.587 296.495 160.297 308.086 163.505 324.115C166.713 340.144 166.467 356.501 165.932 363.16C165.397 369.818 164.739 379.476 164.739 379.476C164.739 379.476 166.714 381.614 169.716 382.23C172.678 382.805 173.213 381.449 177.696 383.504C182.221 385.518 185.388 386.833 189.296 386.998C193.245 387.162 196.247 386.628 195.425 384.491C194.602 382.394 186.704 378.367 184.483 376.188C182.303 374.01 177.532 367.105 177.573 365.749C177.655 364.352 185.676 318.196 185.758 311.497C185.799 304.839 190.776 276.028 191.64 262.013C192.504 247.997 188.843 220.666 188.843 220.666L133.395 218.2L131.174 227.078Z" fill="white" stroke="#263238" stroke-width="2" stroke-linecap="round" stroke-linejoin="round"/>
<path d="M165.809 364.68C168.976 365.79 173.213 366.776 177.737 366.448C177.655 366.16 177.573 365.913 177.573 365.749C177.655 364.352 185.676 318.196 185.758 311.497C185.799 304.839 190.776 276.028 191.64 262.013C192.504 247.997 188.843 220.666 188.843 220.666L133.395 218.2L131.174 227.078C131.174 227.078 128.871 242.202 134.794 259.505C140.717 276.809 141.787 284.001 140.512 291.522C139.278 299.085 134.959 303.03 134.959 318.484C134.959 333.896 138.331 361.475 138.249 363.324C138.249 363.324 143.144 364.557 149.067 364.064C149.067 363.982 149.067 363.858 149.067 363.776C149.191 361.022 159.145 313.799 160.502 308.99C161.448 305.661 162.6 300.893 163.176 298.304C162.395 302.167 161.078 311.867 163.505 324.115C166.713 340.144 166.467 356.501 165.932 363.16C165.905 363.653 165.863 364.16 165.809 364.68Z" fill="#263238" stroke="#263238" stroke-width="2" stroke-linecap="round" stroke-linejoin="round"/>
<path d="M165.15 292.796C165.15 292.796 167.207 283.795 167.207 276.891C167.207 270.027 166.302 241.462 166.302 241.462" stroke="white" stroke-width="2" stroke-linecap="round" stroke-linejoin="round"/>
<path d="M152.481 380.545C152.522 379.394 152.111 377.339 151.535 375.038C149.931 373.846 147.381 372.571 144.625 373.106C140.018 374.01 137.714 375.407 137.714 375.407L137.632 375.284C137.591 378.079 137.632 380.668 137.879 382.189C138.619 386.381 144.625 391.478 146.476 390.861C148.368 390.245 152.358 383.751 152.481 380.545Z" fill="white" stroke="#263238" stroke-width="2" stroke-linecap="round" stroke-linejoin="round"/>
<path d="M195.424 384.49C194.601 382.394 186.703 378.366 184.482 376.188C184.441 376.147 184.359 376.065 184.318 375.983C183.166 375.859 182.055 375.859 181.48 376.106C179.875 376.805 176.42 377.955 176.42 377.955L165.191 372.9C164.944 376.599 164.738 379.476 164.738 379.476C164.738 379.476 166.713 381.613 169.715 382.23C172.677 382.805 173.212 381.449 177.695 383.504C182.22 385.518 185.387 386.833 189.295 386.997C193.244 387.162 196.246 386.628 195.424 384.49Z" stroke="#263238" stroke-width="2" stroke-linecap="round" stroke-linejoin="round"/>
<path d="M184.688 197.773C185.017 196.663 185.017 193.006 185.181 192.225C185.346 191.444 187.649 181.744 187.649 181.744C187.649 181.744 184.318 136.904 183.824 136.082C183.372 135.301 168.152 129.753 168.152 129.753L148.326 130.081C148.326 130.081 126.896 137.685 126.896 138.301C126.896 138.959 140.223 197.239 140.223 197.239C140.223 197.239 133.353 211.994 131.297 219.392C129.199 226.749 129.199 233.653 129.199 233.653L141.662 224.899C141.662 224.899 149.025 230.9 153.632 233.407C158.239 235.955 162.846 237.805 162.846 237.805L169.756 231.105L173.911 237.805C173.911 237.805 176.873 237.311 183.125 232.708C189.336 228.105 190.94 225.146 190.94 225.146L184.688 197.773Z" fill="#9ACA3C" stroke="#263238" stroke-width="2" stroke-linecap="round" stroke-linejoin="round"/>
<path d="M154.99 123.423C154.99 123.423 149.437 124.204 148.326 125.643C147.216 127.081 145.159 130.534 145.159 130.534C145.159 130.534 145.941 144.795 146.558 147.672C147.216 150.508 148.491 153.056 149.108 152.399C149.766 151.782 159.885 143.398 160.379 143.233C160.831 143.069 173.377 148.782 174.652 149.398C175.927 150.056 176.873 150.056 176.708 148.124C176.544 146.234 175.269 136.246 172.76 131.191C170.209 126.095 166.549 123.094 166.549 123.094L154.99 123.423Z" fill="white" stroke="#263238" stroke-width="2" stroke-linecap="round" stroke-linejoin="round"/>
<path d="M182.097 83.1863C182.097 83.1863 184.647 88.5704 184.647 92.6804C184.647 96.7904 183.989 99.503 184.318 101.394C184.647 103.284 187.979 104.394 187.815 105.668C187.65 106.942 184.647 108.997 184.647 108.997C184.647 108.997 181.315 117.258 180.493 120.094C179.711 122.93 176.379 122.313 174.816 121.985C173.212 121.656 169.263 120.423 169.263 120.423C169.263 120.423 168.153 127.533 168.153 128.478C168.153 129.424 169.88 131.191 169.716 136.74C169.551 142.288 168.441 154.618 166.878 156.55C165.273 158.44 162.764 154.947 162.435 153.673C162.106 152.399 154.99 139.74 152.769 134.685C150.959 130.492 150.383 129.136 151.165 127.698C151.987 126.259 152.769 125.149 152.769 125.149C152.769 125.149 154.044 120.423 154.044 116.601C154.044 112.819 152.111 110.6 152.111 110.6C152.111 110.6 158.157 106.942 158.486 100.9C158.774 94.8998 163.546 92.516 168.317 89.6801C173.048 86.8031 182.097 83.1863 182.097 83.1863Z" fill="white" stroke="#263238" stroke-width="2" stroke-linecap="round" stroke-linejoin="round"/>
<path d="M169.263 120.423C169.263 120.423 166.878 119.765 165.603 118.656C164.327 117.546 163.217 116.272 163.217 116.272C163.217 116.272 164.821 124.368 168.441 125.478L169.263 120.423Z" fill="#263238" stroke="#263238" stroke-width="2" stroke-linecap="round" stroke-linejoin="round"/>
<path d="M180.986 99.955C180.986 101.188 180.534 102.174 179.958 102.174C179.382 102.174 178.93 101.188 178.93 99.955C178.93 98.722 179.382 97.7356 179.958 97.7356C180.534 97.7356 180.986 98.722 180.986 99.955Z" fill="#263238"/>
<path d="M177.161 108.668C177.161 108.668 178.765 111.381 182.262 110.271" stroke="#263238" stroke-width="2" stroke-linecap="round" stroke-linejoin="round"/>
<path d="M177.654 96.0096C177.654 96.0096 178.929 93.297 182.261 93.9546" stroke="#263238" stroke-width="2" stroke-linecap="round" stroke-linejoin="round"/>
<path d="M169.099 94.5711C169.099 94.5711 165.603 95.5164 165.603 100.12C165.603 104.723 160.708 110.6 156.882 112.491C153.057 114.381 146.435 112.162 142.445 102.339C138.496 92.5161 141.992 79.5696 148.656 75.4185C158.487 69.2124 167.659 71.1441 173.541 71.7606C179.382 72.3771 184.483 75.254 185.593 78.2543C186.704 81.2546 183.372 83.8028 178.765 87.6251C174.158 91.4063 169.099 94.5711 169.099 94.5711Z" fill="#263238" stroke="#263238" stroke-width="2" stroke-linecap="round" stroke-linejoin="round"/>
<path d="M141.169 99.7907C141.169 99.7907 134.053 93.6257 130.722 97.1192C127.39 100.613 125.95 112.943 129.282 116.929C132.614 120.875 145.447 120.711 147.216 116.601C148.944 112.491 147.669 109.614 147.669 109.614C147.669 109.614 141.169 102.01 141.169 99.7907Z" fill="#263238" stroke="#263238" stroke-width="2" stroke-linecap="round" stroke-linejoin="round"/>
<path d="M126.896 138.302C126.896 138.302 112.006 192.184 112.17 194.896C112.335 197.568 117.888 198.225 120.891 198.225C123.893 198.225 134.506 171.921 134.506 171.921L126.896 138.302Z" fill="#9ACA3C" stroke="#263238" stroke-width="2" stroke-linecap="round" stroke-linejoin="round"/>
<path d="M151.782 161.153L148.779 198.883C148.779 198.883 156.142 201.883 161.901 201.185C167.659 200.486 180.123 199.828 180.123 199.828L185.635 159.098C185.635 159.098 162.394 164.606 151.782 161.153Z" fill="white" stroke="#263238" stroke-width="2" stroke-linecap="round" stroke-linejoin="round"/>
<path d="M120.109 184.909C120.109 184.909 138.496 194.567 141.169 194.238C141.169 194.238 142.444 193.622 142.609 192.8C142.773 192.019 147.38 176.483 148.162 176.36C148.943 176.196 157.376 176.031 158.774 176.976C160.214 177.922 161.16 178.251 160.543 179.36C159.885 180.47 158.61 180.306 157.664 180.306C156.718 180.306 154.167 179.196 152.769 179.977C151.329 180.758 149.766 184.744 149.602 185.196C149.437 185.69 155.278 183.47 156.882 183.799C158.486 184.087 162.929 188.526 162.764 189.8C162.6 191.074 160.708 190.457 160.708 190.457C160.708 190.457 157.828 188.526 157.376 188.526C156.882 188.526 154.826 188.854 154.826 188.854C154.826 188.854 159.72 190.745 159.72 192.348C159.72 193.91 157.993 195.019 157.993 195.019C157.993 195.019 158.939 196.787 157.499 197.896C156.101 199.006 153.221 198.225 152.44 198.348C151.658 198.513 150.054 201.39 147.997 202.5C145.941 203.609 142.115 203.28 142.115 203.28C142.115 203.28 122.947 200.897 117.888 199.787C112.787 198.677 110.566 196.129 113.116 188.69" fill="#9ACA3C"/>
<path d="M120.109 184.909C120.109 184.909 138.496 194.567 141.169 194.238C141.169 194.238 142.444 193.622 142.609 192.8C142.773 192.019 147.38 176.483 148.162 176.36C148.943 176.196 157.376 176.031 158.774 176.976C160.214 177.922 161.16 178.251 160.543 179.36C159.885 180.47 158.61 180.306 157.664 180.306C156.718 180.306 154.167 179.196 152.769 179.977C151.329 180.758 149.766 184.744 149.602 185.196C149.437 185.69 155.278 183.47 156.882 183.799C158.486 184.087 162.929 188.526 162.764 189.8C162.6 191.074 160.708 190.457 160.708 190.457C160.708 190.457 157.828 188.526 157.376 188.526C156.882 188.526 154.826 188.854 154.826 188.854C154.826 188.854 159.72 190.745 159.72 192.348C159.72 193.91 157.993 195.019 157.993 195.019C157.993 195.019 158.939 196.787 157.499 197.896C156.101 199.006 153.221 198.225 152.44 198.348C151.658 198.513 150.054 201.39 147.997 202.5C145.941 203.609 142.115 203.28 142.115 203.28C142.115 203.28 122.947 200.897 117.888 199.787C112.787 198.677 110.566 196.129 113.116 188.69" stroke="#263238" stroke-width="2" stroke-linecap="round" stroke-linejoin="round"/>
<path d="M160.708 190.457C160.708 190.457 162.6 191.074 162.765 189.8C162.929 188.526 158.487 184.087 156.883 183.799C155.278 183.47 149.437 185.69 149.602 185.196C149.767 184.744 151.33 180.758 152.769 179.977C154.168 179.196 156.718 180.306 157.664 180.306C158.61 180.306 159.885 180.47 160.543 179.36C161.16 178.251 160.214 177.922 158.775 176.976C157.376 176.031 148.944 176.196 148.162 176.36C147.381 176.483 142.774 192.019 142.609 192.8C142.445 193.622 141.17 194.238 141.17 194.238C139.648 194.444 132.861 191.32 127.431 188.608C126.403 189.348 124.716 190.992 123.236 194.28C122.125 196.746 121.919 198.924 122.002 200.527C129.488 201.719 142.116 203.28 142.116 203.28C142.116 203.28 145.941 203.609 147.998 202.5C150.054 201.39 151.659 198.513 152.44 198.348C153.222 198.225 156.101 199.006 157.5 197.896C158.939 196.787 157.993 195.019 157.993 195.019C157.993 195.019 159.721 193.91 159.721 192.348C159.721 190.745 154.826 188.854 154.826 188.854C154.826 188.854 156.883 188.526 157.376 188.526C157.829 188.526 160.708 190.457 160.708 190.457Z" fill="white" stroke="#263238" stroke-width="2" stroke-linecap="round" stroke-linejoin="round"/>
<path d="M157.993 195.019L149.89 192.348" stroke="#263238" stroke-width="2" stroke-linecap="round" stroke-linejoin="round"/>
<path d="M154.825 188.854L150.712 187.909" stroke="#263238" stroke-width="2" stroke-linecap="round" stroke-linejoin="round"/>
<path d="M124.881 187.087C124.881 187.087 122.7 187.58 120.438 191.773C118.135 195.965 118.875 200.527 118.875 200.527L123.194 201.267C123.194 201.267 122.824 197.28 124.634 193.951C126.444 190.581 129.076 189.265 129.076 189.265L124.881 187.087Z" fill="white" stroke="#263238" stroke-width="2" stroke-linecap="round" stroke-linejoin="round"/>
<path d="M198.098 163.044L207.641 171.593L213.811 161.276L204.761 154.947L198.098 163.044Z" fill="white" stroke="#263238" stroke-width="2" stroke-linecap="round" stroke-linejoin="round"/>
</svg>
