<svg width="17" height="17" viewBox="0 0 17 17" fill="none" xmlns="http://www.w3.org/2000/svg">
<path d="M15.5727 7.59554L12.5777 10.2093L13.4749 14.1007C13.5224 14.3041 13.5088 14.517 13.436 14.7128C13.3631 14.9086 13.2341 15.0785 13.0652 15.2014C12.8962 15.3243 12.6948 15.3946 12.4861 15.4037C12.2774 15.4127 12.0707 15.36 11.8918 15.2522L8.49775 13.1936L5.11103 15.2522C4.93211 15.36 4.72538 15.4127 4.51668 15.4037C4.30797 15.3946 4.10656 15.3243 3.93763 15.2014C3.76869 15.0785 3.63972 14.9086 3.56685 14.7128C3.49398 14.517 3.48043 14.3041 3.52791 14.1007L4.42373 10.2133L1.42814 7.59554C1.2697 7.45889 1.15513 7.2785 1.0988 7.077C1.04247 6.8755 1.04689 6.66185 1.1115 6.46285C1.1761 6.26385 1.29803 6.08835 1.46198 5.95837C1.62593 5.82838 1.82461 5.7497 2.0331 5.73218L5.98162 5.39018L7.52291 1.71393C7.60339 1.52104 7.73916 1.35626 7.9131 1.24036C8.08704 1.12446 8.29139 1.06262 8.50041 1.06262C8.70942 1.06262 8.91377 1.12446 9.08771 1.24036C9.26165 1.35626 9.39742 1.52104 9.47791 1.71393L11.0238 5.39018L14.971 5.73218C15.1795 5.7497 15.3782 5.82838 15.5422 5.95837C15.7061 6.08835 15.828 6.26385 15.8926 6.46285C15.9572 6.66185 15.9617 6.8755 15.9053 7.077C15.849 7.2785 15.7344 7.45889 15.576 7.59554H15.5727Z" fill="#E5F900"/>
</svg>
