<svg width="664" height="664" viewBox="0 0 664 664" fill="none" xmlns="http://www.w3.org/2000/svg">
<path opacity="0.4" d="M610.946 384.356C610.946 399.496 598.662 411.746 583.556 411.746C568.417 411.746 556.166 399.496 556.166 384.356C556.166 369.25 568.417 356.966 583.556 356.966C598.662 356.966 610.946 369.25 610.946 384.356Z" fill="#E5E5FF"/>
<path opacity="0.4" d="M132.866 151.392C155.94 151.392 174.632 170.117 174.632 193.191C174.632 216.265 155.94 234.956 132.866 234.956C109.792 234.956 91.0674 216.265 91.0674 193.191C91.0674 170.117 109.792 151.392 132.866 151.392Z" fill="#E5E5FF"/>
<path opacity="0.4" d="M297.705 123.438C302.021 134.659 296.41 147.275 285.188 151.558C273.934 155.874 261.351 150.263 257.035 139.042C252.719 127.82 258.363 115.204 269.584 110.888C280.806 106.605 293.422 112.216 297.705 123.438Z" fill="#E5E5FF"/>
<path d="M246.178 141.997C244.85 141.997 243.489 141.897 242.161 141.698L242.294 140.868C243.589 141.067 244.883 141.167 246.211 141.167H246.344V141.997H246.178ZM250.527 141.631L250.395 140.835C251.723 140.602 253.051 140.27 254.345 139.805L254.611 140.602C253.283 141.067 251.922 141.399 250.527 141.631ZM238.044 140.702C236.716 140.27 235.421 139.706 234.16 139.075L234.558 138.345C235.753 138.975 237.015 139.507 238.31 139.905L238.044 140.702ZM258.495 138.942L258.097 138.212C259.292 137.581 260.454 136.817 261.517 136.021L262.048 136.685C260.919 137.515 259.724 138.278 258.495 138.942ZM230.574 136.851C229.445 136.021 228.383 135.091 227.42 134.095L227.985 133.531C228.947 134.493 229.977 135.39 231.072 136.187L230.574 136.851ZM265.169 133.863L264.571 133.298C265.501 132.302 266.364 131.24 267.127 130.111L267.825 130.576C267.028 131.738 266.131 132.833 265.169 133.863ZM224.731 130.841C223.901 129.713 223.204 128.484 222.573 127.223L223.337 126.857C223.934 128.086 224.631 129.248 225.395 130.377L224.731 130.841ZM269.916 126.924L269.153 126.559C269.75 125.33 270.215 124.035 270.58 122.741L271.377 122.973C271.012 124.301 270.514 125.629 269.916 126.924ZM221.079 123.272C220.681 121.944 220.382 120.549 220.183 119.155L221.013 119.055C221.212 120.383 221.477 121.745 221.876 123.039L221.079 123.272ZM272.207 118.823L271.377 118.723C271.51 117.761 271.576 116.765 271.576 115.769C271.576 115.392 271.565 115.027 271.543 114.673L272.373 114.607C272.395 115.005 272.406 115.392 272.406 115.769C272.406 116.798 272.34 117.827 272.207 118.823ZM220.813 114.972L219.983 114.939C220.05 113.544 220.183 112.15 220.481 110.755L221.278 110.921C221.013 112.249 220.88 113.611 220.813 114.972ZM271.012 110.623C270.746 109.295 270.348 107.967 269.883 106.705L270.647 106.406C271.145 107.701 271.543 109.062 271.842 110.457L271.012 110.623ZM222.374 107.004L221.577 106.705C222.075 105.377 222.673 104.115 223.37 102.887L224.067 103.285C223.403 104.481 222.839 105.709 222.374 107.004ZM269.783 106.506C269.285 105.244 268.688 103.983 267.991 102.821L268.721 102.422C269.418 103.617 270.049 104.879 270.547 106.207L269.783 106.506ZM226.391 99.8989L225.727 99.4009C226.59 98.3053 227.586 97.2429 228.615 96.3133L229.18 96.9441C228.151 97.8405 227.221 98.8365 226.391 99.8989ZM265.633 99.5005C264.77 98.4713 263.807 97.4753 262.778 96.5789L263.343 95.9813C264.405 96.8777 265.401 97.9069 266.297 98.9693L265.633 99.5005ZM232.367 94.4541L231.935 93.7569C233.097 92.9933 234.359 92.3293 235.654 91.7649L235.986 92.5285C234.724 93.0597 233.529 93.7237 232.367 94.4541ZM259.458 94.1885C258.329 93.4581 257.101 92.8605 255.839 92.3293L256.171 91.5657C257.466 92.0969 258.728 92.7277 259.923 93.4913L259.458 94.1885ZM239.804 91.2005L239.605 90.3705C240.966 90.0385 242.36 89.8061 243.755 89.6733L243.821 90.5033C242.46 90.6029 241.132 90.8353 239.804 91.2005ZM251.922 91.0677C250.594 90.7357 249.266 90.5365 247.905 90.4369L247.971 89.6069C249.365 89.7065 250.76 89.9389 252.121 90.2709L251.922 91.0677Z" fill="#9ACA3C"/>
<path d="M507.661 432.065V431.235C509.023 431.202 510.417 431.168 511.778 431.069L511.845 431.899C510.45 431.998 509.056 432.032 507.661 432.065ZM503.511 432.032C502.117 431.998 500.723 431.932 499.361 431.832L499.395 431.002C500.789 431.102 502.15 431.168 503.545 431.202L503.511 432.032ZM515.995 431.534L515.895 430.704C517.256 430.571 518.617 430.372 519.979 430.172L520.111 430.969C518.75 431.202 517.356 431.401 515.995 431.534ZM495.178 431.434C493.817 431.268 492.423 431.036 491.061 430.803L491.194 430.006C492.555 430.239 493.95 430.438 495.278 430.604L495.178 431.434ZM524.228 430.239L524.062 429.442C525.39 429.143 526.751 428.844 528.079 428.479L528.279 429.309C526.951 429.641 525.589 429.94 524.228 430.239ZM486.978 430.006C485.617 429.708 484.255 429.376 482.927 429.044L483.16 428.214C484.455 428.579 485.816 428.911 487.144 429.21L486.978 430.006ZM532.296 428.147L532.063 427.35C533.358 426.952 534.686 426.52 535.981 426.056L536.247 426.819C534.952 427.284 533.624 427.749 532.296 428.147ZM478.943 427.815C477.615 427.417 476.287 426.952 474.993 426.454L475.291 425.69C476.586 426.155 477.881 426.62 479.209 427.052L478.943 427.815ZM540.098 425.292L539.799 424.528C541.061 423.997 542.322 423.433 543.551 422.835L543.916 423.599C542.654 424.196 541.393 424.761 540.098 425.292ZM471.108 424.86C469.847 424.329 468.552 423.732 467.323 423.134L467.689 422.37C468.917 422.968 470.179 423.566 471.44 424.097L471.108 424.86ZM547.634 421.74L547.236 421.009C548.431 420.345 549.659 419.681 550.821 418.984L551.253 419.681C550.058 420.412 548.863 421.076 547.634 421.74ZM463.605 421.208C462.41 420.544 461.181 419.847 459.986 419.117L460.418 418.42C461.613 419.117 462.808 419.814 464.003 420.478L463.605 421.208ZM554.772 417.49L554.341 416.793C555.469 416.029 556.631 415.232 557.727 414.436L558.192 415.1C557.096 415.93 555.934 416.726 554.772 417.49ZM456.5 416.859C455.338 416.096 454.209 415.266 453.081 414.436L453.579 413.772C454.707 414.602 455.836 415.398 456.965 416.162L456.5 416.859ZM561.512 412.576L560.981 411.946C562.076 411.082 563.139 410.186 564.168 409.29L564.699 409.92C563.67 410.817 562.607 411.713 561.512 412.576ZM449.827 411.879C448.731 410.983 447.669 410.086 446.673 409.157L447.204 408.526C448.233 409.456 449.296 410.352 450.358 411.248L449.827 411.879ZM567.753 407.065L567.189 406.468C568.152 405.505 569.148 404.509 570.077 403.513L570.675 404.077C569.745 405.106 568.749 406.102 567.753 407.065ZM443.619 406.268C442.656 405.306 441.693 404.276 440.763 403.247L441.361 402.716C442.291 403.712 443.253 404.708 444.216 405.671L443.619 406.268ZM573.464 400.99L572.833 400.458C573.696 399.429 574.593 398.334 575.423 397.271L576.087 397.769C575.223 398.865 574.36 399.927 573.464 400.99ZM438.008 400.126C437.111 399.064 436.248 397.968 435.418 396.873L436.082 396.375C436.879 397.47 437.742 398.533 438.639 399.595L438.008 400.126ZM578.577 394.416L577.879 393.918C578.676 392.822 579.44 391.66 580.203 390.498L580.901 390.93C580.137 392.125 579.373 393.287 578.577 394.416ZM432.995 393.486C432.198 392.358 431.434 391.162 430.704 390L431.434 389.569C432.131 390.731 432.895 391.893 433.659 393.022L432.995 393.486ZM583.059 387.378L582.328 386.946C583.025 385.751 583.689 384.556 584.32 383.327L585.051 383.692C584.42 384.921 583.756 386.149 583.059 387.378ZM428.612 386.415C427.948 385.186 427.317 383.958 426.687 382.73L427.45 382.364C428.048 383.56 428.679 384.788 429.343 385.983L428.612 386.415ZM586.843 379.974L586.08 379.609C586.677 378.347 587.209 377.086 587.707 375.824L588.47 376.123C587.972 377.384 587.408 378.679 586.843 379.974ZM424.927 378.978C424.396 377.716 423.865 376.422 423.367 375.127L424.13 374.828C424.628 376.09 425.159 377.384 425.691 378.646L424.927 378.978ZM589.931 372.205L589.134 371.94C589.566 370.645 589.997 369.317 590.396 367.989L591.193 368.221C590.794 369.549 590.363 370.877 589.931 372.205ZM421.972 371.209C421.541 369.881 421.109 368.553 420.744 367.192L421.541 366.993C421.906 368.321 422.337 369.649 422.736 370.944L421.972 371.209ZM592.255 364.204L591.458 364.005C591.79 362.677 592.056 361.316 592.321 359.954L593.151 360.12C592.886 361.482 592.587 362.843 592.255 364.204ZM419.748 363.175C419.449 361.814 419.183 360.452 418.951 359.091L419.748 358.925C420.013 360.286 420.279 361.648 420.578 362.976L419.748 363.175ZM593.782 356.037L592.985 355.904C593.151 354.543 593.317 353.182 593.45 351.82L594.28 351.887C594.147 353.248 593.981 354.642 593.782 356.037ZM418.287 354.974C418.121 353.613 417.955 352.219 417.855 350.824L418.685 350.758C418.785 352.152 418.951 353.514 419.117 354.875L418.287 354.974ZM594.579 347.704L593.749 347.67C593.782 346.309 593.815 344.915 593.815 343.554H594.645C594.645 344.948 594.612 346.342 594.579 347.704ZM417.623 346.674C417.557 345.645 417.557 344.583 417.557 343.554C417.557 343.2 417.557 342.845 417.557 342.491L418.387 342.524C418.387 342.856 418.387 343.2 418.387 343.554C418.387 344.583 418.387 345.612 418.453 346.641L417.623 346.674ZM593.815 341.528C593.782 340.134 593.716 338.773 593.616 337.378L594.446 337.345C594.546 338.706 594.612 340.101 594.645 341.495L593.815 341.528ZM418.519 338.408L417.689 338.341C417.789 336.98 417.889 335.586 418.055 334.191L418.885 334.291C418.719 335.652 418.619 337.046 418.519 338.408ZM593.218 333.295C593.085 331.934 592.886 330.572 592.653 329.211L593.483 329.078C593.716 330.44 593.882 331.834 594.048 333.195L593.218 333.295ZM419.383 330.207L418.586 330.074C418.785 328.713 419.017 327.319 419.283 325.958L420.113 326.124C419.847 327.485 419.582 328.846 419.383 330.207ZM591.89 325.161C591.591 323.833 591.292 322.472 590.927 321.144L591.724 320.911C592.089 322.272 592.421 323.634 592.687 324.995L591.89 325.161ZM421.043 322.106L420.246 321.907C420.578 320.546 420.943 319.218 421.341 317.89L422.138 318.122C421.74 319.417 421.375 320.778 421.043 322.106ZM589.798 317.16C589.367 315.865 588.935 314.537 588.47 313.242L589.234 312.976C589.732 314.271 590.163 315.599 590.595 316.927L589.798 317.16ZM423.433 314.172L422.636 313.906C423.101 312.578 423.599 311.283 424.13 309.988L424.894 310.32C424.396 311.582 423.898 312.877 423.433 314.172ZM586.943 309.424C586.412 308.162 585.847 306.901 585.25 305.639L585.98 305.307C586.578 306.536 587.175 307.83 587.707 309.092L586.943 309.424ZM426.554 306.536L425.823 306.17C426.388 304.909 427.019 303.68 427.683 302.419L428.413 302.817C427.749 304.046 427.151 305.274 426.554 306.536ZM583.391 301.987C582.727 300.792 582.029 299.597 581.332 298.402L582.063 297.97C582.76 299.165 583.457 300.394 584.121 301.589L583.391 301.987ZM430.405 299.198L429.708 298.8C430.405 297.605 431.135 296.41 431.899 295.248L432.596 295.712C431.833 296.841 431.102 298.036 430.405 299.198ZM579.141 294.916C578.377 293.787 577.581 292.658 576.751 291.562L577.415 291.064C578.245 292.16 579.041 293.322 579.805 294.484L579.141 294.916ZM434.953 292.26L434.289 291.762C435.086 290.666 435.949 289.537 436.813 288.442L437.443 288.973C436.58 290.035 435.75 291.164 434.953 292.26ZM574.261 288.276C573.397 287.213 572.501 286.151 571.571 285.122L572.202 284.557C573.132 285.586 574.028 286.649 574.891 287.744L574.261 288.276ZM440.099 285.819L439.469 285.254C440.398 284.225 441.328 283.196 442.291 282.2L442.888 282.764C441.959 283.76 440.996 284.756 440.099 285.819ZM568.783 282.1C567.82 281.138 566.824 280.175 565.828 279.245L566.392 278.614C567.388 279.577 568.384 280.54 569.38 281.536L568.783 282.1ZM445.81 279.843L445.245 279.245C446.275 278.282 447.304 277.353 448.333 276.423L448.897 277.054C447.835 277.95 446.806 278.88 445.81 279.843ZM562.707 276.49C561.678 275.593 560.582 274.73 559.487 273.9L560.018 273.236C561.113 274.066 562.209 274.962 563.238 275.859L562.707 276.49ZM452.085 274.431L451.553 273.8C452.649 272.937 453.778 272.107 454.907 271.31L455.371 271.974C454.276 272.771 453.147 273.601 452.085 274.431ZM556.167 271.443C555.038 270.68 553.876 269.883 552.714 269.152L553.145 268.455C554.341 269.186 555.503 269.982 556.631 270.779L556.167 271.443ZM458.824 269.65L458.359 268.953C459.521 268.19 460.717 267.459 461.912 266.795L462.343 267.492C461.148 268.19 459.953 268.92 458.824 269.65ZM549.161 267.028C547.966 266.364 546.771 265.7 545.543 265.102L545.908 264.338C547.136 264.969 548.365 265.633 549.593 266.297L549.161 267.028ZM465.929 265.534L465.531 264.803C466.759 264.172 468.021 263.542 469.282 262.977L469.647 263.708C468.386 264.305 467.157 264.903 465.929 265.534ZM541.758 263.342C540.496 262.778 539.235 262.247 537.94 261.749L538.239 260.952C539.533 261.45 540.828 262.014 542.09 262.579L541.758 263.342ZM473.432 262.114L473.1 261.317C474.395 260.819 475.723 260.321 477.018 259.856L477.283 260.653C475.989 261.085 474.694 261.583 473.432 262.114ZM534.055 260.321C532.761 259.89 531.433 259.491 530.105 259.126L530.337 258.329C531.665 258.694 533.026 259.093 534.321 259.558L534.055 260.321ZM481.201 259.358L480.969 258.562C482.297 258.163 483.658 257.798 485.019 257.466L485.218 258.296C483.857 258.628 482.529 258.96 481.201 259.358ZM526.121 258.064C524.793 257.732 523.431 257.466 522.07 257.2L522.236 256.404C523.597 256.636 524.959 256.935 526.32 257.234L526.121 258.064ZM489.235 257.433L489.069 256.603C490.431 256.337 491.792 256.105 493.186 255.906L493.286 256.736C491.925 256.935 490.563 257.167 489.235 257.433ZM517.987 256.603C516.625 256.404 515.264 256.238 513.87 256.138L513.969 255.308C515.331 255.441 516.725 255.574 518.086 255.773L517.987 256.603ZM497.403 256.238L497.336 255.408C498.697 255.275 500.092 255.175 501.486 255.076L501.519 255.906C500.158 256.005 498.764 256.105 497.403 256.238ZM509.786 255.872C508.558 255.839 507.363 255.806 506.134 255.806C505.979 255.806 505.813 255.806 505.636 255.806V254.976C505.813 254.976 505.979 254.976 506.134 254.976C507.363 254.976 508.591 255.009 509.819 255.042L509.786 255.872Z" fill="#9ACA3C"/>
<path d="M146.843 334.988C145.449 334.955 144.054 334.922 142.693 334.822L142.76 333.992C144.088 334.092 145.482 334.125 146.843 334.158V334.988ZM151.026 334.855L150.993 334.025C152.354 333.926 153.716 333.793 155.077 333.627L155.176 334.424C153.815 334.623 152.421 334.756 151.026 334.855ZM138.543 334.324C137.149 334.125 135.788 333.892 134.426 333.56L134.592 332.764C135.954 333.062 137.315 333.328 138.643 333.527L138.543 334.324ZM159.326 333.693L159.16 332.896C160.488 332.598 161.85 332.266 163.144 331.9L163.377 332.697C162.049 333.062 160.688 333.394 159.326 333.693ZM130.409 332.498C129.081 332.1 127.753 331.635 126.458 331.137L126.757 330.373C128.019 330.871 129.347 331.303 130.642 331.701L130.409 332.498ZM167.361 331.402L167.062 330.606C168.357 330.141 169.618 329.61 170.88 329.045L171.212 329.809C169.95 330.373 168.656 330.904 167.361 331.402ZM122.607 329.51C121.346 328.946 120.084 328.282 118.889 327.618L119.287 326.887C120.482 327.551 121.711 328.182 122.939 328.78L122.607 329.51ZM174.964 327.916L174.598 327.186C175.794 326.555 176.989 325.858 178.118 325.128L178.582 325.825C177.42 326.555 176.192 327.286 174.964 327.916ZM115.336 325.426C114.174 324.663 113.012 323.866 111.917 323.003L112.415 322.339C113.51 323.169 114.639 323.999 115.768 324.729L115.336 325.426ZM182.035 323.434L181.537 322.77C182.633 321.974 183.728 321.11 184.758 320.214L185.289 320.845C184.26 321.741 183.164 322.604 182.035 323.434ZM108.696 320.347C107.667 319.45 106.638 318.488 105.675 317.492L106.273 316.894C107.236 317.89 108.232 318.82 109.261 319.749L108.696 320.347ZM188.343 317.956L187.779 317.392C188.742 316.429 189.671 315.4 190.568 314.371L191.198 314.935C190.302 315.964 189.339 316.994 188.343 317.956ZM102.853 314.371C101.957 313.308 101.06 312.213 100.264 311.117L100.928 310.619C101.724 311.715 102.588 312.81 103.484 313.84L102.853 314.371ZM193.854 311.682L193.19 311.184C193.987 310.088 194.784 308.926 195.548 307.797L196.245 308.229C195.481 309.424 194.684 310.553 193.854 311.682ZM97.9064 307.631C97.176 306.469 96.4456 305.274 95.8148 304.046L96.5452 303.647C97.176 304.842 97.8732 306.038 98.6036 307.2L97.9064 307.631ZM198.37 304.643L197.639 304.245C198.303 303.05 198.934 301.821 199.498 300.56L200.262 300.925C199.698 302.186 199.067 303.415 198.37 304.643ZM93.9888 300.261C93.4244 298.999 92.8932 297.704 92.4284 296.41L93.192 296.111C93.6568 297.406 94.188 298.7 94.7192 299.929L93.9888 300.261ZM201.889 297.04L201.125 296.742C201.59 295.48 202.055 294.152 202.42 292.857L203.217 293.09C202.818 294.418 202.387 295.746 201.889 297.04ZM91.1668 292.426C90.8016 291.098 90.4696 289.736 90.1708 288.375L91.0008 288.209C91.2664 289.537 91.5984 290.865 91.9636 292.193L91.1668 292.426ZM204.246 289.039L203.449 288.873C203.748 287.545 203.98 286.151 204.18 284.823L205.01 284.922C204.81 286.317 204.545 287.678 204.246 289.039ZM89.5068 284.258C89.3076 282.864 89.1748 281.47 89.1084 280.108L89.9384 280.042C90.0048 281.403 90.1376 282.798 90.3036 284.126L89.5068 284.258ZM205.474 280.806L204.644 280.739C204.744 279.378 204.777 277.984 204.777 276.622H205.607C205.607 278.017 205.574 279.411 205.474 280.806ZM89.8388 275.958L89.0088 275.925C89.042 274.564 89.1084 273.136 89.208 271.775L90.038 271.842C89.9384 273.203 89.872 274.564 89.8388 275.958ZM204.711 273.867C204.644 272.506 204.545 271.111 204.379 269.75L205.209 269.65C205.375 271.045 205.474 272.439 205.541 273.834L204.711 273.867ZM90.536 267.758L89.706 267.625C89.9384 266.231 90.204 264.87 90.5028 263.508L91.2996 263.708C91.0008 265.036 90.7352 266.397 90.536 267.758ZM203.748 265.7C203.482 264.338 203.184 262.977 202.818 261.682L203.615 261.45C203.98 262.811 204.312 264.172 204.545 265.534L203.748 265.7ZM92.3952 259.724L91.5984 259.491C91.9968 258.163 92.4616 256.835 92.9596 255.54L93.7564 255.839C93.2584 257.101 92.7936 258.429 92.3952 259.724ZM201.623 257.732C201.192 256.47 200.694 255.175 200.129 253.914L200.893 253.582C201.457 254.843 201.955 256.171 202.42 257.466L201.623 257.732ZM95.35 252.054L94.6196 251.689C95.2172 250.428 95.848 249.199 96.5452 247.971L97.2756 248.369C96.5784 249.564 95.9476 250.793 95.35 252.054ZM198.37 250.195C197.739 248.967 197.042 247.772 196.344 246.61L197.042 246.178C197.772 247.34 198.469 248.568 199.1 249.797L198.37 250.195ZM99.4336 244.883L98.7364 244.418C99.5 243.256 100.33 242.128 101.16 241.032L101.824 241.53C100.994 242.626 100.164 243.754 99.4336 244.883ZM194.054 243.19C193.257 242.094 192.427 240.999 191.564 239.936L192.194 239.405C193.058 240.468 193.921 241.596 194.751 242.692L194.054 243.19ZM104.447 238.376L103.816 237.845C104.746 236.782 105.708 235.786 106.704 234.824L107.269 235.421C106.306 236.351 105.343 237.38 104.447 238.376ZM188.775 236.882C187.845 235.886 186.849 234.923 185.82 233.994L186.384 233.396C187.414 234.326 188.41 235.288 189.372 236.318L188.775 236.882ZM110.356 232.632L109.792 232.002C110.854 231.105 111.983 230.242 113.112 229.445L113.577 230.109C112.481 230.906 111.386 231.769 110.356 232.632ZM182.666 231.338C181.604 230.508 180.475 229.678 179.346 228.914L179.811 228.25C180.94 229.014 182.102 229.844 183.197 230.707L182.666 231.338ZM116.996 227.785L116.532 227.088C117.727 226.358 118.922 225.66 120.15 224.996L120.549 225.727C119.354 226.358 118.125 227.055 116.996 227.785ZM175.827 226.723C174.632 226.059 173.403 225.395 172.175 224.797L172.54 224.067C173.802 224.664 175.03 225.328 176.225 225.992L175.827 226.723ZM124.267 223.967L123.935 223.204C125.197 222.639 126.525 222.141 127.82 221.676L128.085 222.44C126.824 222.905 125.529 223.403 124.267 223.967ZM168.423 223.17C167.128 222.672 165.834 222.208 164.539 221.776L164.771 221.012C166.099 221.411 167.427 221.876 168.722 222.407L168.423 223.17ZM132.036 221.212L131.804 220.415C133.132 220.05 134.526 219.718 135.887 219.452L136.053 220.249C134.692 220.514 133.364 220.846 132.036 221.212ZM160.555 220.68C159.227 220.382 157.866 220.116 156.538 219.884L156.67 219.054C158.032 219.286 159.393 219.552 160.754 219.884L160.555 220.68ZM140.104 219.585L140.004 218.755C141.365 218.589 142.76 218.456 144.154 218.39L144.187 219.22C142.826 219.286 141.465 219.419 140.104 219.585ZM152.421 219.352C151.06 219.253 149.698 219.186 148.304 219.153L148.337 218.323C149.732 218.356 151.126 218.423 152.487 218.556L152.421 219.352Z" fill="#9ACA3C"/>
<path fill-rule="evenodd" clip-rule="evenodd" d="M380.638 136.917C372.903 136.917 366.628 130.642 366.628 122.94C366.628 115.204 372.903 108.929 380.638 108.929C388.341 108.929 394.649 115.204 394.649 122.94C394.649 130.642 388.341 136.917 380.638 136.917ZM380.638 109.527C373.235 109.527 367.259 115.536 367.259 122.94C367.259 130.31 373.235 136.319 380.638 136.319C388.009 136.319 394.018 130.31 394.018 122.94C394.018 115.536 388.009 109.527 380.638 109.527Z" fill="#9ACA3C"/>
<path d="M526.352 187.215V439.568C526.352 444.847 522.07 449.096 516.824 449.096H150.064C144.818 449.096 140.568 444.847 140.568 439.568V187.215C140.568 181.936 144.818 177.687 150.064 177.687H516.857C522.07 177.687 526.352 181.936 526.352 187.215Z" fill="white"/>
<path fill-rule="evenodd" clip-rule="evenodd" d="M516.857 449.528H150.064C144.619 449.528 140.137 445.046 140.137 439.568V187.215C140.137 181.737 144.619 177.288 150.064 177.288H516.857C522.302 177.288 526.751 181.737 526.751 187.215V439.568C526.751 445.046 522.302 449.528 516.857 449.528ZM150.064 178.118C145.05 178.118 140.967 182.202 140.967 187.215V439.568C140.967 444.615 145.05 448.698 150.064 448.698H516.857C521.837 448.698 525.921 444.615 525.921 439.568V187.215C525.921 182.202 521.837 178.118 516.857 178.118H150.064Z" fill="#9ACA3C"/>
<path d="M526.352 187.215V202.188H140.568V187.215C140.568 181.936 144.818 177.687 150.064 177.687H516.824C522.07 177.687 526.352 181.936 526.352 187.215Z" fill="white"/>
<path fill-rule="evenodd" clip-rule="evenodd" d="M526.751 202.586H140.137V187.215C140.137 181.737 144.619 177.288 150.064 177.288H516.857C522.302 177.288 526.751 181.737 526.751 187.215V202.586ZM140.967 201.756H525.921V187.182C525.921 182.168 521.837 178.085 516.857 178.085H150.064C145.05 178.085 140.967 182.168 140.967 187.182V201.756Z" fill="#9ACA3C"/>
<path d="M166.432 189.937C166.432 192.394 164.44 194.353 161.983 194.353C159.559 194.353 157.567 192.394 157.567 189.937C157.567 187.48 159.559 185.521 161.983 185.521C164.44 185.521 166.432 187.48 166.432 189.937Z" fill="#3335CF"/>
<path d="M178.881 185.521C176.425 185.521 174.433 187.48 174.433 189.937C174.433 192.394 176.425 194.353 178.881 194.353C181.305 194.353 183.297 192.394 183.297 189.937C183.297 187.48 181.305 185.521 178.881 185.521Z" fill="#3335CF"/>
<path fill-rule="evenodd" clip-rule="evenodd" d="M195.748 194.353C193.291 194.353 191.299 192.394 191.299 189.937C191.299 187.48 193.291 185.521 195.748 185.521C198.171 185.521 200.163 187.48 200.163 189.937C200.163 192.394 198.171 194.353 195.748 194.353ZM195.748 186.351C193.756 186.351 192.129 187.945 192.129 189.937C192.129 191.929 193.756 193.523 195.748 193.523C197.74 193.523 199.333 191.929 199.333 189.937C199.333 187.945 197.74 186.351 195.748 186.351Z" fill="#9ACA3C"/>
<path fill-rule="evenodd" clip-rule="evenodd" d="M304.676 194.851H222.374C219.684 194.851 217.46 192.659 217.46 189.937C217.46 187.215 219.684 185.023 222.374 185.023H304.676C307.366 185.023 309.59 187.215 309.59 189.937C309.59 192.659 307.366 194.851 304.676 194.851ZM222.374 185.853C220.116 185.853 218.29 187.679 218.29 189.937C218.29 192.195 220.116 194.021 222.374 194.021H304.676C306.934 194.021 308.76 192.195 308.76 189.937C308.76 187.679 306.934 185.853 304.676 185.853H222.374Z" fill="#9ACA3C"/>
<path d="M409.289 319.616C409.289 359.357 377.085 391.594 337.345 391.594C297.604 391.594 265.367 359.357 265.367 319.616C265.367 282.333 293.72 251.689 330.041 248.037L332.464 271.642C308.129 274.099 289.105 294.65 289.105 319.616C289.105 346.276 310.718 367.856 337.345 367.856C363.971 367.856 385.551 346.243 385.551 319.616C385.551 314.968 384.887 310.486 383.659 306.237L406.467 299.63C408.293 305.971 409.289 312.678 409.289 319.616Z" fill="#9ACA3C"/>
<path d="M395.445 319.617C395.445 351.721 369.416 377.717 337.345 377.717C305.241 377.717 279.245 351.721 279.245 319.617C279.245 287.545 305.241 261.517 337.345 261.517C369.416 261.517 395.445 287.545 395.445 319.617Z" fill="white"/>
<path opacity="0.5" d="M395.445 319.617C395.445 351.721 369.416 377.717 337.345 377.717C305.241 377.717 279.245 351.721 279.245 319.617C279.245 287.545 305.241 261.517 337.345 261.517C369.416 261.517 395.445 287.545 395.445 319.617Z" fill="#D1D1FF"/>
<path d="M378.48 319.616C378.48 342.358 360.054 360.784 337.345 360.784C314.603 360.784 296.177 342.358 296.177 319.616C296.177 296.874 314.603 278.448 337.345 278.448C360.054 278.448 378.48 296.874 378.48 319.616Z" fill="white"/>
<path d="M342.026 339.869V346.11H334.091V340.134C328.447 339.802 322.969 338.275 319.583 336.217L323.866 326.489C327.584 328.713 332.564 330.108 336.913 330.108C340.665 330.108 342.026 329.311 342.026 327.983C342.026 323.003 320.214 327.02 320.214 312.279C320.214 305.905 324.829 300.56 334.091 299.265V293.123H342.026V299.165C346.209 299.564 350.26 300.626 353.48 302.419L349.463 312.08C345.579 310.088 341.927 309.125 338.474 309.125C334.589 309.125 333.328 310.254 333.328 311.615C333.328 316.363 355.173 312.412 355.173 326.954C355.173 333.029 350.758 338.341 342.026 339.869Z" fill="#9ACA3C"/>
<path d="M593.483 224.166H436.945V128.451H593.483V224.166Z" fill="white"/>
<path fill-rule="evenodd" clip-rule="evenodd" d="M593.915 224.598H436.547V128.052H593.915V224.598ZM437.377 223.768H593.085V128.882H437.377V223.768Z" fill="#9ACA3C"/>
<path d="M465.663 210.256H456.666V193.722H465.663V210.256Z" fill="#D1D1FF"/>
<path d="M483.691 210.256H474.66V186.152H483.691V210.256Z" fill="#D1D1FF"/>
<path d="M501.718 210.256H492.688V192.328H501.718V210.256Z" fill="#D1D1FF"/>
<path d="M519.713 210.255H510.716V179.711H519.713V210.255Z" fill="#D1D1FF"/>
<path d="M537.74 210.256H528.743V171.644H537.74V210.256Z" fill="#D1D1FF"/>
<path d="M555.768 210.256H546.737V160.124H555.768V210.256Z" fill="#D1D1FF"/>
<path d="M573.796 210.256H564.766V142.395H573.796V210.256Z" fill="#D1D1FF"/>
<path d="M463.804 158.53H456.666V150.429H463.804V158.53Z" fill="#D1D1FF"/>
<path d="M523.365 156.272H474.893V154.181H523.365V156.272Z" fill="#D1D1FF"/>
<path d="M452.615 272.705L442.722 245.315C431.5 249.365 423.499 260.122 423.499 272.705C423.499 288.807 436.547 301.821 452.615 301.821C468.717 301.821 481.765 288.807 481.765 272.705C481.765 267.858 480.57 263.309 478.478 259.292L452.615 272.705Z" fill="#EBEBFF"/>
<path d="M482.363 248.934C477.482 239.604 467.755 233.23 456.5 233.23C453.014 233.23 449.694 233.828 446.573 234.956L456.5 262.346L482.363 248.934Z" fill="#9ACA3C"/>
<path d="M493.85 431.6H424.96V366.03H493.85V431.6Z" fill="#EBEBFF"/>
<path d="M474.362 386.216H435.75V383.46H474.362V386.216Z" fill="white"/>
<path d="M474.362 394.515H435.75V391.76H474.362V394.515Z" fill="white"/>
<path d="M230.873 341.96H170.98V240.7H230.873V341.96Z" fill="#EBEBFF"/>
<path d="M219.386 291.33H180.11V255.375H219.386V291.33Z" fill="white"/>
<path d="M219.12 291.629L179.845 255.673L180.376 255.042L219.685 291.031L219.12 291.629Z" fill="#EBEBFF"/>
<path d="M180.376 291.629L179.845 291.031L219.12 255.042L219.685 255.673L180.376 291.629Z" fill="#EBEBFF"/>
<path d="M199.764 372.338H62.748V282.067H199.764V372.338Z" fill="white"/>
<path fill-rule="evenodd" clip-rule="evenodd" d="M200.163 372.737H62.3496V281.669H200.163V372.737ZM63.1464 371.94H199.366V282.433H63.1464V371.94Z" fill="#9ACA3C"/>
<path d="M77.1904 350.525L86.0548 333.925L104.315 351.09L116.466 315.665L139.175 340.565L154.115 334.49L181.206 299.065" fill="white"/>
<path d="M104.481 351.82L86.1544 334.623L77.5556 350.725L76.8252 350.326L85.922 333.261L104.116 350.359L116.3 314.869L139.274 340.067L153.849 334.158L180.874 298.833L181.538 299.331L154.38 334.822L139.042 341.063L138.843 340.864L116.632 316.462L104.481 351.82Z" fill="#9ACA3C"/>
<path d="M88.4117 333.859C88.3785 335.121 87.3825 336.15 86.1209 336.15C84.8593 336.15 83.8301 335.121 83.8301 333.859C83.8301 332.598 84.8593 331.568 86.1209 331.568C87.3825 331.568 88.3785 332.598 88.3785 333.859H88.4117Z" fill="#9ACA3C"/>
<path d="M106.439 350.692C106.439 351.92 105.41 352.949 104.148 352.949C102.92 352.949 101.891 351.92 101.891 350.692C101.891 349.43 102.92 348.401 104.148 348.401C105.41 348.401 106.439 349.43 106.439 350.692Z" fill="#9ACA3C"/>
<path d="M118.889 315.832C118.889 317.06 117.86 318.089 116.598 318.089C115.37 318.089 114.341 317.06 114.341 315.832C114.341 314.57 115.37 313.541 116.598 313.541C117.86 313.541 118.889 314.57 118.889 315.832Z" fill="#9ACA3C"/>
<path d="M160.323 297.273H102.223V296.443H160.323V297.273Z" fill="#9ACA3C"/>
<path d="M388.54 500.291C386.083 484.189 389.436 467.257 397.902 453.346C406.335 439.435 419.781 428.612 435.186 423.333C426.487 429.442 421.142 439.335 417.424 449.295C413.705 459.289 411.282 469.78 406.7 479.375C402.119 489.003 394.881 497.967 384.854 501.552L388.54 500.291Z" fill="#9ACA3C"/>
<path d="M386.116 500.424C385.784 481.799 382.165 463.273 375.492 445.909C373.134 439.734 370.279 433.592 365.664 428.845C361.05 424.13 354.343 421.009 347.836 422.171C355.937 428.214 360.153 438.207 362.51 448.034C364.868 457.861 365.797 468.087 369.117 477.649C372.437 487.21 378.812 496.407 388.34 499.826L386.116 500.424Z" fill="#9ACA3C"/>
<path d="M384.854 501.619C380.206 489.169 375.193 476.387 365.864 466.892C356.568 457.363 341.794 451.952 329.609 457.264C339.47 459.488 348.533 465.199 354.808 473.167C359.39 479.01 362.477 485.915 367.225 491.659C371.939 497.403 379.144 502.017 386.448 500.623L384.854 501.619Z" fill="#9ACA3C"/>
<path d="M383.36 500.789C381.468 487.11 379.576 473.2 381.568 459.521C383.56 445.843 390.034 432.198 401.62 424.661C395.213 430.936 393.055 440.464 393.055 449.462C393.055 458.426 394.881 467.323 395.047 476.32C395.18 485.284 393.42 494.813 387.344 501.453L383.36 500.789Z" fill="#9ACA3C"/>
<path d="M389.768 498.797C394.216 487.476 398.964 475.723 407.994 467.622C413.804 462.41 421.208 458.99 428.91 457.928C423.499 462.244 420.112 468.585 417.29 474.926C414.468 481.267 412.045 487.874 407.961 493.485C403.911 499.096 397.769 503.711 390.83 504.009L389.768 498.797Z" fill="#9ACA3C"/>
<path d="M412.311 533.192H362.478L354.775 494.846H420.013L412.311 533.192Z" fill="#1E293B"/>
<path fill-rule="evenodd" clip-rule="evenodd" d="M412.676 533.624H362.113L354.277 494.448H420.511L412.676 533.624ZM362.81 532.794H412.012L419.515 495.245H355.307L362.81 532.794Z" fill="#9ACA3C"/>
<path d="M501.585 510.151V533.192H471.672L485.383 522.037L486.081 507.993L501.585 510.151Z" fill="#D1D1FF"/>
<path d="M490.795 527.78L485.085 522.335L485.649 521.738L491.36 527.149L490.795 527.78Z" fill="#1B1B43"/>
<path d="M498.697 517.09H488.438V516.26H498.697V517.09Z" fill="#1B1B43"/>
<path d="M536.545 511.214L537.641 533.192H507.728L520.344 522.402V509.056L536.545 511.214Z" fill="#D1D1FF"/>
<path d="M524.693 526.817L520.045 522.701L520.609 522.07L525.257 526.187L524.693 526.817Z" fill="#1B1B43"/>
<path d="M533.823 517.521H523.73V516.691H533.823V517.521Z" fill="#1B1B43"/>
<path d="M504.606 377.55C505.104 423.532 508.922 468.751 516.193 513.206H541.425C536.18 479.209 533.789 437.908 536.744 383.194L518.517 368.288L504.606 377.55Z" fill="#FE5B52"/>
<path d="M484.687 383.659L473.266 434.356C470.544 446.54 470.345 459.189 472.702 471.44L480.736 512.874H505.935L498.299 458.492L516.526 375.559L484.687 383.659Z" fill="#FE5B52"/>
<path d="M506.3 432.264C506.234 431.201 504.806 407.862 504.64 404.907L498.066 402.517L498.365 401.753L505.47 404.343V404.641C505.47 405.139 506.566 422.868 507.13 432.197L506.3 432.264Z" fill="#BE443D"/>
<path d="M560.881 269.119L562.209 265.899C562.209 265.899 557.328 255.64 558.889 254.279C560.449 252.951 562.939 256.769 562.939 256.769C562.939 256.769 562.209 244.319 564.599 244.219C566.624 244.153 566.458 247.738 566.691 253.15C566.691 253.15 567.919 251.49 570.21 253.216C571.239 251.49 573.43 252.619 574.061 253.681C574.758 252.851 577.78 253.05 577.381 256.57C576.85 261.052 574.758 269.318 574.758 269.318L568.118 274.83L560.881 269.119Z" fill="#FFBC96"/>
<path d="M507.528 312.08L517.654 312.014C535.35 310.42 549.194 296.044 549.194 296.044L560.881 269.119L574.758 269.318L566.624 300.958C565.429 305.506 562.906 309.59 559.387 312.644L530.37 337.81L507.528 312.08Z" fill="#3335CF"/>
<path d="M479.873 334.988L484.687 383.659L536.745 383.194L534.919 324.53L507.529 312.08L488.605 320.114L479.873 334.988Z" fill="#3335CF"/>
<path d="M447.635 339.702C446.772 338.939 445.71 338.474 444.581 338.407C438.837 337.909 420.843 336.515 421.009 337.909C421.208 339.569 434.92 345.811 434.92 345.811C437.841 349.109 440.763 352.407 443.685 355.705L451.752 343.354L447.635 339.702Z" fill="#FFBC96"/>
<path d="M486.878 316.761C483.159 317.425 479.972 319.783 478.279 323.136L462.941 353.281L451.752 343.355L443.685 355.705C444.681 356.79 445.666 357.885 446.639 358.992C450.989 363.905 456.035 370.446 462.841 371.873C466.294 372.604 469.514 371.176 472.004 368.786C473.797 367.059 475.424 364.901 476.719 362.743L482.861 352.651L502.349 314.072L486.878 316.761Z" fill="#3335CF"/>
<path d="M482.363 364.967L479.441 335.021L480.271 334.921L483.193 364.868L482.363 364.967Z" fill="#D1D1FF"/>
<path d="M535.251 333.461L530.37 337.81L535.549 346.409L535.251 333.461Z" fill="#1B1B43"/>
<path d="M568.483 259.325C566.524 259.325 566.358 256.769 566.358 253.15H566.989C566.989 257.433 567.354 258.727 568.483 258.727C568.705 258.727 568.904 258.628 569.081 258.429C569.645 257.831 569.844 256.47 569.911 255.208C569.878 254.312 569.878 253.515 569.911 253.183H570.542C570.542 253.249 570.575 254.113 570.542 255.142C570.641 256.835 570.907 258.495 571.471 258.661C571.781 258.75 572.058 258.705 572.301 258.528C572.965 258.064 573.364 256.669 573.563 255.474C573.563 254.943 573.618 254.323 573.729 253.615L574.36 253.681C574.36 253.747 574.326 254.445 574.194 255.341C574.16 256.636 574.293 257.898 574.824 258.13C575.201 258.285 575.533 258.285 575.82 258.13C576.518 257.665 576.783 256.204 576.816 255.673L577.447 255.739C577.414 255.839 577.248 257.964 576.119 258.661C575.677 258.927 575.167 258.938 574.592 258.694C574.426 258.628 573.994 258.362 573.729 257.399C573.496 258.097 573.131 258.694 572.666 259.059C572.268 259.347 571.814 259.414 571.305 259.259C570.741 259.093 570.409 258.396 570.21 257.532C570.044 258.064 569.844 258.528 569.546 258.86C569.236 259.17 568.882 259.325 568.483 259.325Z" fill="#D28572"/>
<path d="M503.146 323.899C498.73 324.231 494.846 320.944 494.514 316.529L494.414 315.4L493.152 299.763L502.913 298.966L509.155 298.468L510.516 315.234C510.848 319.683 507.561 323.534 503.146 323.899Z" fill="#FFBC96"/>
<path d="M506.034 304.245C502.98 309.623 498.63 313.474 494.414 315.4L493.152 299.763L502.913 298.966L506.034 304.245Z" fill="#1B1B43"/>
<path d="M509.222 287.877L507.263 304.178C507.263 304.178 501.055 310.154 491.925 309.856C488.571 309.756 486.646 306.602 485.484 302.585C485.019 300.925 484.687 299.099 484.455 297.306C483.691 291.264 484.023 285.387 484.023 285.387L498.133 280.673L509.222 287.877Z" fill="#FFBC96"/>
<path d="M507.063 294.584C505.603 289.338 502.947 286.715 499.394 286.151C488.04 292.293 480.669 288.641 475.324 281.802C488.438 284.358 494.182 265.666 506.798 278.116C516.127 280.972 515.961 289.869 510.649 297.14L507.063 294.584Z" fill="#1B1B43"/>
<path d="M512.906 296.576C512.442 299.032 510.317 300.692 508.192 300.294C506.034 299.862 504.706 297.538 505.171 295.082C505.669 292.592 507.794 290.932 509.918 291.363C512.043 291.795 513.404 294.119 512.906 296.576Z" fill="#FFBC96"/>
<path d="M510.517 294.152C509.853 294.252 509.421 294.75 509.122 295.314C508.79 295.879 508.591 296.509 508.492 297.173L508.226 297.207C508.126 296.841 508.126 296.443 508.193 296.078C508.259 295.702 508.392 295.336 508.591 294.982C508.757 294.65 509.023 294.351 509.355 294.119C509.687 293.887 510.152 293.787 510.517 293.887V294.152Z" fill="#1B1B43"/>
<path d="M487.409 295.247C487.409 295.945 487.077 296.509 486.645 296.509C486.247 296.509 485.882 295.945 485.882 295.247C485.882 294.517 486.247 293.953 486.645 293.953C487.077 293.953 487.409 294.517 487.409 295.247Z" fill="#1B1B43"/>
<path d="M493.718 294.717C493.718 295.48 493.352 296.111 492.888 296.111C492.423 296.111 492.058 295.48 492.058 294.717C492.058 293.953 492.423 293.322 492.888 293.322C493.352 293.322 493.718 293.953 493.718 294.717Z" fill="#1B1B43"/>
<path d="M489.136 296.277C489.136 296.509 489.036 296.775 488.937 296.974C488.804 297.173 488.671 297.339 488.505 297.505C488.206 297.837 487.941 298.136 487.874 298.435C487.808 298.767 487.908 299.066 488.173 299.364C488.406 299.663 488.738 299.962 489.036 300.261L488.904 300.46C488.505 300.294 488.107 300.062 487.742 299.73C487.576 299.564 487.41 299.364 487.31 299.099C487.21 298.866 487.21 298.568 487.277 298.302C487.343 298.036 487.476 297.804 487.642 297.605C487.808 297.439 487.974 297.273 488.14 297.14C488.472 296.841 488.771 296.609 488.904 296.244L489.136 296.277Z" fill="#1B1B43"/>
<path d="M489.733 303.182C490.63 302.983 491.427 302.718 492.157 302.253C492.511 302.031 492.854 301.777 493.186 301.489C493.518 301.224 493.85 300.925 494.149 300.593L494.348 300.726C493.95 301.556 493.286 302.286 492.489 302.784C491.659 303.282 490.696 303.514 489.767 303.448L489.733 303.182Z" fill="#1B1B43"/>
<path d="M491.891 291.297C491.692 292.227 494.647 292.525 495.178 292.625C495.61 292.691 496.241 292.725 496.34 292.061C496.44 291.264 495.543 291.164 495.045 291.065C494.547 290.965 492.057 290.401 491.891 291.297Z" fill="#1B1B43"/>
<path d="M487.775 291.861C487.775 292.758 485.417 292.857 485.019 292.89C484.654 292.957 484.156 292.957 484.189 292.326C484.255 291.529 484.953 291.496 485.351 291.43C485.749 291.363 487.808 290.998 487.775 291.861Z" fill="#1B1B43"/>
<path opacity="0.2" d="M501.785 297.505C501.785 299.165 500.423 300.526 498.763 300.526C497.103 300.526 495.775 299.165 495.775 297.505C495.775 295.845 497.103 294.484 498.763 294.484C500.423 294.484 501.785 295.845 501.785 297.505Z" fill="#FE5B52"/>
<path opacity="0.2" d="M486.712 300.195C486.712 301.191 486.214 302.054 485.483 302.585C485.019 300.925 484.687 299.099 484.454 297.306C485.749 297.638 486.712 298.8 486.712 300.195Z" fill="#FE5B52"/>
<path d="M272.24 401.056H214.505V397.138H272.24V401.056Z" fill="#9ACA3C"/>
<path d="M272.24 397.172H223.469L241.961 352.119H290.699L272.24 397.172Z" fill="white"/>
<path fill-rule="evenodd" clip-rule="evenodd" d="M272.506 397.57H222.872L241.663 351.721H291.33L272.506 397.57ZM224.067 396.74H271.942L290.069 352.518H242.194L224.067 396.74Z" fill="#9ACA3C"/>
<path d="M268.024 393.387H229.711L244.219 357.996H282.532L268.024 393.387Z" fill="#EBEBFF"/>
<path d="M252.818 533.424H251.988V402.284H252.818V533.424Z" fill="#1B1B43"/>
<path d="M298.999 408.46H205.84V401.056H298.999V408.46Z" fill="#D1D1FF"/>
<path d="M130.675 533.424H129.845V457.363H130.675V533.424Z" fill="#1B1B43"/>
<path d="M153.052 460.883H107.469C108.465 456.268 112.515 452.948 117.263 452.948H143.258C148.006 452.948 152.056 456.268 153.052 460.883Z" fill="#D1D1FF"/>
<path d="M142.096 533.192H118.425C118.425 530.303 120.782 527.979 123.637 527.979H136.884C139.739 527.979 142.096 530.303 142.096 533.192Z" fill="#D1D1FF"/>
<path d="M165.402 344.517C166.564 346.21 168.257 348.567 168.423 350.659C168.689 353.647 163.875 351.555 163.809 351.821L165.402 344.517Z" fill="#D28572"/>
<path d="M142.76 347.936H157.999V370.28H142.76V347.936Z" fill="#FFBC96"/>
<path d="M158.032 351.92V367.856C153.251 364.835 149.101 360.353 145.482 355.174L158.032 351.92Z" fill="#1B1B43"/>
<path d="M166.597 345.878C166.132 353.613 163.178 362.345 155.077 360.187C148.702 358.494 141.697 353.115 141.697 345.38C141.697 337.677 147.042 331.402 153.649 331.402C157.766 331.402 162.978 333.394 165.402 337.279C166.863 339.57 166.83 342.524 166.597 345.878Z" fill="#FFBC96"/>
<path d="M153.118 343.653C155.276 337.909 160.223 337.345 160.223 337.345C160.223 337.345 171.644 348.666 170.947 336.98C170.382 327.684 161.319 328.58 161.319 328.58C156.87 322.803 149.765 325.061 147.175 328.414C144.553 331.734 145.482 329.842 139.373 332C133.265 334.191 136.518 343.454 135.456 344.151C127.322 344.151 128.816 352.185 128.816 352.185L148.039 358.427L152.687 345.811L153.118 343.653Z" fill="#1B1B43"/>
<path d="M155.111 344.317C156.306 346.375 155.974 348.766 154.414 349.695C152.82 350.592 150.562 349.662 149.4 347.604C148.205 345.545 148.504 343.155 150.098 342.225C151.691 341.329 153.949 342.259 155.111 344.317Z" fill="#FFBC96"/>
<path d="M152.654 346.774C152.388 346.243 152.156 345.745 151.791 345.413C151.614 345.236 151.415 345.081 151.193 344.948C150.961 344.815 150.695 344.716 150.43 344.583L150.463 344.384C150.773 344.361 151.083 344.395 151.392 344.483C151.691 344.583 151.99 344.749 152.222 345.014C152.422 345.247 152.621 345.546 152.72 345.811C152.809 346.121 152.864 346.431 152.886 346.741L152.654 346.774Z" fill="#1B1B43"/>
<path d="M144.818 318.952C148.404 318.786 151.425 321.774 151.624 325.659C151.79 329.51 149.068 332.764 145.482 332.93C141.93 333.096 138.875 330.108 138.709 326.256C138.51 322.405 141.266 319.118 144.818 318.952Z" fill="#1B1B43"/>
<path opacity="0.2" d="M162.879 350.26C162.879 351.854 161.585 353.182 159.991 353.182C158.364 353.148 157.069 351.854 157.069 350.26C157.069 348.666 158.364 347.338 159.991 347.338C161.585 347.372 162.879 348.666 162.879 350.26Z" fill="#FE5B52"/>
<path d="M171.411 425.392L122.574 419.15L131.771 370.612C132.401 367.225 134.692 364.337 137.813 362.909C140.436 361.714 143.457 361.647 146.146 362.71L162.779 370.08C165.967 371.508 168.191 374.529 168.589 378.015L169.519 393.852L170.581 411.846L171.411 425.392Z" fill="#FFA121"/>
<path d="M216.065 390.532L229.013 386.714C229.943 386.448 230.939 386.581 231.736 387.145C235.288 389.469 244.684 396.109 242.327 398.832C241.131 400.193 230.341 397.006 230.341 397.006L214.671 401.388L216.065 390.532Z" fill="#FFBC96"/>
<path d="M170.581 411.846C166.531 406.634 164.107 399.795 163.311 391.329L169.519 393.852L170.581 411.846Z" fill="#1B1B43"/>
<path d="M161.286 369.483L163.244 370.313C167.262 372.039 170.847 374.629 173.769 377.849L189.804 395.478L216.066 390.498L219.518 404.608L186.518 414.934C183.895 415.399 181.239 414.502 179.446 412.576L155.608 386.647L161.286 369.483Z" fill="#FFA121"/>
<path d="M189.473 395.777C189.406 395.678 181.604 387.178 174.831 379.576C168.125 372.072 157.933 368.42 157.833 368.387L158.099 367.624C158.198 367.657 168.59 371.375 175.429 379.044C182.202 386.614 190.037 395.113 190.103 395.213L189.473 395.777Z" fill="#1B1B43"/>
<path d="M179.147 412.842L157.003 389.967L157.567 389.403L179.745 412.278L179.147 412.842Z" fill="#1B1B43"/>
<path d="M169.619 498.764L159.095 519.281L185.688 532.96L178.616 516.758L184.393 503.943L169.619 498.764Z" fill="#D1D1FF"/>
<path d="M171.18 519.381L170.947 518.584L178.517 516.359L178.749 517.156L171.18 519.381Z" fill="#1B1B43"/>
<path d="M186.185 512.276L162.082 503.279L178.582 451.885C181.438 444.283 190.169 440.531 198.137 443.486C206.072 446.474 210.222 455.039 207.367 462.642L186.185 512.276Z" fill="#26289C"/>
<path d="M209.592 508.79L211.916 533.192H241.829L228.151 522.037L224.93 507.96L209.592 508.79Z" fill="#D1D1FF"/>
<path d="M221.245 526.319L220.847 525.589L227.951 521.671L228.35 522.402L221.245 526.319Z" fill="#1B1B43"/>
<path d="M231.172 511.712L205.01 515.862L187.116 463.206L183.862 453.612L139.374 453.944C128.385 454.209 119.653 444.78 120.716 433.824L122.575 419.15L166.565 424.694L195.482 427.882C207.5 429.94 211.186 437.211 213.709 446.606L231.172 511.712Z" fill="#3335CF"/>
<path d="M187.115 463.207L183.828 453.579L189.871 453.379C190.402 456.998 188.974 461.049 187.115 463.207Z" fill="#1B1B43"/>
</svg>
