<svg width="230" height="230" viewBox="0 0 230 230" fill="none" xmlns="http://www.w3.org/2000/svg">
<path d="M203.968 191.184C203.968 194.046 164.222 196.358 115.18 196.358C66.138 196.358 26.3916 194.046 26.3916 191.184C26.3916 188.322 66.138 185.987 115.18 185.987C164.222 185.987 203.968 188.322 203.968 191.184Z" fill="#F5F5F5"/>
<path d="M38.0228 178.477C38.0228 178.477 35.4356 172.822 38.3891 167.258C41.3426 161.694 42.1897 160.389 40.3123 159.245C38.4349 158.1 37.5649 163.686 37.5649 163.686C37.5649 163.686 35.9851 159.84 37.2901 155.833C38.5952 151.804 39.4194 145.233 37.6335 144.546C35.8477 143.836 37.2901 152.719 35.7332 155.742C35.7332 155.742 34.4282 152.376 34.2221 149.148C33.9932 145.897 34.3366 140.745 32.9171 139.417C31.4976 138.089 30.6047 139.005 31.9784 146.148C33.375 153.292 33.375 159.084 33.375 159.084C33.375 159.084 30.307 149.72 28.2464 149.445C26.1858 149.171 26.1858 152.216 27.9488 154.826C29.7117 157.459 33.1003 162.175 33.6726 164.602C33.6726 164.602 30.307 157.55 27.2619 159.725C24.2397 161.878 29.8949 166.136 32.4363 167.67C34.9548 169.204 36.7177 178.843 36.7177 178.843L38.0228 178.477Z" fill="#407BFF"/>
<path opacity="0.6" d="M38.0228 178.477C38.0228 178.477 35.4356 172.822 38.3891 167.258C41.3426 161.694 42.1897 160.389 40.3123 159.245C38.4349 158.1 37.5649 163.686 37.5649 163.686C37.5649 163.686 35.9851 159.84 37.2901 155.833C38.5952 151.804 39.4194 145.233 37.6335 144.546C35.8477 143.836 37.2901 152.719 35.7332 155.742C35.7332 155.742 34.4282 152.376 34.2221 149.148C33.9932 145.897 34.3366 140.745 32.9171 139.417C31.4976 138.089 30.6047 139.005 31.9784 146.148C33.375 153.292 33.375 159.084 33.375 159.084C33.375 159.084 30.307 149.72 28.2464 149.445C26.1858 149.171 26.1858 152.216 27.9488 154.826C29.7117 157.459 33.1003 162.175 33.6726 164.602C33.6726 164.602 30.307 157.55 27.2619 159.725C24.2397 161.878 29.8949 166.136 32.4363 167.67C34.9548 169.204 36.7177 178.843 36.7177 178.843L38.0228 178.477Z" fill="white"/>
<path d="M35.9619 180.789C35.9619 180.789 38.4804 175.088 35.4582 169.57C32.436 164.053 31.566 162.771 33.4434 161.603C35.3208 160.435 36.2366 165.999 36.2366 165.999C36.2366 165.999 37.7935 162.129 36.4198 158.123C35.069 154.116 34.1761 147.591 35.939 146.858C37.7248 146.126 36.3969 155.032 37.9767 158.031C37.9767 158.031 39.2359 154.643 39.4191 151.392C39.6023 148.163 39.1901 143.012 40.5868 141.661C42.0063 140.31 42.9221 141.226 41.6171 148.369C40.312 155.536 40.3807 161.328 40.3807 161.328C40.3807 161.328 43.3342 151.918 45.3948 151.62C47.4554 151.323 47.4783 154.345 45.7611 157.001C44.0211 159.657 40.6783 164.419 40.1518 166.846C40.1518 166.846 43.4258 159.748 46.4938 161.878C49.5389 163.984 43.9295 168.311 41.4339 169.891C38.9154 171.471 37.2669 181.133 37.2669 181.133L35.9619 180.789Z" fill="#407BFF"/>
<path opacity="0.7" d="M35.9619 180.789C35.9619 180.789 38.4804 175.088 35.4582 169.57C32.436 164.053 31.566 162.771 33.4434 161.603C35.3208 160.435 36.2366 165.999 36.2366 165.999C36.2366 165.999 37.7935 162.129 36.4198 158.123C35.069 154.116 34.1761 147.591 35.939 146.858C37.7248 146.126 36.3969 155.032 37.9767 158.031C37.9767 158.031 39.2359 154.643 39.4191 151.392C39.6023 148.163 39.1901 143.012 40.5868 141.661C42.0063 140.31 42.9221 141.226 41.6171 148.369C40.312 155.536 40.3807 161.328 40.3807 161.328C40.3807 161.328 43.3342 151.918 45.3948 151.62C47.4554 151.323 47.4783 154.345 45.7611 157.001C44.0211 159.657 40.6783 164.419 40.1518 166.846C40.1518 166.846 43.4258 159.748 46.4938 161.878C49.5389 163.984 43.9295 168.311 41.4339 169.891C38.9154 171.471 37.2669 181.133 37.2669 181.133L35.9619 180.789Z" fill="white"/>
<path d="M47.5932 176.737H26.7812L28.4755 191.619H45.8989L47.5932 176.737Z" fill="#407BFF"/>
<path d="M119.531 110.294H89.9268V88.2917H108.541L110.235 97.427L119.531 101.205V110.294Z" fill="#263238"/>
<path opacity="0.1" d="M119.531 110.294H89.9268V88.2917H108.541L110.235 97.427L119.531 101.205V110.294Z" fill="white"/>
<path opacity="0.1" d="M105.793 110.294H89.0107V88.2917H94.8033L96.4975 97.427L105.793 101.205V110.294Z" fill="white"/>
<path opacity="0.2" d="M107.968 92.4817L107.488 89.78H96.7725L97.2762 92.4817H107.968Z" fill="black"/>
<path opacity="0.2" d="M97.5039 93.6951L97.8702 95.6183H108.562L108.196 93.6951H97.5039Z" fill="black"/>
<path opacity="0.3" d="M96.4971 97.427H110.234L119.53 101.205H105.793L96.4971 97.427Z" fill="white"/>
<path d="M141.693 71.8758C144.578 73.364 143.753 80.4616 136.358 93.718L131.275 89.5968C131.275 89.5968 132.947 83.6211 135.946 77.6225C138.945 71.6239 141.693 71.8758 141.693 71.8758Z" fill="#407BFF"/>
<path opacity="0.4" d="M141.693 71.8758C144.578 73.364 143.753 80.4616 136.358 93.718L131.275 89.5968C131.275 89.5968 132.947 83.6211 135.946 77.6225C138.945 71.6239 141.693 71.8758 141.693 71.8758Z" fill="white"/>
<path d="M166.534 103.792H146.844C144.967 114.026 139.106 150.224 143.296 182.483L149.981 181.659C149.981 181.659 149.363 138.822 155.247 123.001C155.934 131.473 156.735 140.493 157.422 145.278C159.139 157.092 162.825 182.896 162.825 182.896H169.602C169.602 182.896 168.206 158.191 167.565 146.583C166.878 133.991 166.58 106.379 166.534 103.792Z" fill="#263238"/>
<path d="M140.273 71.9906C142.311 71.5098 153.071 69.1287 161.726 69.4492C161.726 69.4492 164.519 98.0456 167.129 109.654L144.463 113.637C144.463 113.637 139.357 85.2013 139.93 72.4256C139.93 72.2196 140.067 72.0364 140.273 71.9906Z" fill="#407BFF"/>
<path opacity="0.6" d="M140.273 71.9906C142.311 71.5098 153.071 69.1287 161.726 69.4492C161.726 69.4492 164.519 98.0456 167.129 109.654L144.463 113.637C144.463 113.637 139.357 85.2013 139.93 72.4256C139.93 72.2196 140.067 72.0364 140.273 71.9906Z" fill="white"/>
<path d="M159.712 69.083C159.712 69.083 157.124 79.9812 164.222 89.2538L165.962 100.908L168 110.547L156.712 113.523L152.683 104.479L152.271 114.462L143.273 115.79L142.311 104.342C142.311 104.342 140.754 95.2982 140.365 90.3299C140.365 90.3299 139.014 78.8136 141.121 71.487L144.074 70.8459C144.074 70.8459 144.234 77.8519 148.722 83.4842C148.722 83.4842 152.98 72.2655 156.85 69.083H159.712Z" fill="#407BFF"/>
<path opacity="0.2" d="M159.712 69.083C159.712 69.083 157.124 79.9812 164.222 89.2538L165.962 100.908L168 110.547L156.712 113.523L152.683 104.479L152.271 114.462L143.273 115.79L142.311 104.342C142.311 104.342 140.754 95.2982 140.365 90.3299C140.365 90.3299 139.014 78.8136 141.121 71.487L144.074 70.8459C144.074 70.8459 144.234 77.8519 148.722 83.4842C148.722 83.4842 152.98 72.2655 156.85 69.083H159.712Z" fill="black"/>
<path d="M132.26 87.4449C132.26 87.4449 130.909 91.1311 129.879 91.2684C128.849 91.3829 122.14 80.1413 122.14 80.1413C122.14 80.1413 121.385 77.9204 120.103 77.3022C118.866 76.7299 115.088 74.5777 114.104 75.0356C113.119 75.5164 113.623 79.2483 113.646 80.0726C113.669 80.8281 116.851 81.9042 117.813 82.0874C118.889 82.2934 119.668 81.9271 119.668 81.9271C119.668 81.9271 125.048 95.1607 128.528 97.4731C132.008 99.7855 137.251 91.9095 137.251 91.9095L132.26 87.4449Z" fill="#EBB376"/>
<path d="M130.405 89.3222L131.367 88.5667L137.159 93.4663L136.221 95.1376L130.405 89.3222Z" fill="#407BFF"/>
<path opacity="0.3" d="M130.405 89.3222L131.367 88.5667L137.159 93.4663L136.221 95.1376L130.405 89.3222Z" fill="white"/>
<path d="M149.248 188.093L145.425 188.505L144.715 180.24L148.538 179.828L149.248 188.093Z" fill="#EBB376"/>
<path d="M168.389 187.818H164.657L164.359 179.233H168.068L168.389 187.818Z" fill="#EBB376"/>
<path d="M164.154 187.383H168.664C168.825 187.383 168.939 187.498 168.985 187.658L169.718 190.955C169.763 191.252 169.58 191.55 169.283 191.596C169.252 191.611 169.214 191.619 169.168 191.619C167.703 191.596 166.65 191.504 164.818 191.504C163.673 191.504 160.285 191.619 158.728 191.619C157.171 191.619 156.965 190.085 157.606 189.947C160.468 189.306 162.62 188.459 163.536 187.635C163.696 187.475 163.925 187.383 164.154 187.383Z" fill="#263238"/>
<path fill-rule="evenodd" clip-rule="evenodd" d="M162.917 188.047C162.665 188.07 162.413 188.002 162.207 187.864C162.07 187.75 162.001 187.567 162.024 187.383C162.024 187.269 162.093 187.177 162.184 187.132C162.596 186.926 163.787 187.658 163.924 187.75C163.947 187.773 163.97 187.796 163.97 187.841C163.947 187.864 163.924 187.91 163.901 187.91C163.581 187.986 163.253 188.032 162.917 188.047ZM162.367 187.269C162.322 187.269 162.283 187.277 162.253 187.292C162.23 187.292 162.207 187.338 162.207 187.406C162.184 187.521 162.23 187.635 162.322 187.727C162.734 187.91 163.214 187.933 163.649 187.796C163.26 187.544 162.825 187.361 162.367 187.269Z" fill="#407BFF"/>
<path fill-rule="evenodd" clip-rule="evenodd" d="M163.879 187.91H163.833C163.444 187.704 162.711 186.88 162.78 186.49C162.803 186.353 162.917 186.261 163.055 186.261C163.192 186.238 163.329 186.284 163.444 186.376C163.879 186.719 163.948 187.795 163.97 187.841C163.97 187.872 163.955 187.902 163.925 187.933C163.909 187.933 163.894 187.925 163.879 187.91ZM163.123 186.399H163.078C162.963 186.399 162.963 186.467 162.963 186.49C162.917 186.742 163.375 187.36 163.764 187.635C163.742 187.223 163.581 186.811 163.329 186.49C163.268 186.429 163.2 186.399 163.123 186.399Z" fill="#407BFF"/>
<path d="M145.012 187.269H149.523C149.683 187.269 149.82 187.383 149.843 187.521L150.576 190.84C150.645 191.138 150.462 191.413 150.164 191.482C150.118 191.497 150.08 191.504 150.049 191.504C148.584 191.482 147.508 191.39 145.676 191.39C144.555 191.39 141.143 191.504 139.586 191.504C138.029 191.504 137.823 189.97 138.464 189.81C141.326 189.192 143.478 188.322 144.394 187.521C144.577 187.36 144.783 187.269 145.012 187.269Z" fill="#263238"/>
<path fill-rule="evenodd" clip-rule="evenodd" d="M143.8 187.932C143.548 187.955 143.296 187.887 143.09 187.749C142.953 187.612 142.884 187.452 142.907 187.268C142.884 187.154 142.953 187.062 143.044 187.017C143.456 186.811 144.67 187.543 144.784 187.635C144.83 187.635 144.83 187.681 144.83 187.703C144.83 187.749 144.807 187.772 144.761 187.795C144.441 187.871 144.12 187.917 143.8 187.932ZM143.25 187.154C143.204 187.154 143.166 187.162 143.136 187.177C143.113 187.177 143.067 187.223 143.067 187.291C143.067 187.406 143.113 187.52 143.182 187.612C143.617 187.795 144.074 187.818 144.509 187.658C144.12 187.429 143.685 187.246 143.25 187.154Z" fill="#407BFF"/>
<path fill-rule="evenodd" clip-rule="evenodd" d="M144.738 187.795H144.692C144.326 187.589 143.57 186.765 143.662 186.376C143.685 186.239 143.799 186.147 143.937 186.147C144.074 186.124 144.211 186.17 144.303 186.261C144.738 186.605 144.83 187.681 144.83 187.727C144.83 187.757 144.814 187.788 144.784 187.818C144.769 187.818 144.753 187.811 144.738 187.795ZM144.005 186.284H143.96C143.845 186.284 143.822 186.353 143.822 186.376C143.776 186.628 144.257 187.246 144.646 187.521C144.601 187.109 144.463 186.696 144.189 186.353C144.143 186.307 144.082 186.284 144.005 186.284Z" fill="#407BFF"/>
<path opacity="0.2" d="M148.538 179.828L144.715 180.24L145.081 184.499L148.905 184.109L148.538 179.828Z" fill="black"/>
<path opacity="0.2" d="M168.068 179.233H164.359L164.52 183.651H168.229L168.068 179.233Z" fill="black"/>
<path d="M142.539 184.041L150.804 182.804L150.553 180.515L141.967 181.659L142.539 184.041Z" fill="#407BFF"/>
<path opacity="0.6" d="M142.539 184.041L150.804 182.804L150.553 180.515L141.967 181.659L142.539 184.041Z" fill="white"/>
<path d="M162.001 182.942H170.014V180.561L161.703 180.4L162.001 182.942Z" fill="#407BFF"/>
<path opacity="0.6" d="M162.001 182.942H170.014V180.561L161.703 180.4L162.001 182.942Z" fill="white"/>
<path opacity="0.2" d="M155.247 123.002C154.377 125.337 153.667 128.245 153.049 131.519C152.5 123.986 154.698 115.996 154.698 115.996L155.247 123.002Z" fill="black"/>
<path d="M154.491 69.701C153.071 71.67 148.607 71.9905 148.607 71.9905C148.607 71.9905 145.745 71.8303 146.134 70.8687C147.668 70.2734 148.286 69.3576 148.401 68.3273C148.469 67.7549 148.378 67.1138 148.172 66.4727C148.08 66.1522 147.966 65.8088 147.828 65.4882L152.362 60.3826C152.201 63.1529 152.362 68.167 154.491 69.701Z" fill="#EBB376"/>
<path opacity="0.2" d="M151.652 63.176C152.11 66.4272 149.66 67.8925 148.401 68.3275C148.47 67.7551 148.378 67.114 148.172 66.473L151.652 63.176Z" fill="black"/>
<path d="M142.562 52.827C142.562 52.827 141.463 57.8869 144.028 60.0391C146.615 62.1683 147.256 52.6667 147.256 52.6667L142.562 52.827Z" fill="#263238"/>
<path d="M151.629 64.618C150.187 66.4267 148.012 66.7701 146.18 66.0604C145.012 65.6025 143.982 64.6867 143.41 63.4503C143.318 63.2977 143.242 63.1298 143.181 62.9466C142.059 59.7413 142.013 54.2693 145.447 52.4376C147.874 51.1097 150.942 52.0255 152.247 54.4753C152.636 55.1622 152.842 55.9406 152.865 56.742C153.026 60.4052 153.277 62.5574 151.629 64.618Z" fill="#EBB376"/>
<path d="M147.416 58.3222C147.462 58.6198 147.302 58.8717 147.119 58.8946C146.913 58.9175 146.729 58.6885 146.707 58.3909C146.684 58.0932 146.821 57.8414 147.004 57.8185C147.187 57.7956 147.371 58.0245 147.416 58.3222Z" fill="#263238"/>
<path d="M144.051 58.6658C144.096 58.9634 143.936 59.2153 143.753 59.2382C143.547 59.2611 143.364 59.0321 143.341 58.7345C143.295 58.4368 143.432 58.185 143.638 58.1621C143.822 58.1392 144.005 58.391 144.051 58.6658Z" fill="#263238"/>
<path d="M145.128 58.7112C144.876 59.6499 144.487 60.5657 143.96 61.4128C144.418 61.6647 144.944 61.7105 145.425 61.5273L145.128 58.7112Z" fill="#D58745"/>
<path d="M148.355 57.1319C148.287 57.1547 148.218 57.1319 148.172 57.0861C147.874 56.7426 147.439 56.5595 146.982 56.6053C146.89 56.6282 146.798 56.5595 146.798 56.4679C146.775 56.3763 146.844 56.2847 146.936 56.2618C147.485 56.1931 148.058 56.4221 148.424 56.8342C148.493 56.9029 148.493 57.0174 148.424 57.0861C148.393 57.1013 148.371 57.1166 148.355 57.1319Z" fill="#263238"/>
<path d="M142.471 57.6583C142.44 57.6736 142.41 57.6812 142.379 57.6812C142.288 57.6354 142.242 57.5438 142.265 57.4522C142.448 56.9027 142.883 56.4906 143.432 56.3304C143.524 56.3075 143.615 56.3762 143.638 56.4677C143.661 56.5593 143.593 56.6509 143.501 56.6738C143.089 56.8112 142.745 57.1546 142.608 57.5667C142.585 57.6125 142.539 57.6583 142.471 57.6583Z" fill="#263238"/>
<path d="M149.706 52.4375L149.592 54.086C150.141 54.3378 150.508 54.9102 150.279 55.5742C149.844 56.9479 150.737 59.0314 151.813 59.8098C151.813 59.8098 151.813 59.2145 152.316 59.329C152.82 59.4435 152.866 62.5115 151.973 64.0455C151.973 64.0455 153.37 62.6259 154.011 59.3748C154.629 56.3526 154.583 53.857 153.896 52.7351L149.706 52.4375Z" fill="#263238"/>
<path d="M154.766 59.5812C154.446 60.4512 153.782 61.161 152.957 61.5273C151.835 62.0539 151.08 61.0923 151.24 59.9246C151.378 58.9172 152.133 57.3832 153.324 57.3604C154.537 57.3604 155.155 58.5051 154.766 59.5812Z" fill="#EBB376"/>
<path d="M149.592 54.0861C149.592 54.0861 147.646 53.88 145.86 54.4524C144.097 55.0019 142.609 54.5669 142.609 54.5669C142.609 54.5669 140.983 51.27 143.136 49.2781C145.288 47.2862 148.905 48.0646 150.073 48.7515C151.241 49.4154 148.859 49.301 148.859 49.301C148.859 49.301 152.683 50.0107 154.331 51.476C156.003 52.9184 155.591 55.2996 155.224 55.7117C154.881 56.1238 154.583 55.2309 154.583 55.2309C154.583 55.2309 153.736 55.7575 152.317 55.7117C150.897 55.6659 151.492 54.4066 149.592 54.0861Z" fill="#263238"/>
<path d="M145.653 62.7178C145.951 63.1528 146.294 64 146.294 64C146.386 63.9694 146.47 63.9465 146.546 63.9313C147.645 63.6336 148.08 63.1528 148.195 62.672C148.263 62.4202 148.241 62.1683 148.195 61.9852C148.149 61.7562 148.08 61.5959 148.08 61.5959C147.577 62.0996 146.569 62.4431 146.02 62.6262C145.791 62.6949 145.653 62.7178 145.653 62.7178Z" fill="#263238"/>
<path d="M146.021 62.6262L146.227 62.9926C147.257 62.7178 147.967 62.3744 148.196 61.9852C148.15 61.7562 148.081 61.5959 148.081 61.5959C147.577 62.0996 146.57 62.4431 146.021 62.6262Z" fill="white"/>
<path d="M146.547 63.9316C147.646 63.634 148.081 63.1532 148.195 62.6724C147.829 62.7868 147.394 62.97 147.028 63.2447C146.753 63.4508 146.616 63.7027 146.547 63.9316Z" fill="#DE5753"/>
<path d="M153.37 68.2356C153.37 68.2356 151.813 70.4107 149.111 71.7157C149.111 71.7157 148.218 70.5938 148.081 69.3575C148.081 69.3575 146.386 70.1817 145.631 71.0288C145.631 71.0288 145.791 72.7918 146.73 74.0052L149.042 72.3568L151.858 74.4174C151.858 74.4174 155.567 72.0133 156.392 69.5635L153.37 68.2356Z" fill="#407BFF"/>
<path opacity="0.4" d="M153.37 68.2356C153.37 68.2356 151.813 70.4107 149.111 71.7157C149.111 71.7157 148.218 70.5938 148.081 69.3575C148.081 69.3575 146.386 70.1817 145.631 71.0288C145.631 71.0288 145.791 72.7918 146.73 74.0052L149.042 72.3568L151.858 74.4174C151.858 74.4174 155.567 72.0133 156.392 69.5635L153.37 68.2356Z" fill="white"/>
<path fill-rule="evenodd" clip-rule="evenodd" d="M129.352 96.3738L124.407 96.557L121.98 91.0621C121.43 89.2076 121.018 86.6433 124.132 86.8722C127.269 87.0783 129.352 96.3738 129.352 96.3738ZM127.543 93.9698C128.161 92.0695 125.551 87.1241 123.33 87.7652C121.11 88.4062 123.193 92.1153 123.903 93.3058C125.345 95.6641 126.902 95.8701 127.543 93.9698Z" fill="#407BFF"/>
<path opacity="0.5" fill-rule="evenodd" clip-rule="evenodd" d="M129.352 96.3738L124.407 96.557L121.98 91.0621C121.43 89.2076 121.018 86.6433 124.132 86.8722C127.269 87.0783 129.352 96.3738 129.352 96.3738ZM127.543 93.9698C128.161 92.0695 125.551 87.1241 123.33 87.7652C121.11 88.4062 123.193 92.1153 123.903 93.3058C125.345 95.6641 126.902 95.8701 127.543 93.9698Z" fill="white"/>
<path d="M123.238 96.2364L124.772 90.5354L132.236 92.4357L130.336 101.846L123.238 96.2364Z" fill="#407BFF"/>
<path d="M131.573 100.77L129.741 89.3684L134.275 87.3079L137.846 89.3684L138.213 101.32L131.573 100.77Z" fill="#407BFF"/>
<path opacity="0.2" d="M131.573 100.77L129.741 89.3684L134.275 87.3079L137.846 89.3684L138.213 101.32L131.573 100.77Z" fill="black"/>
<path d="M134.824 97.3585C134.824 97.3585 137.32 81.7896 139.129 81.2859C140.937 80.7822 142.609 83.1862 142.609 83.1862C142.609 83.1862 141.075 93.3289 139.93 96.9235C138.808 100.495 134.824 97.3585 134.824 97.3585Z" fill="#407BFF"/>
<path opacity="0.8" d="M134.824 97.3585C134.824 97.3585 137.32 81.7896 139.129 81.2859C140.937 80.7822 142.609 83.1862 142.609 83.1862C142.609 83.1862 141.075 93.3289 139.93 96.9235C138.808 100.495 134.824 97.3585 134.824 97.3585Z" fill="white"/>
<path fill-rule="evenodd" clip-rule="evenodd" d="M142.334 109.997C142.334 109.997 121.98 111.485 118.362 109.997C114.447 108.417 122.621 92.4136 122.621 92.4136L121.98 91.0628C121.98 91.0628 125.002 94.726 129.215 94.7489C133.45 94.7489 136.45 87.9261 140.205 88.5672C143.959 89.2082 140.937 95.6189 140.937 97.9085C140.937 100.198 145.287 107.982 142.334 109.997ZM141.12 89.9867C139.999 88.7732 137.686 89.048 137.869 93.3065C137.869 93.3065 140.021 95.6418 140.479 95.5274C140.937 95.4129 142.242 91.2001 141.12 89.9867Z" fill="#407BFF"/>
<path opacity="0.7" fill-rule="evenodd" clip-rule="evenodd" d="M142.334 109.997C142.334 109.997 121.98 111.485 118.362 109.997C114.447 108.417 122.621 92.4136 122.621 92.4136L121.98 91.0628C121.98 91.0628 125.002 94.726 129.215 94.7489C133.45 94.7489 136.45 87.9261 140.205 88.5672C143.959 89.2082 140.937 95.6189 140.937 97.9085C140.937 100.198 145.287 107.982 142.334 109.997ZM141.12 89.9867C139.999 88.7732 137.686 89.048 137.869 93.3065C137.869 93.3065 140.021 95.6418 140.479 95.5274C140.937 95.4129 142.242 91.2001 141.12 89.9867Z" fill="white"/>
<path opacity="0.6" d="M156.941 87.4448L152.362 87.9485L152.019 84.8118L156.598 84.3081L156.941 87.4448Z" fill="white"/>
<path d="M153.507 83.095L153.988 84.629C154.033 84.8122 154.239 84.9266 154.446 84.9037C154.606 84.8808 154.743 84.7435 154.789 84.5603L155.018 82.7974L153.507 83.095Z" fill="#407BFF"/>
<path opacity="0.4" d="M153.507 83.095L153.988 84.629C154.033 84.8122 154.239 84.9266 154.446 84.9037C154.606 84.8808 154.743 84.7435 154.789 84.5603L155.018 82.7974L153.507 83.095Z" fill="black"/>
<path d="M156.872 87.4221C156.872 87.4221 155.178 92.5507 154.445 93.6497C153.713 94.7715 134.824 99.6483 134.824 99.6483C134.824 99.6483 133.244 98.8469 132.237 98.9385C131.252 99.0301 127.36 99.923 127.269 100.656C127.177 101.365 129.26 104.639 129.741 104.914C130.245 105.189 135.236 104.433 135.786 103.128C135.786 103.128 155.064 99.6712 156.872 98.9385C158.681 98.2059 162.596 89.5972 162.596 89.5972L156.872 87.4221Z" fill="#EBB376"/>
<path d="M161.727 69.4488C164.658 69.6549 167.199 75.9511 166.718 81.011C166.214 86.0938 161.544 94.7482 161.544 94.7482L155.019 91.52C155.019 91.52 156.644 85.7275 158.522 80.2555C160.376 74.7606 159.529 69.3115 161.727 69.4488Z" fill="#407BFF"/>
<path opacity="0.4" d="M161.727 69.4488C164.658 69.6549 167.199 75.9511 166.718 81.011C166.214 86.0938 161.544 94.7482 161.544 94.7482L155.019 91.52C155.019 91.52 156.644 85.7275 158.522 80.2555C160.376 74.7606 159.529 69.3115 161.727 69.4488Z" fill="white"/>
<path d="M154.239 92.1154L154.972 91.0623L162.596 93.6494L162.184 95.5269L154.239 92.1154Z" fill="#407BFF"/>
<path opacity="0.3" d="M154.239 92.1154L154.972 91.0623L162.596 93.6494L162.184 95.5269L154.239 92.1154Z" fill="white"/>
<path d="M108.334 110.616H93.292V103.083C93.292 102.625 93.6583 102.259 94.1162 102.259H107.51C107.968 102.259 108.334 102.625 108.334 103.083V110.616Z" fill="#407BFF"/>
<path opacity="0.3" d="M108.334 103.083V110.616H93.292V103.083C93.292 102.625 93.6583 102.259 94.1162 102.259H107.51C107.968 102.259 108.334 102.625 108.334 103.083Z" fill="white"/>
<path opacity="0.4" d="M104.671 103.083V110.616H93.292V103.083C93.292 102.625 93.6583 102.259 94.1162 102.259H103.847C104.305 102.259 104.671 102.625 104.671 103.083Z" fill="white"/>
<path d="M188.583 112.859H83.7451V191.619H188.583V112.859Z" fill="#407BFF"/>
<path opacity="0.3" d="M188.583 112.859H83.7451V191.619H188.583V112.859Z" fill="white"/>
<path opacity="0.4" d="M161.383 112.859H83.7451V191.619H161.383V112.859Z" fill="white"/>
<path d="M190.094 110.683V113.797C190.094 114.209 189.773 114.53 189.384 114.53H83.3553C82.966 114.53 82.6455 114.209 82.6455 113.797V110.683C82.6455 110.294 82.966 109.974 83.3553 109.974H189.384C189.773 109.974 190.094 110.294 190.094 110.683Z" fill="#407BFF"/>
<path opacity="0.2" d="M162.619 110.683V113.797C162.619 114.209 162.299 114.53 161.909 114.53H83.3553C82.966 114.53 82.6455 114.209 82.6455 113.797V110.683C82.6455 110.294 82.966 109.974 83.3553 109.974H161.909C162.299 109.974 162.619 110.294 162.619 110.683Z" fill="white"/>
<path d="M203.487 180.262C203.945 179.484 203.281 178.316 202.388 178.316C202.777 177.194 202.388 175.844 201.449 175.134C201.335 175.042 201.198 174.951 201.06 174.951C200.9 174.951 200.763 175.042 200.625 175.134C199.77 175.744 198.923 176.355 198.084 176.965C197.878 177.103 197.672 177.263 197.557 177.469C197.053 178.477 198.931 179.782 198.152 180.606C197.924 180.858 197.58 180.903 197.305 181.064C196.687 181.453 196.618 182.277 196.344 182.941C196.046 183.605 195.062 184.109 194.695 183.514C194.97 182.872 194.123 182.323 193.436 182.254C192.749 182.163 192.039 182.14 191.65 181.499C190.689 182.346 188.513 179.965 188.559 179.003C187.758 179.072 187.208 179.827 187.025 180.56C186.842 181.339 186.957 182.163 186.957 182.941C186.934 184.498 186.43 186.009 186.453 187.566C186.476 188.78 186.934 190.107 188.056 190.588C188.582 190.817 189.177 190.817 189.75 190.817C193.947 190.787 198.137 190.764 202.319 190.749C202.617 190.749 202.938 190.726 203.189 190.588C203.762 190.291 203.876 189.558 203.945 188.917C204.159 186.185 204.38 183.46 204.609 180.743C204.227 180.575 203.853 180.415 203.487 180.262Z" fill="#407BFF"/>
<path opacity="0.3" d="M203.487 180.262C203.945 179.484 203.281 178.316 202.388 178.316C202.777 177.194 202.388 175.844 201.449 175.134C201.335 175.042 201.198 174.951 201.06 174.951C200.9 174.951 200.763 175.042 200.625 175.134C199.77 175.744 198.923 176.355 198.084 176.965C197.878 177.103 197.672 177.263 197.557 177.469C197.053 178.477 198.931 179.782 198.152 180.606C197.924 180.858 197.58 180.903 197.305 181.064C196.687 181.453 196.618 182.277 196.344 182.941C196.046 183.605 195.062 184.109 194.695 183.514C194.97 182.872 194.123 182.323 193.436 182.254C192.749 182.163 192.039 182.14 191.65 181.499C190.689 182.346 188.513 179.965 188.559 179.003C187.758 179.072 187.208 179.827 187.025 180.56C186.842 181.339 186.957 182.163 186.957 182.941C186.934 184.498 186.43 186.009 186.453 187.566C186.476 188.78 186.934 190.107 188.056 190.588C188.582 190.817 189.177 190.817 189.75 190.817C193.947 190.787 198.137 190.764 202.319 190.749C202.617 190.749 202.938 190.726 203.189 190.588C203.762 190.291 203.876 189.558 203.945 188.917C204.159 186.185 204.38 183.46 204.609 180.743C204.227 180.575 203.853 180.415 203.487 180.262Z" fill="white"/>
<path fill-rule="evenodd" clip-rule="evenodd" d="M206.395 166.983L206.235 168.952L206.12 170.372L205.845 174.035L205.662 176.118L205.433 178.935L205.342 180.125L205.319 180.491L205.204 181.888L205.044 183.834L204.952 185.025L204.838 186.238L204.723 187.658L204.655 188.734L204.54 189.924L204.517 190.451H186.613L186.59 189.924L186.476 188.711L186.407 187.658L186.293 186.238L186.178 185.025L186.087 183.834L185.926 181.888L185.812 180.491L185.789 180.125L185.697 178.935L185.468 176.118L185.285 174.035L184.988 170.372L184.873 168.952L184.713 166.983H206.395ZM205.41 167.899H204.998L205.387 168.288L205.41 167.899ZM203.716 167.899H203.281L201.495 169.685L203.487 171.677L205.25 169.937L205.273 169.456L203.716 167.899ZM204.884 174.378L203.51 173.005L201.518 174.997L203.51 176.988L204.792 175.706L204.884 174.378ZM186.338 175.729L187.621 177.011L189.612 174.997L187.621 173.005L186.224 174.378L186.338 175.729ZM200.854 170.372L198.862 172.364L200.854 174.378L202.846 172.364L200.854 170.372ZM200.854 169.09L201.999 167.945H199.709L200.854 169.09ZM198.221 173.028L196.206 175.019L198.221 177.034L200.213 175.019L198.221 173.028ZM195.565 179.667L197.58 177.675L195.565 175.683L193.573 177.675L195.565 179.667ZM192.909 178.316L190.918 180.308L192.909 182.323L194.924 180.308L192.909 178.316ZM196.183 180.308L198.198 182.323L200.19 180.331L198.198 178.316L196.183 180.308ZM197.534 172.364L195.542 170.372L193.528 172.364L195.542 174.378L197.534 172.364ZM192.887 173.005L190.872 174.997L192.887 177.011L194.878 174.997L192.887 173.005ZM192.245 172.364L190.231 170.372L188.239 172.364L190.231 174.355L192.245 172.364ZM188.262 177.675L190.254 179.667L192.245 177.675L190.254 175.661L188.262 177.675ZM190.254 180.972L188.262 182.987L190.254 184.979L192.245 182.987L190.254 180.972ZM190.918 185.62L192.909 187.612L194.901 185.62L192.909 183.605L190.918 185.62ZM195.565 184.979L197.557 182.987L195.565 180.972L193.573 182.987L195.565 184.979ZM196.206 185.62L198.198 187.635L200.19 185.62L198.198 183.628L196.206 185.62ZM198.862 188.253L200.144 189.558H201.564L202.869 188.253L200.854 186.261L198.862 188.253ZM200.877 184.956L202.869 182.964L200.877 180.949L198.862 182.964L200.877 184.956ZM200.877 179.667L202.892 177.652L200.877 175.661L198.885 177.652L200.877 179.667ZM198.427 167.945H198.015L196.229 169.731L198.221 171.723L200.213 169.731L198.427 167.945ZM196.71 167.945H194.443L195.588 169.09L196.71 167.945ZM193.116 167.945H192.703L190.918 169.731L192.909 171.745L194.901 169.731L193.116 167.945ZM189.132 167.945L190.254 169.09L191.398 167.945H189.132ZM187.415 167.945L185.858 169.525L185.903 170.005L187.643 171.745L189.635 169.731L187.85 167.945H187.415ZM185.72 167.945L185.743 168.311L186.11 167.945H185.72ZM186.155 173.211L186.98 172.386L186.018 171.402L186.155 173.211ZM186.545 178.11L186.98 177.675L186.476 177.172L186.545 178.11ZM186.819 181.522L187.621 182.323L189.635 180.331L187.621 178.316L186.636 179.324L186.819 181.522ZM186.934 183.01L186.98 182.964L186.934 182.918V183.01ZM187.3 187.268L187.621 187.612L189.635 185.62L187.621 183.605L187.048 184.2L187.3 187.268ZM188.285 189.558L187.621 188.917L187.437 189.1L187.483 189.558H188.285ZM189.567 189.558H190.986L192.268 188.253L190.276 186.261L188.285 188.253L189.567 189.558ZM193.573 189.558L192.909 188.917L192.268 189.558H193.573ZM196.275 189.558L197.557 188.276L195.565 186.261L193.573 188.276L194.856 189.558H196.275ZM198.862 189.558L198.221 188.917L197.58 189.558H198.862ZM203.693 189.1L203.487 188.917L202.846 189.558H203.647L203.693 189.1ZM204.105 184.223L203.51 183.628L201.495 185.62L203.51 187.612L203.853 187.291L204.105 184.223ZM204.197 182.918L204.151 182.987L204.197 183.01V182.918ZM204.495 179.324L203.51 178.339L201.518 180.331L203.51 182.323L204.311 181.522L204.495 179.324ZM204.678 177.172L204.151 177.675L204.609 178.133L204.678 177.172ZM205.136 171.402L204.151 172.386L204.998 173.211L205.136 171.402Z" fill="#407BFF"/>
<g opacity="0.6">
<path fill-rule="evenodd" clip-rule="evenodd" d="M206.395 166.984L206.235 168.953L206.12 170.372L205.845 174.035L205.662 176.119L205.433 178.935L205.342 180.126L205.319 180.492L205.204 181.889L205.044 183.835L204.952 185.025L204.838 186.239L204.723 187.658L204.655 188.734L204.54 189.925L204.517 190.451H186.613L186.59 189.925L186.476 188.711L186.407 187.658L186.293 186.239L186.178 185.025L186.087 183.835L185.926 181.889L185.812 180.492L185.789 180.126L185.697 178.935L185.468 176.119L185.285 174.035L184.988 170.372L184.873 168.953L184.713 166.984H206.395ZM205.41 167.899H204.998L205.387 168.289L205.41 167.899ZM203.716 167.899H203.281L201.495 169.685L203.487 171.677L205.25 169.937L205.273 169.456L203.716 167.899ZM204.884 174.379L203.51 173.005L201.518 174.997L203.51 176.989L204.792 175.707L204.884 174.379ZM186.338 175.73L187.621 177.012L189.612 174.997L187.621 173.005L186.224 174.379L186.338 175.73ZM200.854 170.372L198.862 172.364L200.854 174.379L202.846 172.364L200.854 170.372ZM200.854 169.09L201.999 167.945H199.709L200.854 169.09ZM198.221 173.028L196.206 175.02L198.221 177.035L200.213 175.02L198.221 173.028ZM195.565 179.668L197.58 177.676L195.565 175.684L193.573 177.676L195.565 179.668ZM192.909 178.317L190.918 180.309L192.909 182.324L194.924 180.309L192.909 178.317ZM196.183 180.309L198.198 182.324L200.19 180.332L198.198 178.317L196.183 180.309ZM197.534 172.364L195.542 170.372L193.528 172.364L195.542 174.379L197.534 172.364ZM192.887 173.005L190.872 174.997L192.887 177.012L194.878 174.997L192.887 173.005ZM192.245 172.364L190.231 170.372L188.239 172.364L190.231 174.356L192.245 172.364ZM188.262 177.676L190.254 179.668L192.245 177.676L190.254 175.661L188.262 177.676ZM190.254 180.973L188.262 182.988L190.254 184.979L192.245 182.988L190.254 180.973ZM190.918 185.621L192.909 187.612L194.901 185.621L192.909 183.606L190.918 185.621ZM195.565 184.979L197.557 182.988L195.565 180.973L193.573 182.988L195.565 184.979ZM196.206 185.621L198.198 187.635L200.19 185.621L198.198 183.629L196.206 185.621ZM198.862 188.253L200.144 189.559H201.564L202.869 188.253L200.854 186.262L198.862 188.253ZM200.877 184.957L202.869 182.965L200.877 180.95L198.862 182.965L200.877 184.957ZM200.877 179.668L202.892 177.653L200.877 175.661L198.885 177.653L200.877 179.668ZM198.427 167.945H198.015L196.229 169.731L198.221 171.723L200.213 169.731L198.427 167.945ZM196.71 167.945H194.443L195.588 169.09L196.71 167.945ZM193.116 167.945H192.703L190.918 169.731L192.909 171.746L194.901 169.731L193.116 167.945ZM189.132 167.945L190.254 169.09L191.398 167.945H189.132ZM187.415 167.945L185.858 169.525L185.903 170.006L187.643 171.746L189.635 169.731L187.85 167.945H187.415ZM185.72 167.945L185.743 168.312L186.11 167.945H185.72ZM186.155 173.211L186.98 172.387L186.018 171.402L186.155 173.211ZM186.545 178.111L186.98 177.676L186.476 177.172L186.545 178.111ZM186.819 181.522L187.621 182.324L189.635 180.332L187.621 178.317L186.636 179.324L186.819 181.522ZM186.934 183.01L186.98 182.965L186.934 182.919V183.01ZM187.3 187.269L187.621 187.612L189.635 185.621L187.621 183.606L187.048 184.201L187.3 187.269ZM188.285 189.559L187.621 188.917L187.437 189.101L187.483 189.559H188.285ZM189.567 189.559H190.986L192.268 188.253L190.276 186.262L188.285 188.253L189.567 189.559ZM193.573 189.559L192.909 188.917L192.268 189.559H193.573ZM196.275 189.559L197.557 188.276L195.565 186.262L193.573 188.276L194.856 189.559H196.275ZM198.862 189.559L198.221 188.917L197.58 189.559H198.862ZM203.693 189.101L203.487 188.917L202.846 189.559H203.647L203.693 189.101ZM204.105 184.224L203.51 183.629L201.495 185.621L203.51 187.612L203.853 187.292L204.105 184.224ZM204.197 182.919L204.151 182.988L204.197 183.01V182.919ZM204.495 179.324L203.51 178.34L201.518 180.332L203.51 182.324L204.311 181.522L204.495 179.324ZM204.678 177.172L204.151 177.676L204.609 178.134L204.678 177.172ZM205.136 171.402L204.151 172.387L204.998 173.211L205.136 171.402Z" fill="white"/>
</g>
<path d="M184.232 168.724H206.899C207.311 168.724 207.654 168.38 207.654 167.968V166.938C207.654 166.503 207.311 166.182 206.899 166.182H184.232C183.82 166.182 183.477 166.503 183.477 166.938V167.968C183.477 168.38 183.82 168.724 184.232 168.724Z" fill="#407BFF"/>
<path d="M205.159 191.619H185.972C185.56 191.619 185.217 191.275 185.217 190.863V189.833C185.217 189.398 185.56 189.078 185.972 189.078H205.159C205.571 189.078 205.914 189.398 205.914 189.833V190.863C205.914 191.275 205.571 191.619 205.159 191.619Z" fill="#407BFF"/>
<path d="M82.0499 96.8091C83.6297 97.2899 83.8816 106.471 83.8816 106.471H82.9657C82.9657 106.471 83.4466 96.7404 81.0654 97.038L82.0499 96.8091Z" fill="#263238"/>
<path opacity="0.2" d="M82.0499 96.8091C83.6297 97.2899 83.8816 106.471 83.8816 106.471H82.9657C82.9657 106.471 83.4466 96.7404 81.0654 97.038L82.0499 96.8091Z" fill="black"/>
<path d="M84.0421 183.652L81.1573 184.178L79.9667 180.24L78.8906 176.623L82.2334 175.455L83.195 179.805L84.0421 183.652Z" fill="#E4897B"/>
<path opacity="0.2" d="M83.195 179.896L79.9896 180.308L78.8906 176.668L82.2334 175.478L83.195 179.896Z" fill="black"/>
<path d="M64.7644 185.002H61.8338L61.353 180.858L60.918 177.08L64.3981 176.508L64.5812 180.995L64.7644 185.002Z" fill="#E4897B"/>
<path opacity="0.2" d="M64.5812 181.041L61.353 180.904L60.918 177.103L64.3981 176.531L64.5812 181.041Z" fill="black"/>
<path d="M68.7473 190.795C68.2665 190.429 67.7399 190.131 67.1675 189.948C67.1675 189.948 65.4732 188.253 64.649 183.171L62.4282 182.598C61.6497 182.392 60.8255 182.713 60.3905 183.377C60.3294 183.468 60.2836 183.568 60.2531 183.674C60.131 184.224 60.047 184.773 60.0012 185.323C59.7952 187.04 59.9783 190.909 59.9783 190.909H60.3905L60.5507 187.406C60.5965 186.216 61.5123 187.612 61.7642 188.895C62.0389 190.177 62.5884 191.55 65.1985 191.596C68.2436 191.665 69.5028 191.55 68.7473 190.795Z" fill="#263238"/>
<path d="M88.2092 190.451C87.7284 190.085 87.2018 189.787 86.6294 189.604C86.6294 189.604 84.9352 187.91 84.1109 182.827L81.8901 182.255C81.1116 182.049 80.2874 182.369 79.8524 183.033C79.7913 183.125 79.7455 183.224 79.715 183.331C79.5929 183.88 79.5089 184.43 79.4632 184.979C79.2571 186.696 79.4403 190.566 79.4403 190.566H79.8524L80.0126 187.063C80.0584 185.872 80.9743 187.269 81.2261 188.551C81.5008 189.833 82.0503 191.207 84.6604 191.253C87.7055 191.321 88.9647 191.207 88.2092 190.451Z" fill="#263238"/>
<path d="M83.4693 177.607L78.73 178.431C73.9448 166.503 70.5334 156.521 68.1294 148.255C66.8244 143.791 65.7483 139.83 64.9699 136.304L65.1072 149.309V178.592H60.4366C48.7141 122.727 57.0252 109.974 57.0252 109.974L71.06 107.639C71.5866 109.745 71.9758 113.18 72.2277 115.538L72.8459 120.186L78.3408 148.53L83.4693 177.607Z" fill="#407BFF"/>
<g opacity="0.4">
<path d="M83.4703 177.607L78.731 178.431C73.9458 166.502 70.5344 156.52 68.1304 148.255C66.8254 143.79 65.7493 139.829 64.9708 136.303L65.1082 149.308V178.591H60.4375C48.7151 122.726 57.0261 109.974 57.0261 109.974L71.061 107.638C71.5876 109.745 71.9768 113.179 72.2287 115.537L72.8469 120.185L78.3417 148.529L83.4703 177.607Z" fill="white"/>
</g>
<path d="M87.6592 93.8554L92.3985 89.1847C92.3985 89.1847 92.5588 87.9255 93.0167 87.582C93.4746 87.2157 96.7258 86.048 97.1379 86.2999C97.5271 86.5746 98.0766 89.1847 97.5271 89.6655C96.9776 90.1463 94.0012 90.7645 93.7036 90.7187L88.575 96.8089L87.6592 93.8554Z" fill="#EEC1BB"/>
<path d="M70.694 85.3152C72.7546 86.4142 79.9896 96.5339 81.0656 97.0376C82.1417 97.5413 90.2925 90.9246 90.2925 90.9246L91.6662 93.2828C91.6662 93.2828 84.9808 102.739 81.1801 102.281C77.4024 101.823 70.1445 93.8094 70.1445 93.8094L70.694 85.3152Z" fill="#263238"/>
<path opacity="0.4" d="M70.694 85.3152C72.7546 86.4142 79.9896 96.5339 81.0656 97.0376C82.1417 97.5413 90.2925 90.9246 90.2925 90.9246L91.6662 93.2828C91.6662 93.2828 84.9808 102.739 81.1801 102.281C77.4024 101.823 70.1445 93.8094 70.1445 93.8094L70.694 85.3152Z" fill="white"/>
<path d="M89.8584 91.1765L90.4079 90.6499L91.8961 93.1684L91.3695 94.1987L89.8584 91.1765Z" fill="#407BFF"/>
<path opacity="0.2" d="M73.0522 96.7633C71.358 95.1606 70.1445 93.8098 70.1445 93.8098L70.2819 91.795L70.923 89.8489C70.923 89.8489 73.762 92.4819 73.0522 96.7633Z" fill="black"/>
<path opacity="0.2" d="M68.1299 148.255C66.8249 143.791 65.8175 139.83 65.0391 136.304C65.0391 136.304 65.1077 129.458 65.9549 123.849C65.9549 123.849 67.9926 139.921 68.1299 148.255Z" fill="black"/>
<path d="M71.3806 106.791C71.953 96.6946 71.7011 91.1539 71.4493 88.3835C71.1516 85.43 70.6937 85.3156 70.6937 85.3156C70.6937 85.3156 67.5112 85.0179 64.718 85.0408C62.5658 85.1095 60.4137 85.3384 58.2844 85.7048C56.2696 86.0406 54.293 86.5214 52.3545 87.1472C52.675 88.0783 52.9727 88.9559 53.2474 89.7802C53.6137 90.8791 53.9419 91.8942 54.2319 92.8252C54.7814 94.6111 55.2164 96.1451 55.5598 97.4959C56.613 101.754 56.842 104.456 57.0709 108.028C57.0709 108.028 53.5451 117.232 52.8582 123.986L64.5348 125.245L66.1375 118.491L67.7402 125.474L74.2654 123.185L71.3806 106.791Z" fill="#263238"/>
<path opacity="0.4" d="M71.3806 106.791C71.953 96.6946 71.7011 91.1539 71.4493 88.3835C71.1516 85.43 70.6937 85.3156 70.6937 85.3156C70.6937 85.3156 67.5112 85.0179 64.718 85.0408C62.5658 85.1095 60.4137 85.3384 58.2844 85.7048C56.2696 86.0406 54.293 86.5214 52.3545 87.1472C52.675 88.0783 52.9727 88.9559 53.2474 89.7802C53.6137 90.8791 53.9419 91.8942 54.2319 92.8252C54.7814 94.6111 55.2164 96.1451 55.5598 97.4959C56.613 101.754 56.842 104.456 57.0709 108.028C57.0709 108.028 53.5451 117.232 52.8582 123.986L64.5348 125.245L66.1375 118.491L67.7402 125.474L74.2654 123.185L71.3806 106.791Z" fill="white"/>
<path d="M59.3383 84.5144C59.3383 84.5144 61.0097 83.1635 64.009 84.2396L64.4211 85.7736C64.4211 85.7736 61.8339 86.7352 60.5518 86.4834C59.2467 86.2315 59.3383 84.5144 59.3383 84.5144Z" fill="#407BFF"/>
<path opacity="0.2" d="M59.3383 84.5144C59.3383 84.5144 61.0097 83.1635 64.009 84.2396L64.4211 85.7736C64.4211 85.7736 61.8339 86.7352 60.5518 86.4834C59.2467 86.2315 59.3383 84.5144 59.3383 84.5144Z" fill="black"/>
<path opacity="0.2" d="M56.1104 99.9684C55.9501 99.2128 55.7669 98.3886 55.5609 97.4957C55.4082 96.9462 55.248 96.3585 55.0801 95.7327C55.5151 94.1758 55.9959 95.3893 55.9959 95.3893C55.9959 95.3893 56.4538 97.2896 56.1104 99.9684Z" fill="black"/>
<path d="M64.5581 85.6592C64.4207 85.5905 64.2833 85.5218 64.1231 85.4531C63.7796 85.2013 63.3904 84.5831 63.4133 83.0491C63.4133 82.5454 63.4591 81.973 63.5736 81.2633L59.3379 80.4619C59.3379 80.4619 60.7803 83.3238 59.5669 85.4531C59.1548 85.6363 58.9029 85.8881 58.9487 86.2316C59.2692 88.6814 64.5352 91.0625 64.5352 91.0625C64.5352 91.0625 67.1224 87.0558 64.5581 85.6592Z" fill="#EEC1BB"/>
<path opacity="0.2" d="M63.5735 81.2633C63.4591 81.973 63.4133 82.5454 63.4133 83.0491C60.5513 83.0491 59.3379 80.4619 59.3379 80.4619L63.5735 81.2633Z" fill="black"/>
<path d="M61.6729 67.2512C61.6729 67.2512 66.6641 66.633 67.5799 70.6397C68.4957 74.6464 65.4048 76.8672 65.4048 76.8672L61.6729 67.2512Z" fill="#263238"/>
<path d="M61.2379 69.38C64.924 69.1969 66.2062 71.0972 66.687 74.8749C67.2823 79.6143 66.4122 83.0486 61.7416 82.293C55.3996 81.2627 55.1019 69.7234 61.2379 69.38Z" fill="#EEC1BB"/>
<path d="M64.3057 74.8066C64.3057 74.8066 64.8552 75.7454 65.4504 76.2719C65.4504 76.2719 65.1757 76.7985 64.5117 76.7527L64.3057 74.8066Z" fill="#D4827D"/>
<path d="M62.0171 74.6232C62.04 74.9437 61.9026 75.1956 61.6965 75.2185C61.4905 75.2185 61.3073 74.9895 61.2844 74.6919C61.2615 74.3942 61.4218 74.1195 61.6049 74.1195C61.811 74.0966 61.9942 74.3256 62.0171 74.6232Z" fill="#263238"/>
<path d="M61.5361 74.1426L62.1772 73.822C62.1772 73.822 61.8796 74.3944 61.5361 74.1426Z" fill="#263238"/>
<path d="M65.7719 74.28C65.7948 74.5776 65.6575 74.8295 65.4514 74.8524C65.2453 74.8753 65.0622 74.6234 65.0393 74.3258C65.0164 74.0281 65.1767 73.7763 65.3827 73.7534C65.5659 73.7305 65.7491 73.9824 65.7719 74.28Z" fill="#263238"/>
<path d="M65.291 73.7764L65.9321 73.4558C65.9321 73.4558 65.6344 74.0511 65.291 73.7764Z" fill="#263238"/>
<path d="M61.8333 72.0824C61.8333 72.0824 60.803 72.0137 60.2764 72.7234" stroke="#263238" stroke-width="0.593584" stroke-linecap="round" stroke-linejoin="round"/>
<path d="M64.5127 71.7845C64.5127 71.7845 65.1538 71.5098 66.0009 72.0135" stroke="#263238" stroke-width="0.593584" stroke-linecap="round" stroke-linejoin="round"/>
<path d="M57.5297 75.8373C57.5297 75.8373 59.0866 72.7006 58.6974 70.3882C58.6974 70.3882 65.8636 66.9996 66.6192 74.3949C66.6192 74.3949 66.9855 67.7552 60.6206 67.9612C54.2785 68.1673 54.8051 77.4399 58.2394 80.0271C58.2394 80.0271 56.5681 77.7834 57.5297 75.8373Z" fill="#263238"/>
<path d="M62.3137 66.9763C62.3137 66.9763 65.3358 66.2207 66.2059 67.0221C67.053 67.8234 60.9399 73.5015 57.7346 74.0738C57.7346 74.0738 56.6356 77.6226 57.5056 79.2711C57.5056 79.2711 53.8881 78.0119 53.7279 72.517C53.5447 67.0221 59.3372 64.9615 62.3137 66.9763Z" fill="#263238"/>
<path d="M58.17 76.5701C58.1242 75.9748 57.4603 75.0132 56.3613 75.1964C55.2165 75.3796 54.8044 77.7607 57.6892 78.1728C58.1013 78.2186 58.3074 77.8065 58.17 76.5701Z" fill="#EEC1BB"/>
<path d="M56.5901 69.1517C56.5901 69.1517 55.3309 65.9463 51.9423 66.1753C48.5767 66.4042 48.0501 71.6702 49.836 75.5624C51.5989 79.4546 50.4084 80.7139 50.4084 80.7139C50.4084 80.7139 52.2858 80.4849 52.2858 76.9819C52.2858 76.9819 52.4689 78.1267 52.4003 79.2257C52.4003 79.2257 53.6595 77.4398 52.4689 74.0742C51.2555 70.6857 55.1019 72.2426 55.1019 72.2426L56.5901 69.1517Z" fill="#263238"/>
<path d="M65.9095 67.3196C65.9095 67.3196 64.3068 72.471 60.0254 74.005" stroke="#263238" stroke-width="0.593584" stroke-linecap="round" stroke-linejoin="round"/>
<path d="M61.6279 78.0806C61.6279 78.0806 62.4751 78.9964 63.7343 78.9277" stroke="#263238" stroke-width="0.593584" stroke-linecap="round" stroke-linejoin="round"/>
<path d="M59.3377 84.5147C59.3377 84.5147 60.0932 86.0487 62.6804 87.1477L63.7336 88.8649V86.9188C63.7336 86.9188 64.2373 85.4992 64.0083 84.24L64.8784 85.8656C64.8784 85.8656 65.6339 85.9571 65.9087 86.9417C66.1834 87.949 64.7181 91.5436 64.7181 91.5436C64.7181 91.5436 60.0016 89.8494 58.9485 87.7201C58.17 86.1403 59.1087 85.774 59.1087 85.774L59.3377 84.5147Z" fill="#407BFF"/>
<path d="M65.474 92.8483C65.474 93.0315 65.3137 93.1688 65.1305 93.1688C64.9474 93.1688 64.7871 93.0315 64.7871 92.8483C64.7871 92.6423 64.9474 92.5049 65.1305 92.5049C65.3137 92.5049 65.474 92.6423 65.474 92.8483Z" fill="#263238"/>
<path d="M66.2982 98.1374C66.2982 98.3205 66.1379 98.4808 65.9548 98.4808C65.7716 98.4808 65.6113 98.3205 65.6113 98.1374C65.6113 97.9542 65.7716 97.7939 65.9548 97.7939C66.1379 97.7939 66.2982 97.9542 66.2982 98.1374Z" fill="#263238"/>
<path d="M66.619 104.548C66.619 104.754 66.4817 104.892 66.2985 104.892C66.0925 104.892 65.9551 104.754 65.9551 104.548C65.9551 104.365 66.0925 104.228 66.2985 104.228C66.4817 104.228 66.619 104.365 66.619 104.548Z" fill="#263238"/>
<path d="M66.9159 111.279C66.9159 111.463 66.7786 111.623 66.5725 111.623C66.3893 111.623 66.252 111.463 66.252 111.279C66.252 111.096 66.3893 110.936 66.5725 110.936C66.7786 110.936 66.9159 111.096 66.9159 111.279Z" fill="#263238"/>
<path d="M93.5205 88.4749C93.5205 88.4749 96.4282 86.8036 100.481 87.0325L103.022 89.7113C103.022 89.7113 100.847 89.2076 95.9474 90.3066L93.5205 88.4749Z" fill="#407BFF"/>
<path opacity="0.4" d="M93.5205 88.4749C93.5205 88.4749 96.4282 86.8036 100.481 87.0325L103.022 89.7113C103.022 89.7113 100.847 89.2076 95.9474 90.3066L93.5205 88.4749Z" fill="black"/>
<path d="M93.498 88.2921C93.498 88.2921 96.3142 86.4833 100.367 86.4604L103.068 89.0018C103.068 89.0018 100.847 88.6126 96.0165 89.9863L93.498 88.2921Z" fill="#407BFF"/>
<path opacity="0.2" d="M93.498 88.2921C93.498 88.2921 96.3142 86.4833 100.367 86.4604L103.068 89.0018C103.068 89.0018 100.847 88.6126 96.0165 89.9863L93.498 88.2921Z" fill="black"/>
<path d="M93.6816 87.9487L96.1543 89.9864C96.1543 89.9864 99.5658 87.9945 104.007 88.7501L100.917 86.0255C100.917 86.0255 96.4062 85.5218 93.6816 87.9487Z" fill="#407BFF"/>
<path opacity="0.2" d="M94.3223 87.9945L96.0394 89.5285C96.0394 89.5285 99.5882 87.6281 103.068 88.3379L100.779 86.2544C100.779 86.2544 96.8408 85.7507 94.3223 87.9945Z" fill="black"/>
<path d="M99.1759 87.3075C99.1759 87.6967 98.7638 87.9944 98.283 87.9944C97.7793 87.9944 97.3672 87.6967 97.3672 87.3075C97.3672 86.9412 97.7793 86.6436 98.283 86.6436C98.7638 86.6436 99.1759 86.9412 99.1759 87.3075Z" fill="#407BFF"/>
<path d="M76.2124 116.545C76.3727 114.004 77.9525 106.471 77.9525 106.471C77.9525 106.471 79.3949 105.509 80.1276 105.258C82.0737 104.548 83.745 104.548 83.745 104.548C83.745 104.548 84.4777 114.049 83.745 115.08C83.0353 116.133 76.0064 119.567 76.2124 116.545Z" fill="#263238"/>
<path d="M77.9521 106.471C77.9521 106.471 79.0969 96.3741 82.0504 96.8091C82.0504 96.8091 79.7151 97.2899 78.868 106.814L77.9521 106.471Z" fill="#263238"/>
<path d="M67.4886 101.686C68.0151 101.572 69.366 98.1373 69.2057 97.7022C69.0225 97.2901 58.8799 98.7096 58.8799 98.7096L59.5438 102.419L67.4886 101.686Z" fill="#407BFF"/>
<path opacity="0.2" d="M67.4886 101.686C68.0151 101.572 69.366 98.1373 69.2057 97.7022C69.0225 97.2901 58.8799 98.7096 58.8799 98.7096L59.5438 102.419L67.4886 101.686Z" fill="black"/>
<path d="M54.6673 98.7778C54.6673 98.7778 65.5197 97.2438 66.0005 97.4041C66.4813 97.5643 67.4887 101.686 67.4887 101.686C67.4887 101.686 58.0787 103.174 57.2545 102.945C56.4531 102.693 54.2781 99.3502 54.6673 98.7778Z" fill="#407BFF"/>
<path d="M50.9805 106.036L56.6127 102.488C56.6127 102.488 57.0477 101.297 57.5514 101.068C58.078 100.816 61.5124 100.358 61.8558 100.702C62.1763 101.045 62.1534 103.724 61.5124 104.09C60.8484 104.434 57.8491 104.388 57.5514 104.273L51.2323 109.127L50.9805 106.036Z" fill="#EEC1BB"/>
<path d="M52.3551 87.1472C52.3551 87.1472 56.0413 92.5047 55.4918 97.0838L50.615 105.166L53.8891 103.495L55.3773 106.288C55.3773 106.288 51.5995 112.103 46.7915 110.729C41.9835 109.356 52.3551 87.1472 52.3551 87.1472Z" fill="#263238"/>
<path opacity="0.4" d="M52.3551 87.1472C52.3551 87.1472 56.0413 92.5047 55.4918 97.0838L50.615 105.166L53.8891 103.495L55.3773 106.288C55.3773 106.288 51.5995 112.103 46.7915 110.729C41.9835 109.356 52.3551 87.1472 52.3551 87.1472Z" fill="white"/>
<path d="M53.5459 103.334L55.4233 106.815L55.8354 105.807L54.3472 102.991L53.5459 103.334Z" fill="#407BFF"/>
</svg>
