<svg width="528" height="528" viewBox="0 0 528 528" fill="none" xmlns="http://www.w3.org/2000/svg">
<path d="M377.15 120.437L451.07 163.152C456.35 166.215 460.627 173.607 460.627 179.679V325.618L466.91 329.261V179.098C466.91 170.544 460.838 160.09 453.446 155.813L376.833 111.567C369.441 107.29 363.369 110.775 363.369 119.328V269.491L369.705 273.135V124.767C369.705 120.015 373.032 118.114 377.15 120.437Z" fill="#E0E0E0"/>
<path d="M320.126 446.582C320.126 438.874 325.512 429.528 332.164 425.674C335.649 423.667 338.817 423.614 341.035 425.04L349.166 429.686L331.848 459.096L323.769 454.45C321.552 453.235 320.126 450.49 320.126 446.582Z" fill="#455A64"/>
<path d="M340.613 430.584C333.96 434.386 328.574 443.784 328.574 451.44C328.574 459.149 333.96 462.264 340.613 458.41C347.265 454.555 352.704 445.21 352.704 437.501C352.704 429.845 347.265 426.73 340.613 430.584Z" fill="#37474F"/>
<path d="M344.731 442.147C344.731 439.138 342.883 437.765 340.612 439.032C338.342 440.352 336.547 443.837 336.547 446.846C336.547 449.856 338.342 451.229 340.612 449.909C342.883 448.641 344.731 445.157 344.731 442.147Z" fill="#263238"/>
<path d="M326.462 417.701C326.462 417.701 326.462 431.482 333.062 436.339C334.276 437.29 335.596 437.923 336.388 438.557C338.025 439.929 336.916 442.517 334.91 443.626C331.953 445.21 315.849 440.88 309.038 427.786L326.462 417.701Z" fill="#F0F0F0"/>
<path d="M332.745 421.291C332.745 421.291 332.745 435.072 339.293 439.93C340.56 440.88 341.827 441.514 342.619 442.147C344.309 443.52 343.2 446.107 341.141 447.216C338.184 448.8 322.08 444.47 315.269 431.376L332.745 421.291Z" fill="#FAFAFA"/>
<path d="M340.613 443.15C339.979 443.52 339.451 444.418 339.451 445.157C339.451 445.896 339.979 446.213 340.613 445.843C341.246 445.474 341.774 444.576 341.774 443.837C341.774 443.098 341.246 442.781 340.613 443.15Z" fill="#263238"/>
<path d="M451.07 370.973C451.07 363.264 456.509 353.919 463.162 350.064C466.646 348.058 469.814 347.952 471.979 349.431L480.11 354.077L462.845 383.487L454.766 378.84C452.496 377.626 451.07 374.88 451.07 370.973Z" fill="#455A64"/>
<path d="M471.61 354.922C464.957 358.776 459.519 368.122 459.519 375.83C459.519 383.539 464.957 386.654 471.61 382.8C478.263 378.946 483.648 369.6 483.648 361.891C483.648 354.182 478.263 351.067 471.61 354.922Z" fill="#37474F"/>
<path d="M475.675 366.485C475.675 363.475 473.88 362.102 471.61 363.422C469.339 364.742 467.544 368.227 467.544 371.237C467.544 374.246 469.339 375.619 471.61 374.299C473.88 373.032 475.675 369.494 475.675 366.485Z" fill="#263238"/>
<path d="M457.459 342.091C457.459 342.091 457.459 355.872 464.059 360.73C465.274 361.627 466.594 362.261 467.333 362.947C469.022 364.32 467.914 366.907 465.907 367.963C462.95 369.547 446.846 365.27 439.982 352.176L457.459 342.091Z" fill="#F0F0F0"/>
<path d="M463.742 345.682C463.742 345.682 463.742 359.462 470.29 364.32C471.504 365.218 472.824 365.851 473.616 366.538C475.306 367.91 474.197 370.498 472.138 371.554C469.181 373.138 453.077 368.861 446.266 355.766L463.742 345.682Z" fill="#FAFAFA"/>
<path d="M471.61 367.541C470.976 367.91 470.448 368.808 470.448 369.547C470.448 370.286 470.976 370.55 471.61 370.181C472.243 369.811 472.771 368.914 472.771 368.174C472.771 367.435 472.243 367.171 471.61 367.541Z" fill="#263238"/>
<path d="M473.247 332.904L357.087 265.848L167.271 375.408L283.431 442.464L473.247 332.904Z" fill="#455A64"/>
<path d="M473.247 332.904L473.194 340.19L283.431 449.75V442.464L473.247 332.904Z" fill="#37474F"/>
<path d="M167.271 375.408V382.694L283.431 449.75V442.464L167.271 375.408Z" fill="#263238"/>
<path opacity="0.1" d="M456.351 333.221L356.717 390.773L255.13 332.165L355.027 274.771L456.351 333.221Z" fill="black"/>
<path d="M452.972 264.792L361.733 212.045L265.268 267.855L356.506 320.602L452.972 264.792Z" fill="#27DEBF"/>
<path opacity="0.7" d="M452.972 264.792L361.733 212.045L265.268 267.855L356.506 320.602L452.972 264.792Z" fill="white"/>
<path d="M356.506 384.384L452.971 328.574V264.792L356.506 320.602V384.384Z" fill="#27DEBF"/>
<path opacity="0.6" d="M356.506 384.384L452.971 328.574V264.792L356.506 320.602V384.384Z" fill="white"/>
<path fill-rule="evenodd" clip-rule="evenodd" d="M367.171 363.211C366.854 363.211 366.573 363.141 366.326 363C365.693 362.63 365.323 361.786 365.323 360.73V353.971V353.443L365.64 353.496L370.92 350.381V357.931C370.92 359.885 369.811 362.05 368.333 362.894C367.946 363.106 367.558 363.211 367.171 363.211ZM366.168 354.446V360.73C366.168 361.469 366.379 362.05 366.749 362.261C367.171 362.472 367.594 362.314 367.91 362.155C369.072 361.469 370.075 359.568 370.075 357.931V357.403H368.122L367.752 354.763L366.168 354.446ZM368.861 356.506H370.128V351.859L366.96 353.707L368.491 353.971L368.861 356.506Z" fill="#455A64"/>
<path d="M368.122 368.597C367.91 368.597 367.699 368.438 367.699 368.174V362.525C367.699 362.261 367.91 362.102 368.122 362.102C368.333 362.102 368.544 362.261 368.544 362.525V368.174C368.544 368.438 368.333 368.597 368.122 368.597Z" fill="#455A64"/>
<path d="M365.64 370.022C365.535 370.022 365.376 369.97 365.271 369.811C365.165 369.653 365.218 369.389 365.429 369.23L370.392 366.379C370.603 366.274 370.867 366.326 370.973 366.538C371.079 366.749 371.026 367.013 370.815 367.118L365.851 369.97C365.781 370.005 365.711 370.022 365.64 370.022Z" fill="#455A64"/>
<path d="M383.223 360.254C383.082 360.254 382.924 360.219 382.748 360.149C382.431 359.938 382.272 359.568 382.272 359.146V357.984C382.272 357.72 382.431 357.562 382.695 357.562C382.906 357.562 383.117 357.72 383.117 357.984V359.146C383.117 359.304 383.17 359.41 383.223 359.41C383.223 359.41 383.328 359.41 383.487 359.357C383.856 359.093 384.279 358.248 384.279 357.403V349.853C384.279 349.642 384.437 349.43 384.701 349.43C384.912 349.43 385.124 349.642 385.124 349.853V357.403C385.124 358.512 384.596 359.674 383.909 360.043C383.663 360.184 383.434 360.254 383.223 360.254Z" fill="#455A64"/>
<path fill-rule="evenodd" clip-rule="evenodd" d="M378.787 353.654V352.915C378.787 349.483 381.216 345.259 384.173 343.517C385.704 342.619 387.182 342.514 388.291 343.147C389.453 343.781 390.034 345.154 390.034 346.896V347.16L378.787 353.654ZM386.813 343.57C386.126 343.57 385.44 343.781 384.648 344.203C382.113 345.682 380.001 349.114 379.685 352.123L389.242 346.632C389.189 345.312 388.714 344.309 387.922 343.834C387.605 343.658 387.235 343.57 386.813 343.57Z" fill="#455A64"/>
<path d="M398.482 351.542C398.271 351.542 398.06 351.384 398.06 351.12V336.706C398.06 336.442 398.271 336.283 398.482 336.283C398.746 336.283 398.904 336.442 398.904 336.706V351.12C398.904 351.384 398.746 351.542 398.482 351.542Z" fill="#455A64"/>
<path d="M397.267 339.979C397.197 339.979 397.144 339.962 397.109 339.926C396.845 339.874 396.792 339.61 396.845 339.398L398.376 335.914L400.065 337.867C400.224 338.026 400.224 338.29 400.013 338.448C399.854 338.606 399.59 338.554 399.432 338.395L398.64 337.498L397.637 339.715C397.584 339.874 397.425 339.979 397.267 339.979Z" fill="#455A64"/>
<path d="M402.442 349.325C402.178 349.325 402.02 349.114 402.02 348.902V334.435C402.02 334.224 402.178 334.013 402.442 334.013C402.653 334.013 402.864 334.224 402.864 334.435V348.902C402.864 349.114 402.653 349.325 402.442 349.325Z" fill="#455A64"/>
<path d="M401.175 337.761C401.14 337.761 401.087 337.744 401.016 337.709C400.805 337.603 400.699 337.339 400.805 337.128L402.284 333.643L403.973 335.597C404.131 335.755 404.131 336.072 403.973 336.177C403.762 336.336 403.498 336.336 403.34 336.177L402.548 335.227L401.597 337.497C401.491 337.656 401.333 337.761 401.175 337.761Z" fill="#455A64"/>
<path d="M356.506 384.384L265.268 331.637V267.854L356.506 320.602V384.384Z" fill="#27DEBF"/>
<path opacity="0.5" d="M356.506 384.384L265.268 331.637V267.854L356.506 320.602V384.384Z" fill="white"/>
<path d="M303.6 299.64L309.83 303.23V293.568L303.6 289.978V299.64Z" fill="#37474F"/>
<path d="M309.83 293.568L406.243 237.758L400.012 234.168L303.6 289.978L309.83 293.568Z" fill="#455A64"/>
<path d="M306.398 288.288L312.682 291.931L316.166 289.925L309.883 286.282L306.398 288.288Z" fill="#37474F"/>
<path d="M406.508 245.89L380.952 260.621C380.477 260.885 380.636 261.36 381.216 261.73L410.098 278.362C410.679 278.731 411.576 278.784 412.052 278.52L437.554 263.842C438.029 263.578 437.924 263.05 437.29 262.68L408.461 246.048C407.828 245.678 406.983 245.626 406.508 245.89Z" fill="#FAFAFA"/>
<path d="M419.39 270.917C419.601 270.917 419.76 270.811 419.865 270.653C420.024 270.389 419.918 270.072 419.654 269.966L395.736 256.133C395.472 255.975 395.155 256.08 394.996 256.291C394.838 256.555 394.944 256.872 395.208 257.03L419.126 270.864C419.232 270.899 419.32 270.917 419.39 270.917Z" fill="#E0E0E0"/>
<path d="M416.75 272.448C416.909 272.448 417.12 272.342 417.225 272.184C417.331 271.92 417.278 271.603 417.014 271.445L393.096 257.664C392.832 257.506 392.515 257.558 392.357 257.822C392.198 258.086 392.304 258.403 392.568 258.562L416.486 272.395C416.557 272.43 416.645 272.448 416.75 272.448Z" fill="#E0E0E0"/>
<path d="M414.111 273.979C414.269 273.979 414.427 273.874 414.533 273.715C414.691 273.451 414.586 273.134 414.375 272.976L390.403 259.142C390.139 259.037 389.823 259.09 389.717 259.354C389.559 259.618 389.611 259.934 389.875 260.093L413.847 273.926C413.917 273.961 414.005 273.979 414.111 273.979Z" fill="#E0E0E0"/>
<path d="M411.417 275.51C411.628 275.51 411.787 275.405 411.892 275.246C412.051 274.982 411.945 274.666 411.681 274.507L387.763 260.674C387.499 260.568 387.182 260.621 387.024 260.885C386.865 261.149 386.971 261.466 387.235 261.624L411.153 275.405C411.259 275.475 411.347 275.51 411.417 275.51Z" fill="#E0E0E0"/>
<path d="M435.178 263.155L434.227 262.627L423.351 268.91L424.248 269.438L435.178 263.155Z" fill="#455A64"/>
<path d="M431.376 260.938L429.739 260.04L418.862 266.323L420.446 267.274L431.376 260.938Z" fill="#455A64"/>
<path d="M427.574 258.773L426.677 258.245L415.747 264.528L416.697 265.056L427.574 258.773Z" fill="#455A64"/>
<path d="M424.723 257.136L422.875 256.027L411.945 262.363L413.846 263.419L424.723 257.136Z" fill="#455A64"/>
<path d="M420.024 254.39L419.073 253.862L408.144 260.146L409.094 260.674L420.024 254.39Z" fill="#455A64"/>
<path d="M417.279 252.806L415.272 251.698L404.396 257.981L406.402 259.09L417.279 252.806Z" fill="#455A64"/>
<path d="M412.421 250.008L411.471 249.48L400.594 255.763L401.544 256.291L412.421 250.008Z" fill="#455A64"/>
<path d="M410.256 248.741L409.834 248.477L398.904 254.813L399.38 255.077L410.256 248.741Z" fill="#455A64"/>
<path d="M414.111 251.064L413.636 250.8L402.706 257.083L403.181 257.347L414.111 251.064Z" fill="#455A64"/>
<path d="M421.766 255.446L421.291 255.182L410.414 261.466L410.889 261.73L421.766 255.446Z" fill="#455A64"/>
<path d="M425.938 257.875L425.463 257.558L414.586 263.894L415.061 264.158L425.938 257.875Z" fill="#455A64"/>
<path d="M428.894 259.618L428.419 259.354L417.542 265.637L418.017 265.901L428.894 259.618Z" fill="#455A64"/>
<path d="M433.066 261.941L432.591 261.677L421.661 267.96L422.136 268.224L433.066 261.941Z" fill="#455A64"/>
<path d="M408.619 247.843L407.722 247.315L396.792 253.598L397.742 254.126L408.619 247.843Z" fill="#455A64"/>
<path d="M423.351 322.238L423.298 338.237C423.298 338.87 423.773 339.082 424.301 338.818L449.275 324.35C449.803 324.086 450.226 323.294 450.226 322.714V306.715C450.226 306.082 449.803 305.818 449.275 306.134L424.301 320.549C423.773 320.866 423.351 321.605 423.351 322.238Z" fill="#FAFAFA"/>
<path d="M448.694 308.405L447.902 308.88V323.453L448.694 322.978V308.405Z" fill="#455A64"/>
<path d="M445.421 310.306L443.995 311.15V325.67L445.421 324.878V310.306Z" fill="#455A64"/>
<path d="M442.095 312.206L441.303 312.682V327.202L442.095 326.779V312.206Z" fill="#455A64"/>
<path d="M439.666 313.632L438.029 314.582V329.102L439.666 328.152V313.632Z" fill="#455A64"/>
<path d="M435.547 316.008L434.755 316.483V331.003L435.547 330.528V316.008Z" fill="#455A64"/>
<path d="M433.171 317.328L431.481 318.384V332.904L433.171 331.901V317.328Z" fill="#455A64"/>
<path d="M429 319.81L428.155 320.285L428.208 334.805L429 334.33V319.81Z" fill="#455A64"/>
<path d="M427.099 320.866L426.729 321.077V335.65L427.099 335.386V320.866Z" fill="#455A64"/>
<path d="M430.478 319.018L430.056 319.229V333.802L430.478 333.538V319.018Z" fill="#455A64"/>
<path d="M437.079 315.11L436.709 315.374V329.894L437.079 329.683V315.11Z" fill="#455A64"/>
<path d="M440.721 313.051L440.299 313.262V327.835L440.721 327.571V313.051Z" fill="#455A64"/>
<path d="M443.309 311.626L442.939 311.837V326.41L443.309 326.146V311.626Z" fill="#455A64"/>
<path d="M446.846 309.461L446.424 309.725V324.245L446.846 324.034V309.461Z" fill="#455A64"/>
<path d="M425.727 321.71L424.882 322.133V336.706L425.727 336.23V321.71Z" fill="#455A64"/>
<path opacity="0.1" d="M446.741 263.472L358.248 314.635L264.581 260.463L353.127 209.299L446.741 263.472Z" fill="black"/>
<path d="M262.152 191.136L347.055 142.032L443.151 197.63L358.248 246.734L262.152 191.136Z" fill="#27DEBF"/>
<path opacity="0.3" d="M262.152 191.136L347.055 142.032L443.151 197.63L358.248 246.734L262.152 191.136Z" fill="white"/>
<path d="M302.86 173.765L328.416 188.496C328.838 188.76 328.732 189.235 328.099 189.605L299.27 206.237C298.689 206.606 297.792 206.659 297.316 206.395L271.761 191.717C271.339 191.4 271.444 190.925 272.078 190.555L300.907 173.923C301.54 173.554 302.385 173.501 302.86 173.765Z" fill="#FAFAFA"/>
<path d="M289.977 198.792C289.766 198.792 289.608 198.686 289.502 198.528C289.344 198.264 289.449 197.947 289.713 197.842L313.632 184.008C313.896 183.85 314.213 183.955 314.371 184.166C314.477 184.43 314.424 184.747 314.16 184.906L290.241 198.739C290.136 198.774 290.048 198.792 289.977 198.792Z" fill="#E0E0E0"/>
<path d="M292.618 200.323C292.407 200.323 292.248 200.218 292.143 200.059C291.984 199.795 292.09 199.478 292.354 199.32L316.272 185.539C316.536 185.381 316.853 185.434 317.012 185.698C317.17 185.962 317.064 186.278 316.8 186.437L292.882 200.27C292.776 200.306 292.688 200.323 292.618 200.323Z" fill="#E0E0E0"/>
<path d="M295.258 201.854C295.099 201.854 294.888 201.749 294.835 201.59C294.677 201.326 294.73 201.01 294.994 200.851L318.965 187.018C319.176 186.912 319.546 186.965 319.651 187.229C319.81 187.493 319.704 187.81 319.493 187.968L295.522 201.802C295.451 201.837 295.363 201.854 295.258 201.854Z" fill="#E0E0E0"/>
<path d="M297.95 203.386C297.739 203.386 297.58 203.28 297.475 203.122C297.316 202.858 297.422 202.541 297.686 202.382L321.604 188.549C321.868 188.39 322.185 188.496 322.344 188.76C322.449 189.024 322.396 189.341 322.132 189.499L298.214 203.28C298.108 203.35 298.02 203.386 297.95 203.386Z" fill="#E0E0E0"/>
<path d="M274.19 191.03L275.141 190.502L286.018 196.786L285.12 197.314L274.19 191.03Z" fill="#455A64"/>
<path d="M277.992 188.813L279.629 187.915L290.506 194.198L288.869 195.149L277.992 188.813Z" fill="#455A64"/>
<path d="M281.794 186.648L282.692 186.12L293.621 192.403L292.671 192.931L281.794 186.648Z" fill="#455A64"/>
<path d="M284.592 185.011L286.493 183.902L297.422 190.238L295.521 191.294L284.592 185.011Z" fill="#455A64"/>
<path d="M289.344 182.266L290.294 181.738L301.171 188.021L300.273 188.549L289.344 182.266Z" fill="#455A64"/>
<path d="M292.037 180.682L294.096 179.52L304.973 185.856L302.967 186.965L292.037 180.682Z" fill="#455A64"/>
<path d="M296.947 177.883L297.845 177.355L308.774 183.638L307.824 184.166L296.947 177.883Z" fill="#455A64"/>
<path d="M299.06 176.616L299.535 176.352L310.464 182.688L309.989 182.952L299.06 176.616Z" fill="#455A64"/>
<path d="M295.258 178.939L295.733 178.675L306.61 184.958L306.187 185.222L295.258 178.939Z" fill="#455A64"/>
<path d="M287.602 183.322L288.024 183.058L298.954 189.341L298.478 189.605L287.602 183.322Z" fill="#455A64"/>
<path d="M283.431 185.75L283.853 185.434L294.783 191.77L294.307 192.034L283.431 185.75Z" fill="#455A64"/>
<path d="M280.474 187.493L280.949 187.229L291.826 193.512L291.35 193.776L280.474 187.493Z" fill="#455A64"/>
<path d="M276.303 189.816L276.778 189.499L287.655 195.835L287.232 196.099L276.303 189.816Z" fill="#455A64"/>
<path d="M300.749 175.718L301.647 175.19L312.576 181.474L311.626 182.002L300.749 175.718Z" fill="#455A64"/>
<path d="M358.248 310.517L262.152 254.918V191.136L358.248 246.734V310.517Z" fill="#27DEBF"/>
<path d="M358.248 310.517L443.15 261.413V197.63L358.248 246.734V310.517Z" fill="#27DEBF"/>
<path opacity="0.1" d="M358.248 310.517L443.15 261.413V197.63L358.248 246.734V310.517Z" fill="black"/>
<path d="M404.87 229.469L398.64 233.059V223.344L404.87 219.754V229.469Z" fill="#37474F"/>
<path d="M398.64 223.344L302.544 167.746L308.774 164.155L404.87 219.754L398.64 223.344Z" fill="#455A64"/>
<path fill-rule="evenodd" clip-rule="evenodd" d="M323.03 280.051C321.763 279.312 320.812 277.464 320.812 275.827V269.333L325.301 272.026L325.617 271.973V272.395V278.203C325.617 279.101 325.301 279.787 324.72 280.157C324.509 280.262 324.28 280.315 324.033 280.315C323.717 280.315 323.382 280.227 323.03 280.051ZM323.505 273.082L323.189 275.352H321.499V275.827C321.499 277.147 322.397 278.837 323.4 279.418C323.664 279.576 324.033 279.682 324.35 279.523C324.72 279.312 324.878 278.837 324.878 278.203V272.818L323.505 273.082ZM322.872 272.448L324.192 272.237L321.499 270.653V274.613H322.555L322.872 272.448Z" fill="#455A64"/>
<path d="M323.189 284.909C323.4 284.909 323.559 284.75 323.559 284.592V279.734C323.559 279.523 323.4 279.365 323.189 279.365C323.031 279.365 322.819 279.523 322.819 279.734V284.592C322.819 284.75 323.031 284.909 323.189 284.909Z" fill="#455A64"/>
<path d="M325.301 286.123C325.459 286.123 325.565 286.07 325.618 285.965C325.723 285.806 325.67 285.542 325.512 285.49L321.288 283.008C321.13 282.955 320.866 283.008 320.76 283.166C320.707 283.325 320.76 283.536 320.918 283.642L325.142 286.07C325.178 286.106 325.23 286.123 325.301 286.123Z" fill="#455A64"/>
<path d="M337.973 293.621C338.114 293.621 338.237 293.603 338.342 293.568C338.606 293.41 338.765 293.04 338.765 292.67V291.667C338.765 291.456 338.606 291.298 338.448 291.298C338.237 291.298 338.078 291.456 338.078 291.667V292.67C338.078 292.829 338.026 292.882 337.973 292.934C337.973 292.934 337.867 292.934 337.762 292.829C337.445 292.67 337.075 291.931 337.075 291.192V284.75C337.075 284.539 336.917 284.381 336.706 284.381C336.494 284.381 336.336 284.539 336.336 284.75V291.192C336.336 292.142 336.811 293.146 337.392 293.462C337.568 293.568 337.762 293.621 337.973 293.621Z" fill="#455A64"/>
<path fill-rule="evenodd" clip-rule="evenodd" d="M332.112 282.427V282.216C332.112 280.685 332.64 279.576 333.591 278.995C334.594 278.467 335.808 278.573 337.128 279.312C339.716 280.79 341.775 284.434 341.775 287.39V288.024L332.112 282.427ZM333.96 279.629C333.274 279.998 332.904 280.843 332.852 282.005L340.983 286.704C340.719 284.117 338.923 281.213 336.759 279.946C336.125 279.576 335.492 279.365 334.964 279.365C334.576 279.365 334.242 279.453 333.96 279.629Z" fill="#455A64"/>
<path d="M352.545 301.805C352.757 301.805 352.915 301.646 352.915 301.435V289.08C352.915 288.869 352.757 288.71 352.545 288.71C352.334 288.71 352.176 288.869 352.176 289.08V301.435C352.176 301.646 352.334 301.805 352.545 301.805Z" fill="#455A64"/>
<path d="M353.602 291.878C353.672 291.878 353.725 291.878 353.76 291.878C353.919 291.773 354.024 291.562 353.972 291.403L352.652 288.394L351.226 290.083C351.068 290.189 351.12 290.453 351.226 290.558C351.384 290.717 351.648 290.664 351.754 290.558L352.44 289.766L353.285 291.667C353.338 291.826 353.496 291.878 353.602 291.878Z" fill="#455A64"/>
<path d="M349.166 299.851C349.378 299.851 349.536 299.693 349.536 299.534V287.179C349.536 286.968 349.378 286.81 349.166 286.81C349.008 286.81 348.85 286.968 348.85 287.179V299.534C348.85 299.693 349.008 299.851 349.166 299.851Z" fill="#455A64"/>
<path d="M350.275 289.977C350.31 289.977 350.345 289.96 350.38 289.925C350.592 289.872 350.644 289.661 350.592 289.449L349.272 286.493L347.846 288.129C347.74 288.288 347.74 288.499 347.899 288.657C348.057 288.763 348.268 288.763 348.427 288.605L349.113 287.813L349.905 289.766C349.958 289.872 350.116 289.977 350.275 289.977Z" fill="#455A64"/>
<path d="M291.509 249.163V265.162C291.509 265.795 291.087 266.006 290.506 265.742L265.531 251.328C265.003 251.011 264.581 250.219 264.581 249.638V233.64C264.581 233.006 265.003 232.742 265.584 233.059L290.506 247.474C291.087 247.79 291.509 248.53 291.509 249.163Z" fill="#FAFAFA"/>
<path d="M266.112 235.382L266.957 235.805V250.378L266.112 249.902V235.382Z" fill="#455A64"/>
<path d="M269.438 237.23L270.811 238.075V252.595L269.438 251.803V237.23Z" fill="#455A64"/>
<path d="M272.712 239.131L273.504 239.606V254.126L272.712 253.704V239.131Z" fill="#455A64"/>
<path d="M275.193 240.557L276.777 241.507V256.027L275.193 255.077V240.557Z" fill="#455A64"/>
<path d="M279.259 242.933L280.051 243.408V257.928L279.259 257.453V242.933Z" fill="#455A64"/>
<path d="M281.635 244.253L283.377 245.309V259.829L281.635 258.825V244.253Z" fill="#455A64"/>
<path d="M285.859 246.734L286.651 247.21V261.73L285.807 261.254L285.859 246.734Z" fill="#455A64"/>
<path d="M287.707 247.791L288.129 248.002V262.575L287.707 262.311V247.791Z" fill="#455A64"/>
<path d="M284.328 245.942L284.751 246.154V260.726L284.328 260.462V245.942Z" fill="#455A64"/>
<path d="M277.728 242.035L278.15 242.299V256.819L277.728 256.608V242.035Z" fill="#455A64"/>
<path d="M274.085 239.976L274.507 240.187V254.76L274.085 254.496V239.976Z" fill="#455A64"/>
<path d="M271.498 238.55L271.92 238.762V253.334L271.498 253.07V238.55Z" fill="#455A64"/>
<path d="M267.96 236.385L268.382 236.649V251.169L267.96 250.958V236.385Z" fill="#455A64"/>
<path d="M289.133 248.635L289.925 249.058V263.63L289.133 263.155V248.635Z" fill="#455A64"/>
<path opacity="0.1" d="M260.621 190.291L352.652 243.514L424.776 201.907L332.588 148.685L260.621 190.291Z" fill="black"/>
<path d="M256.396 161.198L333.59 116.635L423.667 168.643L346.473 213.206L256.396 161.198Z" fill="#27DEBF"/>
<path opacity="0.1" d="M256.396 161.198L333.59 116.635L423.667 168.643L346.473 213.206L256.396 161.198Z" fill="black"/>
<path d="M297.105 143.827L322.608 158.506C323.083 158.822 322.977 159.298 322.344 159.667L293.515 176.299C292.881 176.669 292.037 176.722 291.561 176.458L266.006 161.726C265.531 161.462 265.689 160.987 266.27 160.618L295.152 143.986C295.733 143.616 296.63 143.563 297.105 143.827Z" fill="#FAFAFA"/>
<path d="M284.17 168.854C284.011 168.854 283.8 168.749 283.747 168.59C283.589 168.326 283.642 168.01 283.906 167.851L307.877 154.07C308.088 153.912 308.405 153.965 308.563 154.229C308.722 154.493 308.616 154.81 308.405 154.968L284.434 168.802C284.363 168.837 284.275 168.854 284.17 168.854Z" fill="#E0E0E0"/>
<path d="M286.862 170.386C286.651 170.386 286.493 170.28 286.387 170.122C286.229 169.858 286.334 169.541 286.598 169.382L310.517 155.549C310.781 155.443 311.097 155.496 311.256 155.76C311.361 156.024 311.309 156.341 311.045 156.499L287.126 170.28C287.021 170.35 286.933 170.386 286.862 170.386Z" fill="#E0E0E0"/>
<path d="M289.503 171.917C289.292 171.917 289.133 171.811 289.028 171.653C288.869 171.389 288.975 171.072 289.239 170.914L313.157 157.08C313.421 156.922 313.738 157.027 313.896 157.291C314.055 157.555 313.949 157.872 313.685 158.03L289.767 171.811C289.661 171.882 289.573 171.917 289.503 171.917Z" fill="#E0E0E0"/>
<path d="M292.142 173.448C291.984 173.448 291.773 173.342 291.72 173.184C291.562 172.92 291.614 172.603 291.878 172.445L315.85 158.611C316.061 158.453 316.43 158.558 316.536 158.822C316.694 159.086 316.589 159.403 316.378 159.509L292.406 173.342C292.336 173.413 292.248 173.448 292.142 173.448Z" fill="#E0E0E0"/>
<path d="M268.436 161.093L269.333 160.565L280.263 166.848L279.312 167.376L268.436 161.093Z" fill="#455A64"/>
<path d="M272.236 158.875L273.82 157.978L284.75 164.261L283.113 165.211L272.236 158.875Z" fill="#455A64"/>
<path d="M275.985 156.71L276.936 156.182L287.813 162.466L286.915 162.994L275.985 156.71Z" fill="#455A64"/>
<path d="M278.837 155.021L280.738 153.965L291.615 160.248L289.767 161.357L278.837 155.021Z" fill="#455A64"/>
<path d="M283.589 152.328L284.486 151.8L295.416 158.083L294.466 158.611L283.589 152.328Z" fill="#455A64"/>
<path d="M286.281 150.744L288.288 149.583L299.217 155.919L297.211 157.027L286.281 150.744Z" fill="#455A64"/>
<path d="M291.14 147.945L292.09 147.417L303.02 153.701L302.069 154.229L291.14 147.945Z" fill="#455A64"/>
<path d="M293.304 146.678L293.779 146.414L304.656 152.698L304.233 153.014L293.304 146.678Z" fill="#455A64"/>
<path d="M289.502 149.002L289.924 148.685L300.854 155.021L300.379 155.285L289.502 149.002Z" fill="#455A64"/>
<path d="M281.794 153.384L282.269 153.067L293.199 159.403L292.724 159.667L281.794 153.384Z" fill="#455A64"/>
<path d="M277.622 155.76L278.097 155.496L289.027 161.832L288.552 162.096L277.622 155.76Z" fill="#455A64"/>
<path d="M274.666 157.555L275.141 157.291L286.071 163.574L285.596 163.838L274.666 157.555Z" fill="#455A64"/>
<path d="M270.547 159.826L271.022 159.562L281.899 165.898L281.424 166.162L270.547 159.826Z" fill="#455A64"/>
<path d="M294.94 145.781L295.891 145.2L306.768 151.536L305.87 152.064L294.94 145.781Z" fill="#455A64"/>
<path d="M346.473 242.933L256.396 190.925V161.198L346.473 213.206V242.933Z" fill="#27DEBF"/>
<g opacity="0.2">
<path d="M346.473 242.933L256.396 190.925V161.198L346.473 213.206V242.933Z" fill="black"/>
</g>
<path d="M346.474 242.933L423.667 198.369V168.643L346.474 213.206V242.933Z" fill="#27DEBF"/>
<path opacity="0.3" d="M346.474 242.933L423.667 198.369V168.643L346.474 213.206V242.933Z" fill="black"/>
<path d="M393.096 195.888L386.812 199.531V189.816L393.096 186.226V195.888Z" fill="#37474F"/>
<path d="M386.813 189.816L296.736 137.808L302.967 134.218L393.096 186.226L386.813 189.816Z" fill="#455A64"/>
<path fill-rule="evenodd" clip-rule="evenodd" d="M311.256 212.414C309.989 211.728 308.985 209.88 308.985 208.19V201.749L313.526 204.442L313.843 204.389V204.811V210.566C313.843 211.517 313.526 212.203 312.945 212.52C312.734 212.661 312.505 212.731 312.259 212.731C311.907 212.731 311.573 212.626 311.256 212.414ZM311.731 205.498L311.414 207.715H309.725V208.19C309.725 209.563 310.569 211.2 311.625 211.781C311.889 211.939 312.259 212.098 312.576 211.886C312.893 211.728 313.104 211.253 313.104 210.566V205.234L311.731 205.498ZM311.097 204.864L312.417 204.653L309.725 203.069V207.029H310.781L311.097 204.864Z" fill="#455A64"/>
<path d="M311.415 217.325C311.626 217.325 311.784 217.166 311.784 216.955V212.098C311.784 211.939 311.626 211.728 311.415 211.728C311.203 211.728 311.045 211.939 311.045 212.098V216.955C311.045 217.166 311.203 217.325 311.415 217.325Z" fill="#455A64"/>
<path d="M313.526 218.539C313.632 218.539 313.79 218.486 313.843 218.381C313.949 218.169 313.896 217.958 313.685 217.853L309.513 215.424C309.302 215.318 309.091 215.371 308.985 215.582C308.88 215.741 308.933 215.952 309.144 216.058L313.368 218.486C313.403 218.521 313.456 218.539 313.526 218.539Z" fill="#455A64"/>
<path d="M326.146 226.037C326.286 226.037 326.427 226.002 326.568 225.931C326.832 225.773 326.99 225.456 326.99 225.086V224.083C326.99 223.872 326.832 223.714 326.621 223.714C326.41 223.714 326.251 223.872 326.251 224.083V225.086C326.251 225.192 326.251 225.298 326.198 225.298C326.198 225.35 326.093 225.298 325.987 225.245C325.67 225.086 325.301 224.347 325.301 223.608V217.166C325.301 216.955 325.142 216.797 324.931 216.797C324.72 216.797 324.562 216.955 324.562 217.166V223.608C324.562 224.558 324.984 225.509 325.618 225.878C325.794 225.984 325.97 226.037 326.146 226.037Z" fill="#455A64"/>
<path fill-rule="evenodd" clip-rule="evenodd" d="M320.338 214.843V214.632C320.338 213.101 320.866 211.992 321.816 211.411C322.767 210.883 324.034 210.989 325.354 211.728C327.888 213.207 330 216.797 330 219.754V220.387L320.338 214.843ZM322.186 212.098C321.499 212.467 321.077 213.312 321.077 214.421L329.208 219.173C328.944 216.586 327.149 213.629 324.984 212.414C324.351 211.992 323.717 211.834 323.136 211.834C322.784 211.834 322.467 211.922 322.186 212.098Z" fill="#455A64"/>
<path d="M340.771 234.168C340.982 234.168 341.141 234.01 341.141 233.851V221.443C341.141 221.285 340.982 221.126 340.771 221.126C340.56 221.126 340.401 221.285 340.401 221.443V233.851C340.401 234.01 340.56 234.168 340.771 234.168Z" fill="#455A64"/>
<path d="M341.828 224.294C341.863 224.294 341.916 224.277 341.986 224.242C342.144 224.189 342.25 223.978 342.144 223.766L340.877 220.81L339.399 222.446C339.293 222.605 339.293 222.816 339.452 222.974C339.61 223.08 339.821 223.08 339.98 222.922L340.666 222.13L341.511 224.083C341.564 224.189 341.669 224.294 341.828 224.294Z" fill="#455A64"/>
<path d="M337.392 232.267C337.603 232.267 337.762 232.109 337.762 231.898V219.542C337.762 219.331 337.603 219.173 337.392 219.173C337.181 219.173 337.022 219.331 337.022 219.542V231.898C337.022 232.109 337.181 232.267 337.392 232.267Z" fill="#455A64"/>
<path d="M338.448 222.394C338.519 222.394 338.571 222.376 338.607 222.341C338.818 222.288 338.871 222.024 338.818 221.866L337.498 218.856L336.072 220.546C335.914 220.704 335.967 220.915 336.125 221.074C336.283 221.179 336.495 221.179 336.6 221.021L337.287 220.229L338.131 222.13C338.184 222.288 338.343 222.394 338.448 222.394Z" fill="#455A64"/>
<path d="M285.7 185.17V201.168C285.7 201.749 285.278 202.013 284.75 201.696L259.776 187.282C259.248 186.965 258.825 186.226 258.825 185.645V169.594C258.825 169.013 259.248 168.749 259.776 169.066L284.75 183.48C285.278 183.797 285.7 184.536 285.7 185.17Z" fill="#FAFAFA"/>
<path d="M260.356 171.336L261.148 171.811V186.331L260.356 185.909V171.336Z" fill="#455A64"/>
<path d="M263.631 173.237L265.056 174.082V188.602L263.631 187.81V173.237Z" fill="#455A64"/>
<path d="M266.904 175.138L267.749 175.613V190.133L266.904 189.658V175.138Z" fill="#455A64"/>
<path d="M269.386 176.563L271.023 177.514V192.034L269.386 191.083V176.563Z" fill="#455A64"/>
<path d="M273.504 178.939L274.296 179.414V193.934L273.504 193.459V178.939Z" fill="#455A64"/>
<path d="M275.88 180.259L277.569 181.262V195.835L275.88 194.779V180.259Z" fill="#455A64"/>
<path d="M280.051 182.688L280.843 183.163V197.736L280.051 197.261V182.688Z" fill="#455A64"/>
<path d="M281.952 183.797L282.322 184.008V198.528L281.952 198.317V183.797Z" fill="#455A64"/>
<path d="M278.573 181.896L278.943 182.16V196.68L278.573 196.469V181.896Z" fill="#455A64"/>
<path d="M271.973 178.042L272.342 178.306V192.826L271.973 192.614V178.042Z" fill="#455A64"/>
<path d="M268.33 175.982L268.752 176.194V190.766L268.33 190.502V175.982Z" fill="#455A64"/>
<path d="M265.742 174.557L266.112 174.768V189.288L265.742 189.077V174.557Z" fill="#455A64"/>
<path d="M262.205 172.392L262.627 172.603V187.176L262.205 186.912V172.392Z" fill="#455A64"/>
<path d="M283.325 184.589L284.17 185.064V199.637L283.325 199.162V184.589Z" fill="#455A64"/>
<path opacity="0.1" d="M299.429 364.056L228.835 404.765L176.035 374.246L246.734 333.643L299.429 364.056Z" fill="black"/>
<path d="M182.477 244.2L246.84 207.029L294.043 234.274L229.68 271.445L182.477 244.2Z" fill="#27DEBF"/>
<path opacity="0.1" d="M182.477 244.2L246.84 207.029L294.043 234.274L229.68 271.445L182.477 244.2Z" fill="black"/>
<path d="M246.207 212.362L226.46 223.766C226.09 223.978 226.196 224.347 226.671 224.611L248.952 237.494C249.428 237.758 250.114 237.811 250.484 237.653L270.231 226.248C270.6 226.037 270.495 225.667 270.02 225.35L247.738 212.52C247.263 212.256 246.576 212.203 246.207 212.362Z" fill="#FAFAFA"/>
<path d="M256.186 231.739C256.344 231.739 256.45 231.686 256.555 231.528C256.661 231.37 256.555 231.106 256.397 231L237.864 220.282C237.706 220.176 237.442 220.229 237.336 220.44C237.231 220.651 237.283 220.915 237.442 221.021L255.975 231.686C256.045 231.722 256.115 231.739 256.186 231.739Z" fill="#E0E0E0"/>
<path d="M254.126 232.901C254.284 232.901 254.39 232.848 254.496 232.742C254.601 232.531 254.548 232.267 254.337 232.162L235.804 221.496C235.646 221.338 235.382 221.443 235.276 221.602C235.171 221.813 235.224 222.077 235.435 222.182L253.915 232.848C253.985 232.883 254.056 232.901 254.126 232.901Z" fill="#E0E0E0"/>
<path d="M252.067 234.115C252.226 234.115 252.331 234.01 252.437 233.904C252.543 233.693 252.49 233.429 252.279 233.323L233.746 222.658C233.587 222.552 233.323 222.605 233.218 222.816C233.112 222.974 233.165 223.238 233.376 223.344L251.856 234.062C251.927 234.098 251.997 234.115 252.067 234.115Z" fill="#E0E0E0"/>
<path d="M250.008 235.277C250.166 235.277 250.272 235.224 250.377 235.066C250.483 234.854 250.43 234.643 250.219 234.538L231.686 223.819C231.528 223.714 231.264 223.766 231.158 223.978C231.053 224.189 231.105 224.4 231.317 224.558L249.797 235.224C249.867 235.259 249.937 235.277 250.008 235.277Z" fill="#E0E0E0"/>
<path d="M268.383 225.72L267.643 225.298L259.195 230.208L259.935 230.578L268.383 225.72Z" fill="#455A64"/>
<path d="M265.426 224.03L264.159 223.344L255.764 228.202L256.978 228.888L265.426 224.03Z" fill="#455A64"/>
<path d="M262.521 222.341L261.782 221.918L253.334 226.776L254.073 227.198L262.521 222.341Z" fill="#455A64"/>
<path d="M260.304 221.074L258.879 220.229L250.431 225.086L251.856 225.931L260.304 221.074Z" fill="#455A64"/>
<path d="M256.661 218.961L255.922 218.539L247.474 223.397L248.213 223.819L256.661 218.961Z" fill="#455A64"/>
<path d="M254.549 217.747L253.017 216.85L244.569 221.707L246.101 222.605L254.549 217.747Z" fill="#455A64"/>
<path d="M250.8 215.582L250.061 215.16L241.613 220.018L242.352 220.44L250.8 215.582Z" fill="#455A64"/>
<path d="M249.11 214.632L248.741 214.421L240.346 219.278L240.715 219.49L249.11 214.632Z" fill="#455A64"/>
<path d="M252.068 216.374L251.698 216.163L243.303 221.021L243.672 221.232L252.068 216.374Z" fill="#455A64"/>
<path d="M258.033 219.754L257.664 219.542L249.216 224.4L249.585 224.611L258.033 219.754Z" fill="#455A64"/>
<path d="M261.254 221.654L260.885 221.443L252.437 226.301L252.806 226.512L261.254 221.654Z" fill="#455A64"/>
<path d="M263.525 222.974L263.155 222.816L254.707 227.674L255.077 227.885L263.525 222.974Z" fill="#455A64"/>
<path d="M266.745 224.77L266.376 224.558L257.928 229.416L258.297 229.627L266.745 224.77Z" fill="#455A64"/>
<path d="M247.843 213.893L247.157 213.47L238.709 218.328L239.448 218.75L247.843 213.893Z" fill="#455A64"/>
<path d="M229.68 400.224L182.477 372.979V244.2L229.68 271.445V400.224Z" fill="#27DEBF"/>
<g opacity="0.2">
<path d="M229.68 400.224L182.477 372.979V244.2L229.68 271.445V400.224Z" fill="black"/>
</g>
<path d="M229.68 400.224L294.043 363.106V234.274L229.68 271.445V400.224Z" fill="#27DEBF"/>
<path opacity="0.3" d="M229.68 400.224L294.043 363.106V234.274L229.68 271.445V400.224Z" fill="black"/>
<path d="M264 261.307L257.77 264.898V255.235L264 251.645V261.307Z" fill="#37474F"/>
<path d="M257.77 255.235L210.566 227.99L216.797 224.4L264 251.645L257.77 255.235Z" fill="#455A64"/>
<path fill-rule="evenodd" clip-rule="evenodd" d="M194.463 369.706C193.196 369.019 192.245 367.171 192.245 365.534V359.04L196.733 361.733L197.05 361.68V362.102V367.858C197.05 368.808 196.733 369.494 196.152 369.811C195.941 369.952 195.712 370.022 195.466 370.022C195.149 370.022 194.815 369.917 194.463 369.706ZM194.938 362.789L194.621 365.059H192.932V365.534C192.932 366.854 193.829 368.491 194.832 369.072C195.096 369.23 195.466 369.389 195.783 369.23C196.152 369.019 196.311 368.544 196.311 367.858V362.525L194.938 362.789ZM194.304 362.155L195.624 361.944L192.932 360.36V364.32H193.988L194.304 362.155Z" fill="#455A64"/>
<path d="M194.621 374.616C194.832 374.616 194.99 374.458 194.99 374.246V369.389C194.99 369.23 194.832 369.072 194.621 369.072C194.462 369.072 194.251 369.23 194.251 369.389V374.246C194.251 374.458 194.462 374.616 194.621 374.616Z" fill="#455A64"/>
<path d="M196.732 375.83C196.891 375.83 196.996 375.778 197.049 375.672C197.155 375.461 197.102 375.25 196.944 375.144L192.72 372.715C192.561 372.61 192.297 372.662 192.192 372.874C192.139 373.032 192.192 373.243 192.35 373.349L196.574 375.778C196.609 375.813 196.662 375.83 196.732 375.83Z" fill="#455A64"/>
<path d="M209.404 383.328C209.545 383.328 209.668 383.293 209.774 383.222C210.038 383.064 210.196 382.747 210.196 382.377V381.374C210.196 381.163 210.038 381.005 209.88 381.005C209.668 381.005 209.51 381.163 209.51 381.374V382.377C209.51 382.536 209.457 382.589 209.404 382.589C209.404 382.641 209.299 382.641 209.193 382.536C208.876 382.377 208.507 381.638 208.507 380.899V374.457C208.507 374.246 208.348 374.088 208.137 374.088C207.926 374.088 207.768 374.246 207.768 374.457V380.899C207.768 381.85 208.243 382.8 208.824 383.169C209 383.275 209.193 383.328 209.404 383.328Z" fill="#455A64"/>
<path fill-rule="evenodd" clip-rule="evenodd" d="M203.544 372.134V371.923C203.544 370.392 204.072 369.283 205.022 368.702C206.026 368.174 207.24 368.28 208.56 369.019C211.147 370.498 213.206 374.088 213.206 377.045V377.678L203.544 372.134ZM205.392 369.389C204.706 369.758 204.336 370.603 204.283 371.765L212.414 376.464C212.15 373.877 210.355 370.92 208.19 369.706C207.557 369.336 206.923 369.125 206.395 369.125C206.008 369.125 205.674 369.213 205.392 369.389Z" fill="#455A64"/>
<path d="M223.978 391.459C224.189 391.459 224.348 391.301 224.348 391.142V378.787C224.348 378.576 224.189 378.417 223.978 378.417C223.767 378.417 223.608 378.576 223.608 378.787V391.142C223.608 391.301 223.767 391.459 223.978 391.459Z" fill="#455A64"/>
<path d="M225.034 381.586C225.104 381.586 225.157 381.568 225.192 381.533C225.35 381.48 225.456 381.269 225.35 381.058L224.083 378.101L222.658 379.738C222.499 379.896 222.552 380.16 222.658 380.266C222.816 380.371 223.08 380.371 223.186 380.213L223.872 379.421L224.717 381.374C224.77 381.48 224.928 381.586 225.034 381.586Z" fill="#455A64"/>
<path d="M220.598 389.558C220.809 389.558 220.968 389.4 220.968 389.189V376.833C220.968 376.675 220.809 376.464 220.598 376.464C220.44 376.464 220.281 376.675 220.281 376.833V389.189C220.281 389.4 220.44 389.558 220.598 389.558Z" fill="#455A64"/>
<path d="M221.707 379.685C221.743 379.685 221.778 379.667 221.813 379.632C222.024 379.579 222.077 379.368 222.024 379.157L220.704 376.2L219.279 377.837C219.173 377.995 219.173 378.206 219.331 378.365C219.49 378.47 219.701 378.47 219.859 378.312L220.546 377.52L221.338 379.474C221.391 379.579 221.549 379.685 221.707 379.685Z" fill="#455A64"/>
<path d="M225.404 352.07V368.016C225.404 368.65 224.928 368.914 224.4 368.597L199.426 354.182C198.898 353.866 198.476 353.126 198.476 352.493V336.494C198.476 335.861 198.898 335.65 199.426 335.966L224.4 350.381C224.928 350.698 225.404 351.437 225.404 352.07Z" fill="#FAFAFA"/>
<path d="M200.007 338.237L200.852 338.712V353.232L200.007 352.757V338.237Z" fill="#455A64"/>
<path d="M203.333 340.138L204.706 340.93V355.502L203.333 354.658V340.138Z" fill="#455A64"/>
<path d="M206.606 342.038L207.398 342.514V357.034L206.606 356.558V342.038Z" fill="#455A64"/>
<path d="M209.088 343.411L210.672 344.362V358.934L209.088 357.984V343.411Z" fill="#455A64"/>
<path d="M213.153 345.787L213.945 346.262V360.835L213.153 360.36V345.787Z" fill="#455A64"/>
<path d="M215.529 347.16L217.219 348.163V362.736L215.529 361.68V347.16Z" fill="#455A64"/>
<path d="M219.701 349.589L220.546 350.064V364.584L219.701 364.162V349.589Z" fill="#455A64"/>
<path d="M221.602 350.645L221.971 350.909V365.429L221.602 365.218V350.645Z" fill="#455A64"/>
<path d="M218.223 348.797L218.645 349.061V363.581L218.223 363.37V348.797Z" fill="#455A64"/>
<path d="M211.622 344.942L211.992 345.154V359.726L211.622 359.462V344.942Z" fill="#455A64"/>
<path d="M207.979 342.883L208.402 343.094V357.614L207.979 357.403V342.883Z" fill="#455A64"/>
<path d="M205.392 341.405L205.814 341.669V356.189L205.392 355.978V341.405Z" fill="#455A64"/>
<path d="M201.854 339.293L202.277 339.504V354.077L201.854 353.813V339.293Z" fill="#455A64"/>
<path d="M223.027 351.49L223.819 351.965V366.485L223.027 366.062V351.49Z" fill="#455A64"/>
<path opacity="0.1" d="M357.087 397.32L286.546 438.029L232.373 406.824L303.072 366.221L357.087 397.32Z" fill="black"/>
<path d="M240.557 343.834L304.92 306.715L352.123 333.96L287.76 371.079L240.557 343.834Z" fill="#27DEBF"/>
<g opacity="0.3">
<path d="M240.557 343.834L304.92 306.715L352.123 333.96L287.76 371.079L240.557 343.834Z" fill="white"/>
</g>
<path d="M304.287 312.048L284.54 323.4C284.17 323.611 284.276 324.034 284.751 324.298L307.032 337.181C307.508 337.445 308.194 337.498 308.564 337.286L328.311 325.934C328.68 325.723 328.575 325.301 328.1 325.037L305.818 312.154C305.343 311.89 304.656 311.837 304.287 312.048Z" fill="#FAFAFA"/>
<path d="M314.266 331.426C314.424 331.426 314.53 331.32 314.635 331.214C314.741 331.003 314.688 330.739 314.477 330.634L295.944 319.968C295.786 319.862 295.522 319.915 295.416 320.126C295.31 320.285 295.363 320.549 295.574 320.654L314.054 331.373C314.125 331.408 314.195 331.426 314.266 331.426Z" fill="#E0E0E0"/>
<path d="M312.206 332.587C312.365 332.587 312.47 332.534 312.576 332.376C312.681 332.165 312.629 331.954 312.417 331.795L293.885 321.13C293.726 321.024 293.462 321.077 293.357 321.288C293.251 321.499 293.304 321.71 293.515 321.816L311.995 332.534C312.065 332.57 312.136 332.587 312.206 332.587Z" fill="#E0E0E0"/>
<path d="M310.148 333.749C310.306 333.749 310.411 333.696 310.517 333.538C310.623 333.379 310.57 333.115 310.359 333.01L291.826 322.291C291.668 322.186 291.404 322.291 291.298 322.45C291.192 322.661 291.245 322.925 291.456 323.03L309.936 333.696C310.007 333.731 310.077 333.749 310.148 333.749Z" fill="#E0E0E0"/>
<path d="M308.088 334.963C308.246 334.963 308.352 334.858 308.458 334.752C308.563 334.541 308.51 334.277 308.299 334.171L289.766 323.506C289.608 323.4 289.344 323.453 289.238 323.664C289.133 323.822 289.186 324.086 289.397 324.192L307.877 334.858C307.947 334.928 308.018 334.963 308.088 334.963Z" fill="#E0E0E0"/>
<path d="M326.463 325.406L325.723 324.984L317.275 329.841L318.015 330.264L326.463 325.406Z" fill="#455A64"/>
<path d="M323.505 323.717L322.291 322.978L313.843 327.835L315.057 328.574L323.505 323.717Z" fill="#455A64"/>
<path d="M320.601 322.027L319.862 321.605L311.414 326.462L312.153 326.885L320.601 322.027Z" fill="#455A64"/>
<path d="M318.384 320.707L316.959 319.915L308.511 324.773L309.936 325.618L318.384 320.707Z" fill="#455A64"/>
<path d="M314.741 318.648L314.002 318.226L305.554 323.083L306.293 323.506L314.741 318.648Z" fill="#455A64"/>
<path d="M312.629 317.381L311.097 316.536L302.649 321.394L304.181 322.239L312.629 317.381Z" fill="#455A64"/>
<path d="M308.88 315.216L308.14 314.846L299.692 319.704L300.432 320.126L308.88 315.216Z" fill="#455A64"/>
<path d="M307.191 314.266L306.821 314.054L298.426 318.912L298.795 319.123L307.191 314.266Z" fill="#455A64"/>
<path d="M310.148 316.061L309.778 315.85L301.383 320.707L301.752 320.918L310.148 316.061Z" fill="#455A64"/>
<path d="M316.114 319.44L315.744 319.229L307.296 324.086L307.666 324.298L316.114 319.44Z" fill="#455A64"/>
<path d="M319.334 321.288L318.965 321.077L310.517 325.935L310.886 326.146L319.334 321.288Z" fill="#455A64"/>
<path d="M321.605 322.661L321.235 322.45L312.787 327.307L313.157 327.518L321.605 322.661Z" fill="#455A64"/>
<path d="M324.825 324.456L324.456 324.245L316.008 329.102L316.377 329.314L324.825 324.456Z" fill="#455A64"/>
<path d="M305.923 313.526L305.237 313.157L296.789 318.014L297.528 318.437L305.923 313.526Z" fill="#455A64"/>
<path d="M287.76 433.752L240.557 406.507V343.833L287.76 371.078V433.752Z" fill="#27DEBF"/>
<path d="M287.76 433.752L240.557 406.507V343.833L287.76 371.078V433.752Z" fill="#27DEBF"/>
<path d="M287.76 433.752L352.123 396.634V333.96L287.76 371.078V433.752Z" fill="#27DEBF"/>
<path opacity="0.1" d="M287.76 433.752L352.123 396.634V333.96L287.76 371.078V433.752Z" fill="black"/>
<path d="M322.08 360.994L315.85 364.584V354.869L322.08 351.278V360.994Z" fill="#37474F"/>
<path d="M315.85 354.869L268.646 327.624L274.877 324.034L322.08 351.278L315.85 354.869Z" fill="#455A64"/>
<path fill-rule="evenodd" clip-rule="evenodd" d="M346.157 390.614C345.981 390.614 345.822 390.562 345.681 390.456C345.312 390.245 345.101 389.77 345.101 389.189V385.387V385.07L345.312 385.123L348.269 383.381V387.605C348.269 388.714 347.635 389.928 346.79 390.403C346.579 390.544 346.368 390.614 346.157 390.614ZM345.576 385.651V389.189C345.576 389.611 345.681 389.928 345.945 390.034C346.157 390.192 346.368 390.086 346.579 389.981C347.213 389.611 347.793 388.502 347.793 387.605V387.288H346.685L346.473 385.81L345.576 385.651ZM347.107 386.813H347.793V384.226L345.998 385.229L346.896 385.387L347.107 386.813Z" fill="#455A64"/>
<path d="M346.685 393.624C346.579 393.624 346.474 393.518 346.474 393.413V390.192C346.474 390.086 346.579 389.928 346.685 389.928C346.843 389.928 346.949 390.086 346.949 390.192V393.413C346.949 393.518 346.843 393.624 346.685 393.624Z" fill="#455A64"/>
<path d="M345.312 394.416C345.207 394.416 345.154 394.363 345.101 394.31C345.048 394.205 345.048 394.046 345.154 393.993L347.952 392.357C348.058 392.304 348.216 392.357 348.269 392.462C348.375 392.568 348.322 392.726 348.216 392.779L345.418 394.416C345.383 394.416 345.347 394.416 345.312 394.416Z" fill="#455A64"/>
<path d="M336.969 399.379C336.864 399.379 336.776 399.362 336.705 399.326C336.547 399.221 336.441 399.01 336.441 398.746V398.059C336.441 397.954 336.547 397.848 336.653 397.848C336.811 397.848 336.917 397.954 336.917 398.059V398.746C336.917 398.851 336.917 398.851 336.969 398.904C336.969 398.904 337.022 398.886 337.128 398.851C337.339 398.746 337.55 398.27 337.55 397.742V393.518C337.55 393.36 337.656 393.254 337.761 393.254C337.92 393.254 338.025 393.36 338.025 393.518V397.742C338.025 398.376 337.709 399.01 337.339 399.274C337.233 399.344 337.11 399.379 336.969 399.379Z" fill="#455A64"/>
<path fill-rule="evenodd" clip-rule="evenodd" d="M334.436 395.63V395.261C334.436 393.307 335.808 390.931 337.498 389.928C338.396 389.453 339.188 389.347 339.821 389.717C340.455 390.086 340.824 390.826 340.824 391.829V391.987L334.436 395.63ZM338.924 389.928C338.536 389.928 338.132 390.051 337.709 390.298C336.284 391.142 335.122 393.096 334.911 394.786L340.296 391.67C340.296 390.931 340.032 390.403 339.557 390.139C339.381 389.999 339.17 389.928 338.924 389.928Z" fill="#455A64"/>
<path d="M327.36 404.712C327.201 404.712 327.096 404.606 327.096 404.501V396.369C327.096 396.211 327.201 396.105 327.36 396.105C327.465 396.105 327.571 396.211 327.571 396.369V404.501C327.571 404.606 327.465 404.712 327.36 404.712Z" fill="#455A64"/>
<path d="M326.673 398.218C326.638 398.218 326.603 398.218 326.568 398.218C326.462 398.165 326.409 398.007 326.409 397.901L327.307 395.895L328.257 397.003C328.31 397.109 328.31 397.267 328.204 397.32C328.099 397.426 327.94 397.426 327.888 397.32L327.412 396.792L326.884 398.059C326.832 398.165 326.726 398.218 326.673 398.218Z" fill="#455A64"/>
<path d="M329.577 403.498C329.419 403.498 329.313 403.392 329.313 403.234V395.102C329.313 394.944 329.419 394.838 329.577 394.838C329.683 394.838 329.789 394.944 329.789 395.102V403.234C329.789 403.392 329.683 403.498 329.577 403.498Z" fill="#455A64"/>
<path d="M328.891 396.95C328.856 396.95 328.821 396.95 328.786 396.95C328.627 396.898 328.574 396.739 328.627 396.634L329.525 394.627L330.422 395.736C330.528 395.842 330.528 396 330.422 396.106C330.317 396.158 330.158 396.158 330.106 396.053L329.63 395.525L329.102 396.792C329.05 396.898 328.944 396.95 328.891 396.95Z" fill="#455A64"/>
<path d="M292.829 407.88V423.879C292.829 424.459 293.252 424.723 293.78 424.407L318.754 409.992C319.282 409.675 319.757 408.936 319.757 408.355V392.304C319.757 391.723 319.282 391.459 318.754 391.776L293.78 406.191C293.252 406.507 292.829 407.247 292.829 407.88Z" fill="#FAFAFA"/>
<path d="M318.173 394.046L317.381 394.522V409.094L318.173 408.619V394.046Z" fill="#455A64"/>
<path d="M314.899 395.947L313.526 396.792V411.312L314.899 410.52V395.947Z" fill="#455A64"/>
<path d="M311.626 397.848L310.834 398.323V412.843L311.626 412.368V397.848Z" fill="#455A64"/>
<path d="M309.144 399.274L307.507 400.224V414.744L309.144 413.794V399.274Z" fill="#455A64"/>
<path d="M305.078 401.65L304.233 402.125V416.645L305.078 416.17V401.65Z" fill="#455A64"/>
<path d="M302.702 402.97L300.96 404.026V418.546L302.702 417.49V402.97Z" fill="#455A64"/>
<path d="M298.479 405.451L297.687 405.874V420.446L298.479 419.971V405.451Z" fill="#455A64"/>
<path d="M296.63 406.507L296.208 406.719V421.291L296.63 421.027V406.507Z" fill="#455A64"/>
<path d="M300.009 404.659L299.587 404.87V419.39L300.009 419.179V404.659Z" fill="#455A64"/>
<path d="M306.61 400.752L306.188 401.016V415.536L306.61 415.325V400.752Z" fill="#455A64"/>
<path d="M310.2 398.693L309.83 398.904V413.477L310.2 413.213V398.693Z" fill="#455A64"/>
<path d="M312.84 397.267L312.418 397.479V411.999L312.84 411.787V397.267Z" fill="#455A64"/>
<path d="M316.325 395.102L315.955 395.366V409.886L316.325 409.675V395.102Z" fill="#455A64"/>
<path d="M295.205 407.299L294.413 407.774V422.347L295.205 421.872V407.299Z" fill="#455A64"/>
<path d="M145.094 382.536C145.464 376.939 148.474 320.443 148.474 320.443L121.018 339.821C125.822 372.081 126.878 381.85 127.09 387.235C127.037 387.341 126.931 387.816 126.931 388.608C127.09 394.997 134.746 398.323 140.765 402.547C143.141 404.184 150.058 409.041 156.974 412.262C161.357 414.216 170.069 414.321 171.125 411.629C163.786 406.507 155.338 400.91 149.477 394.997C146.678 392.198 144.672 389.242 145.094 382.536Z" fill="#FFA8A7"/>
<path d="M183.533 418.334C183.902 418.334 184.536 422.242 182.582 423.878C180.259 425.832 173.553 429.053 164.525 428.05C155.496 427.099 150.585 424.512 146.942 421.714C143.299 418.915 138.177 414.902 134.059 414.11C130.31 413.371 126.139 411.84 124.925 410.731C123.71 409.622 123.763 404.712 123.763 404.712L183.533 418.334Z" fill="#263238"/>
<path d="M126.984 385.651C126.984 385.651 125.875 385.704 125.664 386.813C125.4 388.185 125.189 392.146 124.608 394.416C123.869 397.531 123.446 403.867 123.974 406.402C124.502 408.936 130.68 410.573 134.693 411.946C138.705 413.371 143.405 416.275 147.576 419.443C151.853 422.664 160.829 425.885 166.689 425.885C175.613 425.885 181.368 423.509 183.11 420.394C185.222 416.592 183.48 414.427 173.078 410.045C171.125 409.2 164.208 405.451 161.885 404.078C155.496 400.435 149.16 395.261 146.097 388.608C145.781 387.869 145.411 386.971 144.619 386.602C143.985 386.285 143.299 386.338 142.613 386.443C140.87 386.707 139.233 387.235 137.702 387.974C136.329 388.608 134.376 389.347 134.429 391.037C134.429 391.617 134.64 392.198 134.851 392.726C134.957 393.096 135.062 393.518 134.798 393.73C134.481 393.941 134.059 393.73 133.795 393.518C132.739 392.568 131.894 391.406 130.997 390.35C130.469 389.822 129.941 389.242 129.307 388.819C128.779 388.397 128.04 388.238 127.512 387.763C126.878 387.182 127.037 386.443 126.984 385.651Z" fill="#37474F"/>
<path d="M174.768 410.784C161.832 411.787 157.872 419.443 157.449 424.195C160.67 425.198 163.996 425.885 166.689 425.885C175.612 425.885 181.737 423.509 183.48 420.394C185.486 416.803 184.008 413.952 174.768 410.784Z" fill="#FAFAFA"/>
<path d="M155.337 411.154C155.196 411.154 155.073 411.118 154.968 411.048C154.651 410.837 154.651 410.467 154.862 410.203C156.604 408.091 161.779 405.24 166.478 405.61C166.848 405.662 167.059 405.979 167.059 406.296C167.006 406.613 166.742 406.877 166.372 406.824C161.937 406.454 157.238 409.253 155.812 410.942C155.707 411.101 155.548 411.154 155.337 411.154Z" fill="#F0F0F0"/>
<path d="M149.74 408.144C149.564 408.144 149.424 408.109 149.318 408.039C149.054 407.827 149.001 407.458 149.212 407.194C150.955 405.029 156.129 402.178 160.828 402.6C161.198 402.653 161.462 402.97 161.409 403.287C161.356 403.603 161.092 403.867 160.723 403.815C156.34 403.445 151.588 406.243 150.216 407.933C150.057 408.091 149.899 408.144 149.74 408.144Z" fill="#F0F0F0"/>
<path d="M144.461 404.712C144.32 404.712 144.197 404.659 144.091 404.554C143.827 404.342 143.775 403.973 143.986 403.709C145.728 401.597 150.903 398.746 155.602 399.168C155.971 399.221 156.183 399.485 156.183 399.802C156.13 400.171 155.866 400.382 155.496 400.382C151.114 399.96 146.362 402.811 144.989 404.448C144.831 404.606 144.672 404.712 144.461 404.712Z" fill="#F0F0F0"/>
<path d="M139.339 401.227C139.198 401.227 139.075 401.192 138.97 401.122C138.653 400.91 138.6 400.541 138.811 400.277C141.24 397.267 146.837 395.208 151.536 395.63C151.906 395.683 152.17 395.947 152.117 396.317C152.064 396.634 151.8 396.845 151.43 396.845C147.206 396.475 141.979 398.323 139.867 401.016C139.709 401.174 139.55 401.227 139.339 401.227Z" fill="#F0F0F0"/>
<path d="M99.8974 337.075L71.2798 330.898C70.4878 348.586 70.963 372.557 70.3822 389.189C70.2238 392.304 68.6398 413.477 69.5374 419.971C70.8574 429.739 83.9518 429.106 85.0606 423.351C86.1166 417.595 87.067 393.043 87.2782 390.509C87.9118 379.843 93.9838 361.944 98.2078 342.989C98.419 342.091 99.6862 337.973 99.8974 337.075Z" fill="#FFA8A7"/>
<path d="M89.6539 427.627C89.5483 433.33 88.7035 437.131 86.5915 440.51C84.4795 443.942 80.2027 445.157 75.8203 444.312C71.3851 443.52 65.6827 441.144 64.2043 436.286C62.7259 431.429 62.8315 428.05 63.5707 422.77L89.6539 427.627Z" fill="#263238"/>
<path d="M70.4351 387.182C68.6399 387.341 68.4287 394.997 67.7423 402.653C67.0031 410.89 64.4159 414.374 63.7295 421.133C62.9375 428.842 63.5711 432.221 66.7919 436.762C70.0655 441.25 81.0479 445.421 86.0639 438.557C90.1295 433.013 90.0239 426.994 89.2847 419.39C88.5455 411.47 87.9119 405.926 88.0175 399.907C88.0703 394.152 89.0735 388.819 87.4895 388.238C87.4367 389.083 87.3311 390.139 87.2783 390.984C87.1727 391.618 87.1727 394.733 86.1695 394.786C86.0111 394.046 86.0111 393.36 86.0111 392.621C86.0639 391.987 85.9583 391.301 85.4303 390.826C84.9551 390.298 83.3711 389.981 82.6319 389.875C80.8367 389.611 79.0415 389.4 77.2463 389.347C76.3311 389.312 75.4335 389.312 74.5535 389.347C73.8143 389.347 72.9695 389.453 72.2831 389.717C71.8607 389.875 71.4911 390.139 71.3327 390.509C71.2271 390.826 71.2799 391.09 71.2799 391.406C71.3151 391.934 71.2623 392.462 71.1215 392.99C71.0687 393.202 70.9103 393.518 70.6463 393.466C70.4351 393.413 70.3295 393.202 70.3295 392.99C70.2767 392.093 70.3823 391.406 70.3823 390.298C70.3823 389.822 70.4351 389.136 70.4351 388.661C70.4351 388.133 70.3823 387.658 70.4351 387.182Z" fill="#37474F"/>
<path d="M63.4123 425.568C63.3595 430.32 63.7819 433.594 66.3691 437.131C69.5899 441.672 81.47 445.79 86.486 438.926C88.9676 435.547 89.4956 431.64 89.654 427.627C86.222 422.611 68.2699 421.027 63.4123 425.568Z" fill="#FAFAFA"/>
<path d="M84.6914 419.443C84.5858 419.443 84.4978 419.426 84.4274 419.39C84.3746 419.39 76.877 416.645 68.8514 418.598C68.5346 418.651 68.165 418.493 68.0594 418.176C67.9538 417.859 68.165 417.542 68.5346 417.437C76.9826 415.377 84.6386 418.229 84.9554 418.334C85.325 418.44 85.4834 418.81 85.325 419.126C85.2194 419.338 84.9554 419.496 84.6914 419.443Z" fill="#F0F0F0"/>
<path d="M69.0629 412.843C68.7989 412.843 68.5877 412.685 68.4821 412.474C68.3237 412.157 68.4821 411.84 68.8517 411.734C76.7717 408.989 84.9029 412.315 85.2725 412.474C85.5893 412.632 85.7477 412.949 85.5893 413.266C85.4309 413.53 85.0085 413.688 84.6917 413.53C84.6389 413.477 76.7189 410.309 69.3269 412.79C69.2213 412.826 69.1333 412.843 69.0629 412.843Z" fill="#F0F0F0"/>
<path d="M69.2738 407.458C69.0098 407.458 68.7986 407.299 68.693 407.088C68.5346 406.771 68.693 406.454 69.0626 406.296C77.7746 403.181 85.4834 406.877 85.8002 407.035C86.117 407.194 86.2226 407.51 86.0642 407.827C85.9058 408.091 85.4834 408.197 85.1666 408.038C85.061 407.986 77.669 404.501 69.5378 407.405C69.4674 407.44 69.3794 407.458 69.2738 407.458Z" fill="#F0F0F0"/>
<path d="M69.5375 401.386C69.2735 401.386 69.0623 401.227 68.9567 401.016C68.7983 400.699 68.9567 400.382 69.3263 400.277C77.5103 397.214 85.8527 400.963 86.1695 401.122C86.5391 401.28 86.6447 401.597 86.4863 401.914C86.2751 402.178 85.9055 402.283 85.5887 402.178C85.4831 402.125 77.4047 398.481 69.8543 401.333C69.7487 401.368 69.6431 401.386 69.5375 401.386Z" fill="#EBEBEB"/>
<path d="M83.266 191.981C82.5796 224.189 76.8244 295.786 76.8244 295.786C76.3492 299.746 70.6468 316.589 70.4356 330.898C70.066 353.39 69.5908 370.392 69.5908 370.392C69.5908 370.392 82.1572 375.355 91.3972 371.923C91.3972 371.923 103.383 324.139 106.709 309.25C110.722 291.509 120.701 258.509 120.701 258.509L120.015 305.395C120.015 305.395 118.008 319.915 119.645 333.802C120.701 343.253 124.503 369.6 124.503 369.6C124.503 369.6 136.066 371.923 146.098 368.966C146.098 368.966 152.117 312.365 152.592 303.653C153.173 293.726 156.236 193.934 156.236 193.934L83.266 191.981Z" fill="#455A64"/>
<path d="M120.701 258.509L125.189 228.624C125.189 228.624 136.172 228.149 143.669 221.126C143.669 221.126 142.719 228.149 129.044 232.373L123.869 257.611L119.856 304.55L120.701 258.509Z" fill="#37474F"/>
<path d="M140.289 97.9969C146.097 97.7329 156.921 97.3633 164.736 106.92C170.174 113.678 185.117 129.888 193.565 140.606C199.214 134.693 212.995 120.384 215.213 116.213C218.064 111.302 219.489 106.445 220.387 103.91C221.443 100.637 221.865 98.1553 222.182 96.2017C222.869 91.6609 222.393 88.2817 222.341 86.5921C222.288 83.6881 226.565 85.1665 228.254 89.8129C229.469 93.1921 229.363 95.6209 229.521 97.6801C231.105 96.9409 235.752 94.6705 236.491 94.3009C239.025 93.1393 247.051 90.3409 247.843 94.8289C248.001 95.8849 247.685 96.9937 248.107 97.8913C248.318 98.3665 248.688 98.6833 249.005 99.1057C250.166 100.531 250.377 102.643 249.638 104.333C249.269 105.125 249.057 105.811 249.216 106.709C249.321 107.606 249.533 108.451 249.321 109.349C249.11 110.035 248.635 110.563 248.265 111.197C247.843 112.042 247.737 112.939 247.579 113.89C247.473 114.787 247.368 115.738 246.998 116.582C246.101 118.589 243.672 119.064 241.771 119.698C239.289 120.595 236.016 121.757 233.429 123.024C228.941 125.981 216.849 147.84 204.6 161.832C200.429 166.637 196.627 169.646 192.667 169.118H192.72C189.499 169.013 185.486 166.109 181.685 162.782C169.488 152.275 149.899 131.578 149.899 131.578C141.662 121.651 139.339 104.65 140.289 97.9969Z" fill="#FFA8A7"/>
<path d="M145.675 96.4128C149.529 96.9936 152.222 96.888 157.132 99.6864C161.462 102.115 162.993 104.227 168.009 109.824C173.025 115.421 185.011 129.994 185.011 129.994C185.011 129.994 179.942 142.19 164.102 146.626L146.625 129.677L145.675 96.4128Z" fill="#455A64"/>
<path d="M232.742 98.1553C230.261 99.0001 229.627 100.69 229.786 104.333C229.891 106.445 229.416 110.458 227.146 112.094C227.146 112.094 229.046 111.883 230.102 110.669C231.158 109.507 231.475 109.402 232.109 110.035C232.742 110.616 233.746 110.88 233.746 110.88C233.746 110.88 232.425 112.411 233.587 114.206C234.801 116.054 239.817 115.896 243.83 113.626C243.83 113.626 237.23 115.949 235.646 113.89C234.009 111.778 237.442 109.032 240.082 108.24C240.082 108.24 233.693 109.982 232.637 107.87C231.581 105.811 234.168 104.122 237.917 103.013C237.917 103.013 232.637 104.174 231.686 102.379C230.472 100.214 232.056 98.8945 232.742 98.1553Z" fill="#F28F8F"/>
<path d="M86.3278 99.6864C86.3278 99.6864 80.1502 105.125 78.5662 111.038C77.7742 113.942 77.035 116.371 79.5166 132.422C81.8398 147.787 81.8398 152.381 82.3678 164.314L82.9486 196.363C92.1358 207.134 136.699 212.942 158.136 198.475C158.136 198.475 158.241 142.93 156.71 124.608C155.707 112.147 151.905 100.478 147.629 96.6768C141.768 95.6736 136.171 94.9872 136.171 94.9872L114.734 93.72L86.3278 99.6864Z" fill="#27DEBF"/>
<path d="M146.942 55.1231C149.846 48.5759 147.048 39.9167 143.616 35.8511C138.705 29.9375 130.997 27.4031 119.433 28.0895C110.616 28.6703 101.957 32.3135 100.32 41.3423C93.2446 43.4543 94.0893 55.0703 95.8317 60.1919C99.3693 70.5935 106.392 79.6223 106.55 84.9551L146.942 55.1231Z" fill="#37474F"/>
<path d="M146.942 79.6225C145.57 84.6385 142.666 88.2817 138.019 89.0209C135.274 89.4433 130.68 89.0737 130.68 89.0737L130.891 95.4625C137.122 100.795 134.851 107.818 130.68 114.154C125.506 108.398 119.539 106.339 114.365 104.069C109.243 101.799 106.867 96.7825 106.867 96.7825L106.181 75.1873C106.181 75.1873 103.33 78.4081 98.6833 75.3457C95.4625 73.2337 93.1393 67.8481 95.4625 62.8321C97.7857 57.9745 102.432 59.9809 103.858 61.4593C105.283 62.9377 106.973 65.7361 108.187 65.3665C109.982 64.7329 110.563 63.6241 111.038 62.4097C111.883 60.2977 112.464 57.6049 112.57 52.9057C113.837 52.2721 115.104 51.3217 116.213 50.1073C118.166 47.8897 119.275 45.2497 119.328 42.8737C129.36 39.7057 140.923 41.1841 145.094 44.4049C147.47 48.6289 147.576 58.4497 147.998 64.1521C148.421 70.2769 148.104 75.3985 146.942 79.6225Z" fill="#FFA8A7"/>
<path d="M130.68 89.0737C125.558 88.7569 115.209 86.3809 112.464 83.5297C109.718 80.6257 108.557 74.7649 108.557 74.7649C108.557 74.7649 108.979 82.2097 111.091 85.4305C113.203 88.7041 118.589 90.1297 121.862 90.9745C125.136 91.7665 130.785 92.2945 130.785 92.2945L130.68 89.0737Z" fill="#F28F8F"/>
<path d="M130.68 114.154C127.987 112.517 122.074 105.758 119.117 108.926C116.16 112.042 114.576 112.886 112.622 112.306C110.669 111.725 106.392 107.501 103.541 104.386C100.742 101.27 99.8447 96.8352 99.8447 96.8352C99.8447 96.8352 102.59 93.5088 103.805 91.2912C105.178 88.968 104.861 88.2816 106.603 88.176L106.709 92.6112C106.709 92.6112 107.818 95.04 112.622 98.3664C117.48 101.64 127.195 106.55 130.68 114.154Z" fill="#455A64"/>
<path d="M130.68 114.153C132.264 112.675 134.851 105.864 135.537 106.075C136.593 106.392 138.441 111.091 139.286 109.982C140.712 108.24 140.289 100.373 137.966 97.4687C135.696 94.7231 132.528 91.5551 130.732 91.2383L130.891 95.4623C130.891 95.4623 132.633 98.8943 132.633 102.273C132.58 104.649 130.996 111.883 130.68 114.153Z" fill="#455A64"/>
<path d="M127.459 60.8256C127.459 62.04 126.509 62.9904 125.4 62.9904C124.238 62.9904 123.288 62.04 123.288 60.8256C123.288 59.664 124.238 58.7136 125.347 58.7136C126.509 58.7136 127.459 59.664 127.459 60.8256Z" fill="#263238"/>
<path d="M124.555 54.2257L120.331 57.0241C119.592 55.8625 119.909 54.2257 121.07 53.4337C122.232 52.6417 123.763 53.0113 124.555 54.2257Z" fill="#263238"/>
<path d="M144.672 56.1791L140.078 53.9615C140.659 52.6415 142.137 52.0607 143.405 52.6943C144.672 53.2751 145.253 54.8591 144.672 56.1791Z" fill="#263238"/>
<path d="M143.141 60.72C143.141 61.9344 142.191 62.8848 141.082 62.8848C139.92 62.8848 138.97 61.9344 138.97 60.72C138.97 59.5056 139.92 58.5552 141.029 58.5552C142.191 58.5552 143.141 59.5056 143.141 60.72Z" fill="#263238"/>
<path d="M132.211 56.3904L133.689 71.3328L141.715 68.904L132.211 56.3904Z" fill="#F28F8F"/>
<path d="M127.459 74.7649L136.013 76.6657C135.538 79.1473 133.267 80.6785 130.891 80.1505C128.515 79.6753 126.984 77.2465 127.459 74.7649Z" fill="#B16668"/>
<path d="M130.891 80.1505C131.049 80.2033 131.208 80.2033 131.419 80.2561C131.366 78.0913 129.571 76.3489 127.406 76.3489C127.67 78.1969 128.99 79.7809 130.891 80.1505Z" fill="#F28F8F"/>
<path d="M200.165 147.312L144.038 158.294L123.341 225.773L176.774 213.893L200.165 147.312Z" fill="#263238"/>
<path opacity="0.1" d="M153.384 198.106C153.014 199.901 150.744 205.762 144.302 207.451C136.91 209.405 129.201 206.607 129.201 206.607L130.944 200.957L153.384 198.106Z" fill="black"/>
<path opacity="0.1" d="M183.374 156.235C183.374 156.235 183.638 155.285 183.955 154.123C184.272 153.014 181.051 152.75 176.722 153.542L168.485 155.126C164.155 155.971 160.406 157.555 160.09 158.717L159.456 160.776L183.374 156.235Z" fill="black"/>
<path d="M187.704 148.526C187.916 147.787 186.648 147.523 184.8 147.893L181.527 148.579C181.527 148.579 182.794 144.091 175.56 145.2C168.274 146.362 166.373 151.43 166.373 151.43C166.373 151.43 164.842 151.747 162.888 152.17C160.988 152.592 159.192 153.49 158.928 154.229L158.4 155.496L187.335 149.846C187.335 149.846 187.493 149.213 187.704 148.526Z" fill="#27DEBF"/>
<path opacity="0.3" d="M187.704 148.526C187.916 147.787 186.648 147.523 184.8 147.893L181.527 148.579C181.527 148.579 182.794 144.091 175.56 145.2C168.274 146.362 166.373 151.43 166.373 151.43C166.373 151.43 164.842 151.747 162.888 152.17C160.988 152.592 159.192 153.49 158.928 154.229L158.4 155.496L187.335 149.846C187.335 149.846 187.493 149.213 187.704 148.526Z" fill="black"/>
<path d="M160.406 158.928C160.67 157.978 163.31 156.71 166.689 155.866C166.724 155.725 166.76 155.602 166.795 155.496C167.059 154.546 166.636 153.859 164.63 154.282L164.472 153.49L184.536 149.741L183.638 150.533C180.998 151.008 179.889 151.272 179.414 153.067C179.361 153.173 179.308 153.331 179.308 153.437C182.424 153.067 184.588 153.437 184.324 154.334C183.955 155.496 183.691 156.446 183.691 156.446L159.825 161.04L160.406 158.928Z" fill="#27DEBF"/>
<path opacity="0.4" d="M160.406 158.928C160.67 157.978 163.31 156.71 166.689 155.866C166.724 155.725 166.76 155.602 166.795 155.496C167.059 154.546 166.636 153.859 164.63 154.282L164.472 153.49L184.536 149.741L183.638 150.533C180.998 151.008 179.889 151.272 179.414 153.067C179.361 153.173 179.308 153.331 179.308 153.437C182.424 153.067 184.588 153.437 184.324 154.334C183.955 155.496 183.691 156.446 183.691 156.446L159.825 161.04L160.406 158.928Z" fill="black"/>
<path d="M135.38 186.542C142.244 188.866 149.108 189.024 156.236 189.024C157.978 189.024 159.298 189.288 159.826 190.925C159.984 191.506 160.248 192.35 157.978 192.984C157.397 193.195 156.605 193.406 156.236 193.934C155.708 194.726 155.972 195.571 155.866 196.522C155.655 197.947 154.652 199.109 153.701 200.165C152.645 201.379 151.536 202.594 150.164 203.438C145.834 206.184 139.128 206.554 134.165 205.709C130.839 205.181 127.46 203.966 124.292 202.805C121.282 201.696 102.855 196.258 100.69 195.518C84.4276 189.816 62.0932 182.899 60.7732 175.19C59.4532 167.482 63.5716 143.458 66.5284 123.922C68.9044 108.134 75.346 102.485 85.6948 100.32C97.0996 113.256 89.9188 135.643 89.9188 135.643L85.7476 165.475C87.5428 166.954 114.101 181.843 118.695 183.374C120.384 183.902 123.5 183.216 125.136 182.688C129.572 181.157 132.634 181.262 136.911 181.474" fill="#FFA8A7"/>
<path d="M86.3281 99.6865C75.2929 101.218 68.7457 106.867 66.5281 117.533C64.6801 126.509 61.1953 155.496 61.1953 155.496C68.5345 161.991 80.5729 161.621 87.0673 159.351L90.4465 136.066C93.1393 130.099 97.3633 112.359 86.3281 99.6865Z" fill="#455A64"/>
<path d="M79.2527 193.881L73.6559 196.944C73.0223 197.313 72.4415 198.264 72.3887 199.003C72.2831 204.019 71.8607 221.126 72.6527 230.525C72.7583 231.317 73.3391 232.214 74.0255 232.637C77.1935 234.379 85.7999 239.131 89.7071 240.187C90.4463 240.398 91.6607 240.187 92.3999 239.923L96.3599 238.286C97.0991 238.022 97.6799 237.177 97.6799 236.385C97.6799 226.406 99.4223 215.477 101.059 204.6C101.165 203.861 100.742 202.963 100.003 202.593L81.7343 193.776C81.0479 193.459 79.9391 193.512 79.2527 193.881Z" fill="#455A64"/>
<path d="M72.6527 230.525C71.8607 221.126 72.2831 204.019 72.3887 199.003C72.4415 198.264 73.0223 197.894 73.7087 198.264L90.7103 206.712C91.3967 207.029 91.9247 207.926 91.8719 208.718C91.5023 213.153 90.4991 227.304 91.0271 239.026C91.0799 239.818 90.4463 240.398 89.7071 240.187C85.7999 239.131 77.1935 234.379 74.0255 232.637C73.3391 232.214 72.7583 231.317 72.6527 230.525Z" fill="#37474F"/>
<path d="M89.918 240.24C90.6572 240.398 91.766 240.187 92.3996 239.923L96.3596 238.286C97.0988 238.022 97.574 237.178 97.6268 236.386C98.4188 226.142 99.422 215.477 101.059 204.6C101.112 204.23 101.059 203.861 100.848 203.544L91.6604 207.715C91.8188 208.032 91.8716 208.402 91.8716 208.718C91.502 213.154 90.446 227.304 91.0268 239.026C91.0796 239.712 90.5516 240.293 89.918 240.24Z" fill="#263238"/>
<path d="M75.7153 202.541L88.2289 208.613L87.5425 218.75L75.3457 213.418C75.3457 213.418 75.4513 206.87 75.7153 202.541Z" fill="#263238"/>
<path d="M87.5954 218.011L76.085 212.942C76.085 212.942 76.1378 207.134 76.349 202.858L88.229 208.613L87.5954 218.011Z" fill="#27DEBF"/>
<path opacity="0.4" d="M87.5954 218.011L76.085 212.942C76.085 212.942 76.1378 207.134 76.349 202.858L88.229 208.613L87.5954 218.011Z" fill="black"/>
<path d="M93.4563 201.907L90.3411 203.386L79.1475 197.947L82.1571 196.416L93.4563 201.907Z" fill="#263238"/>
<path d="M92.9805 202.118L90.3405 203.386L79.6221 198.158L82.2093 196.838L92.9805 202.118Z" fill="#27DEBF"/>
<path opacity="0.4" d="M92.9805 202.118L90.3405 203.386L79.6221 198.158L82.2093 196.838L92.9805 202.118Z" fill="black"/>
<path opacity="0.4" d="M91.3963 201.379L88.7563 202.594L88.3867 202.435L91.0267 201.168L91.3963 201.379Z" fill="black"/>
<path opacity="0.4" d="M89.0203 200.165L86.3803 201.432L86.0107 201.274L88.6507 200.006L89.0203 200.165Z" fill="black"/>
<path opacity="0.4" d="M86.6444 199.056L84.0044 200.27L83.6348 200.112L86.2748 198.845L86.6444 199.056Z" fill="black"/>
<path opacity="0.4" d="M84.4803 198L81.8403 199.214L81.4707 199.056L84.1107 197.789L84.4803 198Z" fill="black"/>
<path d="M88.07 222.235L88.0172 223.502C87.9644 223.872 87.6476 224.083 87.278 223.925L85.0604 223.027C84.6908 222.869 84.4268 222.446 84.4268 222.024L84.5324 220.757C84.5324 220.387 84.8492 220.176 85.2188 220.334L87.4892 221.285C87.8588 221.443 88.1228 221.866 88.07 222.235Z" fill="#263238"/>
<path d="M88.1236 226.354L88.018 227.621C88.018 227.99 87.7012 228.202 87.3316 228.043L85.0612 227.146C84.7444 226.987 84.4276 226.565 84.4804 226.195L84.5332 224.928C84.5332 224.506 84.85 224.347 85.1668 224.453L87.49 225.403C87.8596 225.509 88.1236 225.931 88.1236 226.354Z" fill="#263238"/>
<path d="M88.1237 230.419L88.0709 231.686C88.0709 232.056 87.7541 232.267 87.3845 232.162L85.1141 231.264C84.7445 231.158 84.4805 230.736 84.4805 230.314L84.5333 229.046C84.5333 228.677 84.8501 228.466 85.1669 228.624L87.4901 229.469C87.8597 229.627 88.1237 230.05 88.1237 230.419Z" fill="#263238"/>
<path d="M88.1765 234.537L88.1237 235.752C88.1237 236.174 87.8069 236.385 87.4373 236.227L85.1669 235.435C84.7973 235.277 84.4805 234.854 84.4805 234.485L84.5333 233.217C84.5333 232.795 84.7973 232.584 85.1669 232.742L87.4901 233.587C87.8597 233.693 88.1765 234.115 88.1765 234.537Z" fill="#263238"/>
<path d="M83.0543 219.965L82.9487 221.232C82.9487 221.654 82.6319 221.813 82.2623 221.707L80.0447 220.757C79.6751 220.598 79.4111 220.176 79.4111 219.806L79.4639 218.434C79.4639 218.064 79.7807 217.853 80.1503 218.011L82.4207 218.962C82.7903 219.12 83.0543 219.542 83.0543 219.965Z" fill="#263238"/>
<path d="M83.0015 224.03L82.9487 225.298C82.9487 225.72 82.6319 225.878 82.2623 225.773L80.0447 224.822C79.6751 224.664 79.3583 224.242 79.4111 223.872L79.4639 222.499C79.4639 222.13 79.7807 221.971 80.0975 222.077L82.4207 223.027C82.7375 223.186 83.0543 223.608 83.0015 224.03Z" fill="#263238"/>
<path d="M83.0016 228.043L82.9488 229.363C82.9488 229.786 82.632 229.944 82.2624 229.786L79.992 228.888C79.6752 228.783 79.3584 228.307 79.3584 227.938L79.4112 226.618C79.4112 226.195 79.728 226.037 80.0976 226.143L82.368 227.093C82.7376 227.251 83.0016 227.674 83.0016 228.043Z" fill="#263238"/>
<path d="M83.0016 232.109L82.9488 233.429C82.896 233.798 82.632 234.01 82.2624 233.851L79.992 232.954C79.6224 232.848 79.3584 232.426 79.3584 232.003L79.4112 230.683C79.4112 230.314 79.728 230.102 80.0448 230.261L82.368 231.158C82.7376 231.317 83.0016 231.739 83.0016 232.109Z" fill="#263238"/>
<path d="M77.9859 217.641L77.9331 219.014C77.9331 219.384 77.6163 219.595 77.2467 219.437L75.0291 218.486C74.6595 218.328 74.3955 217.905 74.3955 217.536L74.4483 216.11C74.4483 215.741 74.7123 215.582 75.0819 215.688L77.3523 216.638C77.7219 216.797 77.9859 217.272 77.9859 217.641Z" fill="#263238"/>
<path d="M77.9859 221.602L77.9331 222.974C77.9331 223.344 77.6163 223.502 77.2467 223.397L75.0291 222.446C74.6595 222.288 74.3955 221.866 74.3955 221.496L74.4483 220.07C74.4483 219.701 74.7651 219.49 75.0819 219.648L77.3523 220.598C77.7219 220.757 77.9859 221.179 77.9859 221.602Z" fill="#263238"/>
<path d="M77.9858 225.509L77.933 226.882C77.933 227.304 77.6162 227.462 77.2994 227.304L75.029 226.406C74.7122 226.248 74.3954 225.825 74.4482 225.403V224.03C74.4482 223.661 74.765 223.449 75.1346 223.608L77.3522 224.558C77.7218 224.717 77.9858 225.139 77.9858 225.509Z" fill="#263238"/>
<path d="M77.9858 229.469V230.842C77.933 231.211 77.669 231.422 77.2994 231.264L75.0818 230.366C74.7122 230.208 74.4482 229.786 74.4482 229.363V227.99C74.501 227.568 74.765 227.41 75.1346 227.568L77.405 228.518C77.7218 228.677 78.0386 229.099 77.9858 229.469Z" fill="#263238"/>
<path d="M304.18 94.0896L291.086 101.64L296.26 113.309C296.419 113.573 296.577 113.731 296.788 113.837C297.422 114.206 301.065 116.318 301.276 116.424C301.91 116.794 302.755 116.53 303.019 115.738L308.668 96.6768L304.18 94.0896Z" fill="#27DEBF"/>
<path opacity="0.1" d="M304.18 94.0896L291.086 101.64L296.26 113.309C296.419 113.573 296.577 113.731 296.788 113.837C297.422 114.206 301.065 116.318 301.276 116.424C301.91 116.794 302.755 116.53 303.019 115.738L308.668 96.6768L304.18 94.0896Z" fill="black"/>
<path d="M295.574 104.227L300.801 115.896C301.224 116.899 302.702 116.794 303.019 115.738L308.669 96.6768L295.574 104.227Z" fill="#27DEBF"/>
<path d="M320.602 20.5921L271.339 49.0513C270.706 49.4209 270.23 50.2657 270.23 51.0049V112.147C270.23 112.834 270.706 113.731 271.339 114.048L275.405 116.318C276.038 116.688 277.042 116.688 277.675 116.318L326.938 87.9121C327.571 87.5425 328.046 86.6449 328.046 85.9585V24.8161C328.046 24.0769 327.518 23.2321 326.938 22.8625L322.872 20.5921C322.238 20.2753 321.235 20.2753 320.602 20.5921Z" fill="#27DEBF"/>
<path opacity="0.5" d="M328.046 24.6048C327.94 24.024 327.465 23.8656 326.937 24.1824L277.675 52.5888C277.358 52.8 277.094 53.1168 276.883 53.4336L270.547 49.8432C270.758 49.5264 271.022 49.2096 271.339 49.0512L320.601 20.592C321.235 20.2752 322.238 20.2224 322.872 20.592L326.937 22.8624C327.465 23.1792 327.94 23.9184 328.046 24.6048Z" fill="white"/>
<path d="M276.566 115.685V54.5425C276.566 53.8561 277.042 52.9585 277.675 52.5889L326.938 24.1825C327.571 23.8129 328.046 24.0769 328.046 24.8161V85.9585C328.046 86.6449 327.571 87.5425 326.938 87.9121L277.675 116.318C277.042 116.688 276.566 116.371 276.566 115.685Z" fill="#27DEBF"/>
<path opacity="0.1" d="M277.675 116.318C277.094 116.688 275.986 116.688 275.405 116.318L271.339 114.048C270.706 113.731 270.23 112.834 270.23 112.147V51.0049C270.23 50.6353 270.336 50.2129 270.6 49.8433L276.883 53.4337C276.672 53.8033 276.514 54.1729 276.514 54.5425V115.685C276.566 116.318 276.989 116.688 277.675 116.318Z" fill="black"/>
<path fill-rule="evenodd" clip-rule="evenodd" d="M281.794 71.5967C281.723 71.5967 281.635 71.5615 281.53 71.4911C281.371 71.3855 281.266 71.2271 281.266 71.0159V60.3503C281.266 60.1919 281.371 59.9807 281.53 59.8751L290.77 54.5423C290.928 54.4367 291.139 54.4367 291.298 54.5423C291.509 54.6479 291.614 54.8591 291.614 55.0703V65.6831C291.614 65.8943 291.509 66.1055 291.298 66.1583L282.11 71.4911C282.005 71.5615 281.899 71.5967 281.794 71.5967ZM282.374 60.7199V70.0127L290.453 65.3663V56.0207L282.374 60.7199Z" fill="#FAFAFA"/>
<path d="M292.09 52.3776C291.562 52.1664 290.875 52.4304 290.664 52.9584L286.44 63.0432L285.437 62.04C284.962 61.6176 284.275 61.6176 283.853 62.0928C283.431 62.5152 283.431 63.2016 283.853 63.6768L286.018 65.7888C286.229 66 286.546 66.1056 286.81 66.1056C286.88 66.1056 286.951 66.088 287.021 66.0528C287.391 66 287.707 65.736 287.866 65.4192L292.723 53.856C292.935 53.2752 292.671 52.6416 292.09 52.3776Z" fill="#455A64"/>
<path d="M298.848 54.2255L322.344 40.6559C323.188 40.1807 323.822 40.5503 323.822 41.4479C323.822 42.2927 323.188 43.4015 322.344 43.8767L298.848 57.4463C298.056 57.9215 297.369 57.6047 297.369 56.7071C297.369 55.8095 298.056 54.7007 298.848 54.2255Z" fill="#455A64"/>
<path fill-rule="evenodd" clip-rule="evenodd" d="M281.794 87.5425C281.723 87.5425 281.635 87.5249 281.53 87.4897C281.371 87.3841 281.266 87.1729 281.266 86.9617V76.3489C281.266 76.1377 281.371 75.9265 281.53 75.8209L290.77 70.5409C290.928 70.4353 291.139 70.4353 291.298 70.5409C291.509 70.6465 291.614 70.8049 291.614 71.0161V81.6289C291.614 81.8401 291.509 82.0513 291.298 82.1569L282.11 87.4897C282.005 87.5249 281.899 87.5425 281.794 87.5425ZM282.374 76.6657V86.0113L290.453 81.3121V72.0193L282.374 76.6657Z" fill="#FAFAFA"/>
<path d="M292.09 68.3232C291.562 68.112 290.875 68.376 290.664 68.9568L286.44 78.9888L285.437 78.0384C284.962 77.5632 284.275 77.616 283.853 78.0384C283.431 78.4608 283.431 79.2 283.853 79.6224L286.018 81.7344C286.229 81.9456 286.546 82.0512 286.81 82.0512C286.88 82.0512 286.951 82.0512 287.021 82.0512C287.391 81.9456 287.707 81.7344 287.866 81.3648L292.723 69.8016C292.935 69.2208 292.671 68.5872 292.09 68.3232Z" fill="#455A64"/>
<path d="M298.848 70.1711L322.344 56.6015C323.188 56.1263 323.822 56.4431 323.822 57.3407C323.822 58.2383 323.188 59.3471 322.344 59.7695L298.848 73.3919C298.056 73.8143 297.369 73.4975 297.369 72.5999C297.369 71.7023 298.056 70.6463 298.848 70.1711Z" fill="#455A64"/>
<path fill-rule="evenodd" clip-rule="evenodd" d="M281.794 103.488C281.723 103.488 281.635 103.47 281.53 103.435C281.371 103.33 281.266 103.118 281.266 102.96V92.2944C281.266 92.0832 281.371 91.9248 281.53 91.8192L290.77 86.4864C290.928 86.3808 291.139 86.3808 291.298 86.4864C291.509 86.592 291.614 86.7504 291.614 86.9616V97.6272C291.614 97.8384 291.509 97.9968 291.298 98.1024L282.11 103.435C282.005 103.47 281.899 103.488 281.794 103.488ZM282.374 92.6112V101.957L290.453 97.3104V87.9648L282.374 92.6112Z" fill="#FAFAFA"/>
<path d="M292.09 84.3216C291.562 84.0576 290.875 84.3216 290.664 84.9024L286.44 94.9344L285.437 93.984C284.962 93.5616 284.275 93.5616 283.853 93.984C283.431 94.4592 283.431 95.1456 283.853 95.568L286.018 97.68C286.229 97.8912 286.546 97.9968 286.81 97.9968C286.88 97.9968 286.951 97.9968 287.021 97.9968C287.391 97.944 287.707 97.68 287.866 97.3104L292.723 85.7472C292.935 85.2192 292.671 84.5328 292.09 84.3216Z" fill="#455A64"/>
<path d="M298.848 86.0641L322.344 72.4945C323.188 72.0193 323.822 72.3889 323.822 73.2337C323.822 74.1313 323.188 75.2401 322.344 75.7153L298.848 89.2849C298.056 89.7601 297.369 89.3905 297.369 88.5457C297.369 87.6481 298.056 86.5393 298.848 86.0641Z" fill="#455A64"/>
</svg>
